<?xml version="1.0" encoding="utf-8"?>
<!-- Uploaded to: SVG Repo, www.svgrepo.com, Generator: SVG Repo Mixer Tools -->
<svg fill="#000000" width="800px" height="800px" viewBox="0 0 32 32" version="1.1" xmlns="http://www.w3.org/2000/svg">
<title>camcorder</title>
<path d="M30.395 8.863c-0.112-0.071-0.248-0.113-0.395-0.113-0.122 0-0.238 0.030-0.34 0.082l0.004-0.002-6.938 3.468c-0.106-1.426-1.287-2.543-2.729-2.548h-14.24c-0.008-1.408-0.008-2.817 0.013-4.224 0-0.009 0.001-0.019 0.001-0.029 0-0.069-0.009-0.136-0.025-0.2l0.001 0.006c0.098-0.032 0.211-0.050 0.328-0.050 0.034 0 0.068 0.002 0.102 0.005l-0.004-0 13.828-0.006c0.414 0 0.75-0.336 0.75-0.75s-0.336-0.75-0.75-0.75v0l-13.83 0.006c-0.055-0.006-0.119-0.009-0.183-0.009-0.565 0-1.072 0.247-1.419 0.64l-0.002 0.002c-0.187 0.286-0.298 0.637-0.298 1.013 0 0.035 0.001 0.069 0.003 0.104l-0-0.005c-0.022 1.416-0.021 2.832-0.013 4.248h-0.256c-1.518 0.002-2.748 1.232-2.75 2.75v12c0.002 1.518 1.232 2.748 2.75 2.75h15.996c1.443-0.005 2.623-1.122 2.729-2.538l0.001-0.009 6.939 3.468c0.097 0.050 0.211 0.080 0.333 0.080 0.001 0 0.002 0 0.003 0h-0c0.001 0 0.001 0 0.002 0 0.413 0 0.748-0.335 0.748-0.748 0-0.001 0-0.001 0-0.002v0-17.999c-0-0.268-0.141-0.503-0.352-0.636l-0.003-0.002zM21.246 24.5c-0.001 0.69-0.56 1.249-1.25 1.25h-15.996c-0.69-0.001-1.249-0.56-1.25-1.25v-12c0.001-0.69 0.56-1.249 1.25-1.25h15.996c0.69 0.001 1.249 0.56 1.25 1.25v12zM29.25 26.287l-6.504-3.25v-9.072l6.504-3.251zM17.911 13.751h-12c-0.414 0-0.75 0.336-0.75 0.75s0.336 0.75 0.75 0.75v0h12c0.414 0 0.75-0.336 0.75-0.75s-0.336-0.75-0.75-0.75v0z"></path>
</svg>