<?xml version="1.0" encoding="UTF-8"?>
<!DOCTYPE svg PUBLIC "-//W3C//DTD SVG 1.1//EN" "http://www.w3.org/Graphics/SVG/1.1/DTD/svg11.dtd">
<svg xmlns="http://www.w3.org/2000/svg" version="1.1" width="1080px" height="1080px" style="shape-rendering:geometricPrecision; text-rendering:geometricPrecision; image-rendering:optimizeQuality; fill-rule:evenodd; clip-rule:evenodd" xmlns:xlink="http://www.w3.org/1999/xlink">
<g><path style="opacity:1" fill="#f8f8f8" d="M 971.5,123.5 C 970.5,122.833 969.5,122.167 968.5,121.5C 959.834,109.491 948.167,101.991 933.5,99C 667.833,98.3333 402.167,98.3333 136.5,99C 133.522,99.696 130.522,100.196 127.5,100.5C 131.001,99.0297 134.668,97.6964 138.5,96.5C 139.086,96.7093 139.586,97.0426 140,97.5C 396.148,96.8086 652.314,96.1419 908.5,95.5C 927.2,93.8853 944.533,98.3853 960.5,109C 965.521,112.907 969.187,117.74 971.5,123.5 Z"/></g>
<g><path style="opacity:1" fill="#010101" d="M 968.5,121.5 C 970.882,125.642 972.882,129.975 974.5,134.5C 975.497,400.146 975.83,665.812 975.5,931.5C 970.718,950.95 958.718,963.616 939.5,969.5C 670.512,970.661 401.512,970.827 132.5,970C 130.75,968.681 128.75,968.181 126.5,968.5C 117.135,964.812 109.135,959.146 102.5,951.5C 98.6461,944.8 95.6461,937.8 93.5,930.5C 93.5,666.5 93.5,402.5 93.5,138.5C 95.5288,132.767 97.8621,127.1 100.5,121.5C 101.906,121.027 102.573,120.027 102.5,118.5C 106.906,114.116 111.572,109.949 116.5,106C 120.776,105.195 124.443,103.362 127.5,100.5C 130.522,100.196 133.522,99.696 136.5,99C 402.167,98.3333 667.833,98.3333 933.5,99C 948.167,101.991 959.834,109.491 968.5,121.5 Z M 930.5,142.5 C 932.665,145.574 933.998,148.907 934.5,152.5C 933.224,328.25 933.224,504.25 934.5,680.5C 933.669,696.328 933.169,712.328 933,728.5C 932.581,729.672 931.915,730.672 931,731.5C 929.519,728.044 927.852,724.711 926,721.5C 925.184,720.177 924.017,719.511 922.5,719.5C 923.491,717.877 922.824,716.877 920.5,716.5C 919.728,712.402 917.728,709.069 914.5,706.5C 911.159,699.143 906.826,692.476 901.5,686.5C 900.89,684.566 899.89,682.899 898.5,681.5C 894.139,672.757 888.806,664.757 882.5,657.5C 882.727,655.067 881.727,653.401 879.5,652.5C 874.825,643.142 869.159,634.475 862.5,626.5C 862.573,624.973 861.906,623.973 860.5,623.5C 860.573,621.973 859.906,620.973 858.5,620.5C 857.59,617.008 855.924,614.008 853.5,611.5C 851.557,607.867 849.557,604.201 847.5,600.5C 846.643,599.575 845.643,598.908 844.5,598.5C 844.25,596.326 843.25,594.659 841.5,593.5C 836.825,584.142 831.159,575.475 824.5,567.5C 824.573,565.973 823.906,564.973 822.5,564.5C 821,560.827 819,557.494 816.5,554.5C 816.573,552.973 815.906,551.973 814.5,551.5C 812.806,546.756 810.139,542.756 806.5,539.5C 806.25,537.326 805.25,535.659 803.5,534.5C 798.825,525.142 793.159,516.475 786.5,508.5C 786.573,506.973 785.906,505.973 784.5,505.5C 783.921,502.669 782.588,500.336 780.5,498.5C 780.573,496.973 779.906,495.973 778.5,495.5C 778.573,493.973 777.906,492.973 776.5,492.5C 774.048,485.898 770.381,480.232 765.5,475.5C 760.921,467.072 756.088,458.738 751,450.5C 750.329,449.748 749.496,449.414 748.5,449.5C 748.573,447.973 747.906,446.973 746.5,446.5C 746.672,445.508 746.338,444.842 745.5,444.5C 745.25,442.326 744.25,440.659 742.5,439.5C 742.573,437.973 741.906,436.973 740.5,436.5C 740.573,434.973 739.906,433.973 738.5,433.5C 735.938,426.973 732.272,421.307 727.5,416.5C 727.573,414.973 726.906,413.973 725.5,413.5C 721.256,405.406 716.756,397.406 712,389.5C 711.617,390.056 711.117,390.389 710.5,390.5C 710.573,388.973 709.906,387.973 708.5,387.5C 708.672,386.508 708.338,385.842 707.5,385.5C 707.25,383.326 706.25,381.659 704.5,380.5C 704.573,378.973 703.906,377.973 702.5,377.5C 699.132,370.068 694.798,363.401 689.5,357.5C 686.332,351.158 682.665,345.158 678.5,339.5C 677.563,336.731 676.396,334.064 675,331.5C 671.362,326.361 667.529,321.361 663.5,316.5C 659.952,309.606 655.952,302.939 651.5,296.5C 649.885,297.154 648.218,297.654 646.5,298C 644.795,301.91 642.962,305.743 641,309.5C 634.987,317.535 629.487,325.868 624.5,334.5C 617.756,342.928 611.756,351.928 606.5,361.5C 605.662,361.842 605.328,362.508 605.5,363.5C 604.094,363.973 603.427,364.973 603.5,366.5C 601.729,367.866 600.062,369.366 598.5,371C 599.056,371.383 599.389,371.883 599.5,372.5C 594.837,377.164 591.17,382.497 588.5,388.5C 587.094,388.973 586.427,389.973 586.5,391.5C 585.094,391.973 584.427,392.973 584.5,394.5C 583.094,394.973 582.427,395.973 582.5,397.5C 576.851,403.459 572.185,410.125 568.5,417.5C 566.05,419.629 564.383,422.296 563.5,425.5C 562.094,425.973 561.427,426.973 561.5,428.5C 560.206,429.29 559.039,430.29 558,431.5C 549.133,445.257 540.3,458.923 531.5,472.5C 530.094,472.973 529.427,473.973 529.5,475.5C 528.094,475.973 527.427,476.973 527.5,478.5C 526.094,478.973 525.427,479.973 525.5,481.5C 524.094,481.973 523.427,482.973 523.5,484.5C 519.625,487.234 516.959,490.9 515.5,495.5C 513.674,497.147 512.34,499.147 511.5,501.5C 510.326,502.514 509.66,503.847 509.5,505.5C 508.094,505.973 507.427,506.973 507.5,508.5C 505.952,508.821 505.285,509.821 505.5,511.5C 499.851,517.459 495.185,524.125 491.5,531.5C 490.094,531.973 489.427,532.973 489.5,534.5C 487.007,536.658 485.34,539.324 484.5,542.5C 478.02,548.785 473.02,556.118 469.5,564.5C 467.178,565.802 465.845,567.802 465.5,570.5C 459.851,576.459 455.185,583.125 451.5,590.5C 449.05,592.629 447.383,595.296 446.5,598.5C 442.614,602.577 438.947,606.91 435.5,611.5C 431.731,609.071 427.731,607.071 423.5,605.5C 423.027,604.094 422.027,603.427 420.5,603.5C 418.721,602.33 417.721,600.664 417.5,598.5C 416.127,598.657 414.793,598.49 413.5,598C 400.407,589.466 387.407,580.966 374.5,572.5C 370.677,569.084 366.343,566.418 361.5,564.5C 354.196,558.177 346.196,552.844 337.5,548.5C 334.358,545.531 331.025,542.698 327.5,540C 309.987,529.079 292.654,517.912 275.5,506.5C 269.896,514.72 264.563,523.054 259.5,531.5C 257.007,533.658 255.34,536.324 254.5,539.5C 253.883,539.389 253.383,539.056 253,538.5C 249.612,543.717 246.445,549.05 243.5,554.5C 241.412,556.336 240.079,558.669 239.5,561.5C 238.094,561.973 237.427,562.973 237.5,564.5C 236.094,564.973 235.427,565.973 235.5,567.5C 234.094,567.973 233.427,568.973 233.5,570.5C 228.394,574.763 224.727,580.097 222.5,586.5C 220.178,587.802 218.845,589.802 218.5,592.5C 211.937,599.286 206.604,606.952 202.5,615.5C 201.326,616.514 200.66,617.847 200.5,619.5C 199.094,619.973 198.427,620.973 198.5,622.5C 197.094,622.973 196.427,623.973 196.5,625.5C 193.885,627.379 191.719,629.712 190,632.5C 186.58,637.737 183.413,643.071 180.5,648.5C 174.726,655.28 169.726,662.613 165.5,670.5C 163.336,672.822 161.669,675.489 160.5,678.5C 159.094,678.973 158.427,679.973 158.5,681.5C 157.317,682.504 155.984,683.338 154.5,684C 154.833,684.333 155.167,684.667 155.5,685C 151.939,688.63 149.272,692.797 147.5,697.5C 145.782,699.223 144.449,701.223 143.5,703.5C 142.173,704.8 140.84,706.133 139.5,707.5C 138.808,706.975 138.308,706.308 138,705.5C 137.941,692.141 137.441,678.641 136.5,665C 137.752,508.515 137.752,351.848 136.5,195C 137.02,178.834 137.52,162.667 138,146.5C 138.662,145.016 139.496,143.683 140.5,142.5C 402.167,141.724 665.5,141.724 930.5,142.5 Z M 307.5,296.5 C 312.537,296.908 317.537,297.574 322.5,298.5C 326.5,302.167 330.5,305.833 334.5,309.5C 335.901,312.372 336.901,315.039 337.5,317.5C 337.625,323.203 337.292,328.87 336.5,334.5C 335.662,334.842 335.328,335.508 335.5,336.5C 330.51,344.828 323.177,349.328 313.5,350C 315.058,350.21 316.391,350.71 317.5,351.5C 311.464,351.64 305.464,351.307 299.5,350.5C 294.37,346.613 289.703,342.279 285.5,337.5C 284.736,334.982 283.736,332.649 282.5,330.5C 282.5,329.833 282.5,329.167 282.5,328.5C 282.372,324.119 282.705,319.785 283.5,315.5C 284.537,314.07 285.204,312.403 285.5,310.5C 289.207,305.792 293.54,301.792 298.5,298.5C 299.609,298.443 300.609,298.11 301.5,297.5C 303.467,297.261 305.301,297.594 307,298.5C 307.464,297.906 307.631,297.239 307.5,296.5 Z M 656.5,386.5 C 656.427,388.027 657.094,389.027 658.5,389.5C 658.328,390.492 658.662,391.158 659.5,391.5C 659.427,393.027 660.094,394.027 661.5,394.5C 664.365,400.252 667.698,405.585 671.5,410.5C 672.851,414.542 675.185,417.875 678.5,420.5C 678.328,421.492 678.662,422.158 679.5,422.5C 679.273,424.933 680.273,426.599 682.5,427.5C 686.753,435.678 691.753,443.344 697.5,450.5C 697.427,452.027 698.094,453.027 699.5,453.5C 700.34,455.853 701.674,457.853 703.5,459.5C 704.498,463.505 706.498,466.839 709.5,469.5C 710.851,473.542 713.185,476.875 716.5,479.5C 716.328,480.492 716.662,481.158 717.5,481.5C 717.343,482.873 717.51,484.207 718,485.5C 718.383,484.944 718.883,484.611 719.5,484.5C 719.328,485.492 719.662,486.158 720.5,486.5C 720.427,488.027 721.094,489.027 722.5,489.5C 722.389,490.117 722.056,490.617 721.5,491C 726.477,496.639 730.643,502.806 734,509.5C 734.671,510.252 735.504,510.586 736.5,510.5C 736.328,511.492 736.662,512.158 737.5,512.5C 738.351,514.882 739.684,516.882 741.5,518.5C 744.743,524.926 748.243,531.26 752,537.5C 753.039,538.71 754.206,539.71 755.5,540.5C 755.273,542.933 756.273,544.599 758.5,545.5C 762.866,554.257 768.199,562.257 774.5,569.5C 775.079,572.331 776.412,574.664 778.5,576.5C 782.51,582.516 786.01,588.85 789,595.5C 791.4,597.729 793.567,600.063 795.5,602.5C 795.427,604.027 796.094,605.027 797.5,605.5C 800.642,611.112 803.809,616.779 807,622.5C 807.759,624.063 808.926,625.063 810.5,625.5C 810.343,626.873 810.51,628.207 811,629.5C 811.383,628.944 811.883,628.611 812.5,628.5C 812.427,630.027 813.094,631.027 814.5,631.5C 815.079,634.331 816.412,636.664 818.5,638.5C 818.285,640.179 818.952,641.179 820.5,641.5C 822.742,646.258 825.242,650.925 828,655.5C 829.039,656.71 830.206,657.71 831.5,658.5C 831.427,660.027 832.094,661.027 833.5,661.5C 833.833,662.167 834.167,662.833 834.5,663.5C 834.427,665.027 835.094,666.027 836.5,666.5C 840.784,674.762 845.784,682.428 851.5,689.5C 851.5,690.167 851.833,690.5 852.5,690.5C 852.998,693.326 854.331,695.66 856.5,697.5C 856.933,700.195 858.266,702.362 860.5,704C 860.167,704.333 859.833,704.667 859.5,705C 861.644,705.792 862.977,707.292 863.5,709.5C 865.445,713.736 868.112,717.403 871.5,720.5C 871.328,721.492 871.662,722.158 872.5,722.5C 873.026,724.23 874.026,725.564 875.5,726.5C 877.749,732.005 880.749,737.005 884.5,741.5C 885.511,743.372 886.345,745.372 887,747.5C 887.816,748.823 888.983,749.489 890.5,749.5C 890.328,750.492 890.662,751.158 891.5,751.5C 892.169,754.849 893.836,757.516 896.5,759.5C 899.841,766.857 904.174,773.524 909.5,779.5C 907.969,780.925 908.302,781.591 910.5,781.5C 911.167,782.5 911.833,783.5 912.5,784.5C 914.952,789.897 917.952,794.897 921.5,799.5C 924.393,805.388 928.06,810.722 932.5,815.5C 933.951,820.538 934.618,825.705 934.5,831C 934.487,860.384 934.487,888.551 934.5,915.5C 934.028,919.362 933.028,923.028 931.5,926.5C 930.015,925.065 928.682,925.232 927.5,927C 883.823,927.193 840.157,927.693 796.5,928.5C 578.559,928.93 360.559,928.43 142.5,927C 138.172,924.958 136.339,921.458 137,916.5C 136.183,874.804 136.35,833.138 137.5,791.5C 142.5,783.51 148,775.843 154,768.5C 156.857,763.445 159.691,758.445 162.5,753.5C 163.89,752.101 164.89,750.434 165.5,748.5C 166.906,748.027 167.573,747.027 167.5,745.5C 174.249,737.9 180.082,729.566 185,720.5C 192.803,710.853 199.637,700.52 205.5,689.5C 207.192,687.795 208.525,685.795 209.5,683.5C 210.794,682.71 211.961,681.71 213,680.5C 221.854,666.777 230.688,653.11 239.5,639.5C 241.664,637.178 243.331,634.511 244.5,631.5C 245.906,631.027 246.573,630.027 246.5,628.5C 247.906,628.027 248.573,627.027 248.5,625.5C 249.496,625.586 250.329,625.252 251,624.5C 255.189,617.445 259.356,610.445 263.5,603.5C 264.906,603.027 265.573,602.027 265.5,600.5C 268.535,598.121 270.869,595.121 272.5,591.5C 275.925,586.745 278.925,581.745 281.5,576.5C 282.906,576.027 283.573,575.027 283.5,573.5C 284.117,573.611 284.617,573.944 285,574.5C 285.49,573.207 285.657,571.873 285.5,570.5C 286.167,570.5 286.5,570.167 286.5,569.5C 287.117,569.389 287.617,569.056 288,568.5C 288.816,569.823 289.983,570.489 291.5,570.5C 291.973,571.906 292.973,572.573 294.5,572.5C 294.973,573.906 295.973,574.573 297.5,574.5C 297.973,575.906 298.973,576.573 300.5,576.5C 305.162,580.835 310.495,584.168 316.5,586.5C 317.048,588.532 318.381,589.532 320.5,589.5C 320.973,590.906 321.973,591.573 323.5,591.5C 323.973,592.906 324.973,593.573 326.5,593.5C 326.842,594.338 327.508,594.672 328.5,594.5C 329.904,597.377 332.237,599.044 335.5,599.5C 336.964,601.63 338.964,602.963 341.5,603.5C 341.821,605.048 342.821,605.715 344.5,605.5C 344.842,606.338 345.508,606.672 346.5,606.5C 346.973,607.906 347.973,608.573 349.5,608.5C 349.973,609.906 350.973,610.573 352.5,610.5C 352.842,611.338 353.508,611.672 354.5,611.5C 359.129,616.151 364.463,619.818 370.5,622.5C 370.973,623.906 371.973,624.573 373.5,624.5C 374.659,626.25 376.326,627.25 378.5,627.5C 378.973,628.906 379.973,629.573 381.5,629.5C 381.973,630.906 382.973,631.573 384.5,631.5C 385.992,634.323 388.326,635.99 391.5,636.5C 391.973,637.906 392.973,638.573 394.5,638.5C 396.147,640.326 398.147,641.66 400.5,642.5C 400.973,643.906 401.973,644.573 403.5,644.5C 403.842,645.338 404.508,645.672 405.5,645.5C 406.392,648.292 408.392,649.625 411.5,649.5C 411.842,650.338 412.508,650.672 413.5,650.5C 414.262,652.262 415.596,653.262 417.5,653.5C 417.721,654.735 418.388,655.735 419.5,656.5C 423.195,658.547 426.862,660.547 430.5,662.5C 430.842,663.338 431.508,663.672 432.5,663.5C 434.034,665.369 436.034,666.702 438.5,667.5C 438.973,668.906 439.973,669.573 441.5,669.5C 443.607,674.427 446.607,675.427 450.5,672.5C 452.596,669.738 454.262,666.738 455.5,663.5C 457.822,662.198 459.155,660.198 459.5,657.5C 464.489,652.197 468.489,646.197 471.5,639.5C 473.104,638.713 473.771,637.38 473.5,635.5C 474.906,635.027 475.573,634.027 475.5,632.5C 477.522,630.469 479.189,628.135 480.5,625.5C 485.908,619.024 490.575,612.024 494.5,604.5C 496.65,602.24 498.817,599.907 501,597.5C 504.42,592.263 507.587,586.929 510.5,581.5C 512.25,580.341 513.25,578.674 513.5,576.5C 514.906,576.027 515.573,575.027 515.5,573.5C 516.906,573.027 517.573,572.027 517.5,570.5C 518.167,570.5 518.5,570.167 518.5,569.5C 519.794,568.71 520.961,567.71 522,566.5C 525.356,560.336 528.856,554.336 532.5,548.5C 533.906,548.027 534.573,547.027 534.5,545.5C 537.552,542.424 540.386,539.09 543,535.5C 546.776,529.609 550.276,523.609 553.5,517.5C 554.906,517.027 555.573,516.027 555.5,514.5C 557.129,513.375 558.629,512.041 560,510.5C 564.689,502.334 569.522,494.334 574.5,486.5C 580.242,479.743 585.242,472.41 589.5,464.5C 590.906,464.027 591.573,463.027 591.5,461.5C 592.906,461.027 593.573,460.027 593.5,458.5C 594.401,457.71 595.068,456.71 595.5,455.5C 600.881,450.078 605.214,443.745 608.5,436.5C 609.906,436.027 610.573,435.027 610.5,433.5C 617.567,424.748 623.9,415.415 629.5,405.5C 631.824,405.123 632.491,404.123 631.5,402.5C 632.401,401.71 633.068,400.71 633.5,399.5C 638.404,393.905 642.737,387.738 646.5,381C 648.18,380.966 649.68,380.799 651,380.5C 652.634,382.837 654.467,384.837 656.5,386.5 Z"/></g>
<g><path style="opacity:1" fill="#cfcfcf" d="M 127.5,100.5 C 124.443,103.362 120.776,105.195 116.5,106C 111.572,109.949 106.906,114.116 102.5,118.5C 105.653,111.848 110.653,107.015 117.5,104C 120.758,102.533 124.092,101.367 127.5,100.5 Z"/></g>
<g><path style="opacity:1" fill="#c8c8c8" d="M 102.5,118.5 C 102.573,120.027 101.906,121.027 100.5,121.5C 100.427,119.973 101.094,118.973 102.5,118.5 Z"/></g>
<g><path style="opacity:1" fill="#9c9c9c" d="M 968.5,121.5 C 969.5,122.167 970.5,122.833 971.5,123.5C 974.527,127.237 976.193,131.57 976.5,136.5C 975.833,135.833 975.167,135.167 974.5,134.5C 972.882,129.975 970.882,125.642 968.5,121.5 Z"/></g>
<g><path style="opacity:1" fill="#ebebeb" d="M 100.5,121.5 C 97.8621,127.1 95.5288,132.767 93.5,138.5C 92.8333,141.833 92.1667,145.167 91.5,148.5C 90.7444,138.1 93.7444,129.1 100.5,121.5 Z"/></g>
<g><path style="opacity:1" fill="#555555" d="M 930.5,142.5 C 665.5,141.724 402.167,141.724 140.5,142.5C 139.833,142.5 139.167,142.5 138.5,142.5C 138.611,141.883 138.944,141.383 139.5,141C 402.833,140.333 666.167,140.333 929.5,141C 930.056,141.383 930.389,141.883 930.5,142.5 Z"/></g>
<g><path style="opacity:1" fill="#cecece" d="M 930.5,142.5 C 932.71,142.894 934.043,144.227 934.5,146.5C 934.5,148.5 934.5,150.5 934.5,152.5C 933.998,148.907 932.665,145.574 930.5,142.5 Z"/></g>
<g><path style="opacity:1" fill="#121212" d="M 974.5,134.5 C 975.167,135.167 975.833,135.833 976.5,136.5C 976.5,400.167 976.5,663.833 976.5,927.5C 976.768,929.099 976.434,930.432 975.5,931.5C 975.83,665.812 975.497,400.146 974.5,134.5 Z"/></g>
<g><path style="opacity:1" fill="#2a2a2a" d="M 935.5,147.5 C 936.5,344.999 936.833,542.666 936.5,740.5C 935.209,740.737 934.209,740.404 933.5,739.5C 935.499,542.503 936.166,345.169 935.5,147.5 Z"/></g>
<g><path style="opacity:1" fill="#878787" d="M 976.5,136.5 C 977.309,138.292 977.809,140.292 978,142.5C 978.832,404.206 978.665,665.873 977.5,927.5C 977.167,927.5 976.833,927.5 976.5,927.5C 976.5,663.833 976.5,400.167 976.5,136.5 Z"/></g>
<g><path style="opacity:1" fill="#f4f4f4" d="M 138.5,142.5 C 139.167,142.5 139.833,142.5 140.5,142.5C 139.496,143.683 138.662,145.016 138,146.5C 137.52,162.667 137.02,178.834 136.5,195C 137.752,351.848 137.752,508.515 136.5,665C 137.441,678.641 137.941,692.141 138,705.5C 138.308,706.308 138.808,706.975 139.5,707.5C 140.84,706.133 142.173,704.8 143.5,703.5C 141.194,707.483 138.861,711.483 136.5,715.5C 135.5,526.001 135.167,336.334 135.5,146.5C 136.026,144.77 137.026,143.436 138.5,142.5 Z"/></g>
<g><path style="opacity:1" fill="#e2e2e2" d="M 337.5,257.5 C 336.833,257.5 336.167,257.5 335.5,257.5C 321.443,253.373 307.109,252.373 292.5,254.5C 292.369,253.761 292.536,253.094 293,252.5C 304.021,252.399 315.188,252.565 326.5,253C 330.262,254.417 333.928,255.917 337.5,257.5 Z"/></g>
<g><path style="opacity:1" fill="#020202" d="M 335.5,257.5 C 339.151,259.992 343.151,261.992 347.5,263.5C 351.651,266.744 355.984,269.744 360.5,272.5C 364.414,277.331 368.08,282.331 371.5,287.5C 373.31,292.453 375.643,297.12 378.5,301.5C 378.41,304.152 379.076,306.485 380.5,308.5C 380.205,310.735 380.539,312.735 381.5,314.5C 381.518,322.851 381.185,331.184 380.5,339.5C 380.5,339.833 380.5,340.167 380.5,340.5C 378.926,342.102 378.259,344.102 378.5,346.5C 377.25,346.577 376.417,347.244 376,348.5C 375.505,350.473 375.338,352.473 375.5,354.5C 372.635,357.19 370.469,360.523 369,364.5C 366.259,367.729 363.759,371.062 361.5,374.5C 360.167,376.5 358.5,378.167 356.5,379.5C 354.973,379.427 353.973,380.094 353.5,381.5C 348.127,384.518 342.794,387.518 337.5,390.5C 335.801,390.34 334.134,390.506 332.5,391C 329.808,391.743 327.475,392.91 325.5,394.5C 317.5,394.5 309.5,394.5 301.5,394.5C 299.167,394.5 296.833,394.5 294.5,394.5C 283.146,390.485 272.48,384.819 262.5,377.5C 260.452,374.785 258.118,372.452 255.5,370.5C 253.413,366.656 251.08,362.989 248.5,359.5C 245.897,353.692 243.897,347.692 242.5,341.5C 239.625,328.087 239.958,314.754 243.5,301.5C 248.835,285.002 258.835,272.169 273.5,263C 278.798,261.018 283.798,258.518 288.5,255.5C 289.568,254.566 290.901,254.232 292.5,254.5C 307.109,252.373 321.443,253.373 335.5,257.5 Z M 307.5,296.5 C 312.537,296.908 317.537,297.574 322.5,298.5C 326.5,302.167 330.5,305.833 334.5,309.5C 335.901,312.372 336.901,315.039 337.5,317.5C 337.625,323.203 337.292,328.87 336.5,334.5C 335.662,334.842 335.328,335.508 335.5,336.5C 330.51,344.828 323.177,349.328 313.5,350C 315.058,350.21 316.391,350.71 317.5,351.5C 311.464,351.64 305.464,351.307 299.5,350.5C 294.37,346.613 289.703,342.279 285.5,337.5C 284.736,334.982 283.736,332.649 282.5,330.5C 282.5,329.833 282.5,329.167 282.5,328.5C 282.372,324.119 282.705,319.785 283.5,315.5C 284.537,314.07 285.204,312.403 285.5,310.5C 289.207,305.792 293.54,301.792 298.5,298.5C 299.609,298.443 300.609,298.11 301.5,297.5C 303.467,297.261 305.301,297.594 307,298.5C 307.464,297.906 307.631,297.239 307.5,296.5 Z"/></g>
<g><path style="opacity:1" fill="#939393" d="M 335.5,257.5 C 336.167,257.5 336.833,257.5 337.5,257.5C 340.912,258.042 343.912,259.375 346.5,261.5C 346.833,262.167 347.167,262.833 347.5,263.5C 343.151,261.992 339.151,259.992 335.5,257.5 Z"/></g>
<g><path style="opacity:1" fill="#9a9a9a" d="M 93.5,138.5 C 93.5,402.5 93.5,666.5 93.5,930.5C 93.1667,930.5 92.8333,930.5 92.5,930.5C 91.8382,907.333 91.1716,884.167 90.5,861C 91.3297,625.236 91.663,387.736 91.5,148.5C 92.1667,145.167 92.8333,141.833 93.5,138.5 Z"/></g>
<g><path style="opacity:1" fill="#c6c6c6" d="M 288.5,255.5 C 283.798,258.518 278.798,261.018 273.5,263C 258.835,272.169 248.835,285.002 243.5,301.5C 242.833,301.833 242.167,302.167 241.5,302.5C 248.781,278.552 264.448,262.886 288.5,255.5 Z"/></g>
<g><path style="opacity:1" fill="#d6d6d6" d="M 346.5,261.5 C 350.441,263.14 354.108,265.306 357.5,268C 359.141,269.129 360.141,270.629 360.5,272.5C 355.984,269.744 351.651,266.744 347.5,263.5C 347.167,262.833 346.833,262.167 346.5,261.5 Z"/></g>
<g><path style="opacity:1" fill="#d5d5d5" d="M 360.5,272.5 C 366.281,276.618 370.614,281.952 373.5,288.5C 372.833,288.167 372.167,287.833 371.5,287.5C 368.08,282.331 364.414,277.331 360.5,272.5 Z"/></g>
<g><path style="opacity:1" fill="#929292" d="M 371.5,287.5 C 372.167,287.833 372.833,288.167 373.5,288.5C 376.003,292.507 377.67,296.84 378.5,301.5C 375.643,297.12 373.31,292.453 371.5,287.5 Z"/></g>
<g><path style="opacity:1" fill="#a2a2a2" d="M 307.5,296.5 C 310.287,295.523 313.287,295.19 316.5,295.5C 319.272,295.759 321.605,296.759 323.5,298.5C 323.167,298.5 322.833,298.5 322.5,298.5C 317.537,297.574 312.537,296.908 307.5,296.5 Z"/></g>
<g><path style="opacity:1" fill="#666666" d="M 316.5,295.5 C 313.287,295.19 310.287,295.523 307.5,296.5C 305.265,296.205 303.265,296.539 301.5,297.5C 300.609,298.11 299.609,298.443 298.5,298.5C 297.833,298.5 297.167,298.5 296.5,298.5C 298.493,296.837 300.826,295.67 303.5,295C 308.02,294.186 312.354,294.353 316.5,295.5 Z"/></g>
<g><path style="opacity:1" fill="#f1f1f1" d="M 301.5,297.5 C 303.265,296.539 305.265,296.205 307.5,296.5C 307.631,297.239 307.464,297.906 307,298.5C 305.301,297.594 303.467,297.261 301.5,297.5 Z"/></g>
<g><path style="opacity:1" fill="#e0e0e0" d="M 663.5,316.5 C 662.206,315.71 661.039,314.71 660,313.5C 656.904,308.298 653.571,303.298 650,298.5C 642.966,308.546 636.3,318.879 630,329.5C 627.971,331.033 626.138,332.699 624.5,334.5C 629.487,325.868 634.987,317.535 641,309.5C 642.962,305.743 644.795,301.91 646.5,298C 648.218,297.654 649.885,297.154 651.5,296.5C 655.952,302.939 659.952,309.606 663.5,316.5 Z"/></g>
<g><path style="opacity:1" fill="#e6e6e6" d="M 322.5,298.5 C 322.833,298.5 323.167,298.5 323.5,298.5C 328.237,300.694 331.904,304.028 334.5,308.5C 334.5,308.833 334.5,309.167 334.5,309.5C 330.5,305.833 326.5,302.167 322.5,298.5 Z"/></g>
<g><path style="opacity:1" fill="#e2e2e2" d="M 296.5,298.5 C 297.167,298.5 297.833,298.5 298.5,298.5C 293.54,301.792 289.207,305.792 285.5,310.5C 287.755,305.243 291.422,301.243 296.5,298.5 Z"/></g>
<g><path style="opacity:1" fill="#d6d6d6" d="M 378.5,301.5 C 379.924,303.515 380.59,305.848 380.5,308.5C 379.076,306.485 378.41,304.152 378.5,301.5 Z"/></g>
<g><path style="opacity:1" fill="#ebebeb" d="M 380.5,308.5 C 381.239,308.369 381.906,308.536 382.5,309C 381.594,310.699 381.261,312.533 381.5,314.5C 380.539,312.735 380.205,310.735 380.5,308.5 Z"/></g>
<g><path style="opacity:1" fill="#d9d9d9" d="M 285.5,310.5 C 285.204,312.403 284.537,314.07 283.5,315.5C 283.12,313.302 283.787,311.635 285.5,310.5 Z"/></g>
<g><path style="opacity:1" fill="#666666" d="M 243.5,301.5 C 239.958,314.754 239.625,328.087 242.5,341.5C 241.833,341.5 241.167,341.5 240.5,341.5C 237.625,328.328 237.958,315.328 241.5,302.5C 242.167,302.167 242.833,301.833 243.5,301.5 Z"/></g>
<g><path style="opacity:1" fill="#ececec" d="M 381.5,314.5 C 382.165,317.482 382.498,320.648 382.5,324C 382.621,329.411 381.954,334.577 380.5,339.5C 381.185,331.184 381.518,322.851 381.5,314.5 Z"/></g>
<g><path style="opacity:1" fill="#787878" d="M 334.5,308.5 C 336.959,310.052 338.459,312.385 339,315.5C 339.667,321.5 339.667,327.5 339,333.5C 337.97,335.346 336.804,337.013 335.5,338.5C 335.5,337.833 335.5,337.167 335.5,336.5C 335.328,335.508 335.662,334.842 336.5,334.5C 338.019,331.474 338.685,328.141 338.5,324.5C 338.497,321.975 338.163,319.641 337.5,317.5C 336.901,315.039 335.901,312.372 334.5,309.5C 334.5,309.167 334.5,308.833 334.5,308.5 Z"/></g>
<g><path style="opacity:1" fill="#949494" d="M 934.5,146.5 C 935.167,146.5 935.5,146.833 935.5,147.5C 936.166,345.169 935.499,542.503 933.5,739.5C 932.4,738.395 931.733,737.062 931.5,735.5C 932.458,735.953 933.292,736.619 934,737.5C 934.5,718.503 934.667,699.503 934.5,680.5C 933.224,504.25 933.224,328.25 934.5,152.5C 934.5,150.5 934.5,148.5 934.5,146.5 Z"/></g>
<g><path style="opacity:1" fill="#d1d1d1" d="M 283.5,315.5 C 282.705,319.785 282.372,324.119 282.5,328.5C 281.839,326.866 281.506,325.033 281.5,323C 281.3,320.134 281.967,317.634 283.5,315.5 Z"/></g>
<g><path style="opacity:1" fill="#f3f3f3" d="M 337.5,317.5 C 338.163,319.641 338.497,321.975 338.5,324.5C 338.685,328.141 338.019,331.474 336.5,334.5C 337.292,328.87 337.625,323.203 337.5,317.5 Z"/></g>
<g><path style="opacity:1" fill="#dcdcdc" d="M 663.5,316.5 C 667.529,321.361 671.362,326.361 675,331.5C 676.396,334.064 677.563,336.731 678.5,339.5C 678.167,339.5 677.833,339.5 677.5,339.5C 673.513,332.882 669.013,326.549 664,320.5C 663.51,319.207 663.343,317.873 663.5,316.5 Z"/></g>
<g><path style="opacity:1" fill="#dadada" d="M 282.5,330.5 C 283.736,332.649 284.736,334.982 285.5,337.5C 283.166,335.824 282.166,333.491 282.5,330.5 Z"/></g>
<g><path style="opacity:1" fill="#dcdcdc" d="M 624.5,334.5 C 624.649,335.552 624.483,336.552 624,337.5C 618.897,344.719 614.064,352.052 609.5,359.5C 608.5,360.167 607.5,360.833 606.5,361.5C 611.756,351.928 617.756,342.928 624.5,334.5 Z"/></g>
<g><path style="opacity:1" fill="#e9e9e9" d="M 335.5,336.5 C 335.5,337.167 335.5,337.833 335.5,338.5C 331.961,345.039 326.628,349.372 319.5,351.5C 318.833,351.5 318.167,351.5 317.5,351.5C 316.391,350.71 315.058,350.21 313.5,350C 323.177,349.328 330.51,344.828 335.5,336.5 Z"/></g>
<g><path style="opacity:1" fill="#c5c5c5" d="M 380.5,340.5 C 380.405,342.786 379.738,344.786 378.5,346.5C 378.259,344.102 378.926,342.102 380.5,340.5 Z"/></g>
<g><path style="opacity:1" fill="#dedede" d="M 285.5,337.5 C 289.703,342.279 294.37,346.613 299.5,350.5C 292.584,348.41 287.917,344.076 285.5,337.5 Z"/></g>
<g><path style="opacity:1" fill="#a7a7a7" d="M 677.5,339.5 C 677.833,339.5 678.167,339.5 678.5,339.5C 682.665,345.158 686.332,351.158 689.5,357.5C 687.549,356.718 686.049,355.384 685,353.5C 682.242,348.925 679.742,344.258 677.5,339.5 Z"/></g>
<g><path style="opacity:1" fill="#7e7e7e" d="M 378.5,346.5 C 378.267,349.542 377.267,352.208 375.5,354.5C 375.338,352.473 375.505,350.473 376,348.5C 376.417,347.244 377.25,346.577 378.5,346.5 Z"/></g>
<g><path style="opacity:1" fill="#9a9a9a" d="M 240.5,341.5 C 241.167,341.5 241.833,341.5 242.5,341.5C 243.897,347.692 245.897,353.692 248.5,359.5C 248.167,359.5 247.833,359.5 247.5,359.5C 244.005,354.025 241.672,348.025 240.5,341.5 Z"/></g>
<g><path style="opacity:1" fill="#ededed" d="M 299.5,350.5 C 305.464,351.307 311.464,351.64 317.5,351.5C 313.366,352.485 309.032,352.818 304.5,352.5C 302.447,352.598 300.78,351.931 299.5,350.5 Z"/></g>
<g><path style="opacity:1" fill="#5f5f5f" d="M 317.5,351.5 C 318.167,351.5 318.833,351.5 319.5,351.5C 319.389,352.117 319.056,352.617 318.5,353C 313.648,353.815 308.981,353.648 304.5,352.5C 309.032,352.818 313.366,352.485 317.5,351.5 Z"/></g>
<g><path style="opacity:1" fill="#555555" d="M 609.5,359.5 C 608.551,361.777 607.218,363.777 605.5,365.5C 605.5,364.833 605.5,364.167 605.5,363.5C 605.328,362.508 605.662,361.842 606.5,361.5C 607.5,360.833 608.5,360.167 609.5,359.5 Z"/></g>
<g><path style="opacity:1" fill="#e4e4e4" d="M 247.5,359.5 C 247.833,359.5 248.167,359.5 248.5,359.5C 251.08,362.989 253.413,366.656 255.5,370.5C 251.597,367.68 248.931,364.013 247.5,359.5 Z"/></g>
<g><path style="opacity:1" fill="#d3d3d3" d="M 605.5,363.5 C 605.5,364.167 605.5,364.833 605.5,365.5C 604.833,365.833 604.167,366.167 603.5,366.5C 603.427,364.973 604.094,363.973 605.5,363.5 Z"/></g>
<g><path style="opacity:1" fill="#dfdfdf" d="M 603.5,366.5 C 602.66,368.853 601.326,370.853 599.5,372.5C 599.389,371.883 599.056,371.383 598.5,371C 600.062,369.366 601.729,367.866 603.5,366.5 Z"/></g>
<g><path style="opacity:1" fill="#c8c8c8" d="M 689.5,357.5 C 694.798,363.401 699.132,370.068 702.5,377.5C 697.187,371.561 692.854,364.894 689.5,357.5 Z"/></g>
<g><path style="opacity:1" fill="#c0c0c0" d="M 375.5,354.5 C 373.266,363.002 368.599,369.669 361.5,374.5C 363.759,371.062 366.259,367.729 369,364.5C 370.469,360.523 372.635,357.19 375.5,354.5 Z"/></g>
<g><path style="opacity:1" fill="#cfcfcf" d="M 255.5,370.5 C 258.118,372.452 260.452,374.785 262.5,377.5C 258.856,376.523 256.523,374.189 255.5,370.5 Z"/></g>
<g><path style="opacity:1" fill="#e8e8e8" d="M 702.5,377.5 C 703.906,377.973 704.573,378.973 704.5,380.5C 703.094,380.027 702.427,379.027 702.5,377.5 Z"/></g>
<g><path style="opacity:1" fill="#d8d8d8" d="M 356.5,379.5 C 356.027,380.906 355.027,381.573 353.5,381.5C 353.973,380.094 354.973,379.427 356.5,379.5 Z"/></g>
<g><path style="opacity:1" fill="#c3c3c3" d="M 599.5,372.5 C 596.607,378.388 592.94,383.722 588.5,388.5C 591.17,382.497 594.837,377.164 599.5,372.5 Z"/></g>
<g><path style="opacity:1" fill="#eaeaea" d="M 704.5,380.5 C 706.25,381.659 707.25,383.326 707.5,385.5C 705.75,384.341 704.75,382.674 704.5,380.5 Z"/></g>
<g><path style="opacity:1" fill="#d9d9d9" d="M 353.5,381.5 C 349.14,386.349 343.806,389.682 337.5,391.5C 337.5,391.167 337.5,390.833 337.5,390.5C 342.794,387.518 348.127,384.518 353.5,381.5 Z"/></g>
<g><path style="opacity:1" fill="#cacaca" d="M 262.5,377.5 C 272.48,384.819 283.146,390.485 294.5,394.5C 293.883,394.611 293.383,394.944 293,395.5C 285.45,393.305 278.283,390.138 271.5,386C 268.001,383.604 265.001,380.771 262.5,377.5 Z"/></g>
<g><path style="opacity:1" fill="#e2e2e2" d="M 656.5,386.5 C 657.906,386.973 658.573,387.973 658.5,389.5C 657.094,389.027 656.427,388.027 656.5,386.5 Z"/></g>
<g><path style="opacity:1" fill="#dfdfdf" d="M 708.5,387.5 C 709.906,387.973 710.573,388.973 710.5,390.5C 709.094,390.027 708.427,389.027 708.5,387.5 Z"/></g>
<g><path style="opacity:1" fill="#c5c5c5" d="M 588.5,388.5 C 588.573,390.027 587.906,391.027 586.5,391.5C 586.427,389.973 587.094,388.973 588.5,388.5 Z"/></g>
<g><path style="opacity:1" fill="#e6e6e6" d="M 659.5,391.5 C 660.906,391.973 661.573,392.973 661.5,394.5C 660.094,394.027 659.427,393.027 659.5,391.5 Z"/></g>
<g><path style="opacity:1" fill="#898989" d="M 337.5,390.5 C 337.5,390.833 337.5,391.167 337.5,391.5C 333.721,393.314 329.721,394.314 325.5,394.5C 327.475,392.91 329.808,391.743 332.5,391C 334.134,390.506 335.801,390.34 337.5,390.5 Z"/></g>
<g><path style="opacity:1" fill="#c5c5c5" d="M 586.5,391.5 C 586.573,393.027 585.906,394.027 584.5,394.5C 584.427,392.973 585.094,391.973 586.5,391.5 Z"/></g>
<g><path style="opacity:1" fill="#c7c7c7" d="M 294.5,394.5 C 296.833,394.5 299.167,394.5 301.5,394.5C 301.5,394.833 301.5,395.167 301.5,395.5C 300.883,395.611 300.383,395.944 300,396.5C 298.052,395.891 296.218,395.224 294.5,394.5 Z"/></g>
<g><path style="opacity:1" fill="#929292" d="M 301.5,395.5 C 301.5,395.167 301.5,394.833 301.5,394.5C 309.5,394.5 317.5,394.5 325.5,394.5C 323.782,395.224 321.948,395.891 320,396.5C 313.984,396.823 307.817,396.49 301.5,395.5 Z"/></g>
<g><path style="opacity:1" fill="#cdcdcd" d="M 656.5,386.5 C 654.467,384.837 652.634,382.837 651,380.5C 649.68,380.799 648.18,380.966 646.5,381C 642.737,387.738 638.404,393.905 633.5,399.5C 637.46,391.032 642.46,383.199 648.5,376C 649.449,375.383 650.282,375.549 651,376.5C 653.112,379.727 654.945,383.06 656.5,386.5 Z"/></g>
<g><path style="opacity:1" fill="#d4d4d4" d="M 584.5,394.5 C 584.573,396.027 583.906,397.027 582.5,397.5C 582.427,395.973 583.094,394.973 584.5,394.5 Z"/></g>
<g><path style="opacity:1" fill="#999999" d="M 661.5,394.5 C 666.128,399.063 669.795,404.396 672.5,410.5C 672.167,410.5 671.833,410.5 671.5,410.5C 667.698,405.585 664.365,400.252 661.5,394.5 Z"/></g>
<g><path style="opacity:1" fill="#d9d9d9" d="M 582.5,397.5 C 578.815,404.875 574.149,411.541 568.5,417.5C 572.185,410.125 576.851,403.459 582.5,397.5 Z"/></g>
<g><path style="opacity:1" fill="#eeeeee" d="M 631.5,402.5 C 632.491,404.123 631.824,405.123 629.5,405.5C 629.427,403.973 630.094,402.973 631.5,402.5 Z"/></g>
<g><path style="opacity:1" fill="#bfbfbf" d="M 725.5,413.5 C 719.327,406.648 714.327,398.982 710.5,390.5C 711.117,390.389 711.617,390.056 712,389.5C 716.756,397.406 721.256,405.406 725.5,413.5 Z"/></g>
<g><path style="opacity:1" fill="#e8e8e8" d="M 725.5,413.5 C 726.906,413.973 727.573,414.973 727.5,416.5C 726.094,416.027 725.427,415.027 725.5,413.5 Z"/></g>
<g><path style="opacity:1" fill="#d9d9d9" d="M 671.5,410.5 C 671.833,410.5 672.167,410.5 672.5,410.5C 674.89,413.566 676.89,416.9 678.5,420.5C 675.185,417.875 672.851,414.542 671.5,410.5 Z"/></g>
<g><path style="opacity:1" fill="#dcdcdc" d="M 727.5,416.5 C 732.272,421.307 735.938,426.973 738.5,433.5C 733.659,428.646 729.993,422.98 727.5,416.5 Z"/></g>
<g><path style="opacity:1" fill="#dedede" d="M 568.5,417.5 C 567.617,420.704 565.95,423.371 563.5,425.5C 564.383,422.296 566.05,419.629 568.5,417.5 Z"/></g>
<g><path style="opacity:1" fill="#e8e8e8" d="M 679.5,422.5 C 681.25,423.659 682.25,425.326 682.5,427.5C 680.273,426.599 679.273,424.933 679.5,422.5 Z"/></g>
<g><path style="opacity:1" fill="#d8d8d8" d="M 563.5,425.5 C 563.573,427.027 562.906,428.027 561.5,428.5C 561.427,426.973 562.094,425.973 563.5,425.5 Z"/></g>
<g><path style="opacity:1" fill="#d0d0d0" d="M 629.5,405.5 C 623.9,415.415 617.567,424.748 610.5,433.5C 614.727,426.055 619.227,418.722 624,411.5C 625.617,409.237 627.45,407.237 629.5,405.5 Z"/></g>
<g><path style="opacity:1" fill="#c7c7c7" d="M 610.5,433.5 C 610.573,435.027 609.906,436.027 608.5,436.5C 608.285,434.821 608.952,433.821 610.5,433.5 Z"/></g>
<g><path style="opacity:1" fill="#cbcbcb" d="M 738.5,433.5 C 739.906,433.973 740.573,434.973 740.5,436.5C 739.094,436.027 738.427,435.027 738.5,433.5 Z"/></g>
<g><path style="opacity:1" fill="#e8e8e8" d="M 740.5,436.5 C 741.906,436.973 742.573,437.973 742.5,439.5C 741.094,439.027 740.427,438.027 740.5,436.5 Z"/></g>
<g><path style="opacity:1" fill="#b9b9b9" d="M 608.5,436.5 C 605.214,443.745 600.881,450.078 595.5,455.5C 598.727,448.297 603.061,441.963 608.5,436.5 Z"/></g>
<g><path style="opacity:1" fill="#e4e4e4" d="M 742.5,439.5 C 744.25,440.659 745.25,442.326 745.5,444.5C 743.75,443.341 742.75,441.674 742.5,439.5 Z"/></g>
<g><path style="opacity:1" fill="#cdcdcd" d="M 682.5,427.5 C 684.129,428.625 685.629,429.959 687,431.5C 690.757,437.74 694.257,444.074 697.5,450.5C 691.753,443.344 686.753,435.678 682.5,427.5 Z"/></g>
<g><path style="opacity:1" fill="#cdcdcd" d="M 746.5,446.5 C 747.906,446.973 748.573,447.973 748.5,449.5C 747.094,449.027 746.427,448.027 746.5,446.5 Z"/></g>
<g><path style="opacity:1" fill="#cacaca" d="M 561.5,428.5 C 552.486,443.868 542.486,458.535 531.5,472.5C 540.3,458.923 549.133,445.257 558,431.5C 559.039,430.29 560.206,429.29 561.5,428.5 Z"/></g>
<g><path style="opacity:1" fill="#e7e7e7" d="M 697.5,450.5 C 698.906,450.973 699.573,451.973 699.5,453.5C 698.094,453.027 697.427,452.027 697.5,450.5 Z"/></g>
<g><path style="opacity:1" fill="#bdbdbd" d="M 699.5,453.5 C 701.822,454.802 703.155,456.802 703.5,459.5C 701.674,457.853 700.34,455.853 699.5,453.5 Z"/></g>
<g><path style="opacity:1" fill="#e9e9e9" d="M 593.5,458.5 C 593.573,460.027 592.906,461.027 591.5,461.5C 591.427,459.973 592.094,458.973 593.5,458.5 Z"/></g>
<g><path style="opacity:1" fill="#bcbcbc" d="M 748.5,449.5 C 749.496,449.414 750.329,449.748 751,450.5C 756.088,458.738 760.921,467.072 765.5,475.5C 763.549,474.718 762.049,473.384 761,471.5C 756.556,464.274 752.39,456.941 748.5,449.5 Z"/></g>
<g><path style="opacity:1" fill="#e0e0e0" d="M 591.5,461.5 C 591.573,463.027 590.906,464.027 589.5,464.5C 589.427,462.973 590.094,461.973 591.5,461.5 Z"/></g>
<g><path style="opacity:1" fill="#939393" d="M 703.5,459.5 C 706.546,462.233 708.88,465.566 710.5,469.5C 710.167,469.5 709.833,469.5 709.5,469.5C 706.498,466.839 704.498,463.505 703.5,459.5 Z"/></g>
<g><path style="opacity:1" fill="#dcdcdc" d="M 709.5,469.5 C 709.833,469.5 710.167,469.5 710.5,469.5C 712.89,472.566 714.89,475.9 716.5,479.5C 713.185,476.875 710.851,473.542 709.5,469.5 Z"/></g>
<g><path style="opacity:1" fill="#cbcbcb" d="M 531.5,472.5 C 531.573,474.027 530.906,475.027 529.5,475.5C 529.427,473.973 530.094,472.973 531.5,472.5 Z"/></g>
<g><path style="opacity:1" fill="#d9d9d9" d="M 529.5,475.5 C 529.573,477.027 528.906,478.027 527.5,478.5C 527.427,476.973 528.094,475.973 529.5,475.5 Z"/></g>
<g><path style="opacity:1" fill="#dddddd" d="M 527.5,478.5 C 527.573,480.027 526.906,481.027 525.5,481.5C 525.427,479.973 526.094,478.973 527.5,478.5 Z"/></g>
<g><path style="opacity:1" fill="#cfcfcf" d="M 589.5,464.5 C 585.242,472.41 580.242,479.743 574.5,486.5C 578.477,479.889 582.477,473.222 586.5,466.5C 587.357,465.575 588.357,464.908 589.5,464.5 Z"/></g>
<g><path style="opacity:1" fill="#ededed" d="M 717.5,481.5 C 718.5,481.833 719.167,482.5 719.5,483.5C 719.5,483.833 719.5,484.167 719.5,484.5C 718.883,484.611 718.383,484.944 718,485.5C 717.51,484.207 717.343,482.873 717.5,481.5 Z"/></g>
<g><path style="opacity:1" fill="#e4e4e4" d="M 765.5,475.5 C 770.381,480.232 774.048,485.898 776.5,492.5C 771.659,487.646 767.993,481.98 765.5,475.5 Z"/></g>
<g><path style="opacity:1" fill="#dddddd" d="M 525.5,481.5 C 525.573,483.027 524.906,484.027 523.5,484.5C 523.427,482.973 524.094,481.973 525.5,481.5 Z"/></g>
<g><path style="opacity:1" fill="#5a5a5a" d="M 719.5,483.5 C 721.446,484.035 722.446,485.368 722.5,487.5C 721.833,487.167 721.167,486.833 720.5,486.5C 719.662,486.158 719.328,485.492 719.5,484.5C 719.5,484.167 719.5,483.833 719.5,483.5 Z"/></g>
<g><path style="opacity:1" fill="#ededed" d="M 523.5,484.5 C 521.6,488.732 518.933,492.399 515.5,495.5C 516.959,490.9 519.625,487.234 523.5,484.5 Z"/></g>
<g><path style="opacity:1" fill="#e6e6e6" d="M 720.5,486.5 C 721.167,486.833 721.833,487.167 722.5,487.5C 722.5,488.167 722.5,488.833 722.5,489.5C 721.094,489.027 720.427,488.027 720.5,486.5 Z"/></g>
<g><path style="opacity:1" fill="#c4c4c4" d="M 722.5,489.5 C 724.074,489.937 725.241,490.937 726,492.5C 729.764,498.363 733.264,504.363 736.5,510.5C 735.504,510.586 734.671,510.252 734,509.5C 730.643,502.806 726.477,496.639 721.5,491C 722.056,490.617 722.389,490.117 722.5,489.5 Z"/></g>
<g><path style="opacity:1" fill="#d6d6d6" d="M 776.5,492.5 C 777.906,492.973 778.573,493.973 778.5,495.5C 777.094,495.027 776.427,494.027 776.5,492.5 Z"/></g>
<g><path style="opacity:1" fill="#e8e8e8" d="M 778.5,495.5 C 779.906,495.973 780.573,496.973 780.5,498.5C 779.094,498.027 778.427,497.027 778.5,495.5 Z"/></g>
<g><path style="opacity:1" fill="#dadada" d="M 515.5,495.5 C 515.025,497.784 514.025,499.784 512.5,501.5C 512.167,501.5 511.833,501.5 511.5,501.5C 512.34,499.147 513.674,497.147 515.5,495.5 Z"/></g>
<g><path style="opacity:1" fill="#999999" d="M 780.5,498.5 C 782.588,500.336 783.921,502.669 784.5,505.5C 781.549,504.191 780.216,501.857 780.5,498.5 Z"/></g>
<g><path style="opacity:1" fill="#797979" d="M 511.5,501.5 C 511.833,501.5 512.167,501.5 512.5,501.5C 512.446,503.632 511.446,504.965 509.5,505.5C 509.66,503.847 510.326,502.514 511.5,501.5 Z"/></g>
<g><path style="opacity:1" fill="#bcbcbc" d="M 574.5,486.5 C 569.522,494.334 564.689,502.334 560,510.5C 558.629,512.041 557.129,513.375 555.5,514.5C 560.847,504.466 567.18,495.133 574.5,486.5 Z"/></g>
<g><path style="opacity:1" fill="#aeaeae" d="M 509.5,505.5 C 509.573,507.027 508.906,508.027 507.5,508.5C 507.427,506.973 508.094,505.973 509.5,505.5 Z"/></g>
<g><path style="opacity:1" fill="#d3d3d3" d="M 784.5,505.5 C 785.906,505.973 786.573,506.973 786.5,508.5C 785.094,508.027 784.427,507.027 784.5,505.5 Z"/></g>
<g><path style="opacity:1" fill="#e9e9e9" d="M 507.5,508.5 C 507.068,509.71 506.401,510.71 505.5,511.5C 505.285,509.821 505.952,508.821 507.5,508.5 Z"/></g>
<g><path style="opacity:1" fill="#dcdcdc" d="M 555.5,514.5 C 555.573,516.027 554.906,517.027 553.5,517.5C 553.427,515.973 554.094,514.973 555.5,514.5 Z"/></g>
<g><path style="opacity:1" fill="#b5b5b5" d="M 737.5,512.5 C 739.796,513.733 741.13,515.733 741.5,518.5C 739.684,516.882 738.351,514.882 737.5,512.5 Z"/></g>
<g><path style="opacity:1" fill="#bbbbbb" d="M 786.5,508.5 C 793.159,516.475 798.825,525.142 803.5,534.5C 801.549,533.718 800.049,532.384 799,530.5C 794.556,523.274 790.39,515.941 786.5,508.5 Z"/></g>
<g><path style="opacity:1" fill="#c0c0c0" d="M 553.5,517.5 C 550.276,523.609 546.776,529.609 543,535.5C 540.386,539.09 537.552,542.424 534.5,545.5C 539.863,535.419 546.196,526.086 553.5,517.5 Z"/></g>
<g><path style="opacity:1" fill="#bababa" d="M 505.5,511.5 C 501.815,518.875 497.149,525.541 491.5,531.5C 495.185,524.125 499.851,517.459 505.5,511.5 Z"/></g>
<g><path style="opacity:1" fill="#d9d9d9" d="M 491.5,531.5 C 491.573,533.027 490.906,534.027 489.5,534.5C 489.427,532.973 490.094,531.973 491.5,531.5 Z"/></g>
<g><path style="opacity:1" fill="#e6e6e6" d="M 259.5,531.5 C 258.617,534.704 256.95,537.371 254.5,539.5C 255.34,536.324 257.007,533.658 259.5,531.5 Z"/></g>
<g><path style="opacity:1" fill="#e8e8e8" d="M 803.5,534.5 C 805.25,535.659 806.25,537.326 806.5,539.5C 804.75,538.341 803.75,536.674 803.5,534.5 Z"/></g>
<g><path style="opacity:1" fill="#d8d8d8" d="M 337.5,548.5 C 316.661,536.005 296.328,522.672 276.5,508.5C 271.765,514.957 267.265,521.624 263,528.5C 261.961,529.71 260.794,530.71 259.5,531.5C 264.563,523.054 269.896,514.72 275.5,506.5C 292.654,517.912 309.987,529.079 327.5,540C 331.025,542.698 334.358,545.531 337.5,548.5 Z"/></g>
<g><path style="opacity:1" fill="#d3d3d3" d="M 741.5,518.5 C 742.643,518.908 743.643,519.575 744.5,520.5C 748.191,527.221 751.858,533.888 755.5,540.5C 754.206,539.71 753.039,538.71 752,537.5C 748.243,531.26 744.743,524.926 741.5,518.5 Z"/></g>
<g><path style="opacity:1" fill="#e8e8e8" d="M 489.5,534.5 C 488.617,537.704 486.95,540.371 484.5,542.5C 485.34,539.324 487.007,536.658 489.5,534.5 Z"/></g>
<g><path style="opacity:1" fill="#e9e9e9" d="M 755.5,540.5 C 757.25,541.659 758.25,543.326 758.5,545.5C 756.273,544.599 755.273,542.933 755.5,540.5 Z"/></g>
<g><path style="opacity:1" fill="#eeeeee" d="M 806.5,539.5 C 810.139,542.756 812.806,546.756 814.5,551.5C 811.34,547.852 808.673,543.852 806.5,539.5 Z"/></g>
<g><path style="opacity:1" fill="#e8e8e8" d="M 254.5,539.5 C 251.497,544.175 248.497,548.841 245.5,553.5C 244.833,553.833 244.167,554.167 243.5,554.5C 246.445,549.05 249.612,543.717 253,538.5C 253.383,539.056 253.883,539.389 254.5,539.5 Z"/></g>
<g><path style="opacity:1" fill="#d0d0d0" d="M 534.5,545.5 C 534.573,547.027 533.906,548.027 532.5,548.5C 532.427,546.973 533.094,545.973 534.5,545.5 Z"/></g>
<g><path style="opacity:1" fill="#bcbcbc" d="M 758.5,545.5 C 764.789,552.709 770.122,560.709 774.5,569.5C 768.199,562.257 762.866,554.257 758.5,545.5 Z"/></g>
<g><path style="opacity:1" fill="#b8b8b8" d="M 484.5,542.5 C 480.343,549.477 476.176,556.477 472,563.5C 471.329,564.252 470.496,564.586 469.5,564.5C 473.02,556.118 478.02,548.785 484.5,542.5 Z"/></g>
<g><path style="opacity:1" fill="#c6c6c6" d="M 814.5,551.5 C 815.906,551.973 816.573,552.973 816.5,554.5C 814.952,554.179 814.285,553.179 814.5,551.5 Z"/></g>
<g><path style="opacity:1" fill="#9c9c9c" d="M 245.5,553.5 C 244.262,556.738 242.262,559.404 239.5,561.5C 240.079,558.669 241.412,556.336 243.5,554.5C 244.167,554.167 244.833,553.833 245.5,553.5 Z"/></g>
<g><path style="opacity:1" fill="#cfcfcf" d="M 337.5,548.5 C 346.196,552.844 354.196,558.177 361.5,564.5C 352.679,560.336 344.679,555.003 337.5,548.5 Z"/></g>
<g><path style="opacity:1" fill="#b0b0b0" d="M 532.5,548.5 C 528.856,554.336 525.356,560.336 522,566.5C 520.961,567.71 519.794,568.71 518.5,569.5C 521.929,561.631 526.596,554.631 532.5,548.5 Z"/></g>
<g><path style="opacity:1" fill="#8d8d8d" d="M 816.5,554.5 C 819,557.494 821,560.827 822.5,564.5C 821.504,564.586 820.671,564.252 820,563.5C 818.047,560.745 816.88,557.745 816.5,554.5 Z"/></g>
<g><path style="opacity:1" fill="#c8c8c8" d="M 239.5,561.5 C 239.573,563.027 238.906,564.027 237.5,564.5C 237.427,562.973 238.094,561.973 239.5,561.5 Z"/></g>
<g><path style="opacity:1" fill="#d3d3d3" d="M 237.5,564.5 C 237.573,566.027 236.906,567.027 235.5,567.5C 235.427,565.973 236.094,564.973 237.5,564.5 Z"/></g>
<g><path style="opacity:1" fill="#c6c6c6" d="M 469.5,564.5 C 468.66,566.853 467.326,568.853 465.5,570.5C 465.845,567.802 467.178,565.802 469.5,564.5 Z"/></g>
<g><path style="opacity:1" fill="#cbcbcb" d="M 822.5,564.5 C 823.906,564.973 824.573,565.973 824.5,567.5C 823.094,567.027 822.427,566.027 822.5,564.5 Z"/></g>
<g><path style="opacity:1" fill="#c8c8c8" d="M 235.5,567.5 C 235.573,569.027 234.906,570.027 233.5,570.5C 233.427,568.973 234.094,567.973 235.5,567.5 Z"/></g>
<g><path style="opacity:1" fill="#bcbcbc" d="M 291.5,570.5 C 289.983,570.489 288.816,569.823 288,568.5C 287.617,569.056 287.117,569.389 286.5,569.5C 288.419,566.916 290.086,567.25 291.5,570.5 Z"/></g>
<g><path style="opacity:1" fill="#b1b1b1" d="M 361.5,564.5 C 366.343,566.418 370.677,569.084 374.5,572.5C 374.833,573.167 375.167,573.833 375.5,574.5C 370.12,572.145 365.454,568.812 361.5,564.5 Z"/></g>
<g><path style="opacity:1" fill="#8a8a8a" d="M 774.5,569.5 C 777.312,570.895 778.646,573.229 778.5,576.5C 776.412,574.664 775.079,572.331 774.5,569.5 Z"/></g>
<g><path style="opacity:1" fill="#ededed" d="M 291.5,570.5 C 293.027,570.427 294.027,571.094 294.5,572.5C 292.973,572.573 291.973,571.906 291.5,570.5 Z"/></g>
<g><path style="opacity:1" fill="#d4d4d4" d="M 517.5,570.5 C 517.573,572.027 516.906,573.027 515.5,573.5C 515.427,571.973 516.094,570.973 517.5,570.5 Z"/></g>
<g><path style="opacity:1" fill="#d6d6d6" d="M 233.5,570.5 C 230.818,576.537 227.151,581.871 222.5,586.5C 224.727,580.097 228.394,574.763 233.5,570.5 Z"/></g>
<g><path style="opacity:1" fill="#e5e5e5" d="M 285.5,570.5 C 285.657,571.873 285.49,573.207 285,574.5C 284.617,573.944 284.117,573.611 283.5,573.5C 283.427,571.973 284.094,570.973 285.5,570.5 Z"/></g>
<g><path style="opacity:1" fill="#cacaca" d="M 824.5,567.5 C 831.159,575.475 836.825,584.142 841.5,593.5C 839.549,592.718 838.049,591.384 837,589.5C 832.978,582.004 828.811,574.671 824.5,567.5 Z"/></g>
<g><path style="opacity:1" fill="#f4f4f4" d="M 294.5,572.5 C 296.027,572.427 297.027,573.094 297.5,574.5C 295.973,574.573 294.973,573.906 294.5,572.5 Z"/></g>
<g><path style="opacity:1" fill="#cccccc" d="M 283.5,573.5 C 283.573,575.027 282.906,576.027 281.5,576.5C 281.427,574.973 282.094,573.973 283.5,573.5 Z"/></g>
<g><path style="opacity:1" fill="#d2d2d2" d="M 515.5,573.5 C 515.573,575.027 514.906,576.027 513.5,576.5C 513.427,574.973 514.094,573.973 515.5,573.5 Z"/></g>
<g><path style="opacity:1" fill="#f4f4f4" d="M 297.5,574.5 C 299.027,574.427 300.027,575.094 300.5,576.5C 298.973,576.573 297.973,575.906 297.5,574.5 Z"/></g>
<g><path style="opacity:1" fill="#999999" d="M 281.5,576.5 C 278.925,581.745 275.925,586.745 272.5,591.5C 271.833,591.5 271.167,591.5 270.5,591.5C 273.446,585.929 277.112,580.929 281.5,576.5 Z"/></g>
<g><path style="opacity:1" fill="#bbbbbb" d="M 513.5,576.5 C 513.25,578.674 512.25,580.341 510.5,581.5C 510.241,579.011 511.241,577.344 513.5,576.5 Z"/></g>
<g><path style="opacity:1" fill="#adadad" d="M 300.5,576.5 C 306.514,578.835 311.848,582.169 316.5,586.5C 310.495,584.168 305.162,580.835 300.5,576.5 Z"/></g>
<g><path style="opacity:1" fill="#bfbfbf" d="M 465.5,570.5 C 461.815,577.875 457.149,584.541 451.5,590.5C 455.185,583.125 459.851,576.459 465.5,570.5 Z"/></g>
<g><path style="opacity:1" fill="#cfcfcf" d="M 316.5,586.5 C 318.122,587.122 319.455,588.122 320.5,589.5C 318.381,589.532 317.048,588.532 316.5,586.5 Z"/></g>
<g><path style="opacity:1" fill="#e4e4e4" d="M 320.5,589.5 C 322.027,589.427 323.027,590.094 323.5,591.5C 321.973,591.573 320.973,590.906 320.5,589.5 Z"/></g>
<g><path style="opacity:1" fill="#a7a7a7" d="M 222.5,586.5 C 221.702,588.966 220.369,590.966 218.5,592.5C 218.845,589.802 220.178,587.802 222.5,586.5 Z"/></g>
<g><path style="opacity:1" fill="#d2d2d2" d="M 374.5,572.5 C 387.407,580.966 400.407,589.466 413.5,598C 414.793,598.49 416.127,598.657 417.5,598.5C 417.721,600.664 418.721,602.33 420.5,603.5C 404.688,595.008 389.688,585.342 375.5,574.5C 375.167,573.833 374.833,573.167 374.5,572.5 Z"/></g>
<g><path style="opacity:1" fill="#e8e8e8" d="M 323.5,591.5 C 325.027,591.427 326.027,592.094 326.5,593.5C 324.973,593.573 323.973,592.906 323.5,591.5 Z"/></g>
<g><path style="opacity:1" fill="#cacaca" d="M 778.5,576.5 C 779.496,576.414 780.329,576.748 781,577.5C 785.843,585.856 790.676,594.189 795.5,602.5C 793.567,600.063 791.4,597.729 789,595.5C 786.01,588.85 782.51,582.516 778.5,576.5 Z"/></g>
<g><path style="opacity:1" fill="#ececec" d="M 270.5,591.5 C 271.167,591.5 271.833,591.5 272.5,591.5C 270.869,595.121 268.535,598.121 265.5,600.5C 266.901,597.366 268.568,594.366 270.5,591.5 Z"/></g>
<g><path style="opacity:1" fill="#cecece" d="M 510.5,581.5 C 507.587,586.929 504.42,592.263 501,597.5C 498.817,599.907 496.65,602.24 494.5,604.5C 498.311,598.222 502.144,591.889 506,585.5C 507.049,583.616 508.549,582.282 510.5,581.5 Z"/></g>
<g><path style="opacity:1" fill="#dcdcdc" d="M 451.5,590.5 C 450.617,593.704 448.95,596.371 446.5,598.5C 447.383,595.296 449.05,592.629 451.5,590.5 Z"/></g>
<g><path style="opacity:1" fill="#ebebeb" d="M 841.5,593.5 C 843.25,594.659 844.25,596.326 844.5,598.5C 842.75,597.341 841.75,595.674 841.5,593.5 Z"/></g>
<g><path style="opacity:1" fill="#e8e8e8" d="M 218.5,592.5 C 213.92,600.419 208.92,608.086 203.5,615.5C 203.167,615.5 202.833,615.5 202.5,615.5C 206.604,606.952 211.937,599.286 218.5,592.5 Z"/></g>
<g><path style="opacity:1" fill="#e6e6e6" d="M 328.5,594.5 C 331.117,595.786 333.45,597.453 335.5,599.5C 332.237,599.044 329.904,597.377 328.5,594.5 Z"/></g>
<g><path style="opacity:1" fill="#e5e5e5" d="M 265.5,600.5 C 265.573,602.027 264.906,603.027 263.5,603.5C 263.427,601.973 264.094,600.973 265.5,600.5 Z"/></g>
<g><path style="opacity:1" fill="#888888" d="M 335.5,599.5 C 339.252,599.94 342.252,601.607 344.5,604.5C 343.391,604.443 342.391,604.11 341.5,603.5C 338.964,602.963 336.964,601.63 335.5,599.5 Z"/></g>
<g><path style="opacity:1" fill="#eeeeee" d="M 341.5,603.5 C 342.391,604.11 343.391,604.443 344.5,604.5C 344.5,604.833 344.5,605.167 344.5,605.5C 342.821,605.715 341.821,605.048 341.5,603.5 Z"/></g>
<g><path style="opacity:1" fill="#e7e7e7" d="M 420.5,603.5 C 422.027,603.427 423.027,604.094 423.5,605.5C 421.973,605.573 420.973,604.906 420.5,603.5 Z"/></g>
<g><path style="opacity:1" fill="#d5d5d5" d="M 795.5,602.5 C 796.906,602.973 797.573,603.973 797.5,605.5C 796.094,605.027 795.427,604.027 795.5,602.5 Z"/></g>
<g><path style="opacity:1" fill="#e8e8e8" d="M 844.5,598.5 C 845.643,598.908 846.643,599.575 847.5,600.5C 849.557,604.201 851.557,607.867 853.5,611.5C 852.5,610.833 851.5,610.167 850.5,609.5C 848.472,605.816 846.472,602.15 844.5,598.5 Z"/></g>
<g><path style="opacity:1" fill="#b7b7b7" d="M 346.5,606.5 C 348.027,606.427 349.027,607.094 349.5,608.5C 347.973,608.573 346.973,607.906 346.5,606.5 Z"/></g>
<g><path style="opacity:1" fill="#c2c2c2" d="M 349.5,608.5 C 351.027,608.427 352.027,609.094 352.5,610.5C 350.973,610.573 349.973,609.906 349.5,608.5 Z"/></g>
<g><path style="opacity:1" fill="#d8d8d8" d="M 446.5,598.5 C 443.334,604.16 439.668,609.494 435.5,614.5C 430.892,612.213 426.892,609.213 423.5,605.5C 427.731,607.071 431.731,609.071 435.5,611.5C 438.947,606.91 442.614,602.577 446.5,598.5 Z"/></g>
<g><path style="opacity:1" fill="#a2a2a2" d="M 797.5,605.5 C 802.814,611.444 807.148,618.111 810.5,625.5C 808.926,625.063 807.759,624.063 807,622.5C 803.809,616.779 800.642,611.112 797.5,605.5 Z"/></g>
<g><path style="opacity:1" fill="#b6b6b6" d="M 263.5,603.5 C 259.356,610.445 255.189,617.445 251,624.5C 250.329,625.252 249.496,625.586 248.5,625.5C 252.514,617.465 257.514,610.132 263.5,603.5 Z"/></g>
<g><path style="opacity:1" fill="#c3c3c3" d="M 354.5,611.5 C 360.189,614.676 365.523,618.342 370.5,622.5C 364.463,619.818 359.129,616.151 354.5,611.5 Z"/></g>
<g><path style="opacity:1" fill="#808080" d="M 850.5,609.5 C 851.5,610.167 852.5,610.833 853.5,611.5C 855.924,614.008 857.59,617.008 858.5,620.5C 856.926,620.063 855.759,619.063 855,617.5C 853.644,614.671 852.144,612.004 850.5,609.5 Z"/></g>
<g><path style="opacity:1" fill="#7b7b7b" d="M 202.5,615.5 C 202.833,615.5 203.167,615.5 203.5,615.5C 203.446,617.632 202.446,618.965 200.5,619.5C 200.66,617.847 201.326,616.514 202.5,615.5 Z"/></g>
<g><path style="opacity:1" fill="#b3b3b3" d="M 494.5,604.5 C 490.575,612.024 485.908,619.024 480.5,625.5C 481.045,623.407 481.878,621.407 483,619.5C 486.369,614.071 490.202,609.071 494.5,604.5 Z"/></g>
<g><path style="opacity:1" fill="#b8b8b8" d="M 200.5,619.5 C 200.573,621.027 199.906,622.027 198.5,622.5C 198.427,620.973 199.094,619.973 200.5,619.5 Z"/></g>
<g><path style="opacity:1" fill="#a6a6a6" d="M 370.5,622.5 C 372.027,622.427 373.027,623.094 373.5,624.5C 371.973,624.573 370.973,623.906 370.5,622.5 Z"/></g>
<g><path style="opacity:1" fill="#b5b5b5" d="M 858.5,620.5 C 859.906,620.973 860.573,621.973 860.5,623.5C 859.094,623.027 858.427,622.027 858.5,620.5 Z"/></g>
<g><path style="opacity:1" fill="#bbbbbb" d="M 198.5,622.5 C 198.573,624.027 197.906,625.027 196.5,625.5C 196.427,623.973 197.094,622.973 198.5,622.5 Z"/></g>
<g><path style="opacity:1" fill="#666666" d="M 373.5,624.5 C 376.285,623.916 377.952,624.916 378.5,627.5C 376.326,627.25 374.659,626.25 373.5,624.5 Z"/></g>
<g><path style="opacity:1" fill="#c6c6c6" d="M 860.5,623.5 C 861.906,623.973 862.573,624.973 862.5,626.5C 861.094,626.027 860.427,625.027 860.5,623.5 Z"/></g>
<g><path style="opacity:1" fill="#d4d4d4" d="M 248.5,625.5 C 248.573,627.027 247.906,628.027 246.5,628.5C 246.427,626.973 247.094,625.973 248.5,625.5 Z"/></g>
<g><path style="opacity:1" fill="#eeeeee" d="M 810.5,625.5 C 811.401,626.29 812.068,627.29 812.5,628.5C 811.883,628.611 811.383,628.944 811,629.5C 810.51,628.207 810.343,626.873 810.5,625.5 Z"/></g>
<g><path style="opacity:1" fill="#b7b7b7" d="M 135.5,146.5 C 135.167,336.334 135.5,526.001 136.5,715.5C 136.217,716.289 135.717,716.956 135,717.5C 134.167,527 134.334,336.666 135.5,146.5 Z"/></g>
<g><path style="opacity:1" fill="#9f9f9f" d="M 378.5,627.5 C 380.027,627.427 381.027,628.094 381.5,629.5C 379.973,629.573 378.973,628.906 378.5,627.5 Z"/></g>
<g><path style="opacity:1" fill="#d5d5d5" d="M 246.5,628.5 C 246.573,630.027 245.906,631.027 244.5,631.5C 244.427,629.973 245.094,628.973 246.5,628.5 Z"/></g>
<g><path style="opacity:1" fill="#7a7a7a" d="M 812.5,628.5 C 814.824,628.877 815.491,629.877 814.5,631.5C 813.094,631.027 812.427,630.027 812.5,628.5 Z"/></g>
<g><path style="opacity:1" fill="#bababa" d="M 381.5,629.5 C 383.027,629.427 384.027,630.094 384.5,631.5C 382.973,631.573 381.973,630.906 381.5,629.5 Z"/></g>
<g><path style="opacity:1" fill="#838383" d="M 814.5,631.5 C 817.621,632.736 818.955,635.069 818.5,638.5C 816.412,636.664 815.079,634.331 814.5,631.5 Z"/></g>
<g><path style="opacity:1" fill="#9b9b9b" d="M 244.5,631.5 C 243.331,634.511 241.664,637.178 239.5,639.5C 239.776,635.921 241.443,633.254 244.5,631.5 Z"/></g>
<g><path style="opacity:1" fill="#e8e8e8" d="M 384.5,631.5 C 387.117,632.786 389.45,634.453 391.5,636.5C 388.326,635.99 385.992,634.323 384.5,631.5 Z"/></g>
<g><path style="opacity:1" fill="#cbcbcb" d="M 475.5,632.5 C 475.573,634.027 474.906,635.027 473.5,635.5C 473.427,633.973 474.094,632.973 475.5,632.5 Z"/></g>
<g><path style="opacity:1" fill="#cfcfcf" d="M 391.5,636.5 C 393.027,636.427 394.027,637.094 394.5,638.5C 392.973,638.573 391.973,637.906 391.5,636.5 Z"/></g>
<g><path style="opacity:1" fill="#a4a4a4" d="M 473.5,635.5 C 473.771,637.38 473.104,638.713 471.5,639.5C 471.157,637.517 471.824,636.183 473.5,635.5 Z"/></g>
<g><path style="opacity:1" fill="#f9faf9" d="M 818.5,638.5 C 819.401,639.29 820.068,640.29 820.5,641.5C 818.952,641.179 818.285,640.179 818.5,638.5 Z"/></g>
<g><path style="opacity:1" fill="#a6a6a6" d="M 394.5,638.5 C 397.198,638.845 399.198,640.178 400.5,642.5C 398.147,641.66 396.147,640.326 394.5,638.5 Z"/></g>
<g><path style="opacity:1" fill="#c5c5c5" d="M 862.5,626.5 C 869.159,634.475 874.825,643.142 879.5,652.5C 872.855,644.562 867.188,635.895 862.5,626.5 Z"/></g>
<g><path style="opacity:1" fill="#cccccc" d="M 196.5,625.5 C 191.939,633.724 186.605,641.39 180.5,648.5C 183.413,643.071 186.58,637.737 190,632.5C 191.719,629.712 193.885,627.379 196.5,625.5 Z"/></g>
<g><path style="opacity:1" fill="#c3c3c3" d="M 400.5,642.5 C 402.027,642.427 403.027,643.094 403.5,644.5C 401.973,644.573 400.973,643.906 400.5,642.5 Z"/></g>
<g><path style="opacity:1" fill="#efefef" d="M 405.5,645.5 C 407.795,646.475 409.795,647.808 411.5,649.5C 408.392,649.625 406.392,648.292 405.5,645.5 Z"/></g>
<g><path style="opacity:1" fill="#b9b9b9" d="M 471.5,639.5 C 468.489,646.197 464.489,652.197 459.5,657.5C 462.534,650.738 466.534,644.738 471.5,639.5 Z"/></g>
<g><path style="opacity:1" fill="#c1c1c1" d="M 820.5,641.5 C 822.074,641.937 823.241,642.937 824,644.5C 826.758,649.075 829.258,653.742 831.5,658.5C 830.206,657.71 829.039,656.71 828,655.5C 825.242,650.925 822.742,646.258 820.5,641.5 Z"/></g>
<g><path style="opacity:1" fill="#a6a6a6" d="M 413.5,650.5 C 415.404,650.738 416.738,651.738 417.5,653.5C 415.596,653.262 414.262,652.262 413.5,650.5 Z"/></g>
<g><path style="opacity:1" fill="#ececec" d="M 879.5,652.5 C 881.727,653.401 882.727,655.067 882.5,657.5C 880.75,656.341 879.75,654.674 879.5,652.5 Z"/></g>
<g><path style="opacity:1" fill="#cbcbcb" d="M 417.5,653.5 C 421.483,655.806 425.483,658.139 429.5,660.5C 429.833,661.167 430.167,661.833 430.5,662.5C 426.862,660.547 423.195,658.547 419.5,656.5C 418.388,655.735 417.721,654.735 417.5,653.5 Z"/></g>
<g><path style="opacity:1" fill="#e5e5e5" d="M 831.5,658.5 C 832.906,658.973 833.573,659.973 833.5,661.5C 832.094,661.027 831.427,660.027 831.5,658.5 Z"/></g>
<g><path style="opacity:1" fill="#e1e1e1" d="M 459.5,657.5 C 459.155,660.198 457.822,662.198 455.5,663.5C 456.34,661.147 457.674,659.147 459.5,657.5 Z"/></g>
<g><path style="opacity:1" fill="#4e4e4e" d="M 429.5,660.5 C 431.853,661.34 433.853,662.674 435.5,664.5C 434.391,664.443 433.391,664.11 432.5,663.5C 431.508,663.672 430.842,663.338 430.5,662.5C 430.167,661.833 429.833,661.167 429.5,660.5 Z"/></g>
<g><path style="opacity:1" fill="#ebebeb" d="M 834.5,663.5 C 835.906,663.973 836.573,664.973 836.5,666.5C 835.094,666.027 834.427,665.027 834.5,663.5 Z"/></g>
<g><path style="opacity:1" fill="#a7a7a7" d="M 432.5,663.5 C 433.391,664.11 434.391,664.443 435.5,664.5C 436.833,665.167 437.833,666.167 438.5,667.5C 436.034,666.702 434.034,665.369 432.5,663.5 Z"/></g>
<g><path style="opacity:1" fill="#d9d9d9" d="M 180.5,648.5 C 176.486,656.535 171.486,663.868 165.5,670.5C 169.726,662.613 174.726,655.28 180.5,648.5 Z"/></g>
<g><path style="opacity:1" fill="#9e9e9e" d="M 455.5,663.5 C 454.262,666.738 452.596,669.738 450.5,672.5C 450.167,672.5 449.833,672.5 449.5,672.5C 450.263,668.63 452.263,665.63 455.5,663.5 Z"/></g>
<g><path style="opacity:1" fill="#d6d6d6" d="M 438.5,667.5 C 440.027,667.427 441.027,668.094 441.5,669.5C 439.973,669.573 438.973,668.906 438.5,667.5 Z"/></g>
<g><path style="opacity:1" fill="#c3c3c3" d="M 239.5,639.5 C 230.688,653.11 221.854,666.777 213,680.5C 211.961,681.71 210.794,682.71 209.5,683.5C 218.645,669.223 227.812,654.89 237,640.5C 237.671,639.748 238.504,639.414 239.5,639.5 Z"/></g>
<g><path style="opacity:1" fill="#ebebeb" d="M 441.5,669.5 C 443.928,671.043 446.594,672.043 449.5,672.5C 449.833,672.5 450.167,672.5 450.5,672.5C 446.607,675.427 443.607,674.427 441.5,669.5 Z"/></g>
<g><path style="opacity:1" fill="#949494" d="M 165.5,670.5 C 165.464,674.2 163.797,676.867 160.5,678.5C 161.669,675.489 163.336,672.822 165.5,670.5 Z"/></g>
<g><path style="opacity:1" fill="#cacaca" d="M 882.5,657.5 C 888.806,664.757 894.139,672.757 898.5,681.5C 897.833,681.167 897.167,680.833 896.5,680.5C 891.096,673.295 886.429,665.629 882.5,657.5 Z"/></g>
<g><path style="opacity:1" fill="#cccccc" d="M 160.5,678.5 C 160.573,680.027 159.906,681.027 158.5,681.5C 158.427,679.973 159.094,678.973 160.5,678.5 Z"/></g>
<g><path style="opacity:1" fill="#8b8b8b" d="M 896.5,680.5 C 897.167,680.833 897.833,681.167 898.5,681.5C 899.89,682.899 900.89,684.566 901.5,686.5C 901.5,687.167 901.5,687.833 901.5,688.5C 899.336,686.178 897.669,683.511 896.5,680.5 Z"/></g>
<g><path style="opacity:1" fill="#cdcdcd" d="M 158.5,681.5 C 155.818,687.537 152.151,692.871 147.5,697.5C 149.272,692.797 151.939,688.63 155.5,685C 155.167,684.667 154.833,684.333 154.5,684C 155.984,683.338 157.317,682.504 158.5,681.5 Z"/></g>
<g><path style="opacity:1" fill="#cccccc" d="M 836.5,666.5 C 837.496,666.414 838.329,666.748 839,667.5C 843.444,674.726 847.61,682.059 851.5,689.5C 845.784,682.428 840.784,674.762 836.5,666.5 Z"/></g>
<g><path style="opacity:1" fill="#e6e6e6" d="M 901.5,686.5 C 906.826,692.476 911.159,699.143 914.5,706.5C 909.689,700.891 905.356,694.891 901.5,688.5C 901.5,687.833 901.5,687.167 901.5,686.5 Z"/></g>
<g><path style="opacity:1" fill="#dfdfdf" d="M 852.5,690.5 C 854.588,692.336 855.921,694.669 856.5,697.5C 854.331,695.66 852.998,693.326 852.5,690.5 Z"/></g>
<g><path style="opacity:1" fill="#9f9f9f" d="M 147.5,697.5 C 147.378,700.292 146.044,702.292 143.5,703.5C 144.449,701.223 145.782,699.223 147.5,697.5 Z"/></g>
<g><path style="opacity:1" fill="#959595" d="M 856.5,697.5 C 860.206,700.886 863.206,704.886 865.5,709.5C 864.833,709.5 864.167,709.5 863.5,709.5C 862.977,707.292 861.644,705.792 859.5,705C 859.833,704.667 860.167,704.333 860.5,704C 858.266,702.362 856.933,700.195 856.5,697.5 Z"/></g>
<g><path style="opacity:1" fill="#eeeeee" d="M 934.5,680.5 C 934.667,699.503 934.5,718.503 934,737.5C 933.292,736.619 932.458,735.953 931.5,735.5C 927.981,730.463 924.981,725.13 922.5,719.5C 924.017,719.511 925.184,720.177 926,721.5C 927.852,724.711 929.519,728.044 931,731.5C 931.915,730.672 932.581,729.672 933,728.5C 933.169,712.328 933.669,696.328 934.5,680.5 Z"/></g>
<g><path style="opacity:1" fill="#cacaca" d="M 205.5,689.5 C 199.637,700.52 192.803,710.853 185,720.5C 180.082,729.566 174.249,737.9 167.5,745.5C 177.48,728.884 187.98,712.55 199,696.5C 200.719,693.712 202.885,691.379 205.5,689.5 Z"/></g>
<g><path style="opacity:1" fill="#eaeaea" d="M 914.5,706.5 C 917.728,709.069 919.728,712.402 920.5,716.5C 918,713.506 916,710.173 914.5,706.5 Z"/></g>
<g><path style="opacity:1" fill="#dbdbdb" d="M 863.5,709.5 C 864.167,709.5 864.833,709.5 865.5,709.5C 867.766,713.034 869.766,716.7 871.5,720.5C 868.112,717.403 865.445,713.736 863.5,709.5 Z"/></g>
<g><path style="opacity:1" fill="#ebebeb" d="M 920.5,716.5 C 922.824,716.877 923.491,717.877 922.5,719.5C 921.094,719.027 920.427,718.027 920.5,716.5 Z"/></g>
<g><path style="opacity:1" fill="#a2a2a2" d="M 872.5,722.5 C 874.446,723.035 875.446,724.368 875.5,726.5C 874.026,725.564 873.026,724.23 872.5,722.5 Z"/></g>
<g><path style="opacity:1" fill="#a5a5a5" d="M 875.5,726.5 C 879.551,730.91 882.884,735.91 885.5,741.5C 885.167,741.5 884.833,741.5 884.5,741.5C 880.749,737.005 877.749,732.005 875.5,726.5 Z"/></g>
<g><path style="opacity:1" fill="#ededed" d="M 884.5,741.5 C 884.833,741.5 885.167,741.5 885.5,741.5C 887.153,744.131 888.819,746.797 890.5,749.5C 888.983,749.489 887.816,748.823 887,747.5C 886.345,745.372 885.511,743.372 884.5,741.5 Z"/></g>
<g><path style="opacity:1" fill="#cfcfcf" d="M 167.5,745.5 C 167.573,747.027 166.906,748.027 165.5,748.5C 165.427,746.973 166.094,745.973 167.5,745.5 Z"/></g>
<g><path style="opacity:1" fill="#bebebe" d="M 165.5,748.5 C 164.89,750.434 163.89,752.101 162.5,753.5C 162.273,751.067 163.273,749.401 165.5,748.5 Z"/></g>
<g><path style="opacity:1" fill="#e2e2e2" d="M 891.5,751.5 C 893.664,753.822 895.331,756.489 896.5,759.5C 893.836,757.516 892.169,754.849 891.5,751.5 Z"/></g>
<g><path style="opacity:1" fill="#cecece" d="M 162.5,753.5 C 159.691,758.445 156.857,763.445 154,768.5C 148,775.843 142.5,783.51 137.5,791.5C 136.833,791.833 136.167,792.167 135.5,792.5C 143.811,780.003 151.978,767.336 160,754.5C 160.671,753.748 161.504,753.414 162.5,753.5 Z"/></g>
<g><path style="opacity:1" fill="#c6c6c6" d="M 896.5,759.5 C 898.074,759.937 899.241,760.937 900,762.5C 903.191,768.221 906.358,773.888 909.5,779.5C 904.174,773.524 899.841,766.857 896.5,759.5 Z"/></g>
<g><path style="opacity:1" fill="#f3f3f3" d="M 909.5,779.5 C 910.338,779.842 910.672,780.508 910.5,781.5C 908.302,781.591 907.969,780.925 909.5,779.5 Z"/></g>
<g><path style="opacity:1" fill="#959595" d="M 912.5,784.5 C 913.496,784.414 914.329,784.748 915,785.5C 917.963,790.408 920.796,795.408 923.5,800.5C 922.833,800.167 922.167,799.833 921.5,799.5C 917.952,794.897 914.952,789.897 912.5,784.5 Z"/></g>
<g><path style="opacity:1" fill="#ededed" d="M 921.5,799.5 C 922.167,799.833 922.833,800.167 923.5,800.5C 926.925,805.255 929.925,810.255 932.5,815.5C 928.06,810.722 924.393,805.388 921.5,799.5 Z"/></g>
<g><path style="opacity:1" fill="#b4b4b4" d="M 135.5,792.5 C 135.188,836.524 135.521,880.524 136.5,924.5C 135.778,924.082 135.278,923.416 135,922.5C 134.169,878.998 134.335,835.665 135.5,792.5 Z"/></g>
<g><path style="opacity:1" fill="#7a7a7a" d="M 932.5,815.5 C 933.15,815.804 933.817,816.137 934.5,816.5C 935.667,852.495 935.833,888.495 935,924.5C 933.961,925.71 932.794,926.71 931.5,927.5C 931.5,927.167 931.5,926.833 931.5,926.5C 933.028,923.028 934.028,919.362 934.5,915.5C 934.487,888.551 934.487,860.384 934.5,831C 934.618,825.705 933.951,820.538 932.5,815.5 Z"/></g>
<g><path style="opacity:1" fill="#f0f0f0" d="M 137.5,791.5 C 136.35,833.138 136.183,874.804 137,916.5C 136.339,921.458 138.172,924.958 142.5,927C 360.559,928.43 578.559,928.93 796.5,928.5C 840.157,927.693 883.823,927.193 927.5,927C 928.682,925.232 930.015,925.065 931.5,926.5C 931.5,926.833 931.5,927.167 931.5,927.5C 930.234,928.09 928.901,928.59 927.5,929C 665.5,929.667 403.5,929.667 141.5,929C 138.885,928.388 137.219,926.888 136.5,924.5C 135.521,880.524 135.188,836.524 135.5,792.5C 136.167,792.167 136.833,791.833 137.5,791.5 Z"/></g>
<g><path style="opacity:1" fill="#d6d6d6" d="M 92.5,930.5 C 92.8333,930.5 93.1667,930.5 93.5,930.5C 95.6461,937.8 98.6461,944.8 102.5,951.5C 100.113,949.087 97.9461,946.42 96,943.5C 94.6918,939.24 93.1918,935.074 91.5,931C 91.7284,930.601 92.0618,930.435 92.5,930.5 Z"/></g>
<g><path style="opacity:1" fill="#cacaca" d="M 976.5,927.5 C 976.833,927.5 977.167,927.5 977.5,927.5C 975.138,946.587 965.638,959.921 949,967.5C 946.123,969.404 942.956,970.404 939.5,970.5C 939.5,970.167 939.5,969.833 939.5,969.5C 958.718,963.616 970.718,950.95 975.5,931.5C 976.434,930.432 976.768,929.099 976.5,927.5 Z"/></g>
<g><path style="opacity:1" fill="#d1d1d1" d="M 102.5,951.5 C 109.135,959.146 117.135,964.812 126.5,968.5C 126.5,968.833 126.5,969.167 126.5,969.5C 115.941,966.89 107.941,960.89 102.5,951.5 Z"/></g>
<g><path style="opacity:1" fill="#212121" d="M 126.5,969.5 C 126.5,969.167 126.5,968.833 126.5,968.5C 128.75,968.181 130.75,968.681 132.5,970C 401.512,970.827 670.512,970.661 939.5,969.5C 939.5,969.833 939.5,970.167 939.5,970.5C 939.167,970.5 938.833,970.5 938.5,970.5C 936.901,970.232 935.568,970.566 934.5,971.5C 934.167,971.5 933.833,971.5 933.5,971.5C 668.167,971.5 402.833,971.5 137.5,971.5C 133.665,971.583 129.998,970.917 126.5,969.5 Z"/></g>
<g><path style="opacity:1" fill="#b8b8b8" d="M 934.5,971.5 C 935.568,970.566 936.901,970.232 938.5,970.5C 937.335,972.109 936.001,972.443 934.5,971.5 Z"/></g>
<g><path style="opacity:1" fill="#a5a5a5" d="M 137.5,971.5 C 402.833,971.5 668.167,971.5 933.5,971.5C 746.098,972.167 558.598,972.834 371,973.5C 295.463,972.588 219.463,972.588 143,973.5C 140.97,973.046 139.137,972.38 137.5,971.5 Z"/></g>
</svg>
