<?xml version="1.0" encoding="UTF-8"?>
<!DOCTYPE svg PUBLIC "-//W3C//DTD SVG 1.1//EN" "http://www.w3.org/Graphics/SVG/1.1/DTD/svg11.dtd">
<svg xmlns="http://www.w3.org/2000/svg" version="1.1" width="1080px" height="1080px" style="shape-rendering:geometricPrecision; text-rendering:geometricPrecision; image-rendering:optimizeQuality; fill-rule:evenodd; clip-rule:evenodd" xmlns:xlink="http://www.w3.org/1999/xlink">
<g><path style="opacity:1" fill="#f8f8f8" d="M 976.5,136.5 C 975.833,135.5 975.167,134.5 974.5,133.5C 970.617,122.063 963.617,113.063 953.5,106.5C 951.967,104.755 949.967,103.755 947.5,103.5C 942.673,101.542 937.673,100.042 932.5,99C 667.167,98.3333 401.833,98.3333 136.5,99C 133.522,99.696 130.522,100.196 127.5,100.5C 130.48,98.9495 133.647,97.6161 137,96.5C 137.333,96.8333 137.667,97.1667 138,97.5C 143.932,96.6933 149.932,96.0266 156,95.5C 402.798,96.7921 649.632,96.7921 896.5,95.5C 908.764,95.4424 920.931,96.1091 933,97.5C 951.513,99.9712 965.18,109.638 974,126.5C 975.352,129.72 976.186,133.053 976.5,136.5 Z"/></g>
<g><path style="opacity:1" fill="#e8e8e8" d="M 127.5,100.5 C 126.22,101.931 124.553,102.598 122.5,102.5C 123.78,101.069 125.447,100.402 127.5,100.5 Z"/></g>
<g><path style="opacity:1" fill="#010101" d="M 947.5,103.5 C 949.033,105.245 951.033,106.245 953.5,106.5C 963.617,113.063 970.617,122.063 974.5,133.5C 975.051,136.807 975.384,140.14 975.5,143.5C 975.83,407.521 975.497,671.521 974.5,935.5C 969.176,952.157 958.176,963.157 941.5,968.5C 938.544,969.137 935.544,969.637 932.5,970C 663.825,970.824 395.159,970.657 126.5,969.5C 119.534,965.68 112.867,961.347 106.5,956.5C 105.92,954.251 104.587,952.585 102.5,951.5C 98.7379,945.304 96.0713,938.637 94.5,931.5C 93.5017,668.873 93.1684,406.207 93.5,143.5C 94.1081,135.509 96.6081,128.175 101,121.5C 106.978,113.63 114.145,107.297 122.5,102.5C 124.553,102.598 126.22,101.931 127.5,100.5C 130.522,100.196 133.522,99.696 136.5,99C 401.833,98.3333 667.167,98.3333 932.5,99C 937.673,100.042 942.673,101.542 947.5,103.5 Z M 918.5,141.5 C 922.693,142.283 927.027,142.949 931.5,143.5C 932.902,147.111 933.902,150.778 934.5,154.5C 933.389,408.86 933.389,663.194 934.5,917.5C 932.87,919.358 932.537,921.358 933.5,923.5C 932.094,923.973 931.427,924.973 931.5,926.5C 930.85,926.196 930.183,925.863 929.5,925.5C 878.81,927.212 827.976,928.212 777,928.5C 610.749,928.424 444.915,928.424 279.5,928.5C 233.837,927.755 188.17,927.255 142.5,927C 138.279,925.314 136.445,922.147 137,917.5C 136.5,878.168 136.333,838.835 136.5,799.5C 137.541,585.134 137.541,370.801 136.5,156.5C 137.312,152.194 137.979,147.861 138.5,143.5C 139.117,143.611 139.617,143.944 140,144.5C 141.786,142.901 143.953,142.067 146.5,142C 403.833,141.5 661.166,141.333 918.5,141.5 Z"/></g>
<g><path style="opacity:1" fill="#787878" d="M 947.5,103.5 C 949.967,103.755 951.967,104.755 953.5,106.5C 951.033,106.245 949.033,105.245 947.5,103.5 Z"/></g>
<g><path style="opacity:1" fill="#dadada" d="M 122.5,102.5 C 114.145,107.297 106.978,113.63 101,121.5C 96.6081,128.175 94.1081,135.509 93.5,143.5C 92.8333,143.5 92.5,143.833 92.5,144.5C 92.1667,144.5 91.8333,144.5 91.5,144.5C 91.4461,136.826 93.6128,129.492 98,122.5C 101.833,118 105.667,113.5 109.5,109C 113.309,105.762 117.642,103.596 122.5,102.5 Z"/></g>
<g><path style="opacity:1" fill="#505050" d="M 929.5,141.5 C 925.833,141.5 922.167,141.5 918.5,141.5C 661.166,141.333 403.833,141.5 146.5,142C 143.953,142.067 141.786,142.901 140,144.5C 139.617,143.944 139.117,143.611 138.5,143.5C 138.167,143.5 137.833,143.5 137.5,143.5C 137.953,142.542 138.619,141.708 139.5,141C 403,140.167 666.334,140.334 929.5,141.5 Z"/></g>
<g><path style="opacity:1" fill="#e8e8e8" d="M 918.5,141.5 C 922.167,141.5 925.833,141.5 929.5,141.5C 930.5,141.833 931.167,142.5 931.5,143.5C 927.027,142.949 922.693,142.283 918.5,141.5 Z"/></g>
<g><path style="opacity:1" fill="#f9f9f9" d="M 976.5,136.5 C 977.302,137.952 977.802,139.618 978,141.5C 978.167,272.333 978.333,403.167 978.5,534C 978.5,665 978.167,795.834 977.5,926.5C 977.828,663.152 977.495,399.819 976.5,136.5 Z"/></g>
<g><path style="opacity:1" fill="#707070" d="M 93.5,143.5 C 93.1684,406.207 93.5017,668.873 94.5,931.5C 93.8333,931.5 93.1667,931.5 92.5,931.5C 92.5,931.167 92.5,930.833 92.5,930.5C 92.5,668.5 92.5,406.5 92.5,144.5C 92.5,143.833 92.8333,143.5 93.5,143.5 Z"/></g>
<g><path style="opacity:1" fill="#121212" d="M 975.5,143.5 C 976.5,406.333 976.833,669.333 976.5,932.5C 976.5,932.833 976.5,933.167 976.5,933.5C 975.833,934.167 975.167,934.833 974.5,935.5C 975.497,671.521 975.83,407.521 975.5,143.5 Z"/></g>
<g><path style="opacity:1" fill="#575757" d="M 974.5,133.5 C 975.167,134.5 975.833,135.5 976.5,136.5C 977.495,399.819 977.828,663.152 977.5,926.5C 977.795,928.735 977.461,930.735 976.5,932.5C 976.833,669.333 976.5,406.333 975.5,143.5C 975.384,140.14 975.051,136.807 974.5,133.5 Z"/></g>
<g><path style="opacity:1" fill="#f3f3f3" d="M 931.5,143.5 C 932.833,144.167 933.833,145.167 934.5,146.5C 934.5,149.167 934.5,151.833 934.5,154.5C 933.902,150.778 932.902,147.111 931.5,143.5 Z"/></g>
<g><path style="opacity:1" fill="#b5b5b5" d="M 91.5,144.5 C 91.8333,144.5 92.1667,144.5 92.5,144.5C 92.5,406.5 92.5,668.5 92.5,930.5C 91.776,928.782 91.1094,926.948 90.5,925C 91.4995,664.903 91.8328,404.736 91.5,144.5 Z"/></g>
<g><path style="opacity:1" fill="#f8f8f8" d="M 137.5,143.5 C 137.833,143.5 138.167,143.5 138.5,143.5C 137.979,147.861 137.312,152.194 136.5,156.5C 137.541,370.801 137.541,585.134 136.5,799.5C 136.167,799.5 135.833,799.5 135.5,799.5C 135.503,581.626 135.503,363.959 135.5,146.5C 135.932,145.29 136.599,144.29 137.5,143.5 Z"/></g>
<g><path style="opacity:1" fill="#999999" d="M 934.5,146.5 C 935.5,404.666 935.833,662.999 935.5,921.5C 935.167,921.5 934.833,921.5 934.5,921.5C 934.5,920.167 934.5,918.833 934.5,917.5C 933.389,663.194 933.389,408.86 934.5,154.5C 934.5,151.833 934.5,149.167 934.5,146.5 Z"/></g>
<g><path style="opacity:1" fill="#b5b5b5" d="M 135.5,146.5 C 135.503,363.959 135.503,581.626 135.5,799.5C 135.515,840.746 135.515,881.746 135.5,922.5C 134.167,663.736 134.167,405.069 135.5,146.5 Z"/></g>
<g><path style="opacity:1" fill="#f3f3f3" d="M 934.5,917.5 C 934.5,918.833 934.5,920.167 934.5,921.5C 934.672,922.492 934.338,923.158 933.5,923.5C 932.537,921.358 932.87,919.358 934.5,917.5 Z"/></g>
<g><path style="opacity:1" fill="#ebebeb" d="M 933.5,923.5 C 933.573,925.027 932.906,926.027 931.5,926.5C 931.427,924.973 932.094,923.973 933.5,923.5 Z"/></g>
<g><path style="opacity:1" fill="#efefef" d="M 135.5,799.5 C 135.833,799.5 136.167,799.5 136.5,799.5C 136.333,838.835 136.5,878.168 137,917.5C 136.445,922.147 138.279,925.314 142.5,927C 188.17,927.255 233.837,927.755 279.5,928.5C 444.915,928.424 610.749,928.424 777,928.5C 827.976,928.212 878.81,927.212 929.5,925.5C 930.183,925.863 930.85,926.196 931.5,926.5C 930.653,927.966 929.32,928.8 927.5,929C 665.5,929.5 403.5,929.667 141.5,929.5C 138.068,928.401 136.068,926.067 135.5,922.5C 135.515,881.746 135.515,840.746 135.5,799.5 Z"/></g>
<g><path style="opacity:1" fill="#191919" d="M 934.5,921.5 C 934.833,921.5 935.167,921.5 935.5,921.5C 935.18,925.987 932.847,928.82 928.5,930C 666,930.833 403.666,930.666 141.5,929.5C 403.5,929.667 665.5,929.5 927.5,929C 929.32,928.8 930.653,927.966 931.5,926.5C 932.906,926.027 933.573,925.027 933.5,923.5C 934.338,923.158 934.672,922.492 934.5,921.5 Z"/></g>
<g><path style="opacity:1" fill="#dadada" d="M 92.5,931.5 C 93.1667,931.5 93.8333,931.5 94.5,931.5C 96.0713,938.637 98.7379,945.304 102.5,951.5C 96.7085,946.164 93.3752,939.497 92.5,931.5 Z"/></g>
<g><path style="opacity:1" fill="#c6c6c6" d="M 976.5,933.5 C 974.963,941.241 971.796,948.241 967,954.5C 962.841,957.659 959.008,961.159 955.5,965C 951.137,967.684 946.47,969.518 941.5,970.5C 941.5,969.833 941.5,969.167 941.5,968.5C 958.176,963.157 969.176,952.157 974.5,935.5C 975.167,934.833 975.833,934.167 976.5,933.5 Z"/></g>
<g><path style="opacity:1" fill="#d1d1d1" d="M 102.5,951.5 C 104.587,952.585 105.92,954.251 106.5,956.5C 104.065,955.73 102.731,954.063 102.5,951.5 Z"/></g>
<g><path style="opacity:1" fill="#d9d9d9" d="M 106.5,956.5 C 112.867,961.347 119.534,965.68 126.5,969.5C 118.236,967.559 111.569,963.226 106.5,956.5 Z"/></g>
<g><path style="opacity:1" fill="#4b4b4b" d="M 941.5,968.5 C 941.5,969.167 941.5,969.833 941.5,970.5C 939.199,971.06 936.866,971.56 934.5,972C 668.5,972.667 402.5,972.667 136.5,972C 132.91,971.689 129.577,970.856 126.5,969.5C 395.159,970.657 663.825,970.824 932.5,970C 935.544,969.637 938.544,969.137 941.5,968.5 Z"/></g>
</svg>
