<?xml version="1.0" encoding="UTF-8"?>
<!DOCTYPE svg PUBLIC "-//W3C//DTD SVG 1.1//EN" "http://www.w3.org/Graphics/SVG/1.1/DTD/svg11.dtd">
<svg xmlns="http://www.w3.org/2000/svg" version="1.1" width="1080px" height="1080px" style="shape-rendering:geometricPrecision; text-rendering:geometricPrecision; image-rendering:optimizeQuality; fill-rule:evenodd; clip-rule:evenodd" xmlns:xlink="http://www.w3.org/1999/xlink">
<g><path style="opacity:1" fill="#eaeaea" d="M 973.5,121.5 C 966.584,113.943 958.417,107.943 949,103.5C 945.283,101.982 941.449,100.982 937.5,100.5C 670.833,100.333 404.166,100.5 137.5,101C 135.148,101.24 133.148,102.073 131.5,103.5C 126.22,104.306 121.554,106.473 117.5,110C 113.63,113.702 109.963,117.536 106.5,121.5C 105.833,121.833 105.167,122.167 104.5,122.5C 109.459,113.377 116.793,106.877 126.5,103C 136.827,99.1189 147.327,97.6189 158,98.5C 390.985,97.8314 623.985,97.1647 857,96.5C 878.303,96.2698 899.636,96.9364 921,98.5C 939.021,96.8416 955.021,101.842 969,113.5C 970.777,116.059 972.277,118.726 973.5,121.5 Z"/></g>
<g><path style="opacity:1" fill="#252525" d="M 937.5,100.5 C 671.334,101.333 405,101.833 138.5,102C 136.187,102.662 133.854,103.162 131.5,103.5C 133.148,102.073 135.148,101.24 137.5,101C 404.166,100.5 670.833,100.333 937.5,100.5 Z"/></g>
<g><path style="opacity:1" fill="#010101" d="M 937.5,100.5 C 941.449,100.982 945.283,101.982 949,103.5C 958.417,107.943 966.584,113.943 973.5,121.5C 973.427,123.027 974.094,124.027 975.5,124.5C 977.428,129.784 979.261,135.117 981,140.5C 981.825,248.521 981.658,356.521 980.5,464.5C 979.903,469.017 978.237,473.017 975.5,476.5C 970.853,481.752 966.186,487.086 961.5,492.5C 961.158,493.338 960.492,493.672 959.5,493.5C 957.973,493.427 956.973,494.094 956.5,495.5C 955.486,496.674 954.153,497.34 952.5,497.5C 947.874,498.763 943.208,499.929 938.5,501C 904.502,501.5 870.502,501.667 836.5,501.5C 627.833,501.5 419.167,501.5 210.5,501.5C 186.831,501.667 163.164,501.5 139.5,501C 135.177,499.724 130.844,498.558 126.5,497.5C 125.508,497.672 124.842,497.338 124.5,496.5C 123.101,495.11 121.434,494.11 119.5,493.5C 115.167,489.5 110.833,485.5 106.5,481.5C 106.408,479.152 105.408,477.486 103.5,476.5C 103.34,474.847 102.674,473.514 101.5,472.5C 101.204,470.597 100.537,468.93 99.5,467.5C 98.596,466.791 98.2627,465.791 98.5,464.5C 97.3418,356.521 97.1751,248.521 98,140.5C 98.8174,136.211 100.317,132.211 102.5,128.5C 104.083,126.337 105.416,124.004 106.5,121.5C 109.963,117.536 113.63,113.702 117.5,110C 121.554,106.473 126.22,104.306 131.5,103.5C 133.854,103.162 136.187,102.662 138.5,102C 405,101.833 671.334,101.333 937.5,100.5 Z M 931.5,143.5 C 931.833,143.5 932.167,143.5 932.5,143.5C 934.091,144.219 935.591,145.219 937,146.5C 937.629,149.311 938.129,152.144 938.5,155C 937.21,253.067 937.21,351.234 938.5,449.5C 937.783,451.953 936.616,454.287 935,456.5C 933.32,455.397 931.82,455.73 930.5,457.5C 893.423,456.898 856.256,456.231 819,455.5C 805.159,456.089 791.326,456.756 777.5,457.5C 776.167,457.167 774.833,456.833 773.5,456.5C 770.118,453.785 767.118,450.785 764.5,447.5C 764.573,445.973 763.906,444.973 762.5,444.5C 758.411,435.31 753.078,426.977 746.5,419.5C 746.573,417.973 745.906,416.973 744.5,416.5C 743.331,413.489 741.664,410.822 739.5,408.5C 737.404,402.631 734.071,397.631 729.5,393.5C 730.491,391.877 729.824,390.877 727.5,390.5C 726.89,388.566 725.89,386.899 724.5,385.5C 724.25,383.326 723.25,381.659 721.5,380.5C 721.573,378.973 720.906,377.973 719.5,377.5C 716.493,370.813 712.493,364.813 707.5,359.5C 706.241,355.975 704.241,352.975 701.5,350.5C 699.494,345.145 696.494,340.479 692.5,336.5C 691.829,335.153 691.829,333.986 692.5,333C 691.307,331.905 689.973,331.072 688.5,330.5C 687.502,326.495 685.502,323.161 682.5,320.5C 678.61,312.951 673.944,305.951 668.5,299.5C 665.664,293.822 662.331,288.489 658.5,283.5C 656.518,279.844 654.518,276.177 652.5,272.5C 651.482,271.807 650.482,271.141 649.5,270.5C 649.25,268.326 648.25,266.659 646.5,265.5C 646.573,263.973 645.906,262.973 644.5,262.5C 640.741,253.971 635.741,246.305 629.5,239.5C 627.903,235.581 625.903,231.914 623.5,228.5C 620.518,223.177 617.518,217.844 614.5,212.5C 609.833,206.167 605.167,199.833 600.5,193.5C 583.337,218.525 567.004,243.525 551.5,268.5C 549,271.494 547,274.827 545.5,278.5C 539.046,284.708 534.046,292.042 530.5,300.5C 529.094,300.973 528.427,301.973 528.5,303.5C 526.75,304.659 525.75,306.326 525.5,308.5C 519.609,314.594 514.943,321.594 511.5,329.5C 509.75,330.659 508.75,332.326 508.5,334.5C 501.667,342.007 496.001,350.34 491.5,359.5C 488.162,363.006 484.995,366.673 482,370.5C 473.761,364.292 464.928,358.959 455.5,354.5C 447.261,347.368 438.261,341.201 428.5,336C 426.667,334.833 425.167,333.333 424,331.5C 423.667,331.833 423.333,332.167 423,332.5C 422.044,331.421 421.211,330.255 420.5,329C 415.759,326.754 411.426,323.92 407.5,320.5C 405.257,319.526 402.924,319.192 400.5,319.5C 400.122,321.921 399.455,324.254 398.5,326.5C 393.952,333.227 388.785,339.561 383,345.5C 379.644,351.004 376.144,356.337 372.5,361.5C 370.236,363.097 368.236,365.097 366.5,367.5C 362.782,372.869 359.116,378.203 355.5,383.5C 353.952,383.821 353.285,384.821 353.5,386.5C 351.738,387.262 350.738,388.596 350.5,390.5C 344.725,395.612 340.058,401.612 336.5,408.5C 334.738,409.262 333.738,410.596 333.5,412.5C 325.181,422.652 316.681,432.652 308,442.5C 305.249,446.402 302.749,450.402 300.5,454.5C 298.736,455.326 297.402,456.659 296.5,458.5C 287.167,458.5 277.833,458.5 268.5,458.5C 240.33,457.755 211.997,457.088 183.5,456.5C 171.143,457.46 158.809,457.126 146.5,455.5C 145.558,455.608 144.725,455.941 144,456.5C 142.541,454.568 141.375,452.568 140.5,450.5C 140.333,350.499 140.5,250.499 141,150.5C 141.163,148.324 141.996,146.491 143.5,145C 406.112,143.503 668.778,143.003 931.5,143.5 Z M 601.5,276.5 C 606.439,284.279 611.439,292.613 616.5,301.5C 617.357,302.425 618.357,303.092 619.5,303.5C 619.328,304.492 619.662,305.158 620.5,305.5C 620.427,307.027 621.094,308.027 622.5,308.5C 622.427,310.027 623.094,311.027 624.5,311.5C 625.171,312.847 625.171,314.014 624.5,315C 625.736,316.085 627.069,316.918 628.5,317.5C 628.5,317.833 628.5,318.167 628.5,318.5C 631.326,325.318 635.326,331.318 640.5,336.5C 643.201,340.856 645.868,345.189 648.5,349.5C 649.723,352.274 651.223,354.941 653,357.5C 653.759,359.063 654.926,360.063 656.5,360.5C 656.932,361.71 657.599,362.71 658.5,363.5C 658.328,364.492 658.662,365.158 659.5,365.5C 660.263,367.368 661.263,369.035 662.5,370.5C 665.276,375.734 668.276,380.734 671.5,385.5C 673.818,390.133 676.818,394.133 680.5,397.5C 680.328,398.492 680.662,399.158 681.5,399.5C 681.932,400.71 682.599,401.71 683.5,402.5C 684.598,403.397 684.598,404.23 683.5,405C 687.447,410.417 691.447,415.584 695.5,420.5C 695.592,422.848 696.592,424.514 698.5,425.5C 698.75,427.674 699.75,429.341 701.5,430.5C 701.427,432.027 702.094,433.027 703.5,433.5C 707.159,439.184 710.659,445.517 714,452.5C 714.383,451.944 714.883,451.611 715.5,451.5C 715.261,453.467 715.594,455.301 716.5,457C 710.167,457.167 703.833,457.333 697.5,457.5C 633.767,456.81 569.934,455.81 506,454.5C 456.979,455.508 407.812,456.508 358.5,457.5C 358.714,455.856 358.38,454.356 357.5,453C 358.823,452.184 359.489,451.017 359.5,449.5C 361.797,447.706 363.963,445.706 366,443.5C 369.689,437.661 373.522,431.994 377.5,426.5C 378.906,426.027 379.573,425.027 379.5,423.5C 380.167,423.5 380.5,423.167 380.5,422.5C 382.262,421.738 383.262,420.404 383.5,418.5C 384.496,418.586 385.329,418.252 386,417.5C 389.082,413.266 391.916,408.933 394.5,404.5C 396.262,403.738 397.262,402.404 397.5,400.5C 399.262,399.738 400.262,398.404 400.5,396.5C 402.935,395.73 404.269,394.063 404.5,391.5C 407.889,389.275 410.389,386.275 412,382.5C 412.816,381.177 413.983,380.511 415.5,380.5C 416.401,382.727 418.067,383.727 420.5,383.5C 420.369,384.376 420.702,385.043 421.5,385.5C 423.955,387.297 426.622,388.63 429.5,389.5C 429.5,390.833 430.167,391.5 431.5,391.5C 433.808,392.793 436.142,394.126 438.5,395.5C 438.973,396.906 439.973,397.573 441.5,397.5C 441.842,398.338 442.508,398.672 443.5,398.5C 443.973,399.906 444.973,400.573 446.5,400.5C 446.973,401.906 447.973,402.573 449.5,402.5C 450.262,404.262 451.596,405.262 453.5,405.5C 453.973,406.906 454.973,407.573 456.5,407.5C 456.973,408.906 457.973,409.573 459.5,409.5C 460.504,410.683 461.338,412.016 462,413.5C 462.383,412.944 462.883,412.611 463.5,412.5C 463.833,412.5 464.167,412.5 464.5,412.5C 465.802,414.822 467.802,416.155 470.5,416.5C 470.842,417.338 471.508,417.672 472.5,417.5C 476.962,422.272 482.295,425.939 488.5,428.5C 492.504,434.157 495.838,433.824 498.5,427.5C 503.191,421.464 507.525,415.131 511.5,408.5C 513.25,407.341 514.25,405.674 514.5,403.5C 515.906,403.027 516.573,402.027 516.5,400.5C 518.824,400.123 519.491,399.123 518.5,397.5C 523.479,392.225 527.479,386.225 530.5,379.5C 531.89,378.101 532.89,376.434 533.5,374.5C 534.906,374.027 535.573,373.027 535.5,371.5C 539.238,368.09 542.238,364.09 544.5,359.5C 546.167,356.833 547.833,354.167 549.5,351.5C 551.588,349.664 552.921,347.331 553.5,344.5C 554.906,344.027 555.573,343.027 555.5,341.5C 556.167,341.5 556.5,341.167 556.5,340.5C 561.918,334.067 566.584,327.067 570.5,319.5C 571.89,318.101 572.89,316.434 573.5,314.5C 577.238,311.09 580.238,307.09 582.5,302.5C 584.925,299.411 586.925,296.078 588.5,292.5C 590.25,291.341 591.25,289.674 591.5,287.5C 593.822,286.198 595.155,284.198 595.5,281.5C 598.115,280.55 600.115,278.883 601.5,276.5 Z"/></g>
<g><path style="opacity:1" fill="#d9d9d9" d="M 973.5,121.5 C 974.906,121.973 975.573,122.973 975.5,124.5C 974.094,124.027 973.427,123.027 973.5,121.5 Z"/></g>
<g><path style="opacity:1" fill="#757575" d="M 106.5,121.5 C 105.416,124.004 104.083,126.337 102.5,128.5C 102.5,127.833 102.5,127.167 102.5,126.5C 102.66,124.847 103.326,123.514 104.5,122.5C 105.167,122.167 105.833,121.833 106.5,121.5 Z"/></g>
<g><path style="opacity:1" fill="#efefef" d="M 975.5,124.5 C 977.136,125.749 978.303,127.416 979,129.5C 980.618,133.068 981.951,136.735 983,140.5C 983.667,246.833 983.667,353.167 983,459.5C 982.626,461.491 981.793,463.158 980.5,464.5C 981.658,356.521 981.825,248.521 981,140.5C 979.261,135.117 977.428,129.784 975.5,124.5 Z"/></g>
<g><path style="opacity:1" fill="#252525" d="M 145.5,142.5 C 276.5,141.833 407.666,141.5 539,141.5C 670.167,141.667 801.333,141.833 932.5,142C 933.737,142.232 934.737,142.732 935.5,143.5C 934.5,143.5 933.5,143.5 932.5,143.5C 932.167,143.5 931.833,143.5 931.5,143.5C 669.667,142.5 407.667,142.167 145.5,142.5 Z"/></g>
<g><path style="opacity:1" fill="#ebebeb" d="M 102.5,126.5 C 102.5,127.167 102.5,127.833 102.5,128.5C 100.317,132.211 98.8174,136.211 98,140.5C 97.1751,248.521 97.3418,356.521 98.5,464.5C 96.6712,461.713 95.6712,458.546 95.5,455C 95.204,360.57 95.5373,265.903 96.5,171C 95.8333,163.667 95.1667,156.333 94.5,149C 95.3586,140.798 98.0253,133.298 102.5,126.5 Z"/></g>
<g><path style="opacity:1" fill="#bebebe" d="M 145.5,142.5 C 407.667,142.167 669.667,142.5 931.5,143.5C 668.778,143.003 406.112,143.503 143.5,145C 141.996,146.491 141.163,148.324 141,150.5C 140.5,250.499 140.333,350.499 140.5,450.5C 140.5,451.833 140.5,453.167 140.5,454.5C 139.334,352.001 139.167,249.334 140,146.5C 141.451,144.536 143.284,143.203 145.5,142.5 Z"/></g>
<g><path style="opacity:1" fill="#a0a0a0" d="M 932.5,143.5 C 933.5,143.5 934.5,143.5 935.5,143.5C 938.39,144.899 939.89,147.232 940,150.5C 940.667,250.833 940.667,351.167 940,451.5C 939.768,452.737 939.268,453.737 938.5,454.5C 938.5,452.833 938.5,451.167 938.5,449.5C 937.21,351.234 937.21,253.067 938.5,155C 938.129,152.144 937.629,149.311 937,146.5C 935.591,145.219 934.091,144.219 932.5,143.5 Z"/></g>
<g><path style="opacity:1" fill="#d7d7d7" d="M 623.5,228.5 C 622.5,227.833 621.5,227.167 620.5,226.5C 614.27,216.386 607.77,206.386 601,196.5C 585.311,220.338 569.478,244.005 553.5,267.5C 552.833,267.833 552.167,268.167 551.5,268.5C 567.004,243.525 583.337,218.525 600.5,193.5C 605.167,199.833 609.833,206.167 614.5,212.5C 617.518,217.844 620.518,223.177 623.5,228.5 Z"/></g>
<g><path style="opacity:1" fill="#f3f3f3" d="M 354.5,201.5 C 356.781,201.077 358.448,201.744 359.5,203.5C 357.447,203.598 355.78,202.931 354.5,201.5 Z"/></g>
<g><path style="opacity:1" fill="#030303" d="M 360.5,205.5 C 366.205,209.892 370.205,215.559 372.5,222.5C 373.563,230.536 371.896,237.869 367.5,244.5C 364.704,248.635 361.038,251.635 356.5,253.5C 350.536,254.307 344.536,254.64 338.5,254.5C 323.308,247.787 317.308,236.12 320.5,219.5C 323.486,212.184 328.486,206.85 335.5,203.5C 344.09,201.622 352.423,202.289 360.5,205.5 Z"/></g>
<g><path style="opacity:1" fill="#6f6f6f" d="M 354.5,201.5 C 355.78,202.931 357.447,203.598 359.5,203.5C 359.833,204.167 360.167,204.833 360.5,205.5C 352.423,202.289 344.09,201.622 335.5,203.5C 336.263,202.732 337.263,202.232 338.5,202C 343.823,201.501 349.156,201.334 354.5,201.5 Z"/></g>
<g><path style="opacity:1" fill="#dbdbdb" d="M 354.5,201.5 C 349.156,201.334 343.823,201.501 338.5,202C 337.263,202.232 336.263,202.732 335.5,203.5C 328.486,206.85 323.486,212.184 320.5,219.5C 317.308,236.12 323.308,247.787 338.5,254.5C 338.5,254.833 338.5,255.167 338.5,255.5C 336.712,255.785 335.045,255.452 333.5,254.5C 324.992,250.222 319.825,243.222 318,233.5C 316.347,213.598 325.68,202.265 346,199.5C 349.116,199.489 351.949,200.155 354.5,201.5 Z"/></g>
<g><path style="opacity:1" fill="#e5e5e5" d="M 359.5,203.5 C 366.243,206.413 370.743,211.413 373,218.5C 373.333,218.167 373.667,217.833 374,217.5C 374.817,223.016 374.651,228.35 373.5,233.5C 373.815,229.629 373.482,225.962 372.5,222.5C 370.205,215.559 366.205,209.892 360.5,205.5C 360.167,204.833 359.833,204.167 359.5,203.5 Z"/></g>
<g><path style="opacity:1" fill="#949494" d="M 372.5,222.5 C 373.482,225.962 373.815,229.629 373.5,233.5C 373.333,237.673 372,241.34 369.5,244.5C 368.833,244.5 368.167,244.5 367.5,244.5C 371.896,237.869 373.563,230.536 372.5,222.5 Z"/></g>
<g><path style="opacity:1" fill="#9d9d9d" d="M 620.5,226.5 C 621.5,227.167 622.5,227.833 623.5,228.5C 625.903,231.914 627.903,235.581 629.5,239.5C 629.5,240.167 629.5,240.833 629.5,241.5C 625.948,236.866 622.948,231.866 620.5,226.5 Z"/></g>
<g><path style="opacity:1" fill="#e1e1e1" d="M 629.5,239.5 C 635.741,246.305 640.741,253.971 644.5,262.5C 639.112,255.778 634.112,248.778 629.5,241.5C 629.5,240.833 629.5,240.167 629.5,239.5 Z"/></g>
<g><path style="opacity:1" fill="#ededed" d="M 367.5,244.5 C 368.167,244.5 368.833,244.5 369.5,244.5C 366.618,249.789 362.285,253.456 356.5,255.5C 355.185,256.154 354.185,256.154 353.5,255.5C 354.5,254.833 355.5,254.167 356.5,253.5C 361.038,251.635 364.704,248.635 367.5,244.5 Z"/></g>
<g><path style="opacity:1" fill="#9a9a9a" d="M 356.5,253.5 C 355.5,254.167 354.5,254.833 353.5,255.5C 348.469,256.783 343.469,256.783 338.5,255.5C 338.5,255.167 338.5,254.833 338.5,254.5C 344.536,254.64 350.536,254.307 356.5,253.5 Z"/></g>
<g><path style="opacity:1" fill="#dddddd" d="M 644.5,262.5 C 645.906,262.973 646.573,263.973 646.5,265.5C 645.094,265.027 644.427,264.027 644.5,262.5 Z"/></g>
<g><path style="opacity:1" fill="#e6e6e6" d="M 646.5,265.5 C 648.25,266.659 649.25,268.326 649.5,270.5C 647.75,269.341 646.75,267.674 646.5,265.5 Z"/></g>
<g><path style="opacity:1" fill="#d8d8d8" d="M 601.5,276.5 C 600.115,278.883 598.115,280.55 595.5,281.5C 596.658,278.517 598.325,275.85 600.5,273.5C 601.386,274.325 601.719,275.325 601.5,276.5 Z"/></g>
<g><path style="opacity:1" fill="#868686" d="M 553.5,267.5 C 551.582,272.343 548.916,276.677 545.5,280.5C 545.5,279.833 545.5,279.167 545.5,278.5C 547,274.827 549,271.494 551.5,268.5C 552.167,268.167 552.833,267.833 553.5,267.5 Z"/></g>
<g><path style="opacity:1" fill="#f0f0f0" d="M 649.5,270.5 C 650.482,271.141 651.482,271.807 652.5,272.5C 654.518,276.177 656.518,279.844 658.5,283.5C 657.833,283.167 657.167,282.833 656.5,282.5C 653.65,278.801 651.317,274.801 649.5,270.5 Z"/></g>
<g><path style="opacity:1" fill="#dfdfdf" d="M 545.5,278.5 C 545.5,279.167 545.5,279.833 545.5,280.5C 540.987,287.524 535.987,294.191 530.5,300.5C 534.046,292.042 539.046,284.708 545.5,278.5 Z"/></g>
<g><path style="opacity:1" fill="#e2e2e2" d="M 595.5,281.5 C 595.155,284.198 593.822,286.198 591.5,287.5C 592.34,285.147 593.674,283.147 595.5,281.5 Z"/></g>
<g><path style="opacity:1" fill="#ababab" d="M 601.5,276.5 C 603.751,278.59 605.917,280.923 608,283.5C 612.121,290.092 615.954,296.759 619.5,303.5C 618.357,303.092 617.357,302.425 616.5,301.5C 611.439,292.613 606.439,284.279 601.5,276.5 Z"/></g>
<g><path style="opacity:1" fill="#dcdcdc" d="M 591.5,287.5 C 591.25,289.674 590.25,291.341 588.5,292.5C 588.75,290.326 589.75,288.659 591.5,287.5 Z"/></g>
<g><path style="opacity:1" fill="#adadad" d="M 656.5,282.5 C 657.167,282.833 657.833,283.167 658.5,283.5C 662.331,288.489 665.664,293.822 668.5,299.5C 666.549,298.718 665.049,297.384 664,295.5C 661.477,291.112 658.977,286.778 656.5,282.5 Z"/></g>
<g><path style="opacity:1" fill="#9a9a9a" d="M 588.5,292.5 C 586.925,296.078 584.925,299.411 582.5,302.5C 582.167,302.5 581.833,302.5 581.5,302.5C 582.373,298.069 584.706,294.736 588.5,292.5 Z"/></g>
<g><path style="opacity:1" fill="#e3e3e3" d="M 530.5,300.5 C 530.573,302.027 529.906,303.027 528.5,303.5C 528.427,301.973 529.094,300.973 530.5,300.5 Z"/></g>
<g><path style="opacity:1" fill="#e7e7e7" d="M 668.5,299.5 C 673.944,305.951 678.61,312.951 682.5,320.5C 681.206,319.71 680.039,318.71 679,317.5C 675.224,311.609 671.724,305.609 668.5,299.5 Z"/></g>
<g><path style="opacity:1" fill="#ededed" d="M 528.5,303.5 C 528.25,305.674 527.25,307.341 525.5,308.5C 525.75,306.326 526.75,304.659 528.5,303.5 Z"/></g>
<g><path style="opacity:1" fill="#ebebeb" d="M 620.5,305.5 C 621.906,305.973 622.573,306.973 622.5,308.5C 621.094,308.027 620.427,307.027 620.5,305.5 Z"/></g>
<g><path style="opacity:1" fill="#e2e2e2" d="M 581.5,302.5 C 581.833,302.5 582.167,302.5 582.5,302.5C 580.238,307.09 577.238,311.09 573.5,314.5C 575.673,310.148 578.34,306.148 581.5,302.5 Z"/></g>
<g><path style="opacity:1" fill="#d7d7d7" d="M 525.5,308.5 C 521.856,314.336 518.356,320.336 515,326.5C 513.961,327.71 512.794,328.71 511.5,329.5C 514.943,321.594 519.609,314.594 525.5,308.5 Z"/></g>
<g><path style="opacity:1" fill="#979797" d="M 624.5,311.5 C 627.32,312.465 628.653,314.465 628.5,317.5C 627.069,316.918 625.736,316.085 624.5,315C 625.171,314.014 625.171,312.847 624.5,311.5 Z"/></g>
<g><path style="opacity:1" fill="#eaeaea" d="M 682.5,320.5 C 685.502,323.161 687.502,326.495 688.5,330.5C 686,327.506 684,324.173 682.5,320.5 Z"/></g>
<g><path style="opacity:1" fill="#bfbfbf" d="M 570.5,319.5 C 566.584,327.067 561.918,334.067 556.5,340.5C 559.941,332.599 564.608,325.599 570.5,319.5 Z"/></g>
<g><path style="opacity:1" fill="#cccccc" d="M 628.5,318.5 C 629.496,318.414 630.329,318.748 631,319.5C 634.698,324.898 637.864,330.565 640.5,336.5C 635.326,331.318 631.326,325.318 628.5,318.5 Z"/></g>
<g><path style="opacity:1" fill="#bebebe" d="M 511.5,329.5 C 511.25,331.674 510.25,333.341 508.5,334.5C 508.75,332.326 509.75,330.659 511.5,329.5 Z"/></g>
<g><path style="opacity:1" fill="#ededed" d="M 688.5,330.5 C 689.973,331.072 691.307,331.905 692.5,333C 691.829,333.986 691.829,335.153 692.5,336.5C 690.674,334.853 689.34,332.853 688.5,330.5 Z"/></g>
<g><path style="opacity:1" fill="#c8c8c8" d="M 692.5,336.5 C 696.494,340.479 699.494,345.145 701.5,350.5C 699.926,350.063 698.759,349.063 698,347.5C 695.682,344.027 693.849,340.361 692.5,336.5 Z"/></g>
<g><path style="opacity:1" fill="#d5d5d5" d="M 398.5,326.5 C 398.736,329.226 397.903,331.559 396,333.5C 388.386,343.089 380.553,352.423 372.5,361.5C 376.144,356.337 379.644,351.004 383,345.5C 388.785,339.561 393.952,333.227 398.5,326.5 Z"/></g>
<g><path style="opacity:1" fill="#d4d4d4" d="M 555.5,341.5 C 555.573,343.027 554.906,344.027 553.5,344.5C 553.427,342.973 554.094,341.973 555.5,341.5 Z"/></g>
<g><path style="opacity:1" fill="#848484" d="M 640.5,336.5 C 642.149,337.714 643.815,339.047 645.5,340.5C 647.178,343.855 648.844,347.189 650.5,350.5C 649.833,350.167 649.167,349.833 648.5,349.5C 645.868,345.189 643.201,340.856 640.5,336.5 Z"/></g>
<g><path style="opacity:1" fill="#dddddd" d="M 455.5,354.5 C 437.547,344.521 420.213,333.521 403.5,321.5C 402.145,323.521 400.479,325.188 398.5,326.5C 399.455,324.254 400.122,321.921 400.5,319.5C 402.924,319.192 405.257,319.526 407.5,320.5C 411.426,323.92 415.759,326.754 420.5,329C 421.211,330.255 422.044,331.421 423,332.5C 423.333,332.167 423.667,331.833 424,331.5C 425.167,333.333 426.667,334.833 428.5,336C 438.261,341.201 447.261,347.368 455.5,354.5 Z"/></g>
<g><path style="opacity:1" fill="#d3d3d3" d="M 508.5,334.5 C 503.572,343.361 497.906,351.695 491.5,359.5C 496.001,350.34 501.667,342.007 508.5,334.5 Z"/></g>
<g><path style="opacity:1" fill="#eaeaea" d="M 553.5,344.5 C 552.921,347.331 551.588,349.664 549.5,351.5C 549.5,350.833 549.5,350.167 549.5,349.5C 550.593,347.651 551.926,345.984 553.5,344.5 Z"/></g>
<g><path style="opacity:1" fill="#8a8a8a" d="M 549.5,349.5 C 549.5,350.167 549.5,350.833 549.5,351.5C 547.833,354.167 546.167,356.833 544.5,359.5C 544.167,359.5 543.833,359.5 543.5,359.5C 544.498,355.495 546.498,352.161 549.5,349.5 Z"/></g>
<g><path style="opacity:1" fill="#9a9a9a" d="M 701.5,350.5 C 704.241,352.975 706.241,355.975 707.5,359.5C 703.943,357.598 701.943,354.598 701.5,350.5 Z"/></g>
<g><path style="opacity:1" fill="#dcdcdc" d="M 648.5,349.5 C 649.167,349.833 649.833,350.167 650.5,350.5C 653,353.494 655,356.827 656.5,360.5C 654.926,360.063 653.759,359.063 653,357.5C 651.223,354.941 649.723,352.274 648.5,349.5 Z"/></g>
<g><path style="opacity:1" fill="#747474" d="M 656.5,360.5 C 658.048,360.821 658.715,361.821 658.5,363.5C 657.599,362.71 656.932,361.71 656.5,360.5 Z"/></g>
<g><path style="opacity:1" fill="#e0e0e0" d="M 455.5,354.5 C 464.928,358.959 473.761,364.292 482,370.5C 484.995,366.673 488.162,363.006 491.5,359.5C 488.94,364.277 486.107,368.944 483,373.5C 474.918,368.208 466.751,363.042 458.5,358C 457.29,356.961 456.29,355.794 455.5,354.5 Z"/></g>
<g><path style="opacity:1" fill="#dfdfdf" d="M 707.5,359.5 C 712.493,364.813 716.493,370.813 719.5,377.5C 714.364,372.345 710.364,366.345 707.5,359.5 Z"/></g>
<g><path style="opacity:1" fill="#a1a1a1" d="M 659.5,365.5 C 661.741,366.3 662.741,367.966 662.5,370.5C 661.263,369.035 660.263,367.368 659.5,365.5 Z"/></g>
<g><path style="opacity:1" fill="#e3e3e3" d="M 372.5,361.5 C 371.191,364.778 369.358,367.778 367,370.5C 363.301,375.027 359.468,379.361 355.5,383.5C 359.116,378.203 362.782,372.869 366.5,367.5C 368.236,365.097 370.236,363.097 372.5,361.5 Z"/></g>
<g><path style="opacity:1" fill="#e1e1e1" d="M 543.5,359.5 C 543.833,359.5 544.167,359.5 544.5,359.5C 542.238,364.09 539.238,368.09 535.5,371.5C 537.673,367.148 540.34,363.148 543.5,359.5 Z"/></g>
<g><path style="opacity:1" fill="#cdcdcd" d="M 535.5,371.5 C 535.573,373.027 534.906,374.027 533.5,374.5C 533.427,372.973 534.094,371.973 535.5,371.5 Z"/></g>
<g><path style="opacity:1" fill="#9d9d9d" d="M 662.5,370.5 C 664.078,371.066 665.412,372.066 666.5,373.5C 668.845,377.528 671.178,381.528 673.5,385.5C 672.833,385.5 672.167,385.5 671.5,385.5C 668.276,380.734 665.276,375.734 662.5,370.5 Z"/></g>
<g><path style="opacity:1" fill="#ebebeb" d="M 719.5,377.5 C 720.906,377.973 721.573,378.973 721.5,380.5C 720.094,380.027 719.427,379.027 719.5,377.5 Z"/></g>
<g><path style="opacity:1" fill="#c8c8c8" d="M 415.5,380.5 C 413.983,380.511 412.816,381.177 412,382.5C 410.389,386.275 407.889,389.275 404.5,391.5C 406.531,387.289 409.198,383.456 412.5,380C 413.749,379.26 414.749,379.427 415.5,380.5 Z"/></g>
<g><path style="opacity:1" fill="#e4e4e4" d="M 415.5,380.5 C 417.434,381.11 419.101,382.11 420.5,383.5C 418.067,383.727 416.401,382.727 415.5,380.5 Z"/></g>
<g><path style="opacity:1" fill="#eaeaea" d="M 721.5,380.5 C 723.25,381.659 724.25,383.326 724.5,385.5C 723.833,385.167 723.167,384.833 722.5,384.5C 722.167,383.167 721.833,381.833 721.5,380.5 Z"/></g>
<g><path style="opacity:1" fill="#e5e5e5" d="M 355.5,383.5 C 355.573,385.027 354.906,386.027 353.5,386.5C 353.285,384.821 353.952,383.821 355.5,383.5 Z"/></g>
<g><path style="opacity:1" fill="#b7b7b7" d="M 420.5,383.5 C 424.025,384.759 427.025,386.759 429.5,389.5C 426.622,388.63 423.955,387.297 421.5,385.5C 420.702,385.043 420.369,384.376 420.5,383.5 Z"/></g>
<g><path style="opacity:1" fill="#848484" d="M 722.5,384.5 C 723.167,384.833 723.833,385.167 724.5,385.5C 725.89,386.899 726.89,388.566 727.5,390.5C 724.893,389.288 723.226,387.288 722.5,384.5 Z"/></g>
<g><path style="opacity:1" fill="#c2c2c2" d="M 353.5,386.5 C 353.262,388.404 352.262,389.738 350.5,390.5C 350.738,388.596 351.738,387.262 353.5,386.5 Z"/></g>
<g><path style="opacity:1" fill="#bbbbbb" d="M 530.5,379.5 C 527.479,386.225 523.479,392.225 518.5,397.5C 521.39,390.637 525.39,384.637 530.5,379.5 Z"/></g>
<g><path style="opacity:1" fill="#e2e2e2" d="M 671.5,385.5 C 672.167,385.5 672.833,385.5 673.5,385.5C 675.833,389.5 678.167,393.5 680.5,397.5C 676.818,394.133 673.818,390.133 671.5,385.5 Z"/></g>
<g><path style="opacity:1" fill="#d4d4d4" d="M 429.5,389.5 C 430.833,389.5 431.5,390.167 431.5,391.5C 431.5,390.167 430.833,389.5 429.5,389.5 Z"/></g>
<g><path style="opacity:1" fill="#999999" d="M 431.5,391.5 C 434.812,391.149 437.145,392.482 438.5,395.5C 436.142,394.126 433.808,392.793 431.5,391.5 Z"/></g>
<g><path style="opacity:1" fill="#e9e9e9" d="M 727.5,390.5 C 729.824,390.877 730.491,391.877 729.5,393.5C 728.094,393.027 727.427,392.027 727.5,390.5 Z"/></g>
<g><path style="opacity:1" fill="#dadada" d="M 404.5,391.5 C 404.269,394.063 402.935,395.73 400.5,396.5C 401.08,394.251 402.413,392.585 404.5,391.5 Z"/></g>
<g><path style="opacity:1" fill="#d5d5d5" d="M 729.5,393.5 C 734.071,397.631 737.404,402.631 739.5,408.5C 737.926,408.063 736.759,407.063 736,405.5C 733.554,401.606 731.388,397.606 729.5,393.5 Z"/></g>
<g><path style="opacity:1" fill="#e5e5e5" d="M 438.5,395.5 C 440.027,395.427 441.027,396.094 441.5,397.5C 439.973,397.573 438.973,396.906 438.5,395.5 Z"/></g>
<g><path style="opacity:1" fill="#eeeeee" d="M 518.5,397.5 C 519.491,399.123 518.824,400.123 516.5,400.5C 516.427,398.973 517.094,397.973 518.5,397.5 Z"/></g>
<g><path style="opacity:1" fill="#dadada" d="M 400.5,396.5 C 400.262,398.404 399.262,399.738 397.5,400.5C 397.738,398.596 398.738,397.262 400.5,396.5 Z"/></g>
<g><path style="opacity:1" fill="#dfdfdf" d="M 443.5,398.5 C 445.027,398.427 446.027,399.094 446.5,400.5C 444.973,400.573 443.973,399.906 443.5,398.5 Z"/></g>
<g><path style="opacity:1" fill="#9b9b9b" d="M 681.5,399.5 C 683.048,399.821 683.715,400.821 683.5,402.5C 682.599,401.71 681.932,400.71 681.5,399.5 Z"/></g>
<g><path style="opacity:1" fill="#ebebeb" d="M 516.5,400.5 C 516.573,402.027 515.906,403.027 514.5,403.5C 514.427,401.973 515.094,400.973 516.5,400.5 Z"/></g>
<g><path style="opacity:1" fill="#e4e4e4" d="M 446.5,400.5 C 448.027,400.427 449.027,401.094 449.5,402.5C 447.973,402.573 446.973,401.906 446.5,400.5 Z"/></g>
<g><path style="opacity:1" fill="#c4c4c4" d="M 350.5,390.5 C 346.314,396.871 341.647,402.871 336.5,408.5C 340.058,401.612 344.725,395.612 350.5,390.5 Z"/></g>
<g><path style="opacity:1" fill="#dbdbdb" d="M 397.5,400.5 C 397.262,402.404 396.262,403.738 394.5,404.5C 394.738,402.596 395.738,401.262 397.5,400.5 Z"/></g>
<g><path style="opacity:1" fill="#e9e9e9" d="M 449.5,402.5 C 451.404,402.738 452.738,403.738 453.5,405.5C 451.596,405.262 450.262,404.262 449.5,402.5 Z"/></g>
<g><path style="opacity:1" fill="#efefef" d="M 514.5,403.5 C 514.25,405.674 513.25,407.341 511.5,408.5C 511.75,406.326 512.75,404.659 514.5,403.5 Z"/></g>
<g><path style="opacity:1" fill="#f0f0f0" d="M 453.5,405.5 C 455.027,405.427 456.027,406.094 456.5,407.5C 454.973,407.573 453.973,406.906 453.5,405.5 Z"/></g>
<g><path style="opacity:1" fill="#bdbdbd" d="M 394.5,404.5 C 391.916,408.933 389.082,413.266 386,417.5C 385.329,418.252 384.496,418.586 383.5,418.5C 386.313,414.224 389.146,409.89 392,405.5C 392.671,404.748 393.504,404.414 394.5,404.5 Z"/></g>
<g><path style="opacity:1" fill="#dfdfdf" d="M 456.5,407.5 C 458.179,407.285 459.179,407.952 459.5,409.5C 457.973,409.573 456.973,408.906 456.5,407.5 Z"/></g>
<g><path style="opacity:1" fill="#a8a8a8" d="M 683.5,402.5 C 684.496,402.414 685.329,402.748 686,403.5C 689.698,408.898 692.864,414.565 695.5,420.5C 691.447,415.584 687.447,410.417 683.5,405C 684.598,404.23 684.598,403.397 683.5,402.5 Z"/></g>
<g><path style="opacity:1" fill="#aeaeae" d="M 336.5,408.5 C 336.262,410.404 335.262,411.738 333.5,412.5C 333.738,410.596 334.738,409.262 336.5,408.5 Z"/></g>
<g><path style="opacity:1" fill="#d9d9d9" d="M 459.5,409.5 C 461.404,409.738 462.738,410.738 463.5,412.5C 462.883,412.611 462.383,412.944 462,413.5C 461.338,412.016 460.504,410.683 459.5,409.5 Z"/></g>
<g><path style="opacity:1" fill="#b1b1b1" d="M 511.5,408.5 C 507.525,415.131 503.191,421.464 498.5,427.5C 501.724,421.391 505.224,415.391 509,409.5C 509.671,408.748 510.504,408.414 511.5,408.5 Z"/></g>
<g><path style="opacity:1" fill="#979797" d="M 739.5,408.5 C 741.664,410.822 743.331,413.489 744.5,416.5C 741.203,414.867 739.536,412.2 739.5,408.5 Z"/></g>
<g><path style="opacity:1" fill="#6d6d6d" d="M 464.5,412.5 C 467.878,411.891 469.878,413.224 470.5,416.5C 467.802,416.155 465.802,414.822 464.5,412.5 Z"/></g>
<g><path style="opacity:1" fill="#e8e8e8" d="M 744.5,416.5 C 745.906,416.973 746.573,417.973 746.5,419.5C 745.094,419.027 744.427,418.027 744.5,416.5 Z"/></g>
<g><path style="opacity:1" fill="#e5e5e5" d="M 383.5,418.5 C 383.262,420.404 382.262,421.738 380.5,422.5C 380.738,420.596 381.738,419.262 383.5,418.5 Z"/></g>
<g><path style="opacity:1" fill="#dddddd" d="M 472.5,417.5 C 478.406,420.419 483.74,424.085 488.5,428.5C 482.295,425.939 476.962,422.272 472.5,417.5 Z"/></g>
<g><path style="opacity:1" fill="#e9e9e9" d="M 695.5,420.5 C 697.25,421.659 698.25,423.326 698.5,425.5C 696.592,424.514 695.592,422.848 695.5,420.5 Z"/></g>
<g><path style="opacity:1" fill="#d1d1d1" d="M 746.5,419.5 C 753.078,426.977 758.411,435.31 762.5,444.5C 760.926,444.063 759.759,443.063 759,441.5C 754.978,434.004 750.811,426.671 746.5,419.5 Z"/></g>
<g><path style="opacity:1" fill="#e1e1e1" d="M 379.5,423.5 C 379.573,425.027 378.906,426.027 377.5,426.5C 377.427,424.973 378.094,423.973 379.5,423.5 Z"/></g>
<g><path style="opacity:1" fill="#eeeeee" d="M 698.5,425.5 C 700.25,426.659 701.25,428.326 701.5,430.5C 699.75,429.341 698.75,427.674 698.5,425.5 Z"/></g>
<g><path style="opacity:1" fill="#e7e7e7" d="M 701.5,430.5 C 702.906,430.973 703.573,431.973 703.5,433.5C 702.094,433.027 701.427,432.027 701.5,430.5 Z"/></g>
<g><path style="opacity:1" fill="#d2d2d2" d="M 498.5,427.5 C 495.838,433.824 492.504,434.157 488.5,428.5C 490.436,429.259 492.269,430.259 494,431.5C 495.351,429.982 496.851,428.649 498.5,427.5 Z"/></g>
<g><path style="opacity:1" fill="#b6b6b6" d="M 703.5,433.5 C 708.61,438.637 712.61,444.637 715.5,451.5C 714.883,451.611 714.383,451.944 714,452.5C 710.659,445.517 707.159,439.184 703.5,433.5 Z"/></g>
<g><path style="opacity:1" fill="#d4d4d4" d="M 377.5,426.5 C 373.522,431.994 369.689,437.661 366,443.5C 363.963,445.706 361.797,447.706 359.5,449.5C 363.811,443.674 367.978,437.674 372,431.5C 373.704,429.627 375.537,427.96 377.5,426.5 Z"/></g>
<g><path style="opacity:1" fill="#d3d3d3" d="M 333.5,412.5 C 323.256,427.079 312.256,441.079 300.5,454.5C 302.749,450.402 305.249,446.402 308,442.5C 316.681,432.652 325.181,422.652 333.5,412.5 Z"/></g>
<g><path style="opacity:1" fill="#c3c3c3" d="M 762.5,444.5 C 763.906,444.973 764.573,445.973 764.5,447.5C 763.094,447.027 762.427,446.027 762.5,444.5 Z"/></g>
<g><path style="opacity:1" fill="#f8f8f8" d="M 764.5,447.5 C 767.118,450.785 770.118,453.785 773.5,456.5C 774.833,456.833 776.167,457.167 777.5,457.5C 791.326,456.756 805.159,456.089 819,455.5C 856.256,456.231 893.423,456.898 930.5,457.5C 931.82,455.73 933.32,455.397 935,456.5C 936.616,454.287 937.783,451.953 938.5,449.5C 938.5,451.167 938.5,452.833 938.5,454.5C 937.728,455.694 936.728,456.694 935.5,457.5C 880.863,458.487 826.196,458.821 771.5,458.5C 768.779,455.106 766.446,451.439 764.5,447.5 Z"/></g>
<g><path style="opacity:1" fill="#f8f8f8" d="M 359.5,449.5 C 359.489,451.017 358.823,452.184 357.5,453C 358.38,454.356 358.714,455.856 358.5,457.5C 407.812,456.508 456.979,455.508 506,454.5C 569.934,455.81 633.767,456.81 697.5,457.5C 703.833,457.333 710.167,457.167 716.5,457C 715.594,455.301 715.261,453.467 715.5,451.5C 717.316,453.118 718.649,455.118 719.5,457.5C 707.678,458.495 695.678,458.828 683.5,458.5C 573.162,459.165 463.162,458.498 353.5,456.5C 354.781,453.553 356.781,451.219 359.5,449.5 Z"/></g>
<g><path style="opacity:1" fill="#f8f8f8" d="M 140.5,450.5 C 141.375,452.568 142.541,454.568 144,456.5C 144.725,455.941 145.558,455.608 146.5,455.5C 158.809,457.126 171.143,457.46 183.5,456.5C 211.997,457.088 240.33,457.755 268.5,458.5C 226.791,458.822 185.124,458.489 143.5,457.5C 142.1,456.9 141.1,455.9 140.5,454.5C 140.5,453.167 140.5,451.833 140.5,450.5 Z"/></g>
<g><path style="opacity:1" fill="#e2e2e2" d="M 300.5,454.5 C 299.876,456.754 298.543,458.421 296.5,459.5C 296.5,459.167 296.5,458.833 296.5,458.5C 297.402,456.659 298.736,455.326 300.5,454.5 Z"/></g>
<g><path style="opacity:1" fill="#9b9b9b" d="M 143.5,457.5 C 185.124,458.489 226.791,458.822 268.5,458.5C 277.833,458.5 287.167,458.5 296.5,458.5C 296.5,458.833 296.5,459.167 296.5,459.5C 245.832,459.667 195.166,459.5 144.5,459C 143.944,458.617 143.611,458.117 143.5,457.5 Z"/></g>
<g><path style="opacity:1" fill="#cecece" d="M 353.5,456.5 C 463.162,458.498 573.162,459.165 683.5,458.5C 683.5,458.833 683.5,459.167 683.5,459.5C 572.831,459.833 462.165,459.5 351.5,458.5C 351.855,457.478 352.522,456.811 353.5,456.5 Z"/></g>
<g><path style="opacity:1" fill="#969696" d="M 719.5,457.5 C 720.376,457.369 721.043,457.702 721.5,458.5C 708.851,459.499 696.184,459.832 683.5,459.5C 683.5,459.167 683.5,458.833 683.5,458.5C 695.678,458.828 707.678,458.495 719.5,457.5 Z"/></g>
<g><path style="opacity:1" fill="#bdbdbd" d="M 935.5,457.5 C 935.082,458.222 934.416,458.722 933.5,459C 879.332,459.832 825.332,459.665 771.5,458.5C 826.196,458.821 880.863,458.487 935.5,457.5 Z"/></g>
<g><path style="opacity:1" fill="#e7e7e7" d="M 99.5,467.5 C 100.537,468.93 101.204,470.597 101.5,472.5C 99.7868,471.365 99.1201,469.698 99.5,467.5 Z"/></g>
<g><path style="opacity:1" fill="#d9d9d9" d="M 101.5,472.5 C 102.674,473.514 103.34,474.847 103.5,476.5C 101.896,475.713 101.229,474.38 101.5,472.5 Z"/></g>
<g><path style="opacity:1" fill="#bebebe" d="M 103.5,476.5 C 105.408,477.486 106.408,479.152 106.5,481.5C 104.75,480.341 103.75,478.674 103.5,476.5 Z"/></g>
<g><path style="opacity:1" fill="#aeaeae" d="M 975.5,476.5 C 972.61,483.39 967.943,488.724 961.5,492.5C 966.186,487.086 970.853,481.752 975.5,476.5 Z"/></g>
<g><path style="opacity:1" fill="#d0d0d0" d="M 106.5,481.5 C 110.833,485.5 115.167,489.5 119.5,493.5C 118.078,493.291 116.745,492.791 115.5,492C 112.647,489.089 109.647,486.422 106.5,484C 105.402,483.23 105.402,482.397 106.5,481.5 Z"/></g>
<g><path style="opacity:1" fill="#e7e7e7" d="M 119.5,493.5 C 121.434,494.11 123.101,495.11 124.5,496.5C 122.067,496.727 120.401,495.727 119.5,493.5 Z"/></g>
<g><path style="opacity:1" fill="#f0f0f0" d="M 959.5,493.5 C 959.123,495.824 958.123,496.491 956.5,495.5C 956.973,494.094 957.973,493.427 959.5,493.5 Z"/></g>
<g><path style="opacity:1" fill="#bababa" d="M 126.5,497.5 C 130.844,498.558 135.177,499.724 139.5,501C 163.164,501.5 186.831,501.667 210.5,501.5C 210.5,501.833 210.5,502.167 210.5,502.5C 208.856,502.286 207.356,502.62 206,503.5C 183.239,502.672 160.406,502.172 137.5,502C 134.471,501.461 131.471,500.794 128.5,500C 127.619,499.292 126.953,498.458 126.5,497.5 Z"/></g>
<g><path style="opacity:1" fill="#a3a3a3" d="M 210.5,502.5 C 210.5,502.167 210.5,501.833 210.5,501.5C 419.167,501.5 627.833,501.5 836.5,501.5C 836.5,501.833 836.5,502.167 836.5,502.5C 628.076,503.017 419.409,503.017 210.5,502.5 Z"/></g>
<g><path style="opacity:1" fill="#c7c7c7" d="M 952.5,497.5 C 952.047,498.458 951.381,499.292 950.5,500C 944.674,501.432 938.84,502.599 933,503.5C 901.24,503.347 869.074,503.013 836.5,502.5C 836.5,502.167 836.5,501.833 836.5,501.5C 870.502,501.667 904.502,501.5 938.5,501C 943.208,499.929 947.874,498.763 952.5,497.5 Z"/></g>
<g><path style="opacity:1" fill="#f9faf9" d="M 935.5,576.5 C 671.833,576.5 408.167,576.5 144.5,576.5C 166.849,575.808 189.349,575.141 212,574.5C 346.667,575.776 481.501,575.776 616.5,574.5C 722.98,575.162 829.313,575.829 935.5,576.5 Z"/></g>
<g><path style="opacity:1" fill="#dcdcdc" d="M 144.5,576.5 C 408.167,576.5 671.833,576.5 935.5,576.5C 944.951,575.979 952.951,578.979 959.5,585.5C 952.663,581.72 945.329,579.22 937.5,578C 671.5,577.333 405.5,577.333 139.5,578C 135.177,579.276 130.844,580.442 126.5,581.5C 131.714,577.579 137.714,575.913 144.5,576.5 Z"/></g>
<g><path style="opacity:1" fill="#010101" d="M 959.5,585.5 C 963.88,589.55 968.213,593.55 972.5,597.5C 972.5,598.167 972.5,598.833 972.5,599.5C 973.11,601.434 974.11,603.101 975.5,604.5C 978.191,608.722 980.024,613.388 981,618.5C 981.825,726.188 981.658,833.855 980.5,941.5C 980.737,942.791 980.404,943.791 979.5,944.5C 972.059,962.279 959.059,973.612 940.5,978.5C 673.167,978.5 405.833,978.5 138.5,978.5C 138.167,978.5 137.833,978.5 137.5,978.5C 135.401,977.388 133.067,976.721 130.5,976.5C 129.209,976.737 128.209,976.404 127.5,975.5C 123.731,972.661 119.731,969.995 115.5,967.5C 113.5,964.833 111.167,962.5 108.5,960.5C 107.302,957.414 105.635,954.748 103.5,952.5C 101.185,948.06 99.3514,943.393 98,938.5C 97.3333,831.833 97.3333,725.167 98,618.5C 98.9428,615.176 99.7761,611.843 100.5,608.5C 101.674,607.486 102.34,606.153 102.5,604.5C 104.531,603.461 105.864,601.795 106.5,599.5C 109.925,593.98 114.258,589.313 119.5,585.5C 121.027,585.573 122.027,584.906 122.5,583.5C 123.514,582.326 124.847,581.66 126.5,581.5C 130.844,580.442 135.177,579.276 139.5,578C 405.5,577.333 671.5,577.333 937.5,578C 945.329,579.22 952.663,581.72 959.5,585.5 Z M 152.5,620.5 C 172.708,621.584 193.375,621.584 214.5,620.5C 453.628,620.762 692.295,620.762 930.5,620.5C 933.053,621.539 935.22,623.206 937,625.5C 937.524,718.552 938.024,810.885 938.5,902.5C 937.67,911.658 937.17,920.991 937,930.5C 936.632,931.91 935.799,932.91 934.5,933.5C 884.407,934.228 834.741,934.228 785.5,933.5C 783.974,933.994 782.641,934.661 781.5,935.5C 778.833,935.5 776.167,935.5 773.5,935.5C 773.762,934.022 773.429,932.689 772.5,931.5C 769.366,930.198 767.532,927.865 767,924.5C 762.109,919.222 757.776,912.889 754,905.5C 751.947,902.019 749.447,899.019 746.5,896.5C 746.573,894.973 745.906,893.973 744.5,893.5C 744.573,891.973 743.906,890.973 742.5,890.5C 742.573,888.973 741.906,887.973 740.5,887.5C 738.409,882.9 736.076,878.4 733.5,874C 731.591,871.624 729.591,869.458 727.5,867.5C 726.617,864.296 724.95,861.629 722.5,859.5C 722.573,857.973 721.906,856.973 720.5,856.5C 718.698,850.386 715.365,845.386 710.5,841.5C 710.573,839.973 709.906,838.973 708.5,838.5C 708.657,837.127 708.49,835.793 708,834.5C 707.617,835.056 707.117,835.389 706.5,835.5C 705,831.827 703,828.494 700.5,825.5C 697.011,817.685 692.345,810.685 686.5,804.5C 683.489,799.306 680.656,793.973 678,788.5C 675.677,784.681 672.844,781.348 669.5,778.5C 664.357,769.555 659.19,760.555 654,751.5C 652.629,749.959 651.129,748.625 649.5,747.5C 649.573,745.973 648.906,744.973 647.5,744.5C 644.024,738.221 640.524,731.888 637,725.5C 635.629,723.959 634.129,722.625 632.5,721.5C 632.573,719.973 631.906,718.973 630.5,718.5C 630.573,716.973 629.906,715.973 628.5,715.5C 625.708,708.52 622.208,701.853 618,695.5C 615.982,691.992 613.482,688.992 610.5,686.5C 609.89,684.566 608.89,682.899 607.5,681.5C 607.084,676.996 604.918,673.662 601,671.5C 596.278,676.96 592.278,682.96 589,689.5C 580.555,699.906 573.055,711.572 566.5,724.5C 565.094,724.973 564.427,725.973 564.5,727.5C 563.279,728.028 562.113,728.695 561,729.5C 558.157,734.523 555.323,739.523 552.5,744.5C 548.656,749.522 545.323,754.855 542.5,760.5C 541.883,760.389 541.383,760.056 541,759.5C 537.043,766.956 532.876,774.289 528.5,781.5C 527.094,781.973 526.427,782.973 526.5,784.5C 520.514,791.132 515.514,798.465 511.5,806.5C 509.331,808.34 507.998,810.674 507.5,813.5C 506.094,813.973 505.427,814.973 505.5,816.5C 504.603,817.598 503.77,817.598 503,816.5C 498.157,824.856 493.324,833.189 488.5,841.5C 485.877,842.954 483.711,844.954 482,847.5C 465.805,837.29 449.638,827.124 433.5,817C 425.114,810.28 416.447,803.947 407.5,798C 402.33,796.342 399.33,798.176 398.5,803.5C 396.076,806.008 394.41,809.008 393.5,812.5C 391.413,813.585 390.08,815.251 389.5,817.5C 387.203,819.294 385.037,821.294 383,823.5C 378.041,830.955 372.541,837.955 366.5,844.5C 362.394,851.065 358.061,857.398 353.5,863.5C 347.694,868.636 343.027,874.636 339.5,881.5C 336.067,884.601 333.4,888.268 331.5,892.5C 324.066,898.947 318.066,906.613 313.5,915.5C 312.504,915.414 311.671,915.748 311,916.5C 306.126,922.97 301.293,929.304 296.5,935.5C 284.5,935.5 272.5,935.5 260.5,935.5C 233.431,934.829 206.264,934.163 179,933.5C 172.054,934.765 165.054,934.765 158,933.5C 156.124,933.525 154.624,934.191 153.5,935.5C 151.534,934.2 149.368,933.2 147,932.5C 145.838,933.187 144.672,933.353 143.5,933C 142.131,931.281 141.131,929.448 140.5,927.5C 140.333,828.499 140.5,729.499 141,630.5C 141.21,627.766 142.044,625.266 143.5,623C 146.591,621.34 149.591,620.507 152.5,620.5 Z M 601.5,753.5 C 602.195,756.915 603.862,759.582 606.5,761.5C 609.242,765.981 611.742,770.647 614,775.5C 615.371,777.041 616.871,778.375 618.5,779.5C 618.328,780.492 618.662,781.158 619.5,781.5C 619.427,783.027 620.094,784.027 621.5,784.5C 621.932,785.71 622.599,786.71 623.5,787.5C 622.953,789.712 623.953,791.379 626.5,792.5C 626.427,794.027 627.094,795.027 628.5,795.5C 629.514,798.689 631.18,801.522 633.5,804C 633.167,804.333 632.833,804.667 632.5,805C 635.067,808.003 637.734,810.836 640.5,813.5C 639.326,815.368 639.993,816.368 642.5,816.5C 642.328,817.492 642.662,818.158 643.5,818.5C 646.928,826.364 651.594,833.364 657.5,839.5C 657.328,840.492 657.662,841.158 658.5,841.5C 658.088,843.973 659.088,845.306 661.5,845.5C 663.981,851.13 666.981,856.463 670.5,861.5C 672.537,864.853 674.87,867.853 677.5,870.5C 677.427,872.027 678.094,873.027 679.5,873.5C 679.328,874.492 679.662,875.158 680.5,875.5C 680.932,876.71 681.599,877.71 682.5,878.5C 685.477,883.739 688.644,889.406 692,895.5C 693.371,897.041 694.871,898.375 696.5,899.5C 696.328,900.492 696.662,901.158 697.5,901.5C 697.799,903.455 698.799,904.789 700.5,905.5C 700.229,907.38 700.896,908.713 702.5,909.5C 706.053,916.818 710.72,923.818 716.5,930.5C 715.77,931.712 714.77,932.712 713.5,933.5C 714.025,934.192 714.692,934.692 715.5,935C 707.507,935.5 699.507,935.666 691.5,935.5C 582.313,934.829 472.98,934.163 363.5,933.5C 360.52,935.18 358.52,934.346 357.5,931C 358.758,929.259 359.758,927.426 360.5,925.5C 361.721,924.972 362.887,924.305 364,923.5C 368.349,918.122 372.182,912.455 375.5,906.5C 376.906,906.027 377.573,905.027 377.5,903.5C 378.167,903.5 378.5,903.167 378.5,902.5C 379.906,902.027 380.573,901.027 380.5,899.5C 381.167,899.5 381.5,899.167 381.5,898.5C 387.282,893.383 391.949,887.383 395.5,880.5C 401.126,874.604 406.293,868.271 411,861.5C 412.264,859.393 414.097,858.393 416.5,858.5C 416.973,859.906 417.973,860.573 419.5,860.5C 419.842,861.338 420.508,861.672 421.5,861.5C 422.802,863.822 424.802,865.155 427.5,865.5C 428.802,867.822 430.802,869.155 433.5,869.5C 435.484,872.164 438.151,873.831 441.5,874.5C 442.659,876.25 444.326,877.25 446.5,877.5C 446.973,878.906 447.973,879.573 449.5,879.5C 449.973,880.906 450.973,881.573 452.5,881.5C 453.948,884.264 456.281,885.931 459.5,886.5C 461.775,890.307 465.108,892.641 469.5,893.5C 470.899,894.89 472.566,895.89 474.5,896.5C 474.973,897.906 475.973,898.573 477.5,898.5C 477.973,899.906 478.973,900.573 480.5,900.5C 480.821,902.048 481.821,902.715 483.5,902.5C 485.668,905.5 488.334,908 491.5,910C 492.759,910.982 494.092,911.315 495.5,911C 501.815,902.196 507.482,893.03 512.5,883.5C 513.974,882.564 514.974,881.23 515.5,879.5C 516.906,879.027 517.573,878.027 517.5,876.5C 518.794,875.71 519.961,874.71 521,873.5C 524.776,867.609 528.276,861.609 531.5,855.5C 539.336,846.321 546.003,836.321 551.5,825.5C 553.664,823.178 555.331,820.511 556.5,817.5C 557.496,817.586 558.329,817.252 559,816.5C 563.189,809.445 567.356,802.445 571.5,795.5C 573.25,794.341 574.25,792.674 574.5,790.5C 575.496,790.586 576.329,790.252 577,789.5C 578.295,786.708 579.795,784.042 581.5,781.5C 584.35,777.801 586.683,773.801 588.5,769.5C 589.974,768.564 590.974,767.23 591.5,765.5C 592.906,765.027 593.573,764.027 593.5,762.5C 596.401,759.688 599.068,756.688 601.5,753.5 Z"/></g>
<g><path style="opacity:1" fill="#e0e0e0" d="M 122.5,583.5 C 122.027,584.906 121.027,585.573 119.5,585.5C 120.598,584.603 120.598,583.77 119.5,583C 120.577,582.53 121.577,582.697 122.5,583.5 Z"/></g>
<g><path style="opacity:1" fill="#d4d4d4" d="M 959.5,585.5 C 965.767,587.434 970.1,591.434 972.5,597.5C 968.213,593.55 963.88,589.55 959.5,585.5 Z"/></g>
<g><path style="opacity:1" fill="#d8d8d8" d="M 119.5,585.5 C 114.258,589.313 109.925,593.98 106.5,599.5C 105.833,599.833 105.167,600.167 104.5,600.5C 107.167,593.167 112.167,588.167 119.5,585.5 Z"/></g>
<g><path style="opacity:1" fill="#cecece" d="M 972.5,597.5 C 973.906,597.973 974.573,598.973 974.5,600.5C 973.833,600.167 973.167,599.833 972.5,599.5C 972.5,598.833 972.5,598.167 972.5,597.5 Z"/></g>
<g><path style="opacity:1" fill="#5b5b5b" d="M 106.5,599.5 C 105.864,601.795 104.531,603.461 102.5,604.5C 102.66,602.847 103.326,601.514 104.5,600.5C 105.167,600.167 105.833,599.833 106.5,599.5 Z"/></g>
<g><path style="opacity:1" fill="#606060" d="M 972.5,599.5 C 973.167,599.833 973.833,600.167 974.5,600.5C 975.338,600.842 975.672,601.508 975.5,602.5C 975.5,603.167 975.5,603.833 975.5,604.5C 974.11,603.101 973.11,601.434 972.5,599.5 Z"/></g>
<g><path style="opacity:1" fill="#d4d4d4" d="M 102.5,604.5 C 102.34,606.153 101.674,607.486 100.5,608.5C 100.229,606.62 100.896,605.287 102.5,604.5 Z"/></g>
<g><path style="opacity:1" fill="#efefef" d="M 975.5,602.5 C 977.136,603.749 978.303,605.416 979,607.5C 980.404,611.536 981.738,615.536 983,619.5C 983.667,725.167 983.667,830.833 983,936.5C 982.95,938.744 982.117,940.411 980.5,941.5C 981.658,833.855 981.825,726.188 981,618.5C 980.024,613.388 978.191,608.722 975.5,604.5C 975.5,603.833 975.5,603.167 975.5,602.5 Z"/></g>
<g><path style="opacity:1" fill="#656565" d="M 152.5,619.5 C 173.167,619.5 193.833,619.5 214.5,619.5C 214.5,619.833 214.5,620.167 214.5,620.5C 193.375,621.584 172.708,621.584 152.5,620.5C 152.5,620.167 152.5,619.833 152.5,619.5 Z"/></g>
<g><path style="opacity:1" fill="#545454" d="M 214.5,620.5 C 214.5,620.167 214.5,619.833 214.5,619.5C 454.667,619.167 694.667,619.5 934.5,620.5C 933.167,620.5 931.833,620.5 930.5,620.5C 692.295,620.762 453.628,620.762 214.5,620.5 Z"/></g>
<g><path style="opacity:1" fill="#ececec" d="M 100.5,608.5 C 99.7761,611.843 98.9428,615.176 98,618.5C 97.3333,725.167 97.3333,831.833 98,938.5C 99.3514,943.393 101.185,948.06 103.5,952.5C 103.5,952.833 103.5,953.167 103.5,953.5C 101.394,951.728 99.7274,949.562 98.5,947C 99.6341,945.984 99.3008,945.317 97.5,945C 97.9574,944.586 98.2907,944.086 98.5,943.5C 96.1413,938.101 95.1413,932.434 95.5,926.5C 95.8321,828.228 95.8321,728.561 95.5,627.5C 95.2834,620.547 96.9501,614.214 100.5,608.5 Z"/></g>
<g><path style="opacity:1" fill="#c2c2c2" d="M 930.5,620.5 C 931.833,620.5 933.167,620.5 934.5,620.5C 936.129,621.625 937.629,622.959 939,624.5C 939.833,727.334 939.666,830.001 938.5,932.5C 938.5,922.5 938.5,912.5 938.5,902.5C 938.024,810.885 937.524,718.552 937,625.5C 935.22,623.206 933.053,621.539 930.5,620.5 Z"/></g>
<g><path style="opacity:1" fill="#828282" d="M 152.5,619.5 C 152.5,619.833 152.5,620.167 152.5,620.5C 149.591,620.507 146.591,621.34 143.5,623C 142.044,625.266 141.21,627.766 141,630.5C 140.5,729.499 140.333,828.499 140.5,927.5C 140.5,928.833 140.5,930.167 140.5,931.5C 139.732,930.737 139.232,929.737 139,928.5C 138.333,827.833 138.333,727.167 139,626.5C 141.539,620.475 146.039,618.141 152.5,619.5 Z"/></g>
<g><path style="opacity:1" fill="#dedede" d="M 360.5,682.5 C 350.819,678.546 341.152,678.546 331.5,682.5C 332.975,680.59 334.975,679.424 337.5,679C 343.857,678.293 350.19,678.46 356.5,679.5C 358.588,679.62 359.922,680.62 360.5,682.5 Z"/></g>
<g><path style="opacity:1" fill="#040404" d="M 360.5,682.5 C 364.599,686.263 367.933,690.596 370.5,695.5C 373.53,704.143 372.863,712.476 368.5,720.5C 358.831,732.496 346.831,735.496 332.5,729.5C 331.508,729.672 330.842,729.338 330.5,728.5C 322.095,720.289 318.428,710.289 319.5,698.5C 321.712,694.429 324.212,690.429 327,686.5C 328.992,685.672 330.492,684.339 331.5,682.5C 341.152,678.546 350.819,678.546 360.5,682.5 Z"/></g>
<g><path style="opacity:1" fill="#818181" d="M 605.5,680.5 C 606.167,680.833 606.833,681.167 607.5,681.5C 608.89,682.899 609.89,684.566 610.5,686.5C 610.5,687.167 610.5,687.833 610.5,688.5C 608.336,686.178 606.669,683.511 605.5,680.5 Z"/></g>
<g><path style="opacity:1" fill="#cacaca" d="M 360.5,682.5 C 366.566,684.9 370.566,689.233 372.5,695.5C 371.833,695.5 371.167,695.5 370.5,695.5C 367.933,690.596 364.599,686.263 360.5,682.5 Z"/></g>
<g><path style="opacity:1" fill="#d9d9d9" d="M 610.5,686.5 C 613.482,688.992 615.982,691.992 618,695.5C 622.208,701.853 625.708,708.52 628.5,715.5C 622.277,706.742 616.277,697.742 610.5,688.5C 610.5,687.833 610.5,687.167 610.5,686.5 Z"/></g>
<g><path style="opacity:1" fill="#b2b2b2" d="M 331.5,682.5 C 330.492,684.339 328.992,685.672 327,686.5C 324.212,690.429 321.712,694.429 319.5,698.5C 320.124,690.567 324.124,685.234 331.5,682.5 Z"/></g>
<g><path style="opacity:1" fill="#e1e1e1" d="M 607.5,681.5 C 606.833,681.167 606.167,680.833 605.5,680.5C 605.16,678.321 604.16,676.488 602.5,675C 601.004,674.493 599.837,674.993 599,676.5C 597.159,680.183 594.826,683.516 592,686.5C 584.261,699.634 575.761,712.301 566.5,724.5C 573.055,711.572 580.555,699.906 589,689.5C 592.278,682.96 596.278,676.96 601,671.5C 604.918,673.662 607.084,676.996 607.5,681.5 Z"/></g>
<g><path style="opacity:1" fill="#a1a1a1" d="M 370.5,695.5 C 371.167,695.5 371.833,695.5 372.5,695.5C 375.451,703.873 374.784,711.873 370.5,719.5C 369.833,719.833 369.167,720.167 368.5,720.5C 372.863,712.476 373.53,704.143 370.5,695.5 Z"/></g>
<g><path style="opacity:1" fill="#acacac" d="M 319.5,698.5 C 318.428,710.289 322.095,720.289 330.5,728.5C 328.264,727.611 326.264,726.278 324.5,724.5C 318.786,716.827 317.119,708.16 319.5,698.5 Z"/></g>
<g><path style="opacity:1" fill="#d8d8d8" d="M 628.5,715.5 C 629.906,715.973 630.573,716.973 630.5,718.5C 629.094,718.027 628.427,717.027 628.5,715.5 Z"/></g>
<g><path style="opacity:1" fill="#eaeaea" d="M 630.5,718.5 C 631.906,718.973 632.573,719.973 632.5,721.5C 631.094,721.027 630.427,720.027 630.5,718.5 Z"/></g>
<g><path style="opacity:1" fill="#d8d8d8" d="M 566.5,724.5 C 566.573,726.027 565.906,727.027 564.5,727.5C 564.427,725.973 565.094,724.973 566.5,724.5 Z"/></g>
<g><path style="opacity:1" fill="#e8e8e8" d="M 370.5,719.5 C 366.208,727.283 359.708,732.283 351,734.5C 345.253,734.251 339.42,733.417 333.5,732C 332.748,731.329 332.414,730.496 332.5,729.5C 346.831,735.496 358.831,732.496 368.5,720.5C 369.167,720.167 369.833,719.833 370.5,719.5 Z"/></g>
<g><path style="opacity:1" fill="#ededed" d="M 564.5,727.5 C 561.94,732.277 559.107,736.944 556,741.5C 554.961,742.71 553.794,743.71 552.5,744.5C 555.323,739.523 558.157,734.523 561,729.5C 562.113,728.695 563.279,728.028 564.5,727.5 Z"/></g>
<g><path style="opacity:1" fill="#c3c3c3" d="M 632.5,721.5 C 634.129,722.625 635.629,723.959 637,725.5C 640.524,731.888 644.024,738.221 647.5,744.5C 645.549,743.718 644.049,742.384 643,740.5C 639.243,734.26 635.743,727.926 632.5,721.5 Z"/></g>
<g><path style="opacity:1" fill="#ebebeb" d="M 647.5,744.5 C 648.906,744.973 649.573,745.973 649.5,747.5C 648.094,747.027 647.427,746.027 647.5,744.5 Z"/></g>
<g><path style="opacity:1" fill="#cbcbcb" d="M 649.5,747.5 C 651.129,748.625 652.629,749.959 654,751.5C 659.19,760.555 664.357,769.555 669.5,778.5C 667.549,777.718 666.049,776.384 665,774.5C 660.084,765.402 654.917,756.402 649.5,747.5 Z"/></g>
<g><path style="opacity:1" fill="#dedede" d="M 552.5,744.5 C 550.182,750.47 546.849,755.803 542.5,760.5C 545.323,754.855 548.656,749.522 552.5,744.5 Z"/></g>
<g><path style="opacity:1" fill="#d7d7d7" d="M 601.5,753.5 C 599.068,756.688 596.401,759.688 593.5,762.5C 594.63,758.043 596.964,754.376 600.5,751.5C 601.298,751.957 601.631,752.624 601.5,753.5 Z"/></g>
<g><path style="opacity:1" fill="#dfdfdf" d="M 601.5,753.5 C 603.326,755.147 604.66,757.147 605.5,759.5C 605.833,760.167 606.167,760.833 606.5,761.5C 603.862,759.582 602.195,756.915 601.5,753.5 Z"/></g>
<g><path style="opacity:1" fill="#eaeaea" d="M 593.5,762.5 C 593.573,764.027 592.906,765.027 591.5,765.5C 591.427,763.973 592.094,762.973 593.5,762.5 Z"/></g>
<g><path style="opacity:1" fill="#a9a9a9" d="M 605.5,759.5 C 610.553,765.582 614.886,772.248 618.5,779.5C 616.871,778.375 615.371,777.041 614,775.5C 611.742,770.647 609.242,765.981 606.5,761.5C 606.167,760.833 605.833,760.167 605.5,759.5 Z"/></g>
<g><path style="opacity:1" fill="#c7c7c7" d="M 542.5,760.5 C 538.61,768.049 533.944,775.049 528.5,781.5C 532.876,774.289 537.043,766.956 541,759.5C 541.383,760.056 541.883,760.389 542.5,760.5 Z"/></g>
<g><path style="opacity:1" fill="#a0a0a0" d="M 588.5,769.5 C 586.683,773.801 584.35,777.801 581.5,781.5C 581.167,781.5 580.833,781.5 580.5,781.5C 582.201,776.737 584.868,772.737 588.5,769.5 Z"/></g>
<g><path style="opacity:1" fill="#e6e6e6" d="M 619.5,781.5 C 620.906,781.973 621.573,782.973 621.5,784.5C 620.094,784.027 619.427,783.027 619.5,781.5 Z"/></g>
<g><path style="opacity:1" fill="#d6d6d6" d="M 528.5,781.5 C 528.573,783.027 527.906,784.027 526.5,784.5C 526.427,782.973 527.094,781.973 528.5,781.5 Z"/></g>
<g><path style="opacity:1" fill="#8f8f8f" d="M 621.5,784.5 C 623.048,784.821 623.715,785.821 623.5,787.5C 622.599,786.71 621.932,785.71 621.5,784.5 Z"/></g>
<g><path style="opacity:1" fill="#e5e5e5" d="M 580.5,781.5 C 580.833,781.5 581.167,781.5 581.5,781.5C 579.795,784.042 578.295,786.708 577,789.5C 576.329,790.252 575.496,790.586 574.5,790.5C 575.759,786.975 577.759,783.975 580.5,781.5 Z"/></g>
<g><path style="opacity:1" fill="#e3e3e3" d="M 526.5,784.5 C 522.274,792.387 517.274,799.72 511.5,806.5C 515.514,798.465 520.514,791.132 526.5,784.5 Z"/></g>
<g><path style="opacity:1" fill="#ececec" d="M 623.5,787.5 C 624.89,788.899 625.89,790.566 626.5,792.5C 623.953,791.379 622.953,789.712 623.5,787.5 Z"/></g>
<g><path style="opacity:1" fill="#e3e3e3" d="M 574.5,790.5 C 574.25,792.674 573.25,794.341 571.5,795.5C 571.75,793.326 572.75,791.659 574.5,790.5 Z"/></g>
<g><path style="opacity:1" fill="#b9b9b9" d="M 669.5,778.5 C 672.844,781.348 675.677,784.681 678,788.5C 680.656,793.973 683.489,799.306 686.5,804.5C 686.5,805.167 686.5,805.833 686.5,806.5C 680.334,797.508 674.667,788.174 669.5,778.5 Z"/></g>
<g><path style="opacity:1" fill="#b0b0b0" d="M 626.5,792.5 C 628.048,792.821 628.715,793.821 628.5,795.5C 627.094,795.027 626.427,794.027 626.5,792.5 Z"/></g>
<g><path style="opacity:1" fill="#bfbfbf" d="M 571.5,795.5 C 567.356,802.445 563.189,809.445 559,816.5C 558.329,817.252 557.496,817.586 556.5,817.5C 560.514,809.465 565.514,802.132 571.5,795.5 Z"/></g>
<g><path style="opacity:1" fill="#dadada" d="M 628.5,795.5 C 630.074,795.937 631.241,796.937 632,798.5C 634.857,803.555 637.691,808.555 640.5,813.5C 637.734,810.836 635.067,808.003 632.5,805C 632.833,804.667 633.167,804.333 633.5,804C 631.18,801.522 629.514,798.689 628.5,795.5 Z"/></g>
<g><path style="opacity:1" fill="#eaeaea" d="M 686.5,804.5 C 692.345,810.685 697.011,817.685 700.5,825.5C 695.589,819.345 690.923,813.011 686.5,806.5C 686.5,805.833 686.5,805.167 686.5,804.5 Z"/></g>
<g><path style="opacity:1" fill="#e9e9e9" d="M 511.5,806.5 C 510.921,809.331 509.588,811.664 507.5,813.5C 507.998,810.674 509.331,808.34 511.5,806.5 Z"/></g>
<g><path style="opacity:1" fill="#838383" d="M 401.5,801.5 C 400.277,804.274 398.777,806.941 397,809.5C 396.241,811.063 395.074,812.063 393.5,812.5C 394.41,809.008 396.076,806.008 398.5,803.5C 399.5,802.833 400.5,802.167 401.5,801.5 Z"/></g>
<g><path style="opacity:1" fill="#d6d6d6" d="M 393.5,812.5 C 392.92,814.749 391.587,816.415 389.5,817.5C 390.08,815.251 391.413,813.585 393.5,812.5 Z"/></g>
<g><path style="opacity:1" fill="#f4f4f4" d="M 640.5,813.5 C 641.401,814.29 642.068,815.29 642.5,816.5C 639.993,816.368 639.326,815.368 640.5,813.5 Z"/></g>
<g><path style="opacity:1" fill="#b8b8b8" d="M 507.5,813.5 C 507.573,815.027 506.906,816.027 505.5,816.5C 505.427,814.973 506.094,813.973 507.5,813.5 Z"/></g>
<g><path style="opacity:1" fill="#c0c0c0" d="M 643.5,818.5 C 645.785,819.957 647.618,821.957 649,824.5C 652.089,829.406 654.923,834.406 657.5,839.5C 651.594,833.364 646.928,826.364 643.5,818.5 Z"/></g>
<g><path style="opacity:1" fill="#d7d7d7" d="M 488.5,841.5 C 487.252,844.996 485.252,847.996 482.5,850.5C 455.995,833.415 429.662,816.082 403.5,798.5C 402.575,799.357 401.908,800.357 401.5,801.5C 400.5,802.167 399.5,802.833 398.5,803.5C 399.33,798.176 402.33,796.342 407.5,798C 416.447,803.947 425.114,810.28 433.5,817C 449.638,827.124 465.805,837.29 482,847.5C 483.711,844.954 485.877,842.954 488.5,841.5 Z"/></g>
<g><path style="opacity:1" fill="#919191" d="M 700.5,825.5 C 703,828.494 705,831.827 706.5,835.5C 707.11,836.391 707.443,837.391 707.5,838.5C 703.857,834.88 701.523,830.547 700.5,825.5 Z"/></g>
<g><path style="opacity:1" fill="#b8b8b8" d="M 505.5,816.5 C 501.356,823.445 497.189,830.445 493,837.5C 491.951,839.384 490.451,840.718 488.5,841.5C 493.324,833.189 498.157,824.856 503,816.5C 503.77,817.598 504.603,817.598 505.5,816.5 Z"/></g>
<g><path style="opacity:1" fill="#f5f5f5" d="M 708.5,838.5 C 708.167,838.5 707.833,838.5 707.5,838.5C 707.443,837.391 707.11,836.391 706.5,835.5C 707.117,835.389 707.617,835.056 708,834.5C 708.49,835.793 708.657,837.127 708.5,838.5 Z"/></g>
<g><path style="opacity:1" fill="#d3d3d3" d="M 551.5,825.5 C 546.003,836.321 539.336,846.321 531.5,855.5C 536.413,846.737 541.58,838.07 547,829.5C 548.371,827.959 549.871,826.625 551.5,825.5 Z"/></g>
<g><path style="opacity:1" fill="#eaeaea" d="M 708.5,838.5 C 709.906,838.973 710.573,839.973 710.5,841.5C 709.094,841.027 708.427,840.027 708.5,838.5 Z"/></g>
<g><path style="opacity:1" fill="#f1f1f1" d="M 658.5,841.5 C 659.974,842.436 660.974,843.77 661.5,845.5C 659.088,845.306 658.088,843.973 658.5,841.5 Z"/></g>
<g><path style="opacity:1" fill="#e0e0e0" d="M 710.5,841.5 C 715.365,845.386 718.698,850.386 720.5,856.5C 715.929,852.369 712.596,847.369 710.5,841.5 Z"/></g>
<g><path style="opacity:1" fill="#8d8d8d" d="M 661.5,845.5 C 662.643,845.908 663.643,846.575 664.5,847.5C 667.175,852.185 669.841,856.852 672.5,861.5C 671.833,861.5 671.167,861.5 670.5,861.5C 666.981,856.463 663.981,851.13 661.5,845.5 Z"/></g>
<g><path style="opacity:1" fill="#eaeaea" d="M 720.5,856.5 C 721.906,856.973 722.573,857.973 722.5,859.5C 721.094,859.027 720.427,858.027 720.5,856.5 Z"/></g>
<g><path style="opacity:1" fill="#dcdcdc" d="M 416.5,858.5 C 418.027,858.427 419.027,859.094 419.5,860.5C 417.973,860.573 416.973,859.906 416.5,858.5 Z"/></g>
<g><path style="opacity:1" fill="#e8e8e8" d="M 722.5,859.5 C 724.95,861.629 726.617,864.296 727.5,867.5C 725.05,865.371 723.383,862.704 722.5,859.5 Z"/></g>
<g><path style="opacity:1" fill="#d1d1d1" d="M 389.5,817.5 C 381.575,828.604 373.408,839.604 365,850.5C 361.301,855.027 357.468,859.361 353.5,863.5C 358.061,857.398 362.394,851.065 366.5,844.5C 372.541,837.955 378.041,830.955 383,823.5C 385.037,821.294 387.203,819.294 389.5,817.5 Z"/></g>
<g><path style="opacity:1" fill="#e5e5e5" d="M 421.5,861.5 C 423.853,862.34 425.853,863.674 427.5,865.5C 424.802,865.155 422.802,863.822 421.5,861.5 Z"/></g>
<g><path style="opacity:1" fill="#ededed" d="M 670.5,861.5 C 671.167,861.5 671.833,861.5 672.5,861.5C 674.432,864.366 676.099,867.366 677.5,870.5C 674.87,867.853 672.537,864.853 670.5,861.5 Z"/></g>
<g><path style="opacity:1" fill="#eaeaea" d="M 427.5,865.5 C 429.853,866.34 431.853,867.674 433.5,869.5C 430.802,869.155 428.802,867.822 427.5,865.5 Z"/></g>
<g><path style="opacity:1" fill="#c4c4c4" d="M 531.5,855.5 C 528.276,861.609 524.776,867.609 521,873.5C 519.961,874.71 518.794,875.71 517.5,876.5C 520.953,868.565 525.62,861.565 531.5,855.5 Z"/></g>
<g><path style="opacity:1" fill="#d5d5d5" d="M 416.5,858.5 C 414.097,858.393 412.264,859.393 411,861.5C 406.293,868.271 401.126,874.604 395.5,880.5C 400.087,873.398 404.921,866.398 410,859.5C 412.154,856.589 414.32,856.256 416.5,858.5 Z"/></g>
<g><path style="opacity:1" fill="#e2e2e2" d="M 353.5,863.5 C 349.786,870.271 345.119,876.271 339.5,881.5C 343.027,874.636 347.694,868.636 353.5,863.5 Z"/></g>
<g><path style="opacity:1" fill="#808080" d="M 433.5,869.5 C 437.219,869.564 439.886,871.231 441.5,874.5C 438.151,873.831 435.484,872.164 433.5,869.5 Z"/></g>
<g><path style="opacity:1" fill="#e2e2e2" d="M 677.5,870.5 C 678.906,870.973 679.573,871.973 679.5,873.5C 678.094,873.027 677.427,872.027 677.5,870.5 Z"/></g>
<g><path style="opacity:1" fill="#616161" d="M 441.5,874.5 C 444.285,873.916 445.952,874.916 446.5,877.5C 444.326,877.25 442.659,876.25 441.5,874.5 Z"/></g>
<g><path style="opacity:1" fill="#9b9b9b" d="M 680.5,875.5 C 682.048,875.821 682.715,876.821 682.5,878.5C 681.599,877.71 680.932,876.71 680.5,875.5 Z"/></g>
<g><path style="opacity:1" fill="#e6e6e6" d="M 517.5,876.5 C 517.573,878.027 516.906,879.027 515.5,879.5C 515.427,877.973 516.094,876.973 517.5,876.5 Z"/></g>
<g><path style="opacity:1" fill="#a3a3a3" d="M 446.5,877.5 C 448.027,877.427 449.027,878.094 449.5,879.5C 447.973,879.573 446.973,878.906 446.5,877.5 Z"/></g>
<g><path style="opacity:1" fill="#acacac" d="M 449.5,879.5 C 451.027,879.427 452.027,880.094 452.5,881.5C 450.973,881.573 449.973,880.906 449.5,879.5 Z"/></g>
<g><path style="opacity:1" fill="#c6c6c6" d="M 727.5,867.5 C 729.591,869.458 731.591,871.624 733.5,874C 736.076,878.4 738.409,882.9 740.5,887.5C 737.902,885.696 735.735,883.362 734,880.5C 731.822,876.145 729.656,871.811 727.5,867.5 Z"/></g>
<g><path style="opacity:1" fill="#b2b2b2" d="M 682.5,878.5 C 684.785,879.957 686.618,881.957 688,884.5C 691.089,889.406 693.923,894.406 696.5,899.5C 694.871,898.375 693.371,897.041 692,895.5C 688.644,889.406 685.477,883.739 682.5,878.5 Z"/></g>
<g><path style="opacity:1" fill="#ebebeb" d="M 452.5,881.5 C 455.135,882.811 457.469,884.478 459.5,886.5C 456.281,885.931 453.948,884.264 452.5,881.5 Z"/></g>
<g><path style="opacity:1" fill="#d1d1d1" d="M 339.5,881.5 C 337.565,885.707 334.898,889.373 331.5,892.5C 333.4,888.268 336.067,884.601 339.5,881.5 Z"/></g>
<g><path style="opacity:1" fill="#c1c1c1" d="M 395.5,880.5 C 391.949,887.383 387.282,893.383 381.5,898.5C 384.818,892.545 388.651,886.878 393,881.5C 393.671,880.748 394.504,880.414 395.5,880.5 Z"/></g>
<g><path style="opacity:1" fill="#d9d9d9" d="M 740.5,887.5 C 741.906,887.973 742.573,888.973 742.5,890.5C 741.094,890.027 740.427,889.027 740.5,887.5 Z"/></g>
<g><path style="opacity:1" fill="#b4b4b4" d="M 459.5,886.5 C 463.609,887.874 466.943,890.208 469.5,893.5C 465.108,892.641 461.775,890.307 459.5,886.5 Z"/></g>
<g><path style="opacity:1" fill="#e8e8e8" d="M 742.5,890.5 C 743.906,890.973 744.573,891.973 744.5,893.5C 743.094,893.027 742.427,892.027 742.5,890.5 Z"/></g>
<g><path style="opacity:1" fill="#f0f0f0" d="M 744.5,893.5 C 745.906,893.973 746.573,894.973 746.5,896.5C 745.094,896.027 744.427,895.027 744.5,893.5 Z"/></g>
<g><path style="opacity:1" fill="#8e8e8e" d="M 469.5,893.5 C 471.989,893.241 473.656,894.241 474.5,896.5C 472.566,895.89 470.899,894.89 469.5,893.5 Z"/></g>
<g><path style="opacity:1" fill="#bebebe" d="M 474.5,896.5 C 476.027,896.427 477.027,897.094 477.5,898.5C 475.973,898.573 474.973,897.906 474.5,896.5 Z"/></g>
<g><path style="opacity:1" fill="#e1e1e1" d="M 477.5,898.5 C 479.027,898.427 480.027,899.094 480.5,900.5C 478.973,900.573 477.973,899.906 477.5,898.5 Z"/></g>
<g><path style="opacity:1" fill="#d6d6d6" d="M 512.5,883.5 C 507.482,893.03 501.815,902.196 495.5,911C 494.092,911.315 492.759,910.982 491.5,910C 488.334,908 485.668,905.5 483.5,902.5C 486.778,903.809 489.778,905.642 492.5,908C 493.5,908.667 494.5,908.667 495.5,908C 500.573,899.331 506.239,891.164 512.5,883.5 Z"/></g>
<g><path style="opacity:1" fill="#dbdbdb" d="M 380.5,899.5 C 380.573,901.027 379.906,902.027 378.5,902.5C 378.427,900.973 379.094,899.973 380.5,899.5 Z"/></g>
<g><path style="opacity:1" fill="#e9e9e9" d="M 480.5,900.5 C 482.027,900.427 483.027,901.094 483.5,902.5C 481.821,902.715 480.821,902.048 480.5,900.5 Z"/></g>
<g><path style="opacity:1" fill="#cfcfcf" d="M 697.5,901.5 C 699.201,902.211 700.201,903.545 700.5,905.5C 698.799,904.789 697.799,903.455 697.5,901.5 Z"/></g>
<g><path style="opacity:1" fill="#dcdcdc" d="M 377.5,903.5 C 377.573,905.027 376.906,906.027 375.5,906.5C 375.427,904.973 376.094,903.973 377.5,903.5 Z"/></g>
<g><path style="opacity:1" fill="#dfdfdf" d="M 700.5,905.5 C 701.674,906.514 702.34,907.847 702.5,909.5C 700.896,908.713 700.229,907.38 700.5,905.5 Z"/></g>
<g><path style="opacity:1" fill="#c6c6c6" d="M 331.5,892.5 C 326.696,901.112 320.696,908.779 313.5,915.5C 318.066,906.613 324.066,898.947 331.5,892.5 Z"/></g>
<g><path style="opacity:1" fill="#e4e4e4" d="M 313.5,915.5 C 309.269,922.732 304.269,929.399 298.5,935.5C 297.833,935.5 297.167,935.5 296.5,935.5C 301.293,929.304 306.126,922.97 311,916.5C 311.671,915.748 312.504,915.414 313.5,915.5 Z"/></g>
<g><path style="opacity:1" fill="#d8d8d8" d="M 375.5,906.5 C 372.182,912.455 368.349,918.122 364,923.5C 362.887,924.305 361.721,924.972 360.5,925.5C 364.478,920.006 368.311,914.339 372,908.5C 372.816,907.177 373.983,906.511 375.5,906.5 Z"/></g>
<g><path style="opacity:1" fill="#c4c4c4" d="M 702.5,909.5 C 703.643,909.908 704.643,910.575 705.5,911.5C 709.443,917.725 713.109,924.058 716.5,930.5C 710.72,923.818 706.053,916.818 702.5,909.5 Z"/></g>
<g><path style="opacity:1" fill="#d3d3d3" d="M 746.5,896.5 C 749.447,899.019 751.947,902.019 754,905.5C 757.776,912.889 762.109,919.222 767,924.5C 767.532,927.865 769.366,930.198 772.5,931.5C 773.429,932.689 773.762,934.022 773.5,935.5C 776.167,935.5 778.833,935.5 781.5,935.5C 832.833,935.5 884.167,935.5 935.5,935.5C 880.665,936.831 825.665,936.831 770.5,935.5C 762.431,923.707 754.598,911.707 747,899.5C 746.517,898.552 746.351,897.552 746.5,896.5 Z"/></g>
<g><path style="opacity:1" fill="#f8f8f8" d="M 360.5,925.5 C 359.758,927.426 358.758,929.259 357.5,931C 358.52,934.346 360.52,935.18 363.5,933.5C 472.98,934.163 582.313,934.829 691.5,935.5C 580.5,935.5 469.5,935.5 358.5,935.5C 357.432,934.566 356.099,934.232 354.5,934.5C 354.5,933.833 354.5,933.167 354.5,932.5C 355.8,929.568 357.8,927.234 360.5,925.5 Z"/></g>
<g><path style="opacity:1" fill="#f9f9f9" d="M 938.5,902.5 C 938.5,912.5 938.5,922.5 938.5,932.5C 937.167,933.167 936.167,934.167 935.5,935.5C 884.167,935.5 832.833,935.5 781.5,935.5C 782.641,934.661 783.974,933.994 785.5,933.5C 834.741,934.228 884.407,934.228 934.5,933.5C 935.799,932.91 936.632,931.91 937,930.5C 937.17,920.991 937.67,911.658 938.5,902.5 Z"/></g>
<g><path style="opacity:1" fill="#f9faf9" d="M 260.5,935.5 C 224.833,935.5 189.167,935.5 153.5,935.5C 154.624,934.191 156.124,933.525 158,933.5C 165.054,934.765 172.054,934.765 179,933.5C 206.264,934.163 233.431,934.829 260.5,935.5 Z"/></g>
<g><path style="opacity:1" fill="#b7b7b7" d="M 140.5,927.5 C 141.131,929.448 142.131,931.281 143.5,933C 144.672,933.353 145.838,933.187 147,932.5C 149.368,933.2 151.534,934.2 153.5,935.5C 189.167,935.5 224.833,935.5 260.5,935.5C 272.5,935.5 284.5,935.5 296.5,935.5C 297.167,935.5 297.833,935.5 298.5,935.5C 246.998,936.831 195.332,936.831 143.5,935.5C 142.174,934.358 141.174,933.024 140.5,931.5C 140.5,930.167 140.5,928.833 140.5,927.5 Z"/></g>
<g><path style="opacity:1" fill="#b7b7b7" d="M 716.5,930.5 C 718.063,931.945 719.396,933.611 720.5,935.5C 659.334,936.167 598.001,936.5 536.5,936.5C 474.83,936.5 413.496,935.833 352.5,934.5C 353.167,933.833 353.833,933.167 354.5,932.5C 354.5,933.167 354.5,933.833 354.5,934.5C 355.568,935.434 356.901,935.768 358.5,935.5C 469.5,935.5 580.5,935.5 691.5,935.5C 699.507,935.666 707.507,935.5 715.5,935C 714.692,934.692 714.025,934.192 713.5,933.5C 714.77,932.712 715.77,931.712 716.5,930.5 Z"/></g>
<g><path style="opacity:1" fill="#555555" d="M 352.5,934.5 C 413.496,935.833 474.83,936.5 536.5,936.5C 598.001,936.5 659.334,936.167 720.5,935.5C 721.043,935.56 721.376,935.893 721.5,936.5C 598.168,937.5 474.835,937.833 351.5,937.5C 351.263,936.209 351.596,935.209 352.5,934.5 Z"/></g>
<g><path style="opacity:1" fill="#777777" d="M 103.5,952.5 C 105.635,954.748 107.302,957.414 108.5,960.5C 107.833,960.167 107.167,959.833 106.5,959.5C 105.691,958.531 104.691,957.698 103.5,957C 104.171,956.014 104.171,954.847 103.5,953.5C 103.5,953.167 103.5,952.833 103.5,952.5 Z"/></g>
<g><path style="opacity:1" fill="#d6d6d6" d="M 106.5,959.5 C 107.167,959.833 107.833,960.167 108.5,960.5C 111.167,962.5 113.5,964.833 115.5,967.5C 116.167,968.5 116.833,969.5 117.5,970.5C 112.833,967.833 109.167,964.167 106.5,959.5 Z"/></g>
<g><path style="opacity:1" fill="#aeaeae" d="M 979.5,944.5 C 973.946,964.388 960.946,975.721 940.5,978.5C 959.059,973.612 972.059,962.279 979.5,944.5 Z"/></g>
<g><path style="opacity:1" fill="#888888" d="M 115.5,967.5 C 119.731,969.995 123.731,972.661 127.5,975.5C 123.74,974.587 120.407,972.92 117.5,970.5C 116.833,969.5 116.167,968.5 115.5,967.5 Z"/></g>
<g><path style="opacity:1" fill="#e6e6e6" d="M 130.5,976.5 C 133.067,976.721 135.401,977.388 137.5,978.5C 134.772,978.829 132.438,978.163 130.5,976.5 Z"/></g>
<g><path style="opacity:1" fill="#f9faf9" d="M 138.5,978.5 C 405.833,978.5 673.167,978.5 940.5,978.5C 685.431,979.167 430.264,979.834 175,980.5C 168.983,979.496 162.816,979.496 156.5,980.5C 150.347,979.914 144.347,979.247 138.5,978.5 Z"/></g>
</svg>
