<?xml version="1.0" encoding="UTF-8"?>
<!DOCTYPE svg PUBLIC "-//W3C//DTD SVG 1.1//EN" "http://www.w3.org/Graphics/SVG/1.1/DTD/svg11.dtd">
<svg xmlns="http://www.w3.org/2000/svg" version="1.1" width="1080px" height="1080px" style="shape-rendering:geometricPrecision; text-rendering:geometricPrecision; image-rendering:optimizeQuality; fill-rule:evenodd; clip-rule:evenodd" xmlns:xlink="http://www.w3.org/1999/xlink">
<g><path style="opacity:1" fill="#f9faf9" d="M 768.5,99.5 C 769.833,100.167 769.833,100.167 768.5,99.5 Z"/></g>
<g><path style="opacity:1" fill="#f4f4f4" d="M 142.5,100.5 C 142.5,100.833 142.5,101.167 142.5,101.5C 142.167,101.5 141.833,101.5 141.5,101.5C 136.761,102.185 132.094,103.185 127.5,104.5C 131.974,101.57 136.974,100.237 142.5,100.5 Z"/></g>
<g><path style="opacity:1" fill="#d5d5d5" d="M 940.5,101.5 C 884.166,101.333 827.832,101.5 771.5,102C 768.832,102.567 766.166,103.067 763.5,103.5C 765.476,101.989 767.809,101.156 770.5,101C 827.335,100.168 884.001,100.335 940.5,101.5 Z"/></g>
<g><path style="opacity:1" fill="#dadada" d="M 623.5,101.5 C 627.286,101.32 630.619,102.32 633.5,104.5C 632.833,104.5 632.167,104.5 631.5,104.5C 628.603,103.871 625.936,102.871 623.5,101.5 Z"/></g>
<g><path style="opacity:1" fill="#010101" d="M 141.5,101.5 C 141.833,101.5 142.167,101.5 142.5,101.5C 197.168,101.333 251.834,101.5 306.5,102C 318.808,105.481 329.142,111.981 337.5,121.5C 337.216,124.857 338.549,127.191 341.5,128.5C 341.935,131.157 342.935,133.491 344.5,135.5C 344.547,138.568 345.047,141.568 346,144.5C 346.667,248.167 346.667,351.833 346,455.5C 345.085,462.413 343.252,469.08 340.5,475.5C 340.672,476.492 340.338,477.158 339.5,477.5C 335.464,481.534 331.798,485.868 328.5,490.5C 326.973,490.427 325.973,491.094 325.5,492.5C 324.306,493.272 323.306,494.272 322.5,495.5C 321.833,495.5 321.167,495.5 320.5,495.5C 314.396,498.033 308.063,499.867 301.5,501C 248.763,501.165 196.763,501.665 145.5,502.5C 145.631,503.239 145.464,503.906 145,504.5C 143.698,503.915 142.531,503.249 141.5,502.5C 144.097,502.279 144.097,501.779 141.5,501C 136.006,499.776 130.672,498.276 125.5,496.5C 125.027,495.094 124.027,494.427 122.5,494.5C 122.027,493.094 121.027,492.427 119.5,492.5C 119.027,491.094 118.027,490.427 116.5,490.5C 108.693,481.873 102.693,472.206 98.5,461.5C 98.5,354.5 98.5,247.5 98.5,140.5C 100.074,138.898 100.741,136.898 100.5,134.5C 101.737,133.035 102.737,131.368 103.5,129.5C 104.89,128.101 105.89,126.434 106.5,124.5C 111.213,117.454 117.213,111.787 124.5,107.5C 130.252,105.473 135.919,103.473 141.5,101.5 Z M 247.5,143.5 C 259.048,144.215 270.882,144.215 283,143.5C 288.931,143.452 294.764,144.118 300.5,145.5C 300.932,146.71 301.599,147.71 302.5,148.5C 302.667,249.834 302.5,351.167 302,452.5C 300.807,454.497 299.307,456.164 297.5,457.5C 289.225,457.341 280.892,457.674 272.5,458.5C 235.098,457.83 197.598,457.164 160,456.5C 157.925,457.134 155.759,457.468 153.5,457.5C 149.34,456.906 145.673,455.906 142.5,454.5C 141.338,353.207 141.171,251.873 142,150.5C 142.41,149.099 142.91,147.766 143.5,146.5C 144.167,146.5 144.5,146.167 144.5,145.5C 145.117,145.611 145.617,145.944 146,146.5C 148.74,145.718 151.574,145.218 154.5,145C 185.669,144.832 216.669,144.332 247.5,143.5 Z"/></g>
<g><path style="opacity:1" fill="#030303" d="M 623.5,101.5 C 625.936,102.871 628.603,103.871 631.5,104.5C 633.033,106.245 635.033,107.245 637.5,107.5C 650.504,115.505 659.171,126.839 663.5,141.5C 663.667,246.501 663.5,351.501 663,456.5C 662.203,462.053 660.703,467.387 658.5,472.5C 656.073,477.029 653.406,481.362 650.5,485.5C 647.377,487.382 644.711,489.715 642.5,492.5C 640.973,492.427 639.973,493.094 639.5,494.5C 637.847,494.66 636.514,495.326 635.5,496.5C 630.067,498.775 624.401,500.275 618.5,501C 566.834,501.5 515.168,501.667 463.5,501.5C 461.735,500.539 459.735,500.205 457.5,500.5C 453.397,499.91 449.397,498.91 445.5,497.5C 444.508,497.672 443.842,497.338 443.5,496.5C 442.486,495.326 441.153,494.66 439.5,494.5C 439.027,493.094 438.027,492.427 436.5,492.5C 435.205,491.512 433.872,490.512 432.5,489.5C 431.833,488.167 430.833,487.167 429.5,486.5C 427.397,483.28 425.064,480.28 422.5,477.5C 420.909,473.228 419.409,468.894 418,464.5C 417.583,463.244 416.75,462.577 415.5,462.5C 415.5,461.833 415.5,461.167 415.5,460.5C 415.333,354.166 415.5,247.833 416,141.5C 417.742,136.77 419.575,132.103 421.5,127.5C 426.143,119.858 432.143,113.524 439.5,108.5C 442.157,108.065 444.491,107.065 446.5,105.5C 449.254,104.359 451.921,103.025 454.5,101.5C 510.833,100.167 567.167,100.167 623.5,101.5 Z M 596.5,143.5 C 602.355,143.693 608.355,144.027 614.5,144.5C 615.105,146.481 616.105,146.815 617.5,145.5C 617.833,146.5 618.5,147.167 619.5,147.5C 620.498,249.333 620.832,351 620.5,452.5C 618.675,454.66 616.341,456.16 613.5,457C 607.333,457.167 601.167,457.333 595,457.5C 551.58,457.541 508.08,457.374 464.5,457C 462.391,455.859 460.558,454.359 459,452.5C 458.173,350.805 458.34,249.139 459.5,147.5C 460.5,147.167 461.167,146.5 461.5,145.5C 462.791,145.737 463.791,145.404 464.5,144.5C 465.583,144.539 466.583,144.873 467.5,145.5C 510.627,144.839 553.627,144.172 596.5,143.5 Z"/></g>
<g><path style="opacity:1" fill="#010101" d="M 940.5,101.5 C 952.463,105.153 962.463,111.82 970.5,121.5C 971.449,123.777 972.782,125.777 974.5,127.5C 976.1,129.703 977.433,132.036 978.5,134.5C 978.171,137.228 978.837,139.562 980.5,141.5C 980.5,141.833 980.5,142.167 980.5,142.5C 980.5,248.167 980.5,353.833 980.5,459.5C 980.5,459.833 980.5,460.167 980.5,460.5C 978.322,465.692 976.322,471.026 974.5,476.5C 969.498,481.843 964.498,487.176 959.5,492.5C 952.353,496.606 944.687,499.439 936.5,501C 884.998,501.167 833.665,501.667 782.5,502.5C 782.167,502.5 781.833,502.5 781.5,502.5C 774.168,500.893 766.835,498.893 759.5,496.5C 759.027,495.094 758.027,494.427 756.5,494.5C 755.127,492.793 753.461,491.46 751.5,490.5C 747.518,488.183 744.185,485.183 741.5,481.5C 741.446,479.368 740.446,478.035 738.5,477.5C 738.5,477.167 738.5,476.833 738.5,476.5C 738.843,474.517 738.176,473.183 736.5,472.5C 734.051,466.431 732.551,460.097 732,453.5C 731.333,350.833 731.333,248.167 732,145.5C 732.53,141.417 733.363,137.417 734.5,133.5C 736.674,130.485 738.341,127.151 739.5,123.5C 746.352,115.414 754.352,108.747 763.5,103.5C 766.166,103.067 768.832,102.567 771.5,102C 827.832,101.5 884.166,101.333 940.5,101.5 Z M 931.5,144.5 C 932.345,146.762 933.678,147.429 935.5,146.5C 936.159,148.138 936.826,149.805 937.5,151.5C 937.259,250.261 937.259,348.928 937.5,447.5C 937.534,450.433 936.701,453.1 935,455.5C 933.215,454.646 932.049,455.313 931.5,457.5C 883.282,457.202 835.116,457.202 787,457.5C 783.684,456.974 780.684,456.307 778,455.5C 777.333,454.167 776.667,452.833 776,451.5C 775.5,351.501 775.333,251.501 775.5,151.5C 776.038,149.883 776.371,148.216 776.5,146.5C 777.167,146.5 777.5,146.167 777.5,145.5C 828.742,144.519 880.075,144.186 931.5,144.5 Z"/></g>
<g><path style="opacity:1" fill="#cacaca" d="M 454.5,101.5 C 451.921,103.025 449.254,104.359 446.5,105.5C 444.435,105.517 442.435,105.85 440.5,106.5C 444.63,103.676 449.297,102.009 454.5,101.5 Z"/></g>
<g><path style="opacity:1" fill="#585858" d="M 141.5,101.5 C 135.919,103.473 130.252,105.473 124.5,107.5C 125.306,106.272 126.306,105.272 127.5,104.5C 132.094,103.185 136.761,102.185 141.5,101.5 Z"/></g>
<g><path style="opacity:1" fill="#757575" d="M 631.5,104.5 C 632.167,104.5 632.833,104.5 633.5,104.5C 635.076,105.143 636.41,106.143 637.5,107.5C 635.033,107.245 633.033,106.245 631.5,104.5 Z"/></g>
<g><path style="opacity:1" fill="#656565" d="M 446.5,105.5 C 444.491,107.065 442.157,108.065 439.5,108.5C 439.833,107.833 440.167,107.167 440.5,106.5C 442.435,105.85 444.435,105.517 446.5,105.5 Z"/></g>
<g><path style="opacity:1" fill="#dadada" d="M 763.5,103.5 C 754.352,108.747 746.352,115.414 739.5,123.5C 744.682,113.559 752.682,106.893 763.5,103.5 Z"/></g>
<g><path style="opacity:1" fill="#d4d4d4" d="M 127.5,104.5 C 126.306,105.272 125.306,106.272 124.5,107.5C 117.213,111.787 111.213,117.454 106.5,124.5C 105.833,124.833 105.167,125.167 104.5,125.5C 109.046,115.064 116.713,108.064 127.5,104.5 Z"/></g>
<g><path style="opacity:1" fill="#c7c7c7" d="M 142.5,101.5 C 142.5,101.167 142.5,100.833 142.5,100.5C 197.501,100.333 252.501,100.5 307.5,101C 320.552,103.669 330.552,110.502 337.5,121.5C 329.142,111.981 318.808,105.481 306.5,102C 251.834,101.5 197.168,101.333 142.5,101.5 Z"/></g>
<g><path style="opacity:1" fill="#d4d4d4" d="M 940.5,101.5 C 955.27,103.284 966.27,110.617 973.5,123.5C 972.5,122.833 971.5,122.167 970.5,121.5C 962.463,111.82 952.463,105.153 940.5,101.5 Z"/></g>
<g><path style="opacity:1" fill="#d3d3d3" d="M 633.5,104.5 C 635.655,104.372 637.655,104.872 639.5,106C 652.472,113.916 660.472,125.75 663.5,141.5C 659.171,126.839 650.504,115.505 637.5,107.5C 636.41,106.143 635.076,105.143 633.5,104.5 Z"/></g>
<g><path style="opacity:1" fill="#6f6f6f" d="M 970.5,121.5 C 971.5,122.167 972.5,122.833 973.5,123.5C 974.338,123.842 974.672,124.508 974.5,125.5C 974.5,126.167 974.5,126.833 974.5,127.5C 972.782,125.777 971.449,123.777 970.5,121.5 Z"/></g>
<g><path style="opacity:1" fill="#e6e6e6" d="M 440.5,106.5 C 440.167,107.167 439.833,107.833 439.5,108.5C 432.143,113.524 426.143,119.858 421.5,127.5C 420.833,127.833 420.167,128.167 419.5,128.5C 420.128,125.91 421.295,123.577 423,121.5C 425.706,119.129 428.039,116.463 430,113.5C 433.128,110.526 436.628,108.193 440.5,106.5 Z"/></g>
<g><path style="opacity:1" fill="#8a8a8a" d="M 337.5,121.5 C 339.588,123.336 340.921,125.669 341.5,128.5C 338.549,127.191 337.216,124.857 337.5,121.5 Z"/></g>
<g><path style="opacity:1" fill="#656565" d="M 106.5,124.5 C 105.89,126.434 104.89,128.101 103.5,129.5C 103.5,128.833 103.5,128.167 103.5,127.5C 103.328,126.508 103.662,125.842 104.5,125.5C 105.167,125.167 105.833,124.833 106.5,124.5 Z"/></g>
<g><path style="opacity:1" fill="#e6e6e6" d="M 739.5,123.5 C 738.341,127.151 736.674,130.485 734.5,133.5C 734.092,129.022 735.758,125.689 739.5,123.5 Z"/></g>
<g><path style="opacity:1" fill="#cdcdcd" d="M 103.5,127.5 C 103.5,128.167 103.5,128.833 103.5,129.5C 102.737,131.368 101.737,133.035 100.5,134.5C 100.166,131.509 101.166,129.176 103.5,127.5 Z"/></g>
<g><path style="opacity:1" fill="#e9e9e9" d="M 341.5,128.5 C 343.448,130.32 344.448,132.654 344.5,135.5C 342.935,133.491 341.935,131.157 341.5,128.5 Z"/></g>
<g><path style="opacity:1" fill="#efefef" d="M 974.5,125.5 C 977.165,127.835 978.498,130.835 978.5,134.5C 977.433,132.036 976.1,129.703 974.5,127.5C 974.5,126.833 974.5,126.167 974.5,125.5 Z"/></g>
<g><path style="opacity:1" fill="#c8c8c8" d="M 100.5,134.5 C 100.741,136.898 100.074,138.898 98.5,140.5C 98.3893,139.883 98.056,139.383 97.5,139C 98.7811,137.591 99.7811,136.091 100.5,134.5 Z"/></g>
<g><path style="opacity:1" fill="#f3f3f3" d="M 344.5,135.5 C 345.958,137.932 347.125,140.599 348,143.5C 349.992,248.859 349.992,354.192 348,459.5C 346.5,463.167 345,466.833 343.5,470.5C 343.833,471.167 344.167,471.833 344.5,472.5C 343.053,472.677 341.719,473.677 340.5,475.5C 343.252,469.08 345.085,462.413 346,455.5C 346.667,351.833 346.667,248.167 346,144.5C 345.047,141.568 344.547,138.568 344.5,135.5 Z"/></g>
<g><path style="opacity:1" fill="#b1b1b1" d="M 978.5,134.5 C 979.924,136.515 980.59,138.848 980.5,141.5C 978.837,139.562 978.171,137.228 978.5,134.5 Z"/></g>
<g><path style="opacity:1" fill="#545454" d="M 300.5,145.5 C 294.764,144.118 288.931,143.452 283,143.5C 270.882,144.215 259.048,144.215 247.5,143.5C 213.123,143.18 178.79,143.514 144.5,144.5C 144.611,143.883 144.944,143.383 145.5,143C 196.837,142.167 248.17,142.333 299.5,143.5C 299.863,144.183 300.196,144.85 300.5,145.5 Z"/></g>
<g><path style="opacity:1" fill="#595959" d="M 619.5,147.5 C 618.5,147.167 617.833,146.5 617.5,145.5C 616.791,144.596 615.791,144.263 614.5,144.5C 608.355,144.027 602.355,143.693 596.5,143.5C 552.33,143.168 508.33,143.501 464.5,144.5C 463.791,145.404 462.791,145.737 461.5,145.5C 461.804,144.85 462.137,144.183 462.5,143.5C 513.83,142.333 565.163,142.167 616.5,143C 618.863,143.589 619.863,145.089 619.5,147.5 Z"/></g>
<g><path style="opacity:1" fill="#505050" d="M 934.5,144.5 C 933.5,144.5 932.5,144.5 931.5,144.5C 880.627,143.174 829.627,143.174 778.5,144.5C 778.611,143.883 778.944,143.383 779.5,143C 830.833,142.333 882.167,142.333 933.5,143C 934.056,143.383 934.389,143.883 934.5,144.5 Z"/></g>
<g><path style="opacity:1" fill="#f9f9f9" d="M 247.5,143.5 C 216.669,144.332 185.669,144.832 154.5,145C 151.574,145.218 148.74,145.718 146,146.5C 145.617,145.944 145.117,145.611 144.5,145.5C 144.5,145.167 144.5,144.833 144.5,144.5C 178.79,143.514 213.123,143.18 247.5,143.5 Z"/></g>
<g><path style="opacity:1" fill="#f9f9f9" d="M 464.5,144.5 C 508.33,143.501 552.33,143.168 596.5,143.5C 553.627,144.172 510.627,144.839 467.5,145.5C 466.583,144.873 465.583,144.539 464.5,144.5 Z"/></g>
<g><path style="opacity:1" fill="#f8f8f8" d="M 931.5,144.5 C 880.075,144.186 828.742,144.519 777.5,145.5C 777.5,144.833 777.833,144.5 778.5,144.5C 829.627,143.174 880.627,143.174 931.5,144.5 Z"/></g>
<g><path style="opacity:1" fill="#f6f6f6" d="M 614.5,144.5 C 615.791,144.263 616.791,144.596 617.5,145.5C 616.105,146.815 615.105,146.481 614.5,144.5 Z"/></g>
<g><path style="opacity:1" fill="#dddddd" d="M 931.5,144.5 C 932.5,144.5 933.5,144.5 934.5,144.5C 934.833,145.167 935.167,145.833 935.5,146.5C 933.678,147.429 932.345,146.762 931.5,144.5 Z"/></g>
<g><path style="opacity:1" fill="#d9d9d9" d="M 461.5,145.5 C 461.167,146.5 460.5,147.167 459.5,147.5C 459.5,146.167 460.167,145.5 461.5,145.5 Z"/></g>
<g><path style="opacity:1" fill="#d6d6d6" d="M 302.5,148.5 C 303.833,198.996 304.5,249.829 304.5,301C 304.333,351.833 304.167,402.667 304,453.5C 302.968,455.027 301.801,456.36 300.5,457.5C 299.5,457.5 298.5,457.5 297.5,457.5C 299.307,456.164 300.807,454.497 302,452.5C 302.5,351.167 302.667,249.834 302.5,148.5 Z"/></g>
<g><path style="opacity:1" fill="#f9f9f9" d="M 775.5,151.5 C 775.333,251.501 775.5,351.501 776,451.5C 776.667,452.833 777.333,454.167 778,455.5C 780.684,456.307 783.684,456.974 787,457.5C 835.116,457.202 883.282,457.202 931.5,457.5C 880.313,458.818 828.98,458.818 777.5,457.5C 776.075,456.078 775.075,454.411 774.5,452.5C 774.167,351.999 774.501,251.665 775.5,151.5 Z"/></g>
<g><path style="opacity:1" fill="#9d9d9d" d="M 935.5,146.5 C 936.496,146.414 937.329,146.748 938,147.5C 938.333,148.833 938.667,150.167 939,151.5C 939.83,252.028 939.663,352.528 938.5,453C 937.161,455.672 935.161,457.672 932.5,459C 881.5,459.667 830.5,459.667 779.5,459C 778.584,458.722 777.918,458.222 777.5,457.5C 828.98,458.818 880.313,458.818 931.5,457.5C 932.049,455.313 933.215,454.646 935,455.5C 936.701,453.1 937.534,450.433 937.5,447.5C 937.259,348.928 937.259,250.261 937.5,151.5C 936.826,149.805 936.159,148.138 935.5,146.5 Z"/></g>
<g><path style="opacity:1" fill="#999999" d="M 143.5,146.5 C 142.91,147.766 142.41,149.099 142,150.5C 141.171,251.873 141.338,353.207 142.5,454.5C 141.069,454.119 140.236,453.119 140,451.5C 139.333,351.167 139.333,250.833 140,150.5C 140.057,148.09 141.224,146.756 143.5,146.5 Z"/></g>
<g><path style="opacity:1" fill="#808080" d="M 663.5,141.5 C 664.666,247.666 664.833,353.999 664,460.5C 663.502,464.491 662.335,468.158 660.5,471.5C 659.833,471.833 659.167,472.167 658.5,472.5C 660.703,467.387 662.203,462.053 663,456.5C 663.5,351.501 663.667,246.501 663.5,141.5 Z"/></g>
<g><path style="opacity:1" fill="#d1d1d1" d="M 734.5,133.5 C 733.363,137.417 732.53,141.417 732,145.5C 731.333,248.167 731.333,350.833 732,453.5C 732.551,460.097 734.051,466.431 736.5,472.5C 736.5,472.833 736.5,473.167 736.5,473.5C 733.561,468.434 731.228,462.934 729.5,457C 730.592,354.069 730.592,250.736 729.5,147C 729.606,141.824 731.273,137.324 734.5,133.5 Z"/></g>
<g><path style="opacity:1" fill="#eaeaea" d="M 980.5,142.5 C 981.376,142.369 982.043,142.702 982.5,143.5C 982.472,248.352 982.472,353.185 982.5,458C 981.956,458.717 981.289,459.217 980.5,459.5C 980.5,353.833 980.5,248.167 980.5,142.5 Z"/></g>
<g><path style="opacity:1" fill="#f7f7f7" d="M 459.5,147.5 C 458.34,249.139 458.173,350.805 459,452.5C 460.558,454.359 462.391,455.859 464.5,457C 508.08,457.374 551.58,457.541 595,457.5C 601.167,457.333 607.333,457.167 613.5,457C 616.341,456.16 618.675,454.66 620.5,452.5C 620.5,453.167 620.5,453.833 620.5,454.5C 619.5,456.167 618.167,457.5 616.5,458.5C 564.791,458.824 513.125,458.491 461.5,457.5C 459.665,456.878 458.498,455.544 458,453.5C 457.333,351.833 457.333,250.167 458,148.5C 458.383,147.944 458.883,147.611 459.5,147.5 Z"/></g>
<g><path style="opacity:1" fill="#f8f8f8" d="M 619.5,147.5 C 621.104,148.287 621.771,149.62 621.5,151.5C 621.833,252.001 621.499,352.335 620.5,452.5C 620.832,351 620.498,249.333 619.5,147.5 Z"/></g>
<g><path style="opacity:1" fill="#262626" d="M 621.5,151.5 C 622.666,251.999 622.833,352.666 622,453.5C 621.617,454.056 621.117,454.389 620.5,454.5C 620.5,453.833 620.5,453.167 620.5,452.5C 621.499,352.335 621.833,252.001 621.5,151.5 Z"/></g>
<g><path style="opacity:1" fill="#909090" d="M 776.5,146.5 C 776.371,148.216 776.038,149.883 775.5,151.5C 774.501,251.665 774.167,351.999 774.5,452.5C 773.334,351.334 773.167,250.001 774,148.5C 774.708,147.619 775.542,146.953 776.5,146.5 Z"/></g>
<g><path style="opacity:1" fill="#858585" d="M 421.5,127.5 C 419.575,132.103 417.742,136.77 416,141.5C 415.5,247.833 415.333,354.166 415.5,460.5C 414.215,453.539 413.549,446.373 413.5,439C 414.421,343.305 414.421,245.305 413.5,145C 414.829,139.172 416.829,133.672 419.5,128.5C 420.167,128.167 420.833,127.833 421.5,127.5 Z"/></g>
<g><path style="opacity:1" fill="#e3e3e3" d="M 98.5,140.5 C 98.5,247.5 98.5,354.5 98.5,461.5C 97.7021,458.829 97.0354,455.996 96.5,453C 97.2976,352.125 97.2976,251.792 96.5,152C 96.4307,147.905 97.0973,144.072 98.5,140.5 Z"/></g>
<g><path style="opacity:1" fill="#f7f7f7" d="M 142.5,454.5 C 145.673,455.906 149.34,456.906 153.5,457.5C 155.759,457.468 157.925,457.134 160,456.5C 197.598,457.164 235.098,457.83 272.5,458.5C 230.167,458.5 187.833,458.5 145.5,458.5C 143.738,457.738 142.738,456.404 142.5,454.5 Z"/></g>
<g><path style="opacity:1" fill="#979797" d="M 297.5,457.5 C 298.5,457.5 299.5,457.5 300.5,457.5C 300.082,458.222 299.416,458.722 298.5,459C 247.332,459.832 196.332,459.665 145.5,458.5C 187.833,458.5 230.167,458.5 272.5,458.5C 280.892,457.674 289.225,457.341 297.5,457.5 Z"/></g>
<g><path style="opacity:1" fill="#a9a9a9" d="M 461.5,457.5 C 513.125,458.491 564.791,458.824 616.5,458.5C 565.335,459.665 514.002,459.832 462.5,459C 461.944,458.617 461.611,458.117 461.5,457.5 Z"/></g>
<g><path style="opacity:1" fill="#969696" d="M 415.5,462.5 C 416.75,462.577 417.583,463.244 418,464.5C 419.409,468.894 420.909,473.228 422.5,477.5C 422.167,477.5 421.833,477.5 421.5,477.5C 418.124,473.078 416.124,468.078 415.5,462.5 Z"/></g>
<g><path style="opacity:1" fill="#676767" d="M 736.5,472.5 C 738.176,473.183 738.843,474.517 738.5,476.5C 736.176,476.123 735.509,475.123 736.5,473.5C 736.5,473.167 736.5,472.833 736.5,472.5 Z"/></g>
<g><path style="opacity:1" fill="#b7b7b7" d="M 980.5,460.5 C 979.862,466.423 977.862,471.756 974.5,476.5C 976.322,471.026 978.322,465.692 980.5,460.5 Z"/></g>
<g><path style="opacity:1" fill="#afafaf" d="M 98.5,461.5 C 102.693,472.206 108.693,481.873 116.5,490.5C 109.828,486.547 104.995,480.88 102,473.5C 100.523,469.57 99.3559,465.57 98.5,461.5 Z"/></g>
<g><path style="opacity:1" fill="#e9e9e9" d="M 421.5,477.5 C 421.833,477.5 422.167,477.5 422.5,477.5C 425.064,480.28 427.397,483.28 429.5,486.5C 425.689,484.564 423.022,481.564 421.5,477.5 Z"/></g>
<g><path style="opacity:1" fill="#d6d6d6" d="M 660.5,471.5 C 658.612,475.606 656.446,479.606 654,483.5C 653.184,484.823 652.017,485.489 650.5,485.5C 653.406,481.362 656.073,477.029 658.5,472.5C 659.167,472.167 659.833,471.833 660.5,471.5 Z"/></g>
<g><path style="opacity:1" fill="#a5a5a5" d="M 738.5,477.5 C 740.446,478.035 741.446,479.368 741.5,481.5C 740.527,481.013 739.527,480.513 738.5,480C 739.598,479.23 739.598,478.397 738.5,477.5 Z"/></g>
<g><path style="opacity:1" fill="#b3b3b3" d="M 974.5,476.5 C 971.523,483.808 966.523,489.141 959.5,492.5C 964.498,487.176 969.498,481.843 974.5,476.5 Z"/></g>
<g><path style="opacity:1" fill="#c7c7c7" d="M 339.5,477.5 C 337.622,483.376 333.955,487.709 328.5,490.5C 331.798,485.868 335.464,481.534 339.5,477.5 Z"/></g>
<g><path style="opacity:1" fill="#d6d6d6" d="M 429.5,486.5 C 430.833,487.167 431.833,488.167 432.5,489.5C 430.5,489.5 429.5,488.5 429.5,486.5 Z"/></g>
<g><path style="opacity:1" fill="#cbcbcb" d="M 741.5,481.5 C 744.185,485.183 747.518,488.183 751.5,490.5C 751.833,491.167 752.167,491.833 752.5,492.5C 747.167,490.5 743.5,486.833 741.5,481.5 Z"/></g>
<g><path style="opacity:1" fill="#a5a5a5" d="M 650.5,485.5 C 650.489,487.017 649.823,488.184 648.5,489C 646.595,490.421 644.595,491.588 642.5,492.5C 644.711,489.715 647.377,487.382 650.5,485.5 Z"/></g>
<g><path style="opacity:1" fill="#c7c7c7" d="M 432.5,489.5 C 433.872,490.512 435.205,491.512 436.5,492.5C 434.027,492.912 432.694,491.912 432.5,489.5 Z"/></g>
<g><path style="opacity:1" fill="#afafaf" d="M 116.5,490.5 C 118.027,490.427 119.027,491.094 119.5,492.5C 117.973,492.573 116.973,491.906 116.5,490.5 Z"/></g>
<g><path style="opacity:1" fill="#e5e5e5" d="M 328.5,490.5 C 328.027,491.906 327.027,492.573 325.5,492.5C 325.973,491.094 326.973,490.427 328.5,490.5 Z"/></g>
<g><path style="opacity:1" fill="#626262" d="M 751.5,490.5 C 753.461,491.46 755.127,492.793 756.5,494.5C 754.847,494.34 753.514,493.674 752.5,492.5C 752.167,491.833 751.833,491.167 751.5,490.5 Z"/></g>
<g><path style="opacity:1" fill="#b5b5b5" d="M 119.5,492.5 C 121.027,492.427 122.027,493.094 122.5,494.5C 120.973,494.573 119.973,493.906 119.5,492.5 Z"/></g>
<g><path style="opacity:1" fill="#c9c9c9" d="M 436.5,492.5 C 438.027,492.427 439.027,493.094 439.5,494.5C 437.973,494.573 436.973,493.906 436.5,492.5 Z"/></g>
<g><path style="opacity:1" fill="#e4e4e4" d="M 642.5,492.5 C 642.027,493.906 641.027,494.573 639.5,494.5C 639.973,493.094 640.973,492.427 642.5,492.5 Z"/></g>
<g><path style="opacity:1" fill="#dcdcdc" d="M 122.5,494.5 C 124.027,494.427 125.027,495.094 125.5,496.5C 123.973,496.573 122.973,495.906 122.5,494.5 Z"/></g>
<g><path style="opacity:1" fill="#f9faf9" d="M 322.5,495.5 C 323.833,496.167 323.833,496.167 322.5,495.5 Z"/></g>
<g><path style="opacity:1" fill="#d5d5d5" d="M 439.5,494.5 C 441.153,494.66 442.486,495.326 443.5,496.5C 441.62,496.771 440.287,496.104 439.5,494.5 Z"/></g>
<g><path style="opacity:1" fill="#dedede" d="M 639.5,494.5 C 638.713,496.104 637.38,496.771 635.5,496.5C 636.514,495.326 637.847,494.66 639.5,494.5 Z"/></g>
<g><path style="opacity:1" fill="#adadad" d="M 756.5,494.5 C 758.027,494.427 759.027,495.094 759.5,496.5C 757.973,496.573 756.973,495.906 756.5,494.5 Z"/></g>
<g><path style="opacity:1" fill="#e2e2e2" d="M 125.5,496.5 C 130.672,498.276 136.006,499.776 141.5,501C 144.097,501.779 144.097,502.279 141.5,502.5C 135.403,502.249 130.07,500.249 125.5,496.5 Z"/></g>
<g><path style="opacity:1" fill="#d7d7d7" d="M 759.5,496.5 C 766.835,498.893 774.168,500.893 781.5,502.5C 780.183,502.821 778.849,503.154 777.5,503.5C 772.931,502.015 768.264,500.848 763.5,500C 761.907,499.051 760.574,497.885 759.5,496.5 Z"/></g>
<g><path style="opacity:1" fill="#f4f4f4" d="M 445.5,497.5 C 449.397,498.91 453.397,499.91 457.5,500.5C 457.5,500.833 457.5,501.167 457.5,501.5C 455.143,501.663 452.81,501.497 450.5,501C 448.119,500.777 446.453,499.61 445.5,497.5 Z"/></g>
<g><path style="opacity:1" fill="#c5c5c5" d="M 320.5,495.5 C 317.637,498.1 314.303,499.933 310.5,501C 302.229,502.456 293.896,503.289 285.5,503.5C 238.859,502.981 192.192,502.648 145.5,502.5C 196.763,501.665 248.763,501.165 301.5,501C 308.063,499.867 314.396,498.033 320.5,495.5 Z"/></g>
<g><path style="opacity:1" fill="#6a6a6a" d="M 457.5,500.5 C 459.735,500.205 461.735,500.539 463.5,501.5C 463.5,502.167 463.833,502.5 464.5,502.5C 464.134,503.695 463.301,504.361 462,504.5C 460.334,503.652 458.834,502.652 457.5,501.5C 457.5,501.167 457.5,500.833 457.5,500.5 Z"/></g>
<g><path style="opacity:1" fill="#c4c4c4" d="M 635.5,496.5 C 634.426,497.885 633.093,499.051 631.5,500C 621.449,502.126 611.282,503.293 601,503.5C 555.643,502.791 510.143,502.458 464.5,502.5C 463.833,502.5 463.5,502.167 463.5,501.5C 515.168,501.667 566.834,501.5 618.5,501C 624.401,500.275 630.067,498.775 635.5,496.5 Z"/></g>
<g><path style="opacity:1" fill="#c5c5c5" d="M 959.5,492.5 C 956.246,495.471 952.58,497.971 948.5,500C 943.843,501.231 939.176,502.398 934.5,503.5C 883.842,502.724 833.176,502.391 782.5,502.5C 833.665,501.667 884.998,501.167 936.5,501C 944.687,499.439 952.353,496.606 959.5,492.5 Z"/></g>
<g><path style="opacity:1" fill="#e1e1e1" d="M 960.5,585.5 C 953.47,582.154 946.137,579.654 938.5,578C 672.833,577.333 407.167,577.333 141.5,578C 136.749,578.878 132.082,580.045 127.5,581.5C 128.987,580.196 130.654,579.03 132.5,578C 137.123,577.042 141.79,576.375 146.5,576C 408.833,575.333 671.167,575.333 933.5,576C 942.533,575.868 950.7,578.368 958,583.5C 959.308,582.849 960.141,583.515 960.5,585.5 Z"/></g>
<g><path style="opacity:1" fill="#030303" d="M 960.5,585.5 C 963.84,589.803 967.84,593.469 972.5,596.5C 972.5,597.167 972.5,597.833 972.5,598.5C 973.11,600.434 974.11,602.101 975.5,603.5C 976.167,603.833 976.833,604.167 977.5,604.5C 977.402,606.553 978.069,608.22 979.5,609.5C 980.224,612.843 981.057,616.176 982,619.5C 982.667,725.167 982.667,830.833 982,936.5C 980.85,939.768 980.016,943.101 979.5,946.5C 974.226,957.737 966.226,966.404 955.5,972.5C 952.966,972.259 951.3,973.259 950.5,975.5C 946.884,975.899 943.55,976.899 940.5,978.5C 807.551,979.164 674.217,979.497 540.5,979.5C 408.167,979.333 275.833,979.167 143.5,979C 140.746,978.728 138.079,978.228 135.5,977.5C 133.786,976.262 131.786,975.595 129.5,975.5C 127.853,973.674 125.853,972.34 123.5,971.5C 122.833,971.5 122.167,971.5 121.5,971.5C 115.13,966.131 109.463,960.131 104.5,953.5C 104.5,952.833 104.167,952.5 103.5,952.5C 102.541,948.617 101.208,944.95 99.5,941.5C 99.7678,939.901 99.4345,938.568 98.5,937.5C 98.5,830.833 98.5,724.167 98.5,617.5C 99.6118,615.401 100.279,613.067 100.5,610.5C 101.931,609.22 102.598,607.553 102.5,605.5C 103.906,605.027 104.573,604.027 104.5,602.5C 108.735,596.922 113.402,591.589 118.5,586.5C 118.842,585.662 119.508,585.328 120.5,585.5C 122.848,585.408 124.514,584.408 125.5,582.5C 125.842,581.662 126.508,581.328 127.5,581.5C 132.082,580.045 136.749,578.878 141.5,578C 407.167,577.333 672.833,577.333 938.5,578C 946.137,579.654 953.47,582.154 960.5,585.5 Z M 152.5,620.5 C 153.94,622.765 155.607,622.932 157.5,621C 245.667,620.833 333.833,620.667 422,620.5C 513.643,620.846 605.143,620.846 696.5,620.5C 701.772,620.413 706.939,621.079 712,622.5C 714.794,622.933 717.627,622.433 720.5,621C 787.167,620.333 853.833,620.333 920.5,621C 921.766,621.309 922.933,621.809 924,622.5C 925.584,621.139 927.418,620.472 929.5,620.5C 933.046,620.8 935.879,622.466 938,625.5C 939.023,629.932 939.523,634.432 939.5,639C 938.942,732.674 938.942,828.508 939.5,926.5C 938.778,926.082 938.278,925.416 938,924.5C 937.667,926.833 937.333,929.167 937,931.5C 936.311,932.357 935.478,933.023 934.5,933.5C 885.661,934.297 837.161,934.297 789,933.5C 787.052,934.109 785.218,934.776 783.5,935.5C 780.428,935.817 777.428,935.484 774.5,934.5C 765.702,923.597 757.868,911.93 751,899.5C 749.306,898.301 747.806,896.968 746.5,895.5C 746.573,893.973 745.906,892.973 744.5,892.5C 744.573,890.973 743.906,889.973 742.5,889.5C 739.967,884.105 737.133,878.771 734,873.5C 726.252,862.911 719.085,851.911 712.5,840.5C 711.643,839.575 710.643,838.908 709.5,838.5C 709.573,836.973 708.906,835.973 707.5,835.5C 706.319,832.975 704.986,830.475 703.5,828C 703.833,827.667 704.167,827.333 704.5,827C 701.607,824.609 699.273,821.775 697.5,818.5C 694.275,812.277 690.275,806.61 685.5,801.5C 685.573,799.973 684.906,798.973 683.5,798.5C 680.657,790.802 676.324,784.135 670.5,778.5C 670.573,776.973 669.906,775.973 668.5,775.5C 667,771.827 665,768.494 662.5,765.5C 659.795,759.396 656.128,754.063 651.5,749.5C 651.25,747.326 650.25,745.659 648.5,744.5C 648.573,742.973 647.906,741.973 646.5,741.5C 646.573,739.973 645.906,738.973 644.5,738.5C 643.563,735.731 642.396,733.064 641,730.5C 635.23,722.608 629.73,714.608 624.5,706.5C 621.425,698.428 616.758,691.428 610.5,685.5C 610.573,683.973 609.906,682.973 608.5,682.5C 607.109,680.079 606.275,677.412 606,674.5C 604.806,673.57 603.473,672.903 602,672.5C 599.579,674.56 597.413,676.894 595.5,679.5C 594.212,681.739 593.212,684.072 592.5,686.5C 590.178,687.802 588.845,689.802 588.5,692.5C 586.75,693.659 585.75,695.326 585.5,697.5C 579.02,703.785 574.02,711.118 570.5,719.5C 569.094,719.973 568.427,720.973 568.5,722.5C 566.952,722.821 566.285,723.821 566.5,725.5C 565.094,725.973 564.427,726.973 564.5,728.5C 562.75,729.659 561.75,731.326 561.5,733.5C 560.504,733.414 559.671,733.748 559,734.5C 555.58,739.737 552.413,745.071 549.5,750.5C 547,753.494 545,756.827 543.5,760.5C 537.935,765.954 533.602,772.287 530.5,779.5C 529.094,779.973 528.427,780.973 528.5,782.5C 522.514,789.132 517.514,796.465 513.5,804.5C 512.094,804.973 511.427,805.973 511.5,807.5C 509.412,809.336 508.079,811.669 507.5,814.5C 505.952,814.821 505.285,815.821 505.5,817.5C 499.934,822.957 495.601,829.29 492.5,836.5C 490.178,837.802 488.845,839.802 488.5,842.5C 486.093,843.794 483.926,845.461 482,847.5C 475.523,842.012 468.357,837.679 460.5,834.5C 459.402,833.603 459.402,832.77 460.5,832C 459.24,830.887 458.073,830.72 457,831.5C 448.876,825.52 440.376,820.187 431.5,815.5C 422.974,809.258 414.474,802.925 406,796.5C 401.631,797.886 399.131,800.886 398.5,805.5C 396.336,807.822 394.669,810.489 393.5,813.5C 391.738,814.262 390.738,815.596 390.5,817.5C 386.53,820.639 383.03,824.305 380,828.5C 368.539,842.781 357.706,857.448 347.5,872.5C 340.977,878.524 335.643,885.524 331.5,893.5C 330.279,894.028 329.113,894.695 328,895.5C 323.858,900.463 320.358,905.796 317.5,911.5C 315.413,912.585 314.08,914.251 313.5,916.5C 312.883,916.389 312.383,916.056 312,915.5C 308.345,920.799 304.678,926.133 301,931.5C 299.155,932.05 297.655,933.05 296.5,934.5C 285.186,935.499 273.853,935.832 262.5,935.5C 227.294,934.827 191.961,934.16 156.5,933.5C 155.702,933.957 155.369,934.624 155.5,935.5C 153.801,935.66 152.134,935.494 150.5,935C 151.833,933.16 151.666,932.66 150,933.5C 149.311,932.643 148.478,931.977 147.5,931.5C 144.843,933.114 143.01,932.448 142,929.5C 141.333,828.5 141.333,727.5 142,626.5C 142.724,624.041 144.057,623.041 146,623.5C 147.739,621.682 149.906,620.682 152.5,620.5 Z M 620.5,781.5 C 619.509,783.123 620.176,784.123 622.5,784.5C 624.418,789.343 627.084,793.677 630.5,797.5C 632.374,802.051 634.707,806.385 637.5,810.5C 638.357,811.425 639.357,812.092 640.5,812.5C 640.427,814.027 641.094,815.027 642.5,815.5C 642.427,817.027 643.094,818.027 644.5,818.5C 646.11,822.1 648.11,825.434 650.5,828.5C 651.851,832.542 654.185,835.875 657.5,838.5C 657.932,839.71 658.599,840.71 659.5,841.5C 659.932,842.71 660.599,843.71 661.5,844.5C 662.68,847.54 664.347,850.206 666.5,852.5C 669.356,859.339 673.356,865.339 678.5,870.5C 678.328,871.492 678.662,872.158 679.5,872.5C 680.026,874.23 681.026,875.564 682.5,876.5C 682.5,876.833 682.5,877.167 682.5,877.5C 685.778,883.132 689.112,888.799 692.5,894.5C 692.957,895.298 693.624,895.631 694.5,895.5C 694.427,897.027 695.094,898.027 696.5,898.5C 698.098,902.711 700.432,906.378 703.5,909.5C 704.079,912.331 705.412,914.664 707.5,916.5C 709.71,921.442 713.043,926.109 717.5,930.5C 716.972,931.721 716.305,932.887 715.5,934C 715.833,934.333 716.167,934.667 716.5,935C 710.5,935.167 704.5,935.333 698.5,935.5C 583.946,934.167 469.613,934.167 355.5,935.5C 357.042,934.837 358.709,934.17 360.5,933.5C 359.167,932.38 358.667,931.047 359,929.5C 366.153,921.843 372.32,913.51 377.5,904.5C 378.167,904.5 378.5,904.167 378.5,903.5C 380.262,902.738 381.262,901.404 381.5,899.5C 383.463,898.04 385.296,896.373 387,894.5C 390.997,888.344 395.164,882.344 399.5,876.5C 400.906,876.027 401.573,875.027 401.5,873.5C 402.496,873.586 403.329,873.252 404,872.5C 407.193,867.439 410.86,862.772 415,858.5C 416.8,859.32 418.634,859.986 420.5,860.5C 420.842,861.338 421.508,861.672 422.5,861.5C 423.028,862.721 423.695,863.887 424.5,865C 428.22,866.86 431.886,868.693 435.5,870.5C 438.65,873.579 442.317,875.913 446.5,877.5C 446.973,878.906 447.973,879.573 449.5,879.5C 449.973,880.906 450.973,881.573 452.5,881.5C 452.842,882.338 453.508,882.672 454.5,882.5C 456.902,885.215 459.568,887.715 462.5,890C 463.745,890.791 465.078,891.291 466.5,891.5C 468.144,892.316 469.31,893.65 470,895.5C 470.333,895.167 470.667,894.833 471,894.5C 472.129,896.141 473.629,897.141 475.5,897.5C 475.973,898.906 476.973,899.573 478.5,899.5C 479.3,901.741 480.966,902.741 483.5,902.5C 487.275,906.375 491.608,909.208 496.5,911C 502.149,903.194 507.149,895.028 511.5,886.5C 513.326,884.853 514.66,882.853 515.5,880.5C 523.156,871.196 529.823,861.196 535.5,850.5C 536.643,850.092 537.643,849.425 538.5,848.5C 543.621,840.725 548.287,832.725 552.5,824.5C 554.326,822.853 555.66,820.853 556.5,818.5C 558.129,817.375 559.629,816.041 561,814.5C 565.189,807.445 569.356,800.445 573.5,793.5C 574.906,793.027 575.573,792.027 575.5,790.5C 577.55,788.763 579.383,786.763 581,784.5C 584.089,779.594 586.923,774.594 589.5,769.5C 591.192,767.795 592.525,765.795 593.5,763.5C 596.923,761.351 599.423,758.351 601,754.5C 607.032,763.921 613.532,772.921 620.5,781.5 Z"/></g>
<g><path style="opacity:1" fill="#f9faf9" d="M 121.5,583.5 C 120.833,582.167 120.833,582.167 121.5,583.5 Z"/></g>
<g><path style="opacity:1" fill="#8d8d8d" d="M 125.5,582.5 C 124.514,584.408 122.848,585.408 120.5,585.5C 120.833,584.833 121.167,584.167 121.5,583.5C 122.833,583.167 124.167,582.833 125.5,582.5 Z"/></g>
<g><path style="opacity:1" fill="#c6c6c6" d="M 118.5,586.5 C 113.402,591.589 108.735,596.922 104.5,602.5C 106.704,594.965 111.371,589.632 118.5,586.5 Z"/></g>
<g><path style="opacity:1" fill="#cdcdcd" d="M 960.5,585.5 C 965.777,587.777 969.777,591.444 972.5,596.5C 967.84,593.469 963.84,589.803 960.5,585.5 Z"/></g>
<g><path style="opacity:1" fill="#dfdfdf" d="M 972.5,596.5 C 973.906,596.973 974.573,597.973 974.5,599.5C 973.833,599.167 973.167,598.833 972.5,598.5C 972.5,597.833 972.5,597.167 972.5,596.5 Z"/></g>
<g><path style="opacity:1" fill="#565656" d="M 972.5,598.5 C 973.167,598.833 973.833,599.167 974.5,599.5C 975.338,599.842 975.672,600.508 975.5,601.5C 975.5,602.167 975.5,602.833 975.5,603.5C 974.11,602.101 973.11,600.434 972.5,598.5 Z"/></g>
<g><path style="opacity:1" fill="#dadada" d="M 975.5,601.5 C 976.906,601.973 977.573,602.973 977.5,604.5C 976.833,604.167 976.167,603.833 975.5,603.5C 975.5,602.833 975.5,602.167 975.5,601.5 Z"/></g>
<g><path style="opacity:1" fill="#d0d0d0" d="M 104.5,602.5 C 104.573,604.027 103.906,605.027 102.5,605.5C 102.427,603.973 103.094,602.973 104.5,602.5 Z"/></g>
<g><path style="opacity:1" fill="#e4e4e4" d="M 977.5,604.5 C 978.931,605.78 979.598,607.447 979.5,609.5C 978.069,608.22 977.402,606.553 977.5,604.5 Z"/></g>
<g><path style="opacity:1" fill="#ebebeb" d="M 102.5,605.5 C 102.598,607.553 101.931,609.22 100.5,610.5C 100.402,608.447 101.069,606.78 102.5,605.5 Z"/></g>
<g><path style="opacity:1" fill="#f2f2f2" d="M 100.5,610.5 C 100.279,613.067 99.6118,615.401 98.5,617.5C 98.1706,614.772 98.8372,612.438 100.5,610.5 Z"/></g>
<g><path style="opacity:1" fill="#505050" d="M 153.5,619.5 C 414.001,619.167 674.334,619.5 934.5,620.5C 932.833,620.5 931.167,620.5 929.5,620.5C 927.418,620.472 925.584,621.139 924,622.5C 922.933,621.809 921.766,621.309 920.5,621C 853.833,620.333 787.167,620.333 720.5,621C 717.627,622.433 714.794,622.933 712,622.5C 706.939,621.079 701.772,620.413 696.5,620.5C 605.143,620.846 513.643,620.846 422,620.5C 333.833,620.667 245.667,620.833 157.5,621C 155.607,622.932 153.94,622.765 152.5,620.5C 153.167,620.5 153.5,620.167 153.5,619.5 Z"/></g>
<g><path style="opacity:1" fill="#a2a2a2" d="M 153.5,619.5 C 153.5,620.167 153.167,620.5 152.5,620.5C 149.906,620.682 147.739,621.682 146,623.5C 144.057,623.041 142.724,624.041 142,626.5C 141.333,727.5 141.333,828.5 142,929.5C 143.01,932.448 144.843,933.114 147.5,931.5C 148.478,931.977 149.311,932.643 150,933.5C 151.666,932.66 151.833,933.16 150.5,935C 152.134,935.494 153.801,935.66 155.5,935.5C 191.167,935.5 226.833,935.5 262.5,935.5C 273.853,935.832 285.186,935.499 296.5,934.5C 297.655,933.05 299.155,932.05 301,931.5C 304.678,926.133 308.345,920.799 312,915.5C 312.383,916.056 312.883,916.389 313.5,916.5C 309.262,923.738 304.262,930.404 298.5,936.5C 247.144,936.815 195.81,936.482 144.5,935.5C 143.685,934.163 142.518,933.163 141,932.5C 140.667,931.167 140.333,929.833 140,928.5C 139.333,827.5 139.333,726.5 140,625.5C 141.806,623.694 143.64,621.86 145.5,620C 148.146,619.503 150.813,619.336 153.5,619.5 Z"/></g>
<g><path style="opacity:1" fill="#464646" d="M 348.5,662.5 C 350.599,663.612 352.933,664.279 355.5,664.5C 355.833,665.167 356.167,665.833 356.5,666.5C 348.35,663.547 340.017,662.88 331.5,664.5C 332.263,663.732 333.263,663.232 334.5,663C 339.155,662.501 343.821,662.334 348.5,662.5 Z"/></g>
<g><path style="opacity:1" fill="#ebebeb" d="M 348.5,662.5 C 351.228,662.171 353.562,662.837 355.5,664.5C 352.933,664.279 350.599,663.612 348.5,662.5 Z"/></g>
<g><path style="opacity:1" fill="#c2c2c2" d="M 348.5,662.5 C 343.821,662.334 339.155,662.501 334.5,663C 333.263,663.232 332.263,663.732 331.5,664.5C 323.269,666.709 316.269,671.042 310.5,677.5C 319.901,664.255 332.568,659.255 348.5,662.5 Z"/></g>
<g><path style="opacity:1" fill="#020202" d="M 356.5,666.5 C 362.626,669.55 367.959,673.55 372.5,678.5C 373.673,682.533 375.173,686.533 377,690.5C 377.636,697.856 377.469,705.189 376.5,712.5C 373.134,716.926 370.134,721.593 367.5,726.5C 363.119,729.69 358.452,732.356 353.5,734.5C 341.098,737.71 329.432,736.043 318.5,729.5C 317.415,727.413 315.749,726.08 313.5,725.5C 313.262,723.596 312.262,722.262 310.5,721.5C 308.269,717.038 306.602,712.371 305.5,707.5C 304.167,702.167 304.167,696.833 305.5,691.5C 306.058,686.394 307.725,681.727 310.5,677.5C 316.269,671.042 323.269,666.709 331.5,664.5C 340.017,662.88 348.35,663.547 356.5,666.5 Z"/></g>
<g><path style="opacity:1" fill="#d1d1d1" d="M 98.5,617.5 C 98.5,724.167 98.5,830.833 98.5,937.5C 97.5269,935.052 97.1936,932.385 97.5,929.5C 97.5,918.833 97.5,908.167 97.5,897.5C 96.6879,805.798 96.3546,713.965 96.5,622C 97.0989,620.378 97.7656,618.878 98.5,617.5 Z"/></g>
<g><path style="opacity:1" fill="#d4d4d4" d="M 355.5,664.5 C 363.04,667.052 368.706,671.719 372.5,678.5C 367.959,673.55 362.626,669.55 356.5,666.5C 356.167,665.833 355.833,665.167 355.5,664.5 Z"/></g>
<g><path style="opacity:1" fill="#dfdfdf" d="M 608.5,682.5 C 606.104,680.055 603.938,677.388 602,674.5C 599.063,678.72 595.897,682.72 592.5,686.5C 593.212,684.072 594.212,681.739 595.5,679.5C 597.413,676.894 599.579,674.56 602,672.5C 603.473,672.903 604.806,673.57 606,674.5C 606.275,677.412 607.109,680.079 608.5,682.5 Z"/></g>
<g><path style="opacity:1" fill="#dedede" d="M 310.5,677.5 C 307.725,681.727 306.058,686.394 305.5,691.5C 304.833,691.833 304.167,692.167 303.5,692.5C 304.128,687.572 305.628,682.905 308,678.5C 308.671,677.748 309.504,677.414 310.5,677.5 Z"/></g>
<g><path style="opacity:1" fill="#d8d8d8" d="M 608.5,682.5 C 609.906,682.973 610.573,683.973 610.5,685.5C 609.094,685.027 608.427,684.027 608.5,682.5 Z"/></g>
<g><path style="opacity:1" fill="#eaeaea" d="M 592.5,686.5 C 592.5,687.167 592.5,687.833 592.5,688.5C 591.167,689.833 589.833,691.167 588.5,692.5C 588.845,689.802 590.178,687.802 592.5,686.5 Z"/></g>
<g><path style="opacity:1" fill="#e9e9e9" d="M 610.5,685.5 C 616.758,691.428 621.425,698.428 624.5,706.5C 622.901,704.396 621.068,702.396 619,700.5C 615.911,695.594 613.077,690.594 610.5,685.5 Z"/></g>
<g><path style="opacity:1" fill="#5d5d5d" d="M 592.5,688.5 C 592.155,691.198 590.822,693.198 588.5,694.5C 588.5,693.833 588.5,693.167 588.5,692.5C 589.833,691.167 591.167,689.833 592.5,688.5 Z"/></g>
<g><path style="opacity:1" fill="#d2d2d2" d="M 588.5,692.5 C 588.5,693.167 588.5,693.833 588.5,694.5C 587.833,695.833 586.833,696.833 585.5,697.5C 585.75,695.326 586.75,693.659 588.5,692.5 Z"/></g>
<g><path style="opacity:1" fill="#828282" d="M 305.5,691.5 C 304.167,696.833 304.167,702.167 305.5,707.5C 304.833,707.167 304.167,706.833 303.5,706.5C 302.253,701.867 302.253,697.2 303.5,692.5C 304.167,692.167 304.833,691.833 305.5,691.5 Z"/></g>
<g><path style="opacity:1" fill="#bcbcbc" d="M 372.5,678.5 C 374.474,680.428 375.974,682.761 377,685.5C 377.654,684.304 378.154,684.304 378.5,685.5C 378.167,686.167 377.833,686.833 377.5,687.5C 380.317,696.077 379.984,704.41 376.5,712.5C 377.469,705.189 377.636,697.856 377,690.5C 375.173,686.533 373.673,682.533 372.5,678.5 Z"/></g>
<g><path style="opacity:1" fill="#bfbfbf" d="M 585.5,697.5 C 581.689,703.778 577.856,710.111 574,716.5C 572.961,717.71 571.794,718.71 570.5,719.5C 574.02,711.118 579.02,703.785 585.5,697.5 Z"/></g>
<g><path style="opacity:1" fill="#b0b0b0" d="M 376.5,712.5 C 375.404,717.358 373.238,721.691 370,725.5C 369.329,726.252 368.496,726.586 367.5,726.5C 370.134,721.593 373.134,716.926 376.5,712.5 Z"/></g>
<g><path style="opacity:1" fill="#c9c9c9" d="M 303.5,706.5 C 304.167,706.833 304.833,707.167 305.5,707.5C 306.602,712.371 308.269,717.038 310.5,721.5C 308.729,720.134 307.062,718.634 305.5,717C 305.833,716.667 306.167,716.333 306.5,716C 304.596,713.123 303.596,709.956 303.5,706.5 Z"/></g>
<g><path style="opacity:1" fill="#d6d6d6" d="M 624.5,706.5 C 629.73,714.608 635.23,722.608 641,730.5C 642.396,733.064 643.563,735.731 644.5,738.5C 638.472,731.598 633.305,723.931 629,715.5C 628,713.833 626.667,712.5 625,711.5C 624.506,709.866 624.34,708.199 624.5,706.5 Z"/></g>
<g><path style="opacity:1" fill="#f4f4f4" d="M 568.5,722.5 C 567.89,723.391 567.557,724.391 567.5,725.5C 567.167,725.5 566.833,725.5 566.5,725.5C 566.285,723.821 566.952,722.821 568.5,722.5 Z"/></g>
<g><path style="opacity:1" fill="#cfcfcf" d="M 310.5,721.5 C 312.262,722.262 313.262,723.596 313.5,725.5C 312.352,726.895 311.352,726.728 310.5,725C 311.171,724.014 311.171,722.847 310.5,721.5 Z"/></g>
<g><path style="opacity:1" fill="#696969" d="M 570.5,719.5 C 570.975,722.313 569.975,724.313 567.5,725.5C 567.557,724.391 567.89,723.391 568.5,722.5C 568.427,720.973 569.094,719.973 570.5,719.5 Z"/></g>
<g><path style="opacity:1" fill="#d2d2d2" d="M 566.5,725.5 C 566.573,727.027 565.906,728.027 564.5,728.5C 564.427,726.973 565.094,725.973 566.5,725.5 Z"/></g>
<g><path style="opacity:1" fill="#d1d1d1" d="M 313.5,725.5 C 315.749,726.08 317.415,727.413 318.5,729.5C 316.019,729.226 314.353,727.893 313.5,725.5 Z"/></g>
<g><path style="opacity:1" fill="#d5d5d5" d="M 564.5,728.5 C 564.25,730.674 563.25,732.341 561.5,733.5C 561.75,731.326 562.75,729.659 564.5,728.5 Z"/></g>
<g><path style="opacity:1" fill="#b8b8b8" d="M 318.5,729.5 C 329.432,736.043 341.098,737.71 353.5,734.5C 353.5,734.833 353.5,735.167 353.5,735.5C 350.204,736.911 346.704,737.911 343,738.5C 335.433,738.382 328.266,736.549 321.5,733C 320.29,731.961 319.29,730.794 318.5,729.5 Z"/></g>
<g><path style="opacity:1" fill="#e1e1e1" d="M 367.5,726.5 C 367.489,728.017 366.823,729.184 365.5,730C 361.972,732.897 357.972,734.73 353.5,735.5C 353.5,735.167 353.5,734.833 353.5,734.5C 358.452,732.356 363.119,729.69 367.5,726.5 Z"/></g>
<g><path style="opacity:1" fill="#dadada" d="M 644.5,738.5 C 645.906,738.973 646.573,739.973 646.5,741.5C 645.094,741.027 644.427,740.027 644.5,738.5 Z"/></g>
<g><path style="opacity:1" fill="#d1d1d1" d="M 561.5,733.5 C 558.27,739.727 554.27,745.393 549.5,750.5C 552.413,745.071 555.58,739.737 559,734.5C 559.671,733.748 560.504,733.414 561.5,733.5 Z"/></g>
<g><path style="opacity:1" fill="#eaeaea" d="M 646.5,741.5 C 647.906,741.973 648.573,742.973 648.5,744.5C 647.094,744.027 646.427,743.027 646.5,741.5 Z"/></g>
<g><path style="opacity:1" fill="#eaeaea" d="M 648.5,744.5 C 650.25,745.659 651.25,747.326 651.5,749.5C 649.75,748.341 648.75,746.674 648.5,744.5 Z"/></g>
<g><path style="opacity:1" fill="#e7e7e7" d="M 651.5,749.5 C 656.128,754.063 659.795,759.396 662.5,765.5C 661.5,764.833 660.5,764.167 659.5,763.5C 656.433,759.091 653.767,754.424 651.5,749.5 Z"/></g>
<g><path style="opacity:1" fill="#919191" d="M 549.5,750.5 C 549.023,754.794 547.023,758.127 543.5,760.5C 545,756.827 547,753.494 549.5,750.5 Z"/></g>
<g><path style="opacity:1" fill="#f4f4f4" d="M 979.5,609.5 C 982.675,613.836 984.175,618.836 984,624.5C 984.667,726.167 984.667,827.833 984,929.5C 984.325,935.78 982.825,941.447 979.5,946.5C 980.016,943.101 980.85,939.768 982,936.5C 982.667,830.833 982.667,725.167 982,619.5C 981.057,616.176 980.224,612.843 979.5,609.5 Z"/></g>
<g><path style="opacity:1" fill="#787878" d="M 929.5,620.5 C 931.167,620.5 932.833,620.5 934.5,620.5C 936.735,621.228 938.568,622.561 940,624.5C 940.667,726.833 940.667,829.167 940,931.5C 939.617,932.056 939.117,932.389 938.5,932.5C 939.15,930.565 939.483,928.565 939.5,926.5C 938.942,828.508 938.942,732.674 939.5,639C 939.523,634.432 939.023,629.932 938,625.5C 935.879,622.466 933.046,620.8 929.5,620.5 Z"/></g>
<g><path style="opacity:1" fill="#c3c3c3" d="M 543.5,760.5 C 540.331,767.662 535.998,773.995 530.5,779.5C 533.602,772.287 537.935,765.954 543.5,760.5 Z"/></g>
<g><path style="opacity:1" fill="#c5c5c5" d="M 589.5,769.5 C 586.923,774.594 584.089,779.594 581,784.5C 579.383,786.763 577.55,788.763 575.5,790.5C 578.929,782.631 583.596,775.631 589.5,769.5 Z"/></g>
<g><path style="opacity:1" fill="#8e8e8e" d="M 659.5,763.5 C 660.5,764.167 661.5,764.833 662.5,765.5C 665,768.494 667,771.827 668.5,775.5C 664.541,772.263 661.541,768.263 659.5,763.5 Z"/></g>
<g><path style="opacity:1" fill="#d1d1d1" d="M 620.5,781.5 C 613.532,772.921 607.032,763.921 601,754.5C 599.423,758.351 596.923,761.351 593.5,763.5C 595.227,759.052 597.727,755.052 601,751.5C 608.537,760.861 615.037,770.861 620.5,781.5 Z"/></g>
<g><path style="opacity:1" fill="#e7e7e7" d="M 668.5,775.5 C 669.906,775.973 670.573,776.973 670.5,778.5C 669.094,778.027 668.427,777.027 668.5,775.5 Z"/></g>
<g><path style="opacity:1" fill="#c5c5c5" d="M 530.5,779.5 C 530.573,781.027 529.906,782.027 528.5,782.5C 528.427,780.973 529.094,779.973 530.5,779.5 Z"/></g>
<g><path style="opacity:1" fill="#bdbdbd" d="M 620.5,781.5 C 621.906,781.973 622.573,782.973 622.5,784.5C 620.176,784.123 619.509,783.123 620.5,781.5 Z"/></g>
<g><path style="opacity:1" fill="#d9d9d9" d="M 670.5,778.5 C 676.324,784.135 680.657,790.802 683.5,798.5C 678.174,792.524 673.841,785.857 670.5,778.5 Z"/></g>
<g><path style="opacity:1" fill="#dfdfdf" d="M 528.5,782.5 C 524.486,790.535 519.486,797.868 513.5,804.5C 517.514,796.465 522.514,789.132 528.5,782.5 Z"/></g>
<g><path style="opacity:1" fill="#ebebeb" d="M 575.5,790.5 C 575.573,792.027 574.906,793.027 573.5,793.5C 573.427,791.973 574.094,790.973 575.5,790.5 Z"/></g>
<g><path style="opacity:1" fill="#989898" d="M 622.5,784.5 C 626.621,787.971 629.621,792.305 631.5,797.5C 631.167,797.5 630.833,797.5 630.5,797.5C 627.084,793.677 624.418,789.343 622.5,784.5 Z"/></g>
<g><path style="opacity:1" fill="#d7d7d7" d="M 683.5,798.5 C 684.906,798.973 685.573,799.973 685.5,801.5C 684.094,801.027 683.427,800.027 683.5,798.5 Z"/></g>
<g><path style="opacity:1" fill="#dadada" d="M 630.5,797.5 C 630.833,797.5 631.167,797.5 631.5,797.5C 634.925,802.255 637.925,807.255 640.5,812.5C 639.357,812.092 638.357,811.425 637.5,810.5C 634.707,806.385 632.374,802.051 630.5,797.5 Z"/></g>
<g><path style="opacity:1" fill="#dddddd" d="M 513.5,804.5 C 513.5,805.167 513.5,805.833 513.5,806.5C 512.833,806.833 512.167,807.167 511.5,807.5C 511.427,805.973 512.094,804.973 513.5,804.5 Z"/></g>
<g><path style="opacity:1" fill="#dedede" d="M 431.5,815.5 C 422.39,810.442 413.39,805.108 404.5,799.5C 402.118,801.215 400.118,803.215 398.5,805.5C 399.131,800.886 401.631,797.886 406,796.5C 414.474,802.925 422.974,809.258 431.5,815.5 Z"/></g>
<g><path style="opacity:1" fill="#e7e7e7" d="M 685.5,801.5 C 690.275,806.61 694.275,812.277 697.5,818.5C 696.833,818.5 696.167,818.5 695.5,818.5C 691.903,812.97 688.57,807.304 685.5,801.5 Z"/></g>
<g><path style="opacity:1" fill="#959595" d="M 398.5,805.5 C 398.464,809.2 396.797,811.867 393.5,813.5C 394.669,810.489 396.336,807.822 398.5,805.5 Z"/></g>
<g><path style="opacity:1" fill="#e6e6e6" d="M 640.5,812.5 C 641.906,812.973 642.573,813.973 642.5,815.5C 641.094,815.027 640.427,814.027 640.5,812.5 Z"/></g>
<g><path style="opacity:1" fill="#767676" d="M 513.5,806.5 C 511.848,808.471 510.681,810.804 510,813.5C 509.329,814.252 508.496,814.586 507.5,814.5C 508.079,811.669 509.412,809.336 511.5,807.5C 512.167,807.167 512.833,806.833 513.5,806.5 Z"/></g>
<g><path style="opacity:1" fill="#ebebeb" d="M 507.5,814.5 C 507.068,815.71 506.401,816.71 505.5,817.5C 505.285,815.821 505.952,814.821 507.5,814.5 Z"/></g>
<g><path style="opacity:1" fill="#cecece" d="M 393.5,813.5 C 393.262,815.404 392.262,816.738 390.5,817.5C 390.738,815.596 391.738,814.262 393.5,813.5 Z"/></g>
<g><path style="opacity:1" fill="#c4c4c4" d="M 573.5,793.5 C 569.356,800.445 565.189,807.445 561,814.5C 559.629,816.041 558.129,817.375 556.5,818.5C 560.311,812.222 564.144,805.889 568,799.5C 569.617,797.237 571.45,795.237 573.5,793.5 Z"/></g>
<g><path style="opacity:1" fill="#d9d9d9" d="M 642.5,815.5 C 643.906,815.973 644.573,816.973 644.5,818.5C 643.094,818.027 642.427,817.027 642.5,815.5 Z"/></g>
<g><path style="opacity:1" fill="#d0d0d0" d="M 431.5,815.5 C 440.376,820.187 448.876,825.52 457,831.5C 458.073,830.72 459.24,830.887 460.5,832C 459.402,832.77 459.402,833.603 460.5,834.5C 450.017,829.339 440.35,823.005 431.5,815.5 Z"/></g>
<g><path style="opacity:1" fill="#b4b4b4" d="M 695.5,818.5 C 696.167,818.5 696.833,818.5 697.5,818.5C 699.273,821.775 701.607,824.609 704.5,827C 704.167,827.333 703.833,827.667 703.5,828C 704.986,830.475 706.319,832.975 707.5,835.5C 705.549,834.718 704.049,833.384 703,831.5C 700.519,827.212 698.019,822.879 695.5,818.5 Z"/></g>
<g><path style="opacity:1" fill="#cbcbcb" d="M 505.5,817.5 C 502.331,824.662 497.998,830.995 492.5,836.5C 495.601,829.29 499.934,822.957 505.5,817.5 Z"/></g>
<g><path style="opacity:1" fill="#8b8b8b" d="M 644.5,818.5 C 645.496,818.414 646.329,818.748 647,819.5C 648.527,822.553 650.027,825.553 651.5,828.5C 651.167,828.5 650.833,828.5 650.5,828.5C 648.11,825.434 646.11,822.1 644.5,818.5 Z"/></g>
<g><path style="opacity:1" fill="#dbdbdb" d="M 650.5,828.5 C 650.833,828.5 651.167,828.5 651.5,828.5C 654,831.494 656,834.827 657.5,838.5C 654.185,835.875 651.851,832.542 650.5,828.5 Z"/></g>
<g><path style="opacity:1" fill="#e7e7e7" d="M 707.5,835.5 C 708.906,835.973 709.573,836.973 709.5,838.5C 708.094,838.027 707.427,837.027 707.5,835.5 Z"/></g>
<g><path style="opacity:1" fill="#909090" d="M 657.5,838.5 C 659.048,838.821 659.715,839.821 659.5,841.5C 658.599,840.71 657.932,839.71 657.5,838.5 Z"/></g>
<g><path style="opacity:1" fill="#d2d2d2" d="M 709.5,838.5 C 710.643,838.908 711.643,839.575 712.5,840.5C 719.085,851.911 726.252,862.911 734,873.5C 737.133,878.771 739.967,884.105 742.5,889.5C 741.526,888.365 740.359,887.365 739,886.5C 733.412,876.317 727.078,866.65 720,857.5C 716.243,851.26 712.743,844.926 709.5,838.5 Z"/></g>
<g><path style="opacity:1" fill="#d8d8d8" d="M 492.5,836.5 C 491.66,838.853 490.326,840.853 488.5,842.5C 488.845,839.802 490.178,837.802 492.5,836.5 Z"/></g>
<g><path style="opacity:1" fill="#858585" d="M 659.5,841.5 C 661.048,841.821 661.715,842.821 661.5,844.5C 660.599,843.71 659.932,842.71 659.5,841.5 Z"/></g>
<g><path style="opacity:1" fill="#dadada" d="M 460.5,834.5 C 468.357,837.679 475.523,842.012 482,847.5C 483.926,845.461 486.093,843.794 488.5,842.5C 487.342,845.483 485.675,848.15 483.5,850.5C 475.243,845.884 467.577,840.55 460.5,834.5 Z"/></g>
<g><path style="opacity:1" fill="#d2d2d2" d="M 552.5,824.5 C 548.287,832.725 543.621,840.725 538.5,848.5C 537.643,849.425 536.643,850.092 535.5,850.5C 540.175,841.142 545.841,832.475 552.5,824.5 Z"/></g>
<g><path style="opacity:1" fill="#8d8d8d" d="M 661.5,844.5 C 662.376,844.369 663.043,844.702 663.5,845.5C 665.02,847.662 666.02,849.995 666.5,852.5C 664.347,850.206 662.68,847.54 661.5,844.5 Z"/></g>
<g><path style="opacity:1" fill="#c8c8c8" d="M 535.5,850.5 C 529.823,861.196 523.156,871.196 515.5,880.5C 521.177,869.804 527.844,859.804 535.5,850.5 Z"/></g>
<g><path style="opacity:1" fill="#d2d2d2" d="M 390.5,817.5 C 376.541,836.125 362.208,854.459 347.5,872.5C 357.706,857.448 368.539,842.781 380,828.5C 383.03,824.305 386.53,820.639 390.5,817.5 Z"/></g>
<g><path style="opacity:1" fill="#dbdbdb" d="M 422.5,861.5 C 427.365,863.763 431.698,866.763 435.5,870.5C 431.886,868.693 428.22,866.86 424.5,865C 423.695,863.887 423.028,862.721 422.5,861.5 Z"/></g>
<g><path style="opacity:1" fill="#d5d5d5" d="M 666.5,852.5 C 671.466,857.738 675.466,863.738 678.5,870.5C 673.356,865.339 669.356,859.339 666.5,852.5 Z"/></g>
<g><path style="opacity:1" fill="#d0d0d0" d="M 420.5,860.5 C 418.634,859.986 416.8,859.32 415,858.5C 410.86,862.772 407.193,867.439 404,872.5C 403.329,873.252 402.496,873.586 401.5,873.5C 405.114,867.793 409.114,862.293 413.5,857C 415.553,856.675 417.553,857.009 419.5,858C 420.252,858.671 420.586,859.504 420.5,860.5 Z"/></g>
<g><path style="opacity:1" fill="#858585" d="M 435.5,870.5 C 436.873,870.343 438.207,870.51 439.5,871C 442.33,872.728 444.663,874.895 446.5,877.5C 442.317,875.913 438.65,873.579 435.5,870.5 Z"/></g>
<g><path style="opacity:1" fill="#939393" d="M 679.5,872.5 C 681.446,873.035 682.446,874.368 682.5,876.5C 681.026,875.564 680.026,874.23 679.5,872.5 Z"/></g>
<g><path style="opacity:1" fill="#d6d6d6" d="M 401.5,873.5 C 401.573,875.027 400.906,876.027 399.5,876.5C 399.427,874.973 400.094,873.973 401.5,873.5 Z"/></g>
<g><path style="opacity:1" fill="#9a9a9a" d="M 446.5,877.5 C 448.027,877.427 449.027,878.094 449.5,879.5C 447.973,879.573 446.973,878.906 446.5,877.5 Z"/></g>
<g><path style="opacity:1" fill="#cdcdcd" d="M 449.5,879.5 C 451.027,879.427 452.027,880.094 452.5,881.5C 450.973,881.573 449.973,880.906 449.5,879.5 Z"/></g>
<g><path style="opacity:1" fill="#afafaf" d="M 682.5,877.5 C 684.451,878.282 685.951,879.616 687,881.5C 689.78,886.062 692.28,890.728 694.5,895.5C 693.624,895.631 692.957,895.298 692.5,894.5C 689.112,888.799 685.778,883.132 682.5,877.5 Z"/></g>
<g><path style="opacity:1" fill="#d1d1d1" d="M 347.5,872.5 C 342.407,879.688 337.073,886.688 331.5,893.5C 335.643,885.524 340.977,878.524 347.5,872.5 Z"/></g>
<g><path style="opacity:1" fill="#d3d3d3" d="M 515.5,880.5 C 514.66,882.853 513.326,884.853 511.5,886.5C 511.845,883.802 513.178,881.802 515.5,880.5 Z"/></g>
<g><path style="opacity:1" fill="#b4b4b4" d="M 399.5,876.5 C 395.164,882.344 390.997,888.344 387,894.5C 385.296,896.373 383.463,898.04 381.5,899.5C 386.316,890.849 392.316,883.182 399.5,876.5 Z"/></g>
<g><path style="opacity:1" fill="#d2d2d2" d="M 454.5,882.5 C 459.114,884.794 463.114,887.794 466.5,891.5C 465.078,891.291 463.745,890.791 462.5,890C 459.568,887.715 456.902,885.215 454.5,882.5 Z"/></g>
<g><path style="opacity:1" fill="#8e8e8e" d="M 466.5,891.5 C 470.31,892.242 473.31,894.242 475.5,897.5C 473.629,897.141 472.129,896.141 471,894.5C 470.667,894.833 470.333,895.167 470,895.5C 469.31,893.65 468.144,892.316 466.5,891.5 Z"/></g>
<g><path style="opacity:1" fill="#cccccc" d="M 742.5,889.5 C 743.906,889.973 744.573,890.973 744.5,892.5C 743.094,892.027 742.427,891.027 742.5,889.5 Z"/></g>
<g><path style="opacity:1" fill="#e4e4e4" d="M 744.5,892.5 C 745.906,892.973 746.573,893.973 746.5,895.5C 745.094,895.027 744.427,894.027 744.5,892.5 Z"/></g>
<g><path style="opacity:1" fill="#e6e6e6" d="M 694.5,895.5 C 695.906,895.973 696.573,896.973 696.5,898.5C 695.094,898.027 694.427,897.027 694.5,895.5 Z"/></g>
<g><path style="opacity:1" fill="#eeeeee" d="M 97.5,897.5 C 97.5,908.167 97.5,918.833 97.5,929.5C 96.7948,926.772 96.1281,923.939 95.5,921C 96.8333,917 96.8333,913 95.5,909C 96.1378,905.065 96.8045,901.231 97.5,897.5 Z"/></g>
<g><path style="opacity:1" fill="#d4d4d4" d="M 331.5,893.5 C 327.314,899.871 322.647,905.871 317.5,911.5C 320.358,905.796 323.858,900.463 328,895.5C 329.113,894.695 330.279,894.028 331.5,893.5 Z"/></g>
<g><path style="opacity:1" fill="#e5e5e5" d="M 475.5,897.5 C 477.027,897.427 478.027,898.094 478.5,899.5C 476.973,899.573 475.973,898.906 475.5,897.5 Z"/></g>
<g><path style="opacity:1" fill="#e0e0e0" d="M 511.5,886.5 C 507.149,895.028 502.149,903.194 496.5,911C 491.608,909.208 487.275,906.375 483.5,902.5C 487.217,903.527 490.55,905.361 493.5,908C 494.5,908.667 495.5,908.667 496.5,908C 500.792,901.25 504.959,894.417 509,887.5C 509.671,886.748 510.504,886.414 511.5,886.5 Z"/></g>
<g><path style="opacity:1" fill="#e7e7e7" d="M 478.5,899.5 C 480.434,900.11 482.101,901.11 483.5,902.5C 480.966,902.741 479.3,901.741 478.5,899.5 Z"/></g>
<g><path style="opacity:1" fill="#dfdfdf" d="M 381.5,899.5 C 381.262,901.404 380.262,902.738 378.5,903.5C 378.738,901.596 379.738,900.262 381.5,899.5 Z"/></g>
<g><path style="opacity:1" fill="#c0c0c0" d="M 696.5,898.5 C 697.376,898.369 698.043,898.702 698.5,899.5C 700.225,902.867 701.892,906.2 703.5,909.5C 700.432,906.378 698.098,902.711 696.5,898.5 Z"/></g>
<g><path style="opacity:1" fill="#b1b1b1" d="M 317.5,911.5 C 316.92,913.749 315.587,915.415 313.5,916.5C 314.08,914.251 315.413,912.585 317.5,911.5 Z"/></g>
<g><path style="opacity:1" fill="#a3a3a3" d="M 703.5,909.5 C 706.518,910.855 707.851,913.188 707.5,916.5C 705.412,914.664 704.079,912.331 703.5,909.5 Z"/></g>
<g><path style="opacity:1" fill="#dcdcdc" d="M 707.5,916.5 C 708.496,916.414 709.329,916.748 710,917.5C 712.523,921.888 715.023,926.222 717.5,930.5C 713.043,926.109 709.71,921.442 707.5,916.5 Z"/></g>
<g><path style="opacity:1" fill="#f8f8f8" d="M 939.5,926.5 C 939.483,928.565 939.15,930.565 938.5,932.5C 937.694,933.728 936.694,934.728 935.5,935.5C 884.833,935.5 834.167,935.5 783.5,935.5C 785.218,934.776 787.052,934.109 789,933.5C 837.161,934.297 885.661,934.297 934.5,933.5C 935.478,933.023 936.311,932.357 937,931.5C 937.333,929.167 937.667,926.833 938,924.5C 938.278,925.416 938.778,926.082 939.5,926.5 Z"/></g>
<g><path style="opacity:1" fill="#d2d2d2" d="M 746.5,895.5 C 747.806,896.968 749.306,898.301 751,899.5C 757.868,911.93 765.702,923.597 774.5,934.5C 777.428,935.484 780.428,935.817 783.5,935.5C 834.167,935.5 884.833,935.5 935.5,935.5C 880.998,936.831 826.332,936.831 771.5,935.5C 762.644,922.447 754.311,909.114 746.5,895.5 Z"/></g>
<g><path style="opacity:1" fill="#dcdcdc" d="M 377.5,904.5 C 372.32,913.51 366.153,921.843 359,929.5C 358.667,931.047 359.167,932.38 360.5,933.5C 358.709,934.17 357.042,934.837 355.5,935.5C 354.833,935.5 354.5,935.833 354.5,936.5C 353.662,936.158 353.328,935.492 353.5,934.5C 361.12,924.211 369.12,914.211 377.5,904.5 Z"/></g>
<g><path style="opacity:1" fill="#f9faf9" d="M 710.5,932.5 C 711.773,933.077 711.773,933.743 710.5,934.5C 709.537,934.03 709.537,933.363 710.5,932.5 Z"/></g>
<g><path style="opacity:1" fill="#f9faf9" d="M 262.5,935.5 C 226.833,935.5 191.167,935.5 155.5,935.5C 155.369,934.624 155.702,933.957 156.5,933.5C 191.961,934.16 227.294,934.827 262.5,935.5 Z"/></g>
<g><path style="opacity:1" fill="#cbcbcb" d="M 717.5,930.5 C 719.063,931.945 720.396,933.611 721.5,935.5C 599.334,936.5 477.001,936.833 354.5,936.5C 354.5,935.833 354.833,935.5 355.5,935.5C 469.613,934.167 583.946,934.167 698.5,935.5C 704.5,935.333 710.5,935.167 716.5,935C 716.167,934.667 715.833,934.333 715.5,934C 716.305,932.887 716.972,931.721 717.5,930.5 Z"/></g>
<g><path style="opacity:1" fill="#555555" d="M 144.5,935.5 C 195.81,936.482 247.144,936.815 298.5,936.5C 248.002,937.665 197.335,937.832 146.5,937C 145.584,936.722 144.918,936.222 144.5,935.5 Z"/></g>
<g><path style="opacity:1" fill="#555555" d="M 353.5,934.5 C 353.328,935.492 353.662,936.158 354.5,936.5C 477.001,936.833 599.334,936.5 721.5,935.5C 722.043,935.56 722.376,935.893 722.5,936.5C 599.168,937.5 475.835,937.833 352.5,937.5C 352.263,936.209 352.596,935.209 353.5,934.5 Z"/></g>
<g><path style="opacity:1" fill="#e6e6e6" d="M 98.5,937.5 C 99.4345,938.568 99.7678,939.901 99.5,941.5C 97.8906,940.335 97.5573,939.001 98.5,937.5 Z"/></g>
<g><path style="opacity:1" fill="#dbdbdb" d="M 99.5,941.5 C 101.208,944.95 102.541,948.617 103.5,952.5C 101,949.34 99.6667,945.673 99.5,941.5 Z"/></g>
<g><path style="opacity:1" fill="#f9faf9" d="M 103.5,952.5 C 104.167,952.5 104.5,952.833 104.5,953.5C 105.11,954.391 105.443,955.391 105.5,956.5C 103.896,955.713 103.229,954.38 103.5,952.5 Z"/></g>
<g><path style="opacity:1" fill="#c6c6c6" d="M 104.5,953.5 C 109.463,960.131 115.13,966.131 121.5,971.5C 114.247,968.581 108.914,963.581 105.5,956.5C 105.443,955.391 105.11,954.391 104.5,953.5 Z"/></g>
<g><path style="opacity:1" fill="#c9c9c9" d="M 979.5,946.5 C 975.299,960.033 966.632,969.366 953.5,974.5C 954.167,973.833 954.833,973.167 955.5,972.5C 966.226,966.404 974.226,957.737 979.5,946.5 Z"/></g>
<g><path style="opacity:1" fill="#e1e1e1" d="M 121.5,971.5 C 122.167,971.5 122.833,971.5 123.5,971.5C 123.833,972.167 124.167,972.833 124.5,973.5C 122.973,973.573 121.973,972.906 121.5,971.5 Z"/></g>
<g><path style="opacity:1" fill="#5b5b5b" d="M 955.5,972.5 C 954.833,973.167 954.167,973.833 953.5,974.5C 953.158,975.338 952.492,975.672 951.5,975.5C 951.167,975.5 950.833,975.5 950.5,975.5C 951.3,973.259 952.966,972.259 955.5,972.5 Z"/></g>
<g><path style="opacity:1" fill="#848484" d="M 123.5,971.5 C 125.853,972.34 127.853,973.674 129.5,975.5C 127.597,975.204 125.93,974.537 124.5,973.5C 124.167,972.833 123.833,972.167 123.5,971.5 Z"/></g>
<g><path style="opacity:1" fill="#eaeaea" d="M 129.5,975.5 C 131.786,975.595 133.786,976.262 135.5,977.5C 133.102,977.741 131.102,977.074 129.5,975.5 Z"/></g>
<g><path style="opacity:1" fill="#d4d4d4" d="M 950.5,975.5 C 950.833,975.5 951.167,975.5 951.5,975.5C 948.201,977.483 944.534,978.483 940.5,978.5C 943.55,976.899 946.884,975.899 950.5,975.5 Z"/></g>
</svg>
