<?xml version="1.0" encoding="UTF-8"?>
<!DOCTYPE svg PUBLIC "-//W3C//DTD SVG 1.1//EN" "http://www.w3.org/Graphics/SVG/1.1/DTD/svg11.dtd">
<svg xmlns="http://www.w3.org/2000/svg" version="1.1" width="1080px" height="1080px" style="shape-rendering:geometricPrecision; text-rendering:geometricPrecision; image-rendering:optimizeQuality; fill-rule:evenodd; clip-rule:evenodd" xmlns:xlink="http://www.w3.org/1999/xlink">
<g><path style="opacity:1" fill="#f0f0f0" d="M 942.5,100.5 C 942.5,100.833 942.5,101.167 942.5,101.5C 674.236,100.501 405.903,100.168 137.5,100.5C 145.985,99.0106 154.652,98.0106 163.5,97.5C 164.086,97.7093 164.586,98.0426 165,98.5C 199.6,97.7538 234.267,97.0871 269,96.5C 477.464,96.3515 685.964,96.5182 894.5,97C 905.5,97.3333 916.5,97.6667 927.5,98C 932.747,98.1823 937.747,99.0157 942.5,100.5 Z"/></g>
<g><path style="opacity:1" fill="#010101" d="M 137.5,100.5 C 405.903,100.168 674.236,100.501 942.5,101.5C 956.694,105.703 967.694,114.036 975.5,126.5C 978.221,131.495 980.054,136.829 981,142.5C 981.667,247.167 981.667,351.833 981,456.5C 980.145,461.92 978.978,467.253 977.5,472.5C 977.672,473.492 977.338,474.158 976.5,474.5C 973.956,475.708 972.622,477.708 972.5,480.5C 968.766,483.231 965.766,486.564 963.5,490.5C 961.973,490.427 960.973,491.094 960.5,492.5C 958.664,494.588 956.331,495.921 953.5,496.5C 948.722,498.612 943.722,499.945 938.5,500.5C 717.354,501.163 496.354,501.829 275.5,502.5C 275.167,502.5 274.833,502.5 274.5,502.5C 231.5,501.167 188.5,501.167 145.5,502.5C 145.167,502.5 144.833,502.5 144.5,502.5C 143.081,501.549 141.415,501.216 139.5,501.5C 134.919,499.86 130.252,498.193 125.5,496.5C 124.508,496.672 123.842,496.338 123.5,495.5C 121.879,493.058 119.546,491.725 116.5,491.5C 113.486,487.326 110.32,483.326 107,479.5C 106.329,478.748 105.496,478.414 104.5,478.5C 104.5,478.167 104.5,477.833 104.5,477.5C 104.279,475.336 103.279,473.67 101.5,472.5C 100.596,471.791 100.263,470.791 100.5,469.5C 100.405,467.214 99.7384,465.214 98.5,463.5C 97.346,355.848 97.1794,248.181 98,140.5C 99.6072,135.846 101.107,131.179 102.5,126.5C 108.21,118.456 115.21,111.79 123.5,106.5C 128.517,105.607 133.183,103.94 137.5,101.5C 137.5,101.167 137.5,100.833 137.5,100.5 Z M 171.5,142.5 C 291.803,142.612 412.136,142.612 532.5,142.5C 665.952,142.799 799.285,143.133 932.5,143.5C 936.008,144.804 937.842,147.47 938,151.5C 938.167,157.167 938.333,162.833 938.5,168.5C 937.17,262.129 937.17,355.796 938.5,449.5C 937.731,451.667 936.731,453.834 935.5,456C 929.564,457.07 923.564,457.57 917.5,457.5C 712.508,456.398 507.674,456.398 303,457.5C 250.833,457.333 198.667,457.167 146.5,457C 145.099,456.59 143.766,456.09 142.5,455.5C 142.108,453.821 141.608,452.154 141,450.5C 140.333,350.5 140.333,250.5 141,150.5C 141.352,148.753 141.852,147.086 142.5,145.5C 143.766,144.91 145.099,144.41 146.5,144C 155.01,143.829 163.343,143.329 171.5,142.5 Z"/></g>
<g><path style="opacity:1" fill="#3a3a3a" d="M 137.5,101.5 C 133.183,103.94 128.517,105.607 123.5,106.5C 127.817,104.06 132.483,102.393 137.5,101.5 Z"/></g>
<g><path style="opacity:1" fill="#dbdbdb" d="M 137.5,100.5 C 137.5,100.833 137.5,101.167 137.5,101.5C 132.483,102.393 127.817,104.06 123.5,106.5C 115.21,111.79 108.21,118.456 102.5,126.5C 109.228,111.292 120.895,102.625 137.5,100.5 Z"/></g>
<g><path style="opacity:1" fill="#cfcfcf" d="M 942.5,101.5 C 942.5,101.167 942.5,100.833 942.5,100.5C 957.675,102.907 968.675,110.907 975.5,124.5C 975.5,125.167 975.5,125.833 975.5,126.5C 967.694,114.036 956.694,105.703 942.5,101.5 Z"/></g>
<g><path style="opacity:1" fill="#f8f8f8" d="M 102.5,126.5 C 101.107,131.179 99.6072,135.846 98,140.5C 97.1794,248.181 97.346,355.848 98.5,463.5C 97.0735,461.852 96.2401,459.852 96,457.5C 96.3073,352.869 96.1406,248.536 95.5,144.5C 96.7321,138.042 99.0654,132.042 102.5,126.5 Z"/></g>
<g><path style="opacity:1" fill="#434343" d="M 532.5,142.5 C 665.666,141.334 798.999,141.167 932.5,142C 933.737,142.232 934.737,142.732 935.5,143.5C 934.5,143.5 933.5,143.5 932.5,143.5C 799.285,143.133 665.952,142.799 532.5,142.5 Z"/></g>
<g><path style="opacity:1" fill="#eeeeee" d="M 171.5,142.5 C 163.343,143.329 155.01,143.829 146.5,144C 145.099,144.41 143.766,144.91 142.5,145.5C 142.881,144.069 143.881,143.236 145.5,143C 154.16,142.5 162.827,142.334 171.5,142.5 Z"/></g>
<g><path style="opacity:1" fill="#ececec" d="M 975.5,124.5 C 978.293,128.348 980.627,132.515 982.5,137C 982.167,137.333 981.833,137.667 981.5,138C 982.191,139.067 982.691,140.234 983,141.5C 983.667,246.833 983.667,352.167 983,457.5C 982.727,459.101 982.227,460.601 981.5,462C 981.833,462.333 982.167,462.667 982.5,463C 980.737,466.129 979.07,469.295 977.5,472.5C 978.978,467.253 980.145,461.92 981,456.5C 981.667,351.833 981.667,247.167 981,142.5C 980.054,136.829 978.221,131.495 975.5,126.5C 975.5,125.833 975.5,125.167 975.5,124.5 Z"/></g>
<g><path style="opacity:1" fill="#808080" d="M 142.5,145.5 C 141.852,147.086 141.352,148.753 141,150.5C 140.333,250.5 140.333,350.5 141,450.5C 141.608,452.154 142.108,453.821 142.5,455.5C 142.5,456.167 142.5,456.833 142.5,457.5C 140.59,456.025 139.424,454.025 139,451.5C 138.333,351.167 138.333,250.833 139,150.5C 139.333,149.167 139.667,147.833 140,146.5C 140.671,145.748 141.504,145.414 142.5,145.5 Z"/></g>
<g><path style="opacity:1" fill="#9d9d9d" d="M 932.5,143.5 C 933.5,143.5 934.5,143.5 935.5,143.5C 938.39,144.899 939.89,147.232 940,150.5C 940.667,250.833 940.667,351.167 940,451.5C 939.768,452.737 939.268,453.737 938.5,454.5C 938.5,452.833 938.5,451.167 938.5,449.5C 937.17,355.796 937.17,262.129 938.5,168.5C 938.333,162.833 938.167,157.167 938,151.5C 937.842,147.47 936.008,144.804 932.5,143.5 Z"/></g>
<g><path style="opacity:1" fill="#f9f9f9" d="M 938.5,449.5 C 938.5,451.167 938.5,452.833 938.5,454.5C 937.764,456.229 936.43,457.229 934.5,457.5C 671.207,458.498 407.873,458.832 144.5,458.5C 143.833,458.167 143.167,457.833 142.5,457.5C 142.5,456.833 142.5,456.167 142.5,455.5C 143.766,456.09 145.099,456.59 146.5,457C 198.667,457.167 250.833,457.333 303,457.5C 507.674,456.398 712.508,456.398 917.5,457.5C 923.564,457.57 929.564,457.07 935.5,456C 936.731,453.834 937.731,451.667 938.5,449.5 Z"/></g>
<g><path style="opacity:1" fill="#b9b9b9" d="M 934.5,457.5 C 934.389,458.117 934.056,458.617 933.5,459C 802,459.167 670.5,459.333 539,459.5C 407.333,459.5 275.833,459.167 144.5,458.5C 407.873,458.832 671.207,458.498 934.5,457.5 Z"/></g>
<g><path style="opacity:1" fill="#d9d9d9" d="M 98.5,463.5 C 99.7384,465.214 100.405,467.214 100.5,469.5C 98.9261,467.898 98.2594,465.898 98.5,463.5 Z"/></g>
<g><path style="opacity:1" fill="#cbcbcb" d="M 101.5,472.5 C 103.279,473.67 104.279,475.336 104.5,477.5C 102.273,476.599 101.273,474.933 101.5,472.5 Z"/></g>
<g><path style="opacity:1" fill="#919191" d="M 976.5,474.5 C 975.66,476.853 974.326,478.853 972.5,480.5C 972.622,477.708 973.956,475.708 976.5,474.5 Z"/></g>
<g><path style="opacity:1" fill="#bdbdbd" d="M 104.5,478.5 C 105.496,478.414 106.329,478.748 107,479.5C 110.32,483.326 113.486,487.326 116.5,491.5C 110.917,488.696 106.917,484.362 104.5,478.5 Z"/></g>
<g><path style="opacity:1" fill="#b7b7b7" d="M 972.5,480.5 C 970.895,485.104 967.895,488.438 963.5,490.5C 965.766,486.564 968.766,483.231 972.5,480.5 Z"/></g>
<g><path style="opacity:1" fill="#dcdcdc" d="M 963.5,490.5 C 963.027,491.906 962.027,492.573 960.5,492.5C 960.973,491.094 961.973,490.427 963.5,490.5 Z"/></g>
<g><path style="opacity:1" fill="#939393" d="M 116.5,491.5 C 119.546,491.725 121.879,493.058 123.5,495.5C 120.9,494.532 118.566,493.199 116.5,491.5 Z"/></g>
<g><path style="opacity:1" fill="#f1f1f1" d="M 125.5,496.5 C 130.252,498.193 134.919,499.86 139.5,501.5C 133.927,501.953 129.261,500.287 125.5,496.5 Z"/></g>
<g><path style="opacity:1" fill="#ececec" d="M 953.5,496.5 C 948.349,500.613 942.349,502.613 935.5,502.5C 936.5,501.833 937.5,501.167 938.5,500.5C 943.722,499.945 948.722,498.612 953.5,496.5 Z"/></g>
<g><path style="opacity:1" fill="#f9faf9" d="M 139.5,501.5 C 141.415,501.216 143.081,501.549 144.5,502.5C 144.565,502.938 144.399,503.272 144,503.5C 142.378,502.901 140.878,502.234 139.5,501.5 Z"/></g>
<g><path style="opacity:1" fill="#8a8a8a" d="M 938.5,500.5 C 937.5,501.167 936.5,501.833 935.5,502.5C 716.266,502.549 496.266,502.549 275.5,502.5C 496.354,501.829 717.354,501.163 938.5,500.5 Z"/></g>
<g><path style="opacity:1" fill="#c0c0c0" d="M 145.5,502.5 C 188.5,501.167 231.5,501.167 274.5,502.5C 231.477,502.669 188.477,502.669 145.5,502.5 Z"/></g>
<g><path style="opacity:1" fill="#f9faf9" d="M 933.5,576.5 C 671.167,576.5 408.833,576.5 146.5,576.5C 287.167,575.677 428,575.01 569,574.5C 690.465,574.636 811.965,575.303 933.5,576.5 Z"/></g>
<g><path style="opacity:1" fill="#dedede" d="M 146.5,576.5 C 408.833,576.5 671.167,576.5 933.5,576.5C 938.232,576.378 942.898,576.878 947.5,578C 950.91,580.372 954.577,582.205 958.5,583.5C 958.833,584.167 959.167,584.833 959.5,585.5C 952.22,581.863 944.553,579.363 936.5,578C 671.833,577.333 407.167,577.333 142.5,578C 136.299,578.791 130.299,580.291 124.5,582.5C 130.961,577.865 138.294,575.865 146.5,576.5 Z"/></g>
<g><path style="opacity:1" fill="#040404" d="M 959.5,585.5 C 963.827,590.494 968.494,595.161 973.5,599.5C 973.427,601.027 974.094,602.027 975.5,602.5C 975.198,606.38 976.531,609.38 979.5,611.5C 979.674,614.874 980.174,618.207 981,621.5C 981.823,727.851 981.656,834.184 980.5,940.5C 980.5,940.833 980.5,941.167 980.5,941.5C 975.101,954.553 966.768,965.22 955.5,973.5C 953.491,975.065 951.157,976.065 948.5,976.5C 945.311,976.858 942.311,977.525 939.5,978.5C 798.757,979.126 657.757,979.459 516.5,979.5C 390.833,979.333 265.167,979.167 139.5,979C 137.292,978.809 135.292,978.309 133.5,977.5C 132.365,975.787 130.698,975.12 128.5,975.5C 127.365,973.787 125.698,973.12 123.5,973.5C 122.656,971.241 120.989,970.241 118.5,970.5C 115.215,966.548 111.548,962.881 107.5,959.5C 106.331,956.489 104.664,953.822 102.5,951.5C 100.707,949.574 99.7073,947.241 99.5,944.5C 99.196,941.478 98.696,938.478 98,935.5C 97.3333,829.833 97.3333,724.167 98,618.5C 98.662,616.187 99.162,613.854 99.5,611.5C 99.4021,609.447 100.069,607.78 101.5,606.5C 103.433,605.358 104.933,603.692 106,601.5C 106.49,600.207 106.657,598.873 106.5,597.5C 110.859,593.472 115.193,589.472 119.5,585.5C 121.027,585.573 122.027,584.906 122.5,583.5C 122.842,582.662 123.508,582.328 124.5,582.5C 130.299,580.291 136.299,578.791 142.5,578C 407.167,577.333 671.833,577.333 936.5,578C 944.553,579.363 952.22,581.863 959.5,585.5 Z M 148.5,620.5 C 329.256,620.529 510.256,620.529 691.5,620.5C 774.014,621.472 854.014,621.472 931.5,620.5C 933.396,622.043 935.229,623.709 937,625.5C 937.175,630.019 937.675,634.353 938.5,638.5C 937.465,726.884 937.465,815.218 938.5,903.5C 937.67,912.324 937.17,921.324 937,930.5C 936.581,931.672 935.915,932.672 935,933.5C 683.822,934.337 432.155,934.337 180,933.5C 172.068,934.152 164.235,934.819 156.5,935.5C 153.482,935.665 150.482,935.498 147.5,935C 147.833,934.667 148.167,934.333 148.5,934C 145.849,933.847 143.516,933.013 141.5,931.5C 140.342,830.521 140.176,729.521 141,628.5C 141.68,623.989 144.18,621.323 148.5,620.5 Z"/></g>
<g><path style="opacity:1" fill="#f9faf9" d="M 958.5,582.5 C 959.833,583.167 959.833,583.167 958.5,582.5 Z"/></g>
<g><path style="opacity:1" fill="#cfcfcf" d="M 122.5,583.5 C 122.027,584.906 121.027,585.573 119.5,585.5C 119.973,584.094 120.973,583.427 122.5,583.5 Z"/></g>
<g><path style="opacity:1" fill="#cecece" d="M 959.5,585.5 C 966.5,587.833 971.167,592.5 973.5,599.5C 968.494,595.161 963.827,590.494 959.5,585.5 Z"/></g>
<g><path style="opacity:1" fill="#d1d1d1" d="M 119.5,585.5 C 115.193,589.472 110.859,593.472 106.5,597.5C 109.554,592.113 113.887,588.113 119.5,585.5 Z"/></g>
<g><path style="opacity:1" fill="#d4d4d4" d="M 973.5,599.5 C 974.906,599.973 975.573,600.973 975.5,602.5C 974.094,602.027 973.427,601.027 973.5,599.5 Z"/></g>
<g><path style="opacity:1" fill="#7d7d7d" d="M 106.5,597.5 C 106.657,598.873 106.49,600.207 106,601.5C 104.933,603.692 103.433,605.358 101.5,606.5C 102.41,603.008 104.076,600.008 106.5,597.5 Z"/></g>
<g><path style="opacity:1" fill="#636363" d="M 975.5,602.5 C 977.625,605.088 978.958,608.088 979.5,611.5C 976.531,609.38 975.198,606.38 975.5,602.5 Z"/></g>
<g><path style="opacity:1" fill="#f8f8f8" d="M 99.5,611.5 C 99.162,613.854 98.662,616.187 98,618.5C 97.3333,724.167 97.3333,829.833 98,935.5C 98.696,938.478 99.196,941.478 99.5,944.5C 96.7451,938.787 95.4118,932.621 95.5,926C 95.6065,826.693 95.6065,726.693 95.5,626C 95.6605,622.531 96.3272,619.197 97.5,616C 97.1667,615.667 96.8333,615.333 96.5,615C 97.6364,613.855 98.6364,612.688 99.5,611.5 Z"/></g>
<g><path style="opacity:1" fill="#3d3d3d" d="M 148.5,620.5 C 148.5,620.167 148.5,619.833 148.5,619.5C 329.5,619.5 510.5,619.5 691.5,619.5C 691.5,619.833 691.5,620.167 691.5,620.5C 510.256,620.529 329.256,620.529 148.5,620.5 Z"/></g>
<g><path style="opacity:1" fill="#565656" d="M 691.5,620.5 C 691.5,620.167 691.5,619.833 691.5,619.5C 772.668,619.167 853.668,619.501 934.5,620.5C 933.5,620.5 932.5,620.5 931.5,620.5C 854.014,621.472 774.014,621.472 691.5,620.5 Z"/></g>
<g><path style="opacity:1" fill="#f2f2f2" d="M 931.5,620.5 C 932.5,620.5 933.5,620.5 934.5,620.5C 936.167,621.5 937.5,622.833 938.5,624.5C 938.5,629.167 938.5,633.833 938.5,638.5C 937.675,634.353 937.175,630.019 937,625.5C 935.229,623.709 933.396,622.043 931.5,620.5 Z"/></g>
<g><path style="opacity:1" fill="#ececec" d="M 979.5,611.5 C 981.172,614.198 982.339,617.198 983,620.5C 983.667,725.5 983.667,830.5 983,935.5C 982.901,937.653 982.067,939.319 980.5,940.5C 981.656,834.184 981.823,727.851 981,621.5C 980.174,618.207 979.674,614.874 979.5,611.5 Z"/></g>
<g><path style="opacity:1" fill="#828282" d="M 148.5,619.5 C 148.5,619.833 148.5,620.167 148.5,620.5C 144.18,621.323 141.68,623.989 141,628.5C 140.176,729.521 140.342,830.521 141.5,931.5C 141.5,932.167 141.5,932.833 141.5,933.5C 139.933,932.319 139.099,930.653 139,928.5C 138.333,828.167 138.333,727.833 139,627.5C 140.514,622.816 143.681,620.149 148.5,619.5 Z"/></g>
<g><path style="opacity:1" fill="#a2a2a2" d="M 938.5,624.5 C 939.268,625.263 939.768,626.263 940,627.5C 940.667,727.833 940.667,828.167 940,928.5C 939.768,929.737 939.268,930.737 938.5,931.5C 938.5,922.167 938.5,912.833 938.5,903.5C 937.465,815.218 937.465,726.884 938.5,638.5C 938.5,633.833 938.5,629.167 938.5,624.5 Z"/></g>
<g><path style="opacity:1" fill="#f9f9f9" d="M 938.5,903.5 C 938.5,912.833 938.5,922.167 938.5,931.5C 937.5,933.167 936.167,934.5 934.5,935.5C 675.167,935.5 415.833,935.5 156.5,935.5C 164.235,934.819 172.068,934.152 180,933.5C 432.155,934.337 683.822,934.337 935,933.5C 935.915,932.672 936.581,931.672 937,930.5C 937.17,921.324 937.67,912.324 938.5,903.5 Z"/></g>
<g><path style="opacity:1" fill="#b9b9b9" d="M 141.5,931.5 C 143.516,933.013 145.849,933.847 148.5,934C 148.167,934.333 147.833,934.667 147.5,935C 150.482,935.498 153.482,935.665 156.5,935.5C 415.833,935.5 675.167,935.5 934.5,935.5C 802.834,936.167 671,936.5 539,936.5C 407.167,936.167 275.333,935.833 143.5,935.5C 143.145,934.478 142.478,933.811 141.5,933.5C 141.5,932.833 141.5,932.167 141.5,931.5 Z"/></g>
<g><path style="opacity:1" fill="#b6b6b6" d="M 102.5,951.5 C 104.664,953.822 106.331,956.489 107.5,959.5C 104.836,957.516 103.169,954.849 102.5,951.5 Z"/></g>
<g><path style="opacity:1" fill="#d6d6d6" d="M 107.5,959.5 C 111.548,962.881 115.215,966.548 118.5,970.5C 113.132,968.465 109.465,964.798 107.5,959.5 Z"/></g>
<g><path style="opacity:1" fill="#c5c5c5" d="M 980.5,941.5 C 977.976,951.712 972.976,960.546 965.5,968C 962.273,970.112 958.94,971.945 955.5,973.5C 966.768,965.22 975.101,954.553 980.5,941.5 Z"/></g>
<g><path style="opacity:1" fill="#afafaf" d="M 118.5,970.5 C 120.989,970.241 122.656,971.241 123.5,973.5C 121.566,972.89 119.899,971.89 118.5,970.5 Z"/></g>
<g><path style="opacity:1" fill="#9a9a9a" d="M 123.5,973.5 C 125.698,973.12 127.365,973.787 128.5,975.5C 126.447,975.598 124.78,974.931 123.5,973.5 Z"/></g>
<g><path style="opacity:1" fill="#a0a0a0" d="M 128.5,975.5 C 130.698,975.12 132.365,975.787 133.5,977.5C 131.799,977.034 130.299,977.034 129,977.5C 128.536,976.906 128.369,976.239 128.5,975.5 Z"/></g>
<g><path style="opacity:1" fill="#e3e3e3" d="M 948.5,976.5 C 945.877,978.265 942.877,978.932 939.5,978.5C 942.311,977.525 945.311,976.858 948.5,976.5 Z"/></g>
</svg>
