<?xml version="1.0" encoding="UTF-8"?>
<!DOCTYPE svg PUBLIC "-//W3C//DTD SVG 1.1//EN" "http://www.w3.org/Graphics/SVG/1.1/DTD/svg11.dtd">
<svg xmlns="http://www.w3.org/2000/svg" version="1.1" width="1080px" height="1080px" style="shape-rendering:geometricPrecision; text-rendering:geometricPrecision; image-rendering:optimizeQuality; fill-rule:evenodd; clip-rule:evenodd" xmlns:xlink="http://www.w3.org/1999/xlink">
<g><path style="opacity:1" fill="#eeeeee" d="M 468.5,103.5 C 464.583,102.363 460.583,101.53 456.5,101C 350.501,100.5 244.501,100.333 138.5,100.5C 146.523,99.0908 154.69,98.0908 163,97.5C 255.933,97.5429 348.933,97.5429 442,97.5C 447.798,98.2498 453.631,99.0831 459.5,100C 462.865,100.505 465.865,101.672 468.5,103.5 Z"/></g>
<g><path style="opacity:1" fill="#f9f9f9" d="M 935.5,99.5 C 831.5,99.5 727.5,99.5 623.5,99.5C 631.902,98.8202 640.402,98.1535 649,97.5C 738.171,97.5039 827.337,97.5039 916.5,97.5C 922.995,98.0455 929.328,98.7121 935.5,99.5 Z"/></g>
<g><path style="opacity:1" fill="#d0d0d0" d="M 617.5,100.5 C 619.265,99.5386 621.265,99.2053 623.5,99.5C 727.5,99.5 831.5,99.5 935.5,99.5C 940.192,99.4249 944.526,100.425 948.5,102.5C 945.784,102.322 943.117,101.822 940.5,101C 832.834,100.5 725.167,100.333 617.5,100.5 Z"/></g>
<g><path style="opacity:1" fill="#262626" d="M 137.5,101.5 C 137.5,101.167 137.5,100.833 137.5,100.5C 137.833,100.5 138.167,100.5 138.5,100.5C 244.501,100.333 350.501,100.5 456.5,101C 460.583,101.53 464.583,102.363 468.5,103.5C 468.833,104.167 469.167,104.833 469.5,105.5C 464.977,103.827 460.31,102.66 455.5,102C 349.501,101.5 243.501,101.333 137.5,101.5 Z"/></g>
<g><path style="opacity:1" fill="#f1f1f1" d="M 617.5,100.5 C 615.485,101.924 613.152,102.59 610.5,102.5C 612.515,101.076 614.848,100.41 617.5,100.5 Z"/></g>
<g><path style="opacity:1" fill="#ededed" d="M 137.5,100.5 C 137.5,100.833 137.5,101.167 137.5,101.5C 137.167,101.5 136.833,101.5 136.5,101.5C 134.565,102.15 132.565,102.483 130.5,102.5C 132.515,101.076 134.848,100.41 137.5,100.5 Z"/></g>
<g><path style="opacity:1" fill="#000000" d="M 136.5,101.5 C 136.833,101.5 137.167,101.5 137.5,101.5C 243.501,101.333 349.501,101.5 455.5,102C 460.31,102.66 464.977,103.827 469.5,105.5C 477.614,108.94 484.281,114.273 489.5,121.5C 490.11,123.434 491.11,125.101 492.5,126.5C 493.5,127.833 494.5,129.167 495.5,130.5C 496.172,134.188 497.005,137.855 498,141.5C 498.5,248.166 498.667,354.833 498.5,461.5C 497.262,463.214 496.595,465.214 496.5,467.5C 496.737,468.791 496.404,469.791 495.5,470.5C 494.326,471.514 493.66,472.847 493.5,474.5C 491.259,475.3 490.259,476.966 490.5,479.5C 486.943,482.936 483.609,486.603 480.5,490.5C 480.027,491.906 479.027,492.573 477.5,492.5C 475.821,492.285 474.821,492.952 474.5,494.5C 474.027,495.906 473.027,496.573 471.5,496.5C 465.382,498.779 459.049,500.279 452.5,501C 441.839,501.5 431.172,501.667 420.5,501.5C 326.818,501.819 233.151,501.485 139.5,500.5C 134.654,499.773 129.987,498.44 125.5,496.5C 124.508,496.672 123.842,496.338 123.5,495.5C 122.656,493.241 120.989,492.241 118.5,492.5C 118.167,490.167 116.833,488.833 114.5,488.5C 111.148,485.305 108.315,481.638 106,477.5C 105.329,476.748 104.496,476.414 103.5,476.5C 101.707,474.574 100.707,472.241 100.5,469.5C 100.598,467.447 99.9313,465.78 98.5,464.5C 98.5,464.167 98.5,463.833 98.5,463.5C 97.3439,355.851 97.1772,248.184 98,140.5C 98.662,138.187 99.162,135.854 99.5,133.5C 101.293,131.574 102.293,129.241 102.5,126.5C 107.518,119.149 113.852,113.149 121.5,108.5C 126.693,106.337 131.693,104.004 136.5,101.5 Z M 425.5,142.5 C 433.495,142.935 441.495,143.269 449.5,143.5C 452.36,144.605 454.36,146.605 455.5,149.5C 455.306,250.237 455.306,349.737 455.5,448C 455.109,451.177 453.943,454.01 452,456.5C 450.78,454.143 449.947,454.476 449.5,457.5C 442.789,457.287 436.123,457.62 429.5,458.5C 335.334,457.667 241.001,457.167 146.5,457C 145.234,456.691 144.067,456.191 143,455.5C 142.243,453.685 141.41,452.019 140.5,450.5C 140.333,350.499 140.5,250.499 141,150.5C 141.352,148.753 141.852,147.086 142.5,145.5C 143.167,145.5 143.5,145.167 143.5,144.5C 237.64,143.84 331.64,143.174 425.5,142.5 Z"/></g>
<g><path style="opacity:1" fill="#010101" d="M 617.5,100.5 C 725.167,100.333 832.834,100.5 940.5,101C 943.117,101.822 945.784,102.322 948.5,102.5C 953.097,106.142 958.097,109.308 963.5,112C 966.416,115.087 969.416,117.921 972.5,120.5C 972.427,122.027 973.094,123.027 974.5,123.5C 974.427,125.027 975.094,126.027 976.5,126.5C 978.09,131.441 979.59,136.441 981,141.5C 981.823,248.851 981.656,356.184 980.5,463.5C 980.5,463.833 980.5,464.167 980.5,464.5C 979.069,465.78 978.402,467.447 978.5,469.5C 978.598,471.553 977.931,473.22 976.5,474.5C 974.241,475.344 973.241,477.011 973.5,479.5C 973.5,480.167 973.167,480.5 972.5,480.5C 968.864,484.803 964.864,488.803 960.5,492.5C 960.027,493.906 959.027,494.573 957.5,494.5C 955.847,494.66 954.514,495.326 953.5,496.5C 952.508,496.328 951.842,496.662 951.5,497.5C 946.299,499.108 940.966,500.274 935.5,501C 830.152,501.82 724.819,501.654 619.5,500.5C 615.691,499.965 612.024,498.965 608.5,497.5C 607.448,495.744 605.781,495.077 603.5,495.5C 602.71,494.599 601.71,493.932 600.5,493.5C 599.513,490.914 597.513,489.581 594.5,489.5C 591.768,486.442 589.102,483.442 586.5,480.5C 586.912,478.027 585.912,476.694 583.5,476.5C 583.5,476.167 583.5,475.833 583.5,475.5C 583.715,473.821 583.048,472.821 581.5,472.5C 580.89,471.609 580.557,470.609 580.5,469.5C 579.671,465.514 578.837,461.514 578,457.5C 577.5,352.834 577.333,248.167 577.5,143.5C 579.041,136.543 581.374,129.876 584.5,123.5C 591.663,114.592 600.33,107.592 610.5,102.5C 613.152,102.59 615.485,101.924 617.5,100.5 Z M 627.5,143.5 C 729.138,143.504 830.472,143.504 931.5,143.5C 932.708,144.234 934.041,144.567 935.5,144.5C 935.932,145.71 936.599,146.71 937.5,147.5C 937.245,247.486 937.578,348.153 938.5,449.5C 937.731,451.667 936.731,453.834 935.5,456C 929.411,457.101 923.245,457.601 917,457.5C 826.126,454.873 735.293,454.873 644.5,457.5C 638.5,457.333 632.5,457.167 626.5,457C 625.299,456.097 624.465,454.931 624,453.5C 623.333,454.833 622.667,454.833 622,453.5C 621.648,451.753 621.148,450.086 620.5,448.5C 620.333,349.499 620.5,250.499 621,151.5C 621.174,148.54 622.34,146.206 624.5,144.5C 625.391,143.89 626.391,143.557 627.5,143.5 Z"/></g>
<g><path style="opacity:1" fill="#ebebeb" d="M 130.5,102.5 C 129.22,103.931 127.553,104.598 125.5,104.5C 126.78,103.069 128.447,102.402 130.5,102.5 Z"/></g>
<g><path style="opacity:1" fill="#e9e9e9" d="M 125.5,104.5 C 124.486,105.674 123.153,106.34 121.5,106.5C 122.287,104.896 123.62,104.229 125.5,104.5 Z"/></g>
<g><path style="opacity:1" fill="#4d4d4d" d="M 136.5,101.5 C 131.693,104.004 126.693,106.337 121.5,108.5C 121.5,107.833 121.5,107.167 121.5,106.5C 123.153,106.34 124.486,105.674 125.5,104.5C 127.553,104.598 129.22,103.931 130.5,102.5C 132.565,102.483 134.565,102.15 136.5,101.5 Z"/></g>
<g><path style="opacity:1" fill="#d2d2d2" d="M 948.5,102.5 C 959.475,104.642 967.475,110.642 972.5,120.5C 969.416,117.921 966.416,115.087 963.5,112C 958.097,109.308 953.097,106.142 948.5,102.5 Z"/></g>
<g><path style="opacity:1" fill="#d6d6d6" d="M 121.5,106.5 C 121.5,107.167 121.5,107.833 121.5,108.5C 113.852,113.149 107.518,119.149 102.5,126.5C 106.106,117.228 112.439,110.561 121.5,106.5 Z"/></g>
<g><path style="opacity:1" fill="#d8d8d8" d="M 468.5,103.5 C 474.212,105.524 479.545,108.357 484.5,112C 487.722,114.956 490.056,118.456 491.5,122.5C 490.833,122.167 490.167,121.833 489.5,121.5C 484.281,114.273 477.614,108.94 469.5,105.5C 469.167,104.833 468.833,104.167 468.5,103.5 Z"/></g>
<g><path style="opacity:1" fill="#cacaca" d="M 610.5,102.5 C 600.33,107.592 591.663,114.592 584.5,123.5C 590.128,112.885 598.795,105.885 610.5,102.5 Z"/></g>
<g><path style="opacity:1" fill="#c2c2c2" d="M 972.5,120.5 C 973.906,120.973 974.573,121.973 974.5,123.5C 973.094,123.027 972.427,122.027 972.5,120.5 Z"/></g>
<g><path style="opacity:1" fill="#737373" d="M 489.5,121.5 C 490.167,121.833 490.833,122.167 491.5,122.5C 492.338,122.842 492.672,123.508 492.5,124.5C 492.5,125.167 492.5,125.833 492.5,126.5C 491.11,125.101 490.11,123.434 489.5,121.5 Z"/></g>
<g><path style="opacity:1" fill="#e4e4e4" d="M 974.5,123.5 C 975.906,123.973 976.573,124.973 976.5,126.5C 975.094,126.027 974.427,125.027 974.5,123.5 Z"/></g>
<g><path style="opacity:1" fill="#e5e5e5" d="M 492.5,124.5 C 494.539,125.911 495.539,127.911 495.5,130.5C 494.5,129.167 493.5,127.833 492.5,126.5C 492.5,125.833 492.5,125.167 492.5,124.5 Z"/></g>
<g><path style="opacity:1" fill="#eaeaea" d="M 102.5,126.5 C 102.293,129.241 101.293,131.574 99.5,133.5C 99.7073,130.759 100.707,128.426 102.5,126.5 Z"/></g>
<g><path style="opacity:1" fill="#eeeeee" d="M 584.5,123.5 C 581.374,129.876 579.041,136.543 577.5,143.5C 577.167,143.5 576.833,143.5 576.5,143.5C 576.647,135.707 579.313,129.041 584.5,123.5 Z"/></g>
<g><path style="opacity:1" fill="#f9f9f9" d="M 99.5,133.5 C 99.162,135.854 98.662,138.187 98,140.5C 97.1772,248.184 97.3439,355.851 98.5,463.5C 97.0735,461.852 96.2401,459.852 96,457.5C 95.8333,443.167 95.6667,428.833 95.5,414.5C 96.789,340.816 96.789,267.316 95.5,194C 95.6667,176.833 95.8333,159.667 96,142.5C 96.2734,140.899 96.7734,139.399 97.5,138C 97.1667,137.667 96.8333,137.333 96.5,137C 97.6364,135.855 98.6364,134.688 99.5,133.5 Z"/></g>
<g><path style="opacity:1" fill="#e6e6e6" d="M 495.5,130.5 C 497.262,133.503 498.428,136.837 499,140.5C 499.333,140.167 499.667,139.833 500,139.5C 501.496,240.829 501.829,342.162 501,443.5C 501.129,449.916 500.295,455.916 498.5,461.5C 498.667,354.833 498.5,248.166 498,141.5C 497.005,137.855 496.172,134.188 495.5,130.5 Z"/></g>
<g><path style="opacity:1" fill="#2c2c2c" d="M 145.5,142.5 C 246.999,141.334 348.666,141.167 450.5,142C 452.32,142.2 453.653,143.034 454.5,144.5C 452.883,143.962 451.216,143.629 449.5,143.5C 441.495,143.269 433.495,142.935 425.5,142.5C 332.167,142.5 238.833,142.5 145.5,142.5 Z"/></g>
<g><path style="opacity:1" fill="#2b2b2b" d="M 935.5,144.5 C 934.041,144.567 932.708,144.234 931.5,143.5C 830.167,142.167 728.833,142.167 627.5,143.5C 626.391,143.557 625.391,143.89 624.5,144.5C 623.833,144.5 623.167,144.5 622.5,144.5C 623.058,143.21 624.058,142.377 625.5,142C 728.167,141.333 830.833,141.333 933.5,142C 934.381,142.708 935.047,143.542 935.5,144.5 Z"/></g>
<g><path style="opacity:1" fill="#f8f8f8" d="M 145.5,142.5 C 238.833,142.5 332.167,142.5 425.5,142.5C 331.64,143.174 237.64,143.84 143.5,144.5C 144.167,143.833 144.833,143.167 145.5,142.5 Z"/></g>
<g><path style="opacity:1" fill="#f8f8f8" d="M 627.5,143.5 C 728.833,142.167 830.167,142.167 931.5,143.5C 830.472,143.504 729.138,143.504 627.5,143.5 Z"/></g>
<g><path style="opacity:1" fill="#585858" d="M 935.5,144.5 C 938.188,145.024 939.688,146.691 940,149.5C 940.833,250.334 940.666,351.001 939.5,451.5C 939.667,351.166 939.5,250.833 939,150.5C 938.768,149.263 938.268,148.263 937.5,147.5C 936.599,146.71 935.932,145.71 935.5,144.5 Z"/></g>
<g><path style="opacity:1" fill="#eeeeee" d="M 976.5,126.5 C 979.129,131.193 981.295,136.193 983,141.5C 983.667,246.833 983.667,352.167 983,457.5C 982.727,459.101 982.227,460.601 981.5,462C 982.712,463.107 982.379,463.607 980.5,463.5C 981.656,356.184 981.823,248.851 981,141.5C 979.59,136.441 978.09,131.441 976.5,126.5 Z"/></g>
<g><path style="opacity:1" fill="#b9b9b9" d="M 937.5,147.5 C 938.268,148.263 938.768,149.263 939,150.5C 939.5,250.833 939.667,351.166 939.5,451.5C 939.737,452.791 939.404,453.791 938.5,454.5C 938.5,452.833 938.5,451.167 938.5,449.5C 937.578,348.153 937.245,247.486 937.5,147.5 Z"/></g>
<g><path style="opacity:1" fill="#7d7d7d" d="M 142.5,145.5 C 141.852,147.086 141.352,148.753 141,150.5C 140.5,250.499 140.333,350.499 140.5,450.5C 140.5,451.833 140.5,453.167 140.5,454.5C 139.732,453.737 139.232,452.737 139,451.5C 138.333,350.833 138.333,250.167 139,149.5C 139.057,147.09 140.224,145.756 142.5,145.5 Z"/></g>
<g><path style="opacity:1" fill="#dbdbdb" d="M 455.5,149.5 C 456.828,251.027 456.828,352.694 455.5,454.5C 454.728,455.694 453.728,456.694 452.5,457.5C 451.5,457.5 450.5,457.5 449.5,457.5C 449.947,454.476 450.78,454.143 452,456.5C 453.943,454.01 455.109,451.177 455.5,448C 455.306,349.737 455.306,250.237 455.5,149.5 Z"/></g>
<g><path style="opacity:1" fill="#7f7f7f" d="M 622.5,144.5 C 623.167,144.5 623.833,144.5 624.5,144.5C 622.34,146.206 621.174,148.54 621,151.5C 620.5,250.499 620.333,349.499 620.5,448.5C 620.167,448.5 619.833,448.5 619.5,448.5C 619.333,348.166 619.5,247.833 620,147.5C 620.377,146.058 621.21,145.058 622.5,144.5 Z"/></g>
<g><path style="opacity:1" fill="#767676" d="M 449.5,143.5 C 451.216,143.629 452.883,143.962 454.5,144.5C 455.687,145.534 456.52,146.867 457,148.5C 457.667,249.833 457.667,351.167 457,452.5C 456.722,453.416 456.222,454.082 455.5,454.5C 456.828,352.694 456.828,251.027 455.5,149.5C 454.36,146.605 452.36,144.605 449.5,143.5 Z"/></g>
<g><path style="opacity:1" fill="#d2d2d2" d="M 576.5,143.5 C 576.833,143.5 577.167,143.5 577.5,143.5C 577.333,248.167 577.5,352.834 578,457.5C 578.837,461.514 579.671,465.514 580.5,469.5C 579.414,469.38 578.747,468.713 578.5,467.5C 577.295,462.665 576.295,457.832 575.5,453C 575.314,346.983 575.648,243.816 576.5,143.5 Z"/></g>
<g><path style="opacity:1" fill="#ebebeb" d="M 619.5,448.5 C 619.833,448.5 620.167,448.5 620.5,448.5C 621.148,450.086 621.648,451.753 622,453.5C 622.667,454.833 623.333,454.833 624,453.5C 624.465,454.931 625.299,456.097 626.5,457C 632.5,457.167 638.5,457.333 644.5,457.5C 735.293,454.873 826.126,454.873 917,457.5C 923.245,457.601 929.411,457.101 935.5,456C 936.731,453.834 937.731,451.667 938.5,449.5C 938.5,451.167 938.5,452.833 938.5,454.5C 937.549,456.118 936.216,457.451 934.5,458.5C 831.168,459.667 727.835,459.833 624.5,459C 620.367,456.694 618.7,453.194 619.5,448.5 Z"/></g>
<g><path style="opacity:1" fill="#f9f9f9" d="M 140.5,450.5 C 141.41,452.019 142.243,453.685 143,455.5C 144.067,456.191 145.234,456.691 146.5,457C 241.001,457.167 335.334,457.667 429.5,458.5C 334.126,458.828 238.793,458.495 143.5,457.5C 142.272,456.694 141.272,455.694 140.5,454.5C 140.5,453.167 140.5,451.833 140.5,450.5 Z"/></g>
<g><path style="opacity:1" fill="#929292" d="M 143.5,457.5 C 238.793,458.495 334.126,458.828 429.5,458.5C 436.123,457.62 442.789,457.287 449.5,457.5C 450.5,457.5 451.5,457.5 452.5,457.5C 452.082,458.222 451.416,458.722 450.5,459C 348.5,459.667 246.5,459.667 144.5,459C 143.944,458.617 143.611,458.117 143.5,457.5 Z"/></g>
<g><path style="opacity:1" fill="#e6e6e6" d="M 498.5,461.5 C 498.741,463.898 498.074,465.898 496.5,467.5C 496.595,465.214 497.262,463.214 498.5,461.5 Z"/></g>
<g><path style="opacity:1" fill="#d4d4d4" d="M 98.5,464.5 C 99.9313,465.78 100.598,467.447 100.5,469.5C 99.0687,468.22 98.4021,466.553 98.5,464.5 Z"/></g>
<g><path style="opacity:1" fill="#dadada" d="M 980.5,464.5 C 980.598,466.553 979.931,468.22 978.5,469.5C 978.402,467.447 979.069,465.78 980.5,464.5 Z"/></g>
<g><path style="opacity:1" fill="#d9d9d9" d="M 495.5,470.5 C 495.771,472.38 495.104,473.713 493.5,474.5C 493.66,472.847 494.326,471.514 495.5,470.5 Z"/></g>
<g><path style="opacity:1" fill="#7d7d7d" d="M 581.5,472.5 C 583.048,472.821 583.715,473.821 583.5,475.5C 582.599,474.71 581.932,473.71 581.5,472.5 Z"/></g>
<g><path style="opacity:1" fill="#858585" d="M 493.5,474.5 C 493.25,476.674 492.25,478.341 490.5,479.5C 490.259,476.966 491.259,475.3 493.5,474.5 Z"/></g>
<g><path style="opacity:1" fill="#8a8a8a" d="M 583.5,476.5 C 585.912,476.694 586.912,478.027 586.5,480.5C 585.026,479.564 584.026,478.23 583.5,476.5 Z"/></g>
<g><path style="opacity:1" fill="#919191" d="M 976.5,474.5 C 975.89,476.434 974.89,478.101 973.5,479.5C 973.241,477.011 974.241,475.344 976.5,474.5 Z"/></g>
<g><path style="opacity:1" fill="#c7c7c7" d="M 586.5,480.5 C 589.102,483.442 591.768,486.442 594.5,489.5C 590.435,487.767 587.768,484.767 586.5,480.5 Z"/></g>
<g><path style="opacity:1" fill="#aaaaaa" d="M 103.5,476.5 C 104.496,476.414 105.329,476.748 106,477.5C 108.315,481.638 111.148,485.305 114.5,488.5C 115.167,489.5 115.833,490.5 116.5,491.5C 110.07,487.778 105.737,482.778 103.5,476.5 Z"/></g>
<g><path style="opacity:1" fill="#c4c4c4" d="M 972.5,480.5 C 970.167,486.167 966.167,490.167 960.5,492.5C 964.864,488.803 968.864,484.803 972.5,480.5 Z"/></g>
<g><path style="opacity:1" fill="#c8c8c8" d="M 490.5,479.5 C 488.558,484.441 485.225,488.108 480.5,490.5C 483.609,486.603 486.943,482.936 490.5,479.5 Z"/></g>
<g><path style="opacity:1" fill="#535353" d="M 114.5,488.5 C 116.833,488.833 118.167,490.167 118.5,492.5C 117.508,492.672 116.842,492.338 116.5,491.5C 115.833,490.5 115.167,489.5 114.5,488.5 Z"/></g>
<g><path style="opacity:1" fill="#6a6a6a" d="M 594.5,489.5 C 597.513,489.581 599.513,490.914 600.5,493.5C 597.802,493.155 595.802,491.822 594.5,489.5 Z"/></g>
<g><path style="opacity:1" fill="#5f5f5f" d="M 118.5,492.5 C 120.989,492.241 122.656,493.241 123.5,495.5C 121.566,494.89 119.899,493.89 118.5,492.5 Z"/></g>
<g><path style="opacity:1" fill="#898989" d="M 477.5,492.5 C 477.027,493.906 476.027,494.573 474.5,494.5C 474.821,492.952 475.821,492.285 477.5,492.5 Z"/></g>
<g><path style="opacity:1" fill="#e5e5e5" d="M 600.5,493.5 C 601.71,493.932 602.71,494.599 603.5,495.5C 602.504,495.414 601.671,495.748 601,496.5C 600.517,495.552 600.351,494.552 600.5,493.5 Z"/></g>
<g><path style="opacity:1" fill="#575757" d="M 603.5,495.5 C 605.781,495.077 607.448,495.744 608.5,497.5C 608.167,497.5 607.833,497.5 607.5,497.5C 605.847,497.34 604.514,496.674 603.5,495.5 Z"/></g>
<g><path style="opacity:1" fill="#dbdbdb" d="M 957.5,494.5 C 956.713,496.104 955.38,496.771 953.5,496.5C 954.514,495.326 955.847,494.66 957.5,494.5 Z"/></g>
<g><path style="opacity:1" fill="#e6e6e6" d="M 951.5,497.5 C 951.842,496.662 952.508,496.328 953.5,496.5C 953.591,498.698 952.925,499.031 951.5,497.5 Z"/></g>
<g><path style="opacity:1" fill="#f2f2f2" d="M 125.5,496.5 C 129.987,498.44 134.654,499.773 139.5,500.5C 140.833,501.167 142.167,501.833 143.5,502.5C 138.763,502.119 134.096,501.286 129.5,500C 127.907,499.051 126.574,497.885 125.5,496.5 Z"/></g>
<g><path style="opacity:1" fill="#f2f2f2" d="M 607.5,497.5 C 607.833,497.5 608.167,497.5 608.5,497.5C 612.024,498.965 615.691,499.965 619.5,500.5C 620.833,501.167 622.167,501.833 623.5,502.5C 618.789,501.99 614.122,501.156 609.5,500C 608.619,499.292 607.953,498.458 607.5,497.5 Z"/></g>
<g><path style="opacity:1" fill="#8b8b8b" d="M 139.5,500.5 C 233.151,501.485 326.818,501.819 420.5,501.5C 420.5,501.833 420.5,502.167 420.5,502.5C 328.017,502.578 235.683,502.578 143.5,502.5C 142.167,501.833 140.833,501.167 139.5,500.5 Z"/></g>
<g><path style="opacity:1" fill="#bbbbbb" d="M 471.5,496.5 C 467.248,499.994 462.248,501.827 456.5,502C 446.256,502.179 436.09,502.679 426,503.5C 424.301,502.594 422.467,502.261 420.5,502.5C 420.5,502.167 420.5,501.833 420.5,501.5C 431.172,501.667 441.839,501.5 452.5,501C 459.049,500.279 465.382,498.779 471.5,496.5 Z"/></g>
<g><path style="opacity:1" fill="#a3a3a3" d="M 951.5,497.5 C 950.493,498.828 949.16,499.828 947.5,500.5C 943.723,501.122 940.056,502.122 936.5,503.5C 832.207,502.502 727.874,502.169 623.5,502.5C 622.167,501.833 620.833,501.167 619.5,500.5C 724.819,501.654 830.152,501.82 935.5,501C 940.966,500.274 946.299,499.108 951.5,497.5 Z"/></g>
<g><path style="opacity:1" fill="#e1e1e1" d="M 954.5,582.5 C 948.596,580.7 942.596,579.2 936.5,578C 670.833,577.333 405.167,577.333 139.5,578C 136.176,578.943 132.843,579.776 129.5,580.5C 129.881,579.069 130.881,578.236 132.5,578C 137.123,577.042 141.79,576.375 146.5,576C 408.5,575.333 670.5,575.333 932.5,576C 940.757,575.604 948.09,577.771 954.5,582.5 Z"/></g>
<g><path style="opacity:1" fill="#030303" d="M 954.5,582.5 C 955.659,584.25 957.326,585.25 959.5,585.5C 962.446,589.112 965.779,592.446 969.5,595.5C 973.965,602.098 977.632,609.098 980.5,616.5C 981.825,724.808 981.825,833.141 980.5,941.5C 978.926,943.102 978.259,945.102 978.5,947.5C 976.992,949.181 975.992,951.181 975.5,953.5C 975.672,954.492 975.338,955.158 974.5,955.5C 970.98,959.28 967.314,963.113 963.5,967C 961.33,968.586 958.996,969.92 956.5,971C 955.748,971.671 955.414,972.504 955.5,973.5C 953.219,973.077 951.552,973.744 950.5,975.5C 946.953,977.808 942.953,978.975 938.5,979C 672.167,979.667 405.833,979.667 139.5,979C 137.414,978.685 135.414,978.185 133.5,977.5C 132.365,975.787 130.698,975.12 128.5,975.5C 127.365,973.787 125.698,973.12 123.5,973.5C 122.288,970.893 120.288,969.226 117.5,968.5C 113.787,965.116 110.121,961.783 106.5,958.5C 106.573,956.973 105.906,955.973 104.5,955.5C 102.659,953.151 101.326,950.485 100.5,947.5C 100.59,944.848 99.9238,942.515 98.5,940.5C 97.3461,833.181 97.1794,725.848 98,618.5C 99.2022,616.323 99.7022,613.989 99.5,611.5C 102.564,608.038 104.564,604.038 105.5,599.5C 109.758,594.575 114.425,589.908 119.5,585.5C 119.842,584.662 120.508,584.328 121.5,584.5C 123.027,584.573 124.027,583.906 124.5,582.5C 126.553,582.598 128.22,581.931 129.5,580.5C 132.843,579.776 136.176,578.943 139.5,578C 405.167,577.333 670.833,577.333 936.5,578C 942.596,579.2 948.596,580.7 954.5,582.5 Z M 154.5,620.5 C 330.012,620.508 505.679,620.508 681.5,620.5C 764.374,620.522 847.708,620.522 931.5,620.5C 933.355,621.69 935.188,623.023 937,624.5C 937.218,627.426 937.718,630.26 938.5,633C 937.459,722.593 937.459,812.426 938.5,902.5C 937.67,911.658 937.17,920.991 937,930.5C 936.632,931.91 935.799,932.91 934.5,933.5C 882.738,933.629 831.571,933.629 781,933.5C 780.536,934.094 780.369,934.761 780.5,935.5C 778.473,935.662 776.473,935.495 774.5,935C 767.025,926.433 760.191,916.599 754,905.5C 750.969,901.313 747.803,897.313 744.5,893.5C 744.573,891.973 743.906,890.973 742.5,890.5C 742.573,888.973 741.906,887.973 740.5,887.5C 738.409,882.9 736.076,878.4 733.5,874C 731.591,871.624 729.591,869.458 727.5,867.5C 726.617,864.296 724.95,861.629 722.5,859.5C 722.573,857.973 721.906,856.973 720.5,856.5C 717.7,849.7 713.7,843.7 708.5,838.5C 708.573,836.973 707.906,835.973 706.5,835.5C 706.573,833.973 705.906,832.973 704.5,832.5C 699.666,822.35 693.666,813.016 686.5,804.5C 686.25,802.326 685.25,800.659 683.5,799.5C 683.573,797.973 682.906,796.973 681.5,796.5C 679.725,790.404 676.391,785.404 671.5,781.5C 671.573,779.973 670.906,778.973 669.5,778.5C 670.491,776.877 669.824,775.877 667.5,775.5C 666.921,772.669 665.588,770.336 663.5,768.5C 659.143,759.767 653.809,751.767 647.5,744.5C 643.729,735.938 638.729,728.271 632.5,721.5C 632.573,719.973 631.906,718.973 630.5,718.5C 630.573,716.973 629.906,715.973 628.5,715.5C 624.72,707.278 620.386,699.278 615.5,691.5C 613.599,689.994 611.932,688.327 610.5,686.5C 609.416,683.996 608.083,681.663 606.5,679.5C 605.954,675.93 604.12,673.264 601,671.5C 596.816,675.859 593.65,680.859 591.5,686.5C 587.565,689.111 585.231,692.777 584.5,697.5C 578.082,704.772 572.582,712.772 568,721.5C 558.489,733.861 549.989,746.861 542.5,760.5C 540.45,762.237 538.617,764.237 537,766.5C 533.883,771.417 531.049,776.417 528.5,781.5C 527.094,781.973 526.427,782.973 526.5,784.5C 518.964,793.371 512.631,803.038 507.5,813.5C 506.094,813.973 505.427,814.973 505.5,816.5C 500.002,822.005 495.669,828.338 492.5,835.5C 490.674,837.147 489.34,839.147 488.5,841.5C 486.022,843.123 483.855,845.123 482,847.5C 474.722,842.778 467.222,838.445 459.5,834.5C 451.637,827.643 442.971,821.977 433.5,817.5C 426.231,811.085 418.231,805.585 409.5,801C 406.961,796.994 403.794,796.494 400,799.5C 397.295,803.577 395.128,807.91 393.5,812.5C 390.739,813.593 389.073,815.593 388.5,818.5C 386.537,819.96 384.704,821.627 383,823.5C 370.716,840.119 358.049,856.453 345,872.5C 343.144,875.556 341.311,878.556 339.5,881.5C 338.357,881.908 337.357,882.575 336.5,883.5C 334.555,886.393 332.889,889.393 331.5,892.5C 323.98,899.015 317.98,906.681 313.5,915.5C 312.504,915.414 311.671,915.748 311,916.5C 306.372,922.811 301.538,928.811 296.5,934.5C 284.852,935.499 273.186,935.832 261.5,935.5C 234.098,934.829 206.598,934.163 179,933.5C 170.51,934.685 162.177,934.685 154,933.5C 153.536,934.094 153.369,934.761 153.5,935.5C 151.534,934.2 149.368,933.2 147,932.5C 145.838,933.187 144.672,933.353 143.5,933C 142.131,931.281 141.131,929.448 140.5,927.5C 140.333,828.166 140.5,728.833 141,629.5C 140.879,626.079 142.212,623.412 145,621.5C 146.587,622.727 147.921,622.394 149,620.5C 150.626,620.854 152.459,620.854 154.5,620.5 Z M 601.5,753.5 C 602.079,756.331 603.412,758.664 605.5,760.5C 608.496,765.349 611.33,770.349 614,775.5C 615.617,777.763 617.45,779.763 619.5,781.5C 620.026,783.23 621.026,784.564 622.5,785.5C 624,789.173 626,792.506 628.5,795.5C 629.669,798.511 631.336,801.178 633.5,803.5C 634.874,807.609 637.208,810.943 640.5,813.5C 640.328,814.492 640.662,815.158 641.5,815.5C 642.026,817.23 643.026,818.564 644.5,819.5C 644.5,819.833 644.5,820.167 644.5,820.5C 647.756,825.755 650.923,831.088 654,836.5C 654.759,838.063 655.926,839.063 657.5,839.5C 657.932,840.71 658.599,841.71 659.5,842.5C 658.326,844.368 658.993,845.368 661.5,845.5C 661.733,847.062 662.4,848.395 663.5,849.5C 663.427,851.027 664.094,852.027 665.5,852.5C 666.669,855.511 668.336,858.178 670.5,860.5C 671.874,864.609 674.208,867.943 677.5,870.5C 677.427,872.027 678.094,873.027 679.5,873.5C 682.642,879.112 685.809,884.779 689,890.5C 691.042,893.94 693.542,896.94 696.5,899.5C 697.11,901.434 698.11,903.101 699.5,904.5C 699.953,906.565 700.953,908.232 702.5,909.5C 706.442,917.071 711.109,924.071 716.5,930.5C 715.77,931.712 714.77,932.712 713.5,933.5C 714.025,934.192 714.692,934.692 715.5,935C 707.841,935.5 700.174,935.666 692.5,935.5C 589.764,934.832 486.931,934.166 384,933.5C 376.155,934.373 368.322,934.707 360.5,934.5C 359.155,933.653 358.155,932.487 357.5,931C 358.758,929.259 359.758,927.426 360.5,925.5C 367.604,919.298 373.271,911.964 377.5,903.5C 378.167,903.5 378.5,903.167 378.5,902.5C 379.906,902.027 380.573,901.027 380.5,899.5C 381.167,899.5 381.5,899.167 381.5,898.5C 386.976,893.692 391.31,888.026 394.5,881.5C 396.587,880.415 397.92,878.749 398.5,876.5C 403.179,871.982 407.346,866.982 411,861.5C 412.264,859.393 414.097,858.393 416.5,858.5C 416.973,859.906 417.973,860.573 419.5,860.5C 419.842,861.338 420.508,861.672 421.5,861.5C 422.802,863.822 424.802,865.155 427.5,865.5C 431.355,869.675 436.022,872.675 441.5,874.5C 441.973,875.906 442.973,876.573 444.5,876.5C 445.899,877.89 447.566,878.89 449.5,879.5C 449.973,880.906 450.973,881.573 452.5,881.5C 452.821,883.048 453.821,883.715 455.5,883.5C 456.035,885.446 457.368,886.446 459.5,886.5C 462.125,889.815 465.458,892.149 469.5,893.5C 469.842,894.338 470.508,894.672 471.5,894.5C 471.973,895.906 472.973,896.573 474.5,896.5C 474.973,897.906 475.973,898.573 477.5,898.5C 478.708,901.044 480.708,902.378 483.5,902.5C 485.902,905.215 488.568,907.715 491.5,910C 492.759,910.982 494.092,911.315 495.5,911C 501.815,902.196 507.482,893.03 512.5,883.5C 513.906,883.027 514.573,882.027 514.5,880.5C 515.167,880.5 515.5,880.167 515.5,879.5C 522.277,871.049 528.277,862.049 533.5,852.5C 540.003,845.321 545.336,837.321 549.5,828.5C 550.906,828.027 551.573,827.027 551.5,825.5C 552.338,825.158 552.672,824.492 552.5,823.5C 553.906,823.027 554.573,822.027 554.5,820.5C 555.906,820.027 556.573,819.027 556.5,817.5C 557.496,817.586 558.329,817.252 559,816.5C 563.523,808.778 568.023,801.112 572.5,793.5C 573.906,793.027 574.573,792.027 574.5,790.5C 575.496,790.586 576.329,790.252 577,789.5C 579.51,785.144 582.01,780.811 584.5,776.5C 586.653,774.206 588.32,771.54 589.5,768.5C 590.401,767.71 591.068,766.71 591.5,765.5C 592.906,765.027 593.573,764.027 593.5,762.5C 596.401,759.688 599.068,756.688 601.5,753.5 Z"/></g>
<g><path style="opacity:1" fill="#e5e5e5" d="M 129.5,580.5 C 128.22,581.931 126.553,582.598 124.5,582.5C 125.78,581.069 127.447,580.402 129.5,580.5 Z"/></g>
<g><path style="opacity:1" fill="#c0c0c0" d="M 124.5,582.5 C 124.027,583.906 123.027,584.573 121.5,584.5C 121.973,583.094 122.973,582.427 124.5,582.5 Z"/></g>
<g><path style="opacity:1" fill="#e3e3e3" d="M 954.5,582.5 C 956.674,582.75 958.341,583.75 959.5,585.5C 957.326,585.25 955.659,584.25 954.5,582.5 Z"/></g>
<g><path style="opacity:1" fill="#bfbfbf" d="M 119.5,585.5 C 114.425,589.908 109.758,594.575 105.5,599.5C 108.5,593.167 113.167,588.5 119.5,585.5 Z"/></g>
<g><path style="opacity:1" fill="#c3c3c3" d="M 959.5,585.5 C 965.372,587.919 969.705,591.919 972.5,597.5C 971.5,596.833 970.5,596.167 969.5,595.5C 965.779,592.446 962.446,589.112 959.5,585.5 Z"/></g>
<g><path style="opacity:1" fill="#828282" d="M 969.5,595.5 C 970.5,596.167 971.5,596.833 972.5,597.5C 976.485,602.473 979.152,608.14 980.5,614.5C 980.5,615.167 980.5,615.833 980.5,616.5C 977.632,609.098 973.965,602.098 969.5,595.5 Z"/></g>
<g><path style="opacity:1" fill="#7f7f7f" d="M 105.5,599.5 C 104.564,604.038 102.564,608.038 99.5,611.5C 100.46,606.914 102.46,602.914 105.5,599.5 Z"/></g>
<g><path style="opacity:1" fill="#f8f8f8" d="M 99.5,611.5 C 99.7022,613.989 99.2022,616.323 98,618.5C 97.1794,725.848 97.3461,833.181 98.5,940.5C 97.8826,940.389 97.3826,940.056 97,939.5C 96.6667,936.833 96.3333,934.167 96,931.5C 96.5741,843.429 96.4074,755.596 95.5,668C 95.6667,652.5 95.8333,637 96,621.5C 96.3726,617.782 97.5392,614.449 99.5,611.5 Z"/></g>
<g><path style="opacity:1" fill="#f3f3f3" d="M 980.5,614.5 C 981.117,614.611 981.617,614.944 982,615.5C 982.333,617.5 982.667,619.5 983,621.5C 983.667,726.167 983.667,830.833 983,935.5C 982.76,937.852 981.927,939.852 980.5,941.5C 981.825,833.141 981.825,724.808 980.5,616.5C 980.5,615.833 980.5,615.167 980.5,614.5 Z"/></g>
<g><path style="opacity:1" fill="#454545" d="M 154.5,619.5 C 330.167,619.5 505.833,619.5 681.5,619.5C 681.5,619.833 681.5,620.167 681.5,620.5C 505.679,620.508 330.012,620.508 154.5,620.5C 154.5,620.167 154.5,619.833 154.5,619.5 Z"/></g>
<g><path style="opacity:1" fill="#5a5a5a" d="M 681.5,619.5 C 765.668,619.167 849.668,619.501 933.5,620.5C 932.833,620.5 932.167,620.5 931.5,620.5C 847.708,620.522 764.374,620.522 681.5,620.5C 681.5,620.167 681.5,619.833 681.5,619.5 Z"/></g>
<g><path style="opacity:1" fill="#818181" d="M 154.5,619.5 C 154.5,619.833 154.5,620.167 154.5,620.5C 152.459,620.854 150.626,620.854 149,620.5C 147.921,622.394 146.587,622.727 145,621.5C 142.212,623.412 140.879,626.079 141,629.5C 140.5,728.833 140.333,828.166 140.5,927.5C 140.5,928.833 140.5,930.167 140.5,931.5C 139.732,930.737 139.232,929.737 139,928.5C 138.333,827.833 138.333,727.167 139,626.5C 142.137,620.033 147.304,617.7 154.5,619.5 Z"/></g>
<g><path style="opacity:1" fill="#a5a5a5" d="M 931.5,620.5 C 932.167,620.5 932.833,620.5 933.5,620.5C 936.449,621.614 938.615,623.614 940,626.5C 940.667,727.167 940.667,827.833 940,928.5C 939.768,929.737 939.268,930.737 938.5,931.5C 938.5,921.833 938.5,912.167 938.5,902.5C 937.459,812.426 937.459,722.593 938.5,633C 937.718,630.26 937.218,627.426 937,624.5C 935.188,623.023 933.355,621.69 931.5,620.5 Z"/></g>
<g><path style="opacity:1" fill="#ebebeb" d="M 606.5,679.5 C 605.833,679.167 605.167,678.833 604.5,678.5C 603.521,677.235 602.521,675.901 601.5,674.5C 601.167,674.667 600.833,674.833 600.5,675C 598.018,679.307 595.018,683.14 591.5,686.5C 593.65,680.859 596.816,675.859 601,671.5C 604.12,673.264 605.954,675.93 606.5,679.5 Z"/></g>
<g><path style="opacity:1" fill="#d6d6d6" d="M 360.5,682.5 C 350.833,678.5 341.167,678.5 331.5,682.5C 332.975,680.59 334.975,679.424 337.5,679C 344.556,678.212 351.556,678.545 358.5,680C 359.381,680.708 360.047,681.542 360.5,682.5 Z"/></g>
<g><path style="opacity:1" fill="#030303" d="M 360.5,682.5 C 360.833,682.5 361.167,682.5 361.5,682.5C 363.082,685.588 365.248,688.254 368,690.5C 372.123,696.955 373.456,703.955 372,711.5C 370.113,716.342 367.947,721.008 365.5,725.5C 363.596,725.738 362.262,726.738 361.5,728.5C 351.139,733.782 340.806,733.782 330.5,728.5C 325.993,724.825 322.993,720.158 321.5,714.5C 320.593,708.894 320.26,703.227 320.5,697.5C 322.686,691.328 326.353,686.328 331.5,682.5C 341.167,678.5 350.833,678.5 360.5,682.5 Z"/></g>
<g><path style="opacity:1" fill="#a1a1a1" d="M 604.5,678.5 C 605.167,678.833 605.833,679.167 606.5,679.5C 608.083,681.663 609.416,683.996 610.5,686.5C 607.542,684.597 605.542,681.93 604.5,678.5 Z"/></g>
<g><path style="opacity:1" fill="#c8c8c8" d="M 331.5,682.5 C 326.353,686.328 322.686,691.328 320.5,697.5C 320.167,697.5 319.833,697.5 319.5,697.5C 320.9,690.341 324.9,685.341 331.5,682.5 Z"/></g>
<g><path style="opacity:1" fill="#ebebeb" d="M 591.5,686.5 C 589.913,690.683 587.579,694.35 584.5,697.5C 585.231,692.777 587.565,689.111 591.5,686.5 Z"/></g>
<g><path style="opacity:1" fill="#dddddd" d="M 610.5,686.5 C 611.932,688.327 613.599,689.994 615.5,691.5C 620.386,699.278 624.72,707.278 628.5,715.5C 627.236,713.73 625.736,712.063 624,710.5C 619.277,702.614 614.777,694.614 610.5,686.5 Z"/></g>
<g><path style="opacity:1" fill="#444444" d="M 319.5,697.5 C 319.833,697.5 320.167,697.5 320.5,697.5C 320.26,703.227 320.593,708.894 321.5,714.5C 320.833,714.167 320.167,713.833 319.5,713.5C 319.5,708.5 319.5,703.5 319.5,698.5C 319.5,698.167 319.5,697.833 319.5,697.5 Z"/></g>
<g><path style="opacity:1" fill="#acacac" d="M 319.5,698.5 C 319.5,703.5 319.5,708.5 319.5,713.5C 318.784,711.444 318.117,709.277 317.5,707C 318.833,705 318.833,703 317.5,701C 318.066,700.005 318.733,699.172 319.5,698.5 Z"/></g>
<g><path style="opacity:1" fill="#b3b3b3" d="M 361.5,682.5 C 370.203,687.561 374.536,695.227 374.5,705.5C 374.114,709.596 373.281,713.596 372,717.5C 370.672,720.981 368.505,723.648 365.5,725.5C 367.947,721.008 370.113,716.342 372,711.5C 373.456,703.955 372.123,696.955 368,690.5C 365.248,688.254 363.082,685.588 361.5,682.5 Z"/></g>
<g><path style="opacity:1" fill="#e0e0e0" d="M 628.5,715.5 C 629.906,715.973 630.573,716.973 630.5,718.5C 629.094,718.027 628.427,717.027 628.5,715.5 Z"/></g>
<g><path style="opacity:1" fill="#eaeaea" d="M 630.5,718.5 C 631.906,718.973 632.573,719.973 632.5,721.5C 631.094,721.027 630.427,720.027 630.5,718.5 Z"/></g>
<g><path style="opacity:1" fill="#c8c8c8" d="M 632.5,721.5 C 638.729,728.271 643.729,735.938 647.5,744.5C 641.392,737.692 636.392,730.026 632.5,721.5 Z"/></g>
<g><path style="opacity:1" fill="#d0d0d0" d="M 319.5,713.5 C 320.167,713.833 320.833,714.167 321.5,714.5C 322.993,720.158 325.993,724.825 330.5,728.5C 328.264,727.611 326.264,726.278 324.5,724.5C 322.01,721.188 320.343,717.522 319.5,713.5 Z"/></g>
<g><path style="opacity:1" fill="#ececec" d="M 365.5,725.5 C 364.738,727.262 363.404,728.262 361.5,728.5C 362.262,726.738 363.596,725.738 365.5,725.5 Z"/></g>
<g><path style="opacity:1" fill="#ebebeb" d="M 330.5,728.5 C 340.806,733.782 351.139,733.782 361.5,728.5C 361.586,729.496 361.252,730.329 360.5,731C 357,732.167 353.5,733.333 350,734.5C 345.334,734.98 340.5,734.314 335.5,732.5C 333.501,731.492 331.834,730.159 330.5,728.5 Z"/></g>
<g><path style="opacity:1" fill="#d0d0d0" d="M 584.5,697.5 C 574.676,713.143 564.842,728.81 555,744.5C 550.572,749.721 546.405,755.055 542.5,760.5C 549.989,746.861 558.489,733.861 568,721.5C 572.582,712.772 578.082,704.772 584.5,697.5 Z"/></g>
<g><path style="opacity:1" fill="#dfdfdf" d="M 647.5,744.5 C 653.809,751.767 659.143,759.767 663.5,768.5C 662.833,768.167 662.167,767.833 661.5,767.5C 656.083,760.341 651.417,752.675 647.5,744.5 Z"/></g>
<g><path style="opacity:1" fill="#d8d8d8" d="M 601.5,753.5 C 599.068,756.688 596.401,759.688 593.5,762.5C 594.63,758.043 596.964,754.376 600.5,751.5C 601.298,751.957 601.631,752.624 601.5,753.5 Z"/></g>
<g><path style="opacity:1" fill="#eaeaea" d="M 601.5,753.5 C 603.074,754.984 604.407,756.651 605.5,758.5C 605.5,759.167 605.5,759.833 605.5,760.5C 603.412,758.664 602.079,756.331 601.5,753.5 Z"/></g>
<g><path style="opacity:1" fill="#ebebeb" d="M 593.5,762.5 C 593.573,764.027 592.906,765.027 591.5,765.5C 591.427,763.973 592.094,762.973 593.5,762.5 Z"/></g>
<g><path style="opacity:1" fill="#d1d1d1" d="M 542.5,760.5 C 538.602,768.055 533.935,775.055 528.5,781.5C 531.049,776.417 533.883,771.417 537,766.5C 538.617,764.237 540.45,762.237 542.5,760.5 Z"/></g>
<g><path style="opacity:1" fill="#ababab" d="M 605.5,758.5 C 610.917,765.659 615.583,773.325 619.5,781.5C 617.45,779.763 615.617,777.763 614,775.5C 611.33,770.349 608.496,765.349 605.5,760.5C 605.5,759.833 605.5,759.167 605.5,758.5 Z"/></g>
<g><path style="opacity:1" fill="#777777" d="M 661.5,767.5 C 662.167,767.833 662.833,768.167 663.5,768.5C 665.588,770.336 666.921,772.669 667.5,775.5C 667.5,776.167 667.5,776.833 667.5,777.5C 665,774.506 663,771.173 661.5,767.5 Z"/></g>
<g><path style="opacity:1" fill="#898989" d="M 589.5,768.5 C 588.32,771.54 586.653,774.206 584.5,776.5C 583.833,776.833 583.167,777.167 582.5,777.5C 583.781,773.567 586.114,770.567 589.5,768.5 Z"/></g>
<g><path style="opacity:1" fill="#e6e6e6" d="M 667.5,775.5 C 669.824,775.877 670.491,776.877 669.5,778.5C 668.833,778.167 668.167,777.833 667.5,777.5C 667.5,776.833 667.5,776.167 667.5,775.5 Z"/></g>
<g><path style="opacity:1" fill="#e8e8e8" d="M 669.5,778.5 C 670.906,778.973 671.573,779.973 671.5,781.5C 670.094,781.027 669.427,780.027 669.5,778.5 Z"/></g>
<g><path style="opacity:1" fill="#979797" d="M 619.5,781.5 C 621.446,782.035 622.446,783.368 622.5,785.5C 621.026,784.564 620.026,783.23 619.5,781.5 Z"/></g>
<g><path style="opacity:1" fill="#e1e1e1" d="M 584.5,776.5 C 582.01,780.811 579.51,785.144 577,789.5C 576.329,790.252 575.496,790.586 574.5,790.5C 576.905,786.027 579.571,781.694 582.5,777.5C 583.167,777.167 583.833,776.833 584.5,776.5 Z"/></g>
<g><path style="opacity:1" fill="#d6d6d6" d="M 528.5,781.5 C 528.573,783.027 527.906,784.027 526.5,784.5C 526.427,782.973 527.094,781.973 528.5,781.5 Z"/></g>
<g><path style="opacity:1" fill="#7f7f7f" d="M 622.5,785.5 C 626.029,787.888 628.029,791.221 628.5,795.5C 626,792.506 624,789.173 622.5,785.5 Z"/></g>
<g><path style="opacity:1" fill="#dbdbdb" d="M 671.5,781.5 C 676.391,785.404 679.725,790.404 681.5,796.5C 676.929,792.369 673.596,787.369 671.5,781.5 Z"/></g>
<g><path style="opacity:1" fill="#d9d9d9" d="M 574.5,790.5 C 574.573,792.027 573.906,793.027 572.5,793.5C 572.427,791.973 573.094,790.973 574.5,790.5 Z"/></g>
<g><path style="opacity:1" fill="#a4a4a4" d="M 628.5,795.5 C 629.496,795.414 630.329,795.748 631,796.5C 632.18,798.86 633.347,801.193 634.5,803.5C 634.167,803.5 633.833,803.5 633.5,803.5C 631.336,801.178 629.669,798.511 628.5,795.5 Z"/></g>
<g><path style="opacity:1" fill="#cbcbcb" d="M 433.5,817.5 C 422.978,811.976 412.978,805.642 403.5,798.5C 401.333,802.167 399.167,805.833 397,809.5C 396.241,811.063 395.074,812.063 393.5,812.5C 395.128,807.91 397.295,803.577 400,799.5C 403.794,796.494 406.961,796.994 409.5,801C 418.231,805.585 426.231,811.085 433.5,817.5 Z"/></g>
<g><path style="opacity:1" fill="#eaeaea" d="M 681.5,796.5 C 682.906,796.973 683.573,797.973 683.5,799.5C 682.094,799.027 681.427,798.027 681.5,796.5 Z"/></g>
<g><path style="opacity:1" fill="#c7c7c7" d="M 526.5,784.5 C 523.348,791.461 519.182,797.794 514,803.5C 513.083,807.674 510.916,811.007 507.5,813.5C 512.631,803.038 518.964,793.371 526.5,784.5 Z"/></g>
<g><path style="opacity:1" fill="#8f8f8f" d="M 683.5,799.5 C 685.25,800.659 686.25,802.326 686.5,804.5C 686.5,805.167 686.5,805.833 686.5,806.5C 684.182,804.815 683.182,802.481 683.5,799.5 Z"/></g>
<g><path style="opacity:1" fill="#bebebe" d="M 572.5,793.5 C 568.023,801.112 563.523,808.778 559,816.5C 558.329,817.252 557.496,817.586 556.5,817.5C 560.844,808.804 566.177,800.804 572.5,793.5 Z"/></g>
<g><path style="opacity:1" fill="#ededed" d="M 633.5,803.5 C 633.833,803.5 634.167,803.5 634.5,803.5C 636.925,806.589 638.925,809.922 640.5,813.5C 637.208,810.943 634.874,807.609 633.5,803.5 Z"/></g>
<g><path style="opacity:1" fill="#d8d8d8" d="M 686.5,804.5 C 693.666,813.016 699.666,822.35 704.5,832.5C 700.708,828.949 697.874,824.615 696,819.5C 692.812,815.099 689.645,810.766 686.5,806.5C 686.5,805.833 686.5,805.167 686.5,804.5 Z"/></g>
<g><path style="opacity:1" fill="#d8d8d8" d="M 393.5,812.5 C 392.581,815.089 390.914,817.089 388.5,818.5C 389.073,815.593 390.739,813.593 393.5,812.5 Z"/></g>
<g><path style="opacity:1" fill="#b8b8b8" d="M 507.5,813.5 C 507.573,815.027 506.906,816.027 505.5,816.5C 505.427,814.973 506.094,813.973 507.5,813.5 Z"/></g>
<g><path style="opacity:1" fill="#999999" d="M 641.5,815.5 C 643.446,816.035 644.446,817.368 644.5,819.5C 643.026,818.564 642.026,817.23 641.5,815.5 Z"/></g>
<g><path style="opacity:1" fill="#cfcfcf" d="M 554.5,820.5 C 554.573,822.027 553.906,823.027 552.5,823.5C 552.427,821.973 553.094,820.973 554.5,820.5 Z"/></g>
<g><path style="opacity:1" fill="#d2d2d2" d="M 433.5,817.5 C 442.971,821.977 451.637,827.643 459.5,834.5C 452.725,830.943 446.058,827.11 439.5,823C 437.004,821.669 435.004,819.836 433.5,817.5 Z"/></g>
<g><path style="opacity:1" fill="#e5e5e5" d="M 551.5,825.5 C 551.573,827.027 550.906,828.027 549.5,828.5C 549.427,826.973 550.094,825.973 551.5,825.5 Z"/></g>
<g><path style="opacity:1" fill="#c6c6c6" d="M 505.5,816.5 C 501.905,823.362 497.572,829.696 492.5,835.5C 495.669,828.338 500.002,822.005 505.5,816.5 Z"/></g>
<g><path style="opacity:1" fill="#b4b4b4" d="M 644.5,820.5 C 645.496,820.414 646.329,820.748 647,821.5C 650.776,827.391 654.276,833.391 657.5,839.5C 655.926,839.063 654.759,838.063 654,836.5C 650.923,831.088 647.756,825.755 644.5,820.5 Z"/></g>
<g><path style="opacity:1" fill="#c8c8c8" d="M 704.5,832.5 C 705.906,832.973 706.573,833.973 706.5,835.5C 705.094,835.027 704.427,834.027 704.5,832.5 Z"/></g>
<g><path style="opacity:1" fill="#c2c2c2" d="M 492.5,835.5 C 492.155,838.198 490.822,840.198 488.5,841.5C 489.34,839.147 490.674,837.147 492.5,835.5 Z"/></g>
<g><path style="opacity:1" fill="#d3d3d3" d="M 706.5,835.5 C 707.906,835.973 708.573,836.973 708.5,838.5C 707.094,838.027 706.427,837.027 706.5,835.5 Z"/></g>
<g><path style="opacity:1" fill="#dcdcdc" d="M 708.5,838.5 C 713.7,843.7 717.7,849.7 720.5,856.5C 718.164,854.996 716.331,852.996 715,850.5C 712.554,846.606 710.388,842.606 708.5,838.5 Z"/></g>
<g><path style="opacity:1" fill="#e1e1e1" d="M 459.5,834.5 C 467.222,838.445 474.722,842.778 482,847.5C 483.855,845.123 486.022,843.123 488.5,841.5C 487.252,844.996 485.252,847.996 482.5,850.5C 474.243,845.884 466.577,840.55 459.5,834.5 Z"/></g>
<g><path style="opacity:1" fill="#eeeeee" d="M 659.5,842.5 C 660.401,843.29 661.068,844.29 661.5,845.5C 658.993,845.368 658.326,844.368 659.5,842.5 Z"/></g>
<g><path style="opacity:1" fill="#d4d4d4" d="M 549.5,828.5 C 545.336,837.321 540.003,845.321 533.5,852.5C 537.977,844.888 542.477,837.222 547,829.5C 547.671,828.748 548.504,828.414 549.5,828.5 Z"/></g>
<g><path style="opacity:1" fill="#e6e6e6" d="M 663.5,849.5 C 664.906,849.973 665.573,850.973 665.5,852.5C 664.094,852.027 663.427,851.027 663.5,849.5 Z"/></g>
<g><path style="opacity:1" fill="#9b9b9b" d="M 665.5,852.5 C 666.496,852.414 667.329,852.748 668,853.5C 669.18,855.86 670.347,858.193 671.5,860.5C 671.167,860.5 670.833,860.5 670.5,860.5C 668.336,858.178 666.669,855.511 665.5,852.5 Z"/></g>
<g><path style="opacity:1" fill="#e8e8e8" d="M 720.5,856.5 C 721.906,856.973 722.573,857.973 722.5,859.5C 721.094,859.027 720.427,858.027 720.5,856.5 Z"/></g>
<g><path style="opacity:1" fill="#d9d9d9" d="M 416.5,858.5 C 418.027,858.427 419.027,859.094 419.5,860.5C 417.973,860.573 416.973,859.906 416.5,858.5 Z"/></g>
<g><path style="opacity:1" fill="#e9e9e9" d="M 722.5,859.5 C 724.95,861.629 726.617,864.296 727.5,867.5C 725.05,865.371 723.383,862.704 722.5,859.5 Z"/></g>
<g><path style="opacity:1" fill="#d1d1d1" d="M 388.5,818.5 C 373.306,840.364 356.973,861.364 339.5,881.5C 341.311,878.556 343.144,875.556 345,872.5C 358.049,856.453 370.716,840.119 383,823.5C 384.704,821.627 386.537,819.96 388.5,818.5 Z"/></g>
<g><path style="opacity:1" fill="#e7e7e7" d="M 421.5,861.5 C 423.853,862.34 425.853,863.674 427.5,865.5C 424.802,865.155 422.802,863.822 421.5,861.5 Z"/></g>
<g><path style="opacity:1" fill="#e8e8e8" d="M 670.5,860.5 C 670.833,860.5 671.167,860.5 671.5,860.5C 673.89,863.566 675.89,866.9 677.5,870.5C 674.208,867.943 671.874,864.609 670.5,860.5 Z"/></g>
<g><path style="opacity:1" fill="#cacaca" d="M 533.5,852.5 C 528.277,862.049 522.277,871.049 515.5,879.5C 518.724,873.391 522.224,867.391 526,861.5C 528.042,858.06 530.542,855.06 533.5,852.5 Z"/></g>
<g><path style="opacity:1" fill="#d4d4d4" d="M 416.5,858.5 C 414.097,858.393 412.264,859.393 411,861.5C 407.346,866.982 403.179,871.982 398.5,876.5C 402.725,869.108 407.891,862.441 414,856.5C 414.995,857.066 415.828,857.733 416.5,858.5 Z"/></g>
<g><path style="opacity:1" fill="#e2e2e2" d="M 677.5,870.5 C 678.5,870.833 679.167,871.5 679.5,872.5C 679.5,872.833 679.5,873.167 679.5,873.5C 678.094,873.027 677.427,872.027 677.5,870.5 Z"/></g>
<g><path style="opacity:1" fill="#a0a0a0" d="M 427.5,865.5 C 433.213,867.047 437.88,870.047 441.5,874.5C 436.022,872.675 431.355,869.675 427.5,865.5 Z"/></g>
<g><path style="opacity:1" fill="#dbdbdb" d="M 727.5,867.5 C 729.591,869.458 731.591,871.624 733.5,874C 736.076,878.4 738.409,882.9 740.5,887.5C 738.926,887.063 737.759,886.063 737,884.5C 733.809,878.779 730.642,873.112 727.5,867.5 Z"/></g>
<g><path style="opacity:1" fill="#a9a9a9" d="M 441.5,874.5 C 443.027,874.427 444.027,875.094 444.5,876.5C 442.973,876.573 441.973,875.906 441.5,874.5 Z"/></g>
<g><path style="opacity:1" fill="#626262" d="M 444.5,876.5 C 446.989,876.241 448.656,877.241 449.5,879.5C 447.566,878.89 445.899,877.89 444.5,876.5 Z"/></g>
<g><path style="opacity:1" fill="#d1d1d1" d="M 398.5,876.5 C 397.92,878.749 396.587,880.415 394.5,881.5C 395.08,879.251 396.413,877.585 398.5,876.5 Z"/></g>
<g><path style="opacity:1" fill="#a9a9a9" d="M 449.5,879.5 C 451.027,879.427 452.027,880.094 452.5,881.5C 450.973,881.573 449.973,880.906 449.5,879.5 Z"/></g>
<g><path style="opacity:1" fill="#eaeaea" d="M 452.5,881.5 C 453.71,881.932 454.71,882.599 455.5,883.5C 453.821,883.715 452.821,883.048 452.5,881.5 Z"/></g>
<g><path style="opacity:1" fill="#c3c3c3" d="M 514.5,880.5 C 514.573,882.027 513.906,883.027 512.5,883.5C 512.427,881.973 513.094,880.973 514.5,880.5 Z"/></g>
<g><path style="opacity:1" fill="#dcdcdc" d="M 339.5,881.5 C 337.565,885.707 334.898,889.373 331.5,892.5C 332.889,889.393 334.555,886.393 336.5,883.5C 337.357,882.575 338.357,881.908 339.5,881.5 Z"/></g>
<g><path style="opacity:1" fill="#dedede" d="M 455.5,883.5 C 457.404,883.738 458.738,884.738 459.5,886.5C 457.368,886.446 456.035,885.446 455.5,883.5 Z"/></g>
<g><path style="opacity:1" fill="#c0c0c0" d="M 394.5,881.5 C 391.31,888.026 386.976,893.692 381.5,898.5C 384.746,891.931 389.079,886.264 394.5,881.5 Z"/></g>
<g><path style="opacity:1" fill="#d1d1d1" d="M 459.5,886.5 C 463.392,888.062 466.725,890.395 469.5,893.5C 465.458,892.149 462.125,889.815 459.5,886.5 Z"/></g>
<g><path style="opacity:1" fill="#d6d6d6" d="M 740.5,887.5 C 741.906,887.973 742.573,888.973 742.5,890.5C 741.094,890.027 740.427,889.027 740.5,887.5 Z"/></g>
<g><path style="opacity:1" fill="#e7e7e7" d="M 742.5,890.5 C 743.906,890.973 744.573,891.973 744.5,893.5C 743.094,893.027 742.427,892.027 742.5,890.5 Z"/></g>
<g><path style="opacity:1" fill="#ababab" d="M 471.5,894.5 C 473.027,894.427 474.027,895.094 474.5,896.5C 472.973,896.573 471.973,895.906 471.5,894.5 Z"/></g>
<g><path style="opacity:1" fill="#b9b9b9" d="M 679.5,872.5 C 685.623,880.714 691.29,889.38 696.5,898.5C 696.5,898.833 696.5,899.167 696.5,899.5C 693.542,896.94 691.042,893.94 689,890.5C 685.809,884.779 682.642,879.112 679.5,873.5C 679.5,873.167 679.5,872.833 679.5,872.5 Z"/></g>
<g><path style="opacity:1" fill="#c5c5c5" d="M 474.5,896.5 C 476.027,896.427 477.027,897.094 477.5,898.5C 475.973,898.573 474.973,897.906 474.5,896.5 Z"/></g>
<g><path style="opacity:1" fill="#707070" d="M 696.5,898.5 C 698.614,899.784 699.614,901.784 699.5,904.5C 698.11,903.101 697.11,901.434 696.5,899.5C 696.5,899.167 696.5,898.833 696.5,898.5 Z"/></g>
<g><path style="opacity:1" fill="#e1e1e1" d="M 477.5,898.5 C 479.853,899.34 481.853,900.674 483.5,902.5C 480.708,902.378 478.708,901.044 477.5,898.5 Z"/></g>
<g><path style="opacity:1" fill="#d5d5d5" d="M 512.5,883.5 C 507.482,893.03 501.815,902.196 495.5,911C 494.092,911.315 492.759,910.982 491.5,910C 488.568,907.715 485.902,905.215 483.5,902.5C 486.778,903.809 489.778,905.642 492.5,908C 493.5,908.667 494.5,908.667 495.5,908C 500.375,901.086 504.875,893.919 509,886.5C 510.039,885.29 511.206,884.29 512.5,883.5 Z"/></g>
<g><path style="opacity:1" fill="#dedede" d="M 380.5,899.5 C 380.573,901.027 379.906,902.027 378.5,902.5C 378.427,900.973 379.094,899.973 380.5,899.5 Z"/></g>
<g><path style="opacity:1" fill="#c8c8c8" d="M 699.5,904.5 C 701.408,905.486 702.408,907.152 702.5,909.5C 700.953,908.232 699.953,906.565 699.5,904.5 Z"/></g>
<g><path style="opacity:1" fill="#c8c8c8" d="M 331.5,892.5 C 328.19,896.435 325.357,900.768 323,905.5C 319.629,908.703 316.462,912.036 313.5,915.5C 317.98,906.681 323.98,899.015 331.5,892.5 Z"/></g>
<g><path style="opacity:1" fill="#c2c2c2" d="M 702.5,909.5 C 704.836,911.004 706.669,913.004 708,915.5C 711.089,920.406 713.923,925.406 716.5,930.5C 711.109,924.071 706.442,917.071 702.5,909.5 Z"/></g>
<g><path style="opacity:1" fill="#dadada" d="M 377.5,903.5 C 373.271,911.964 367.604,919.298 360.5,925.5C 364.478,920.006 368.311,914.339 372,908.5C 373.704,906.627 375.537,904.96 377.5,903.5 Z"/></g>
<g><path style="opacity:1" fill="#d6d6d6" d="M 744.5,893.5 C 747.803,897.313 750.969,901.313 754,905.5C 760.191,916.599 767.025,926.433 774.5,935C 776.473,935.495 778.473,935.662 780.5,935.5C 831.833,935.5 883.167,935.5 934.5,935.5C 879.998,936.831 825.332,936.831 770.5,935.5C 761.384,921.73 752.717,907.73 744.5,893.5 Z"/></g>
<g><path style="opacity:1" fill="#f8f8f8" d="M 360.5,925.5 C 359.758,927.426 358.758,929.259 357.5,931C 358.155,932.487 359.155,933.653 360.5,934.5C 368.322,934.707 376.155,934.373 384,933.5C 486.931,934.166 589.764,934.832 692.5,935.5C 581.167,935.5 469.833,935.5 358.5,935.5C 357.432,934.566 356.099,934.232 354.5,934.5C 354.5,933.833 354.5,933.167 354.5,932.5C 355.8,929.568 357.8,927.234 360.5,925.5 Z"/></g>
<g><path style="opacity:1" fill="#f9f9f9" d="M 938.5,902.5 C 938.5,912.167 938.5,921.833 938.5,931.5C 937.5,933.167 936.167,934.5 934.5,935.5C 883.167,935.5 831.833,935.5 780.5,935.5C 780.369,934.761 780.536,934.094 781,933.5C 831.571,933.629 882.738,933.629 934.5,933.5C 935.799,932.91 936.632,931.91 937,930.5C 937.17,920.991 937.67,911.658 938.5,902.5 Z"/></g>
<g><path style="opacity:1" fill="#c0c0c0" d="M 313.5,915.5 C 309.262,922.738 304.262,929.404 298.5,935.5C 247.17,936.667 195.837,936.833 144.5,936C 142.959,934.629 141.625,933.129 140.5,931.5C 140.5,930.167 140.5,928.833 140.5,927.5C 141.131,929.448 142.131,931.281 143.5,933C 144.672,933.353 145.838,933.187 147,932.5C 149.368,933.2 151.534,934.2 153.5,935.5C 189.5,935.5 225.5,935.5 261.5,935.5C 273.186,935.832 284.852,935.499 296.5,934.5C 301.538,928.811 306.372,922.811 311,916.5C 311.671,915.748 312.504,915.414 313.5,915.5 Z"/></g>
<g><path style="opacity:1" fill="#f9faf9" d="M 261.5,935.5 C 225.5,935.5 189.5,935.5 153.5,935.5C 153.369,934.761 153.536,934.094 154,933.5C 162.177,934.685 170.51,934.685 179,933.5C 206.598,934.163 234.098,934.829 261.5,935.5 Z"/></g>
<g><path style="opacity:1" fill="#b8b8b8" d="M 716.5,930.5 C 718.063,931.945 719.396,933.611 720.5,935.5C 659.334,936.167 598.001,936.5 536.5,936.5C 474.83,936.5 413.496,935.833 352.5,934.5C 352.833,933.5 353.5,932.833 354.5,932.5C 354.5,933.167 354.5,933.833 354.5,934.5C 355.568,935.434 356.901,935.768 358.5,935.5C 469.833,935.5 581.167,935.5 692.5,935.5C 700.174,935.666 707.841,935.5 715.5,935C 714.692,934.692 714.025,934.192 713.5,933.5C 714.77,932.712 715.77,931.712 716.5,930.5 Z"/></g>
<g><path style="opacity:1" fill="#565656" d="M 352.5,934.5 C 413.496,935.833 474.83,936.5 536.5,936.5C 598.001,936.5 659.334,936.167 720.5,935.5C 721.043,935.56 721.376,935.893 721.5,936.5C 598.168,937.5 474.835,937.833 351.5,937.5C 351.263,936.209 351.596,935.209 352.5,934.5 Z"/></g>
<g><path style="opacity:1" fill="#d6d6d6" d="M 98.5,940.5 C 99.9238,942.515 100.59,944.848 100.5,947.5C 99.0762,945.485 98.4095,943.152 98.5,940.5 Z"/></g>
<g><path style="opacity:1" fill="#cfcfcf" d="M 980.5,941.5 C 980.405,943.786 979.738,945.786 978.5,947.5C 978.259,945.102 978.926,943.102 980.5,941.5 Z"/></g>
<g><path style="opacity:1" fill="#eaeaea" d="M 978.5,947.5 C 978.539,950.089 977.539,952.089 975.5,953.5C 975.992,951.181 976.992,949.181 978.5,947.5 Z"/></g>
<g><path style="opacity:1" fill="#dbdbdb" d="M 104.5,955.5 C 105.906,955.973 106.573,956.973 106.5,958.5C 105.094,958.027 104.427,957.027 104.5,955.5 Z"/></g>
<g><path style="opacity:1" fill="#d5d5d5" d="M 106.5,958.5 C 110.121,961.783 113.787,965.116 117.5,968.5C 117.833,969.167 118.167,969.833 118.5,970.5C 112.83,968.163 108.83,964.163 106.5,958.5 Z"/></g>
<g><path style="opacity:1" fill="#777777" d="M 117.5,968.5 C 120.288,969.226 122.288,970.893 123.5,973.5C 121.566,972.89 119.899,971.89 118.5,970.5C 118.167,969.833 117.833,969.167 117.5,968.5 Z"/></g>
<g><path style="opacity:1" fill="#b3b3b3" d="M 974.5,955.5 C 970.77,964.229 964.437,970.229 955.5,973.5C 955.414,972.504 955.748,971.671 956.5,971C 958.996,969.92 961.33,968.586 963.5,967C 967.314,963.113 970.98,959.28 974.5,955.5 Z"/></g>
<g><path style="opacity:1" fill="#919191" d="M 123.5,973.5 C 125.698,973.12 127.365,973.787 128.5,975.5C 126.447,975.598 124.78,974.931 123.5,973.5 Z"/></g>
<g><path style="opacity:1" fill="#919191" d="M 955.5,973.5 C 954.22,974.931 952.553,975.598 950.5,975.5C 951.552,973.744 953.219,973.077 955.5,973.5 Z"/></g>
<g><path style="opacity:1" fill="#9f9f9f" d="M 128.5,975.5 C 130.698,975.12 132.365,975.787 133.5,977.5C 131.447,977.598 129.78,976.931 128.5,975.5 Z"/></g>
</svg>
