<?xml version="1.0" encoding="UTF-8"?>
<!DOCTYPE svg PUBLIC "-//W3C//DTD SVG 1.1//EN" "http://www.w3.org/Graphics/SVG/1.1/DTD/svg11.dtd">
<svg xmlns="http://www.w3.org/2000/svg" version="1.1" width="1080px" height="1080px" style="shape-rendering:geometricPrecision; text-rendering:geometricPrecision; image-rendering:optimizeQuality; fill-rule:evenodd; clip-rule:evenodd" xmlns:xlink="http://www.w3.org/1999/xlink">
<g><path style="opacity:1" fill="#f6f6f6" d="M 493.5,116.5 C 489.196,113.343 484.863,110.176 480.5,107C 474.724,104.452 468.724,102.452 462.5,101C 355.501,100.5 248.501,100.333 141.5,100.5C 145.565,99.8067 149.732,99.1401 154,98.5C 249.833,98.5696 345.5,98.5696 441,98.5C 457.578,97.3449 473.078,100.845 487.5,109C 490.118,111.106 492.118,113.606 493.5,116.5 Z"/></g>
<g><path style="opacity:1" fill="#f6f6f6" d="M 973.5,120.5 C 963.841,110.339 952.175,103.839 938.5,101C 831.501,100.5 724.501,100.333 617.5,100.5C 623.987,99.6717 630.654,99.1717 637.5,99C 658,98.8333 678.5,98.6667 699,98.5C 769.225,98.7119 839.225,98.7119 909,98.5C 919.133,99.298 929.299,99.798 939.5,100C 951.465,101.203 961.632,106.036 970,114.5C 971.421,116.405 972.588,118.405 973.5,120.5 Z"/></g>
<g><path style="opacity:1" fill="#e5e5e5" d="M 141.5,100.5 C 138.372,101.632 135.038,102.465 131.5,103C 130.944,103.383 130.611,103.883 130.5,104.5C 128.139,104.674 125.806,105.007 123.5,105.5C 128.85,101.832 134.85,100.165 141.5,100.5 Z"/></g>
<g><path style="opacity:1" fill="#010101" d="M 141.5,100.5 C 248.501,100.333 355.501,100.5 462.5,101C 468.724,102.452 474.724,104.452 480.5,107C 484.863,110.176 489.196,113.343 493.5,116.5C 493.738,118.404 494.738,119.738 496.5,120.5C 498.678,123.523 500.345,126.856 501.5,130.5C 503.767,135.229 505.267,140.229 506,145.5C 506.667,248.5 506.667,351.5 506,454.5C 505.452,458.17 504.952,461.837 504.5,465.5C 502.38,471.073 499.713,476.407 496.5,481.5C 493.427,483.569 491.094,486.236 489.5,489.5C 489.5,490.167 489.167,490.5 488.5,490.5C 486.326,490.75 484.659,491.75 483.5,493.5C 481.664,495.588 479.331,496.921 476.5,497.5C 471.609,498.979 466.609,500.146 461.5,501C 449.505,501.5 437.505,501.667 425.5,501.5C 330.805,501.826 236.138,501.493 141.5,500.5C 135.632,499.988 129.965,498.654 124.5,496.5C 123.508,496.672 122.842,496.338 122.5,495.5C 121.738,493.738 120.404,492.738 118.5,492.5C 117.508,492.672 116.842,492.338 116.5,491.5C 111.386,486.727 107.052,481.394 103.5,475.5C 103.068,474.29 102.401,473.29 101.5,472.5C 101.204,470.597 100.537,468.93 99.5,467.5C 99.477,465.073 98.977,462.74 98,460.5C 97.5,355.834 97.3333,251.167 97.5,146.5C 98.117,141.415 99.117,136.415 100.5,131.5C 102.341,129.151 103.674,126.485 104.5,123.5C 109.245,117.419 114.912,112.419 121.5,108.5C 124.543,107.157 127.543,105.823 130.5,104.5C 130.611,103.883 130.944,103.383 131.5,103C 135.038,102.465 138.372,101.632 141.5,100.5 Z M 148.5,143.5 C 250.947,144.105 353.614,144.105 456.5,143.5C 457.67,145.279 459.336,146.279 461.5,146.5C 461.687,148.564 462.187,150.564 463,152.5C 463.667,251.833 463.667,351.167 463,450.5C 461.681,453.102 459.848,455.268 457.5,457C 353.791,457.266 250.124,457.433 146.5,457.5C 143.561,456.691 141.727,454.691 141,451.5C 140.333,351.5 140.333,251.5 141,151.5C 141.133,148.596 142.3,146.262 144.5,144.5C 146.375,146.078 147.708,145.745 148.5,143.5 Z"/></g>
<g><path style="opacity:1" fill="#020202" d="M 616.5,100.5 C 616.833,100.5 617.167,100.5 617.5,100.5C 724.501,100.333 831.501,100.5 938.5,101C 952.175,103.839 963.841,110.339 973.5,120.5C 973.427,122.027 974.094,123.027 975.5,123.5C 975.5,124.167 975.5,124.833 975.5,125.5C 976.11,127.434 977.11,129.101 978.5,130.5C 980.767,135.229 982.267,140.229 983,145.5C 983.667,248.833 983.667,352.167 983,455.5C 981.8,461.596 980.3,467.596 978.5,473.5C 977.529,475.483 976.529,477.483 975.5,479.5C 974.833,480.167 974.167,480.833 973.5,481.5C 970.757,483.239 968.757,485.573 967.5,488.5C 964.63,489.433 962.296,491.1 960.5,493.5C 959.306,494.272 958.306,495.272 957.5,496.5C 956.167,496.833 954.833,497.167 953.5,497.5C 947.64,499.297 941.64,500.464 935.5,501C 925.172,501.5 914.839,501.666 904.5,501.5C 808.5,501.5 712.5,501.5 616.5,501.5C 616.167,501.5 615.833,501.5 615.5,501.5C 611.194,499.996 606.861,498.33 602.5,496.5C 601.209,496.737 600.209,496.404 599.5,495.5C 598.71,494.599 597.71,493.932 596.5,493.5C 595.508,493.672 594.842,493.338 594.5,492.5C 593.047,488.774 590.381,486.441 586.5,485.5C 586.262,483.596 585.262,482.262 583.5,481.5C 582.599,480.71 581.932,479.71 581.5,478.5C 578.75,472.571 576.417,466.571 574.5,460.5C 574.171,353.793 574.504,247.126 575.5,140.5C 576.736,134.035 579.069,128.035 582.5,122.5C 586.97,117.198 591.97,112.364 597.5,108C 603.688,104.898 610.021,102.398 616.5,100.5 Z M 927.5,143.5 C 931.374,145.043 935.374,146.376 939.5,147.5C 939.531,248.228 939.531,349.895 939.5,452.5C 937.5,454.167 935.5,455.833 933.5,457.5C 877.451,456.483 821.285,455.816 765,455.5C 740.1,455.869 715.266,455.869 690.5,455.5C 670.207,456.349 650.041,457.016 630,457.5C 624.649,458.153 620.649,456.153 618,451.5C 617.333,351.5 617.333,251.5 618,151.5C 618.236,149.189 619.069,147.189 620.5,145.5C 623.973,144.033 627.64,143.366 631.5,143.5C 730.516,143.559 829.183,143.559 927.5,143.5 Z"/></g>
<g><path style="opacity:1" fill="#5b5b5b" d="M 130.5,104.5 C 127.543,105.823 124.543,107.157 121.5,108.5C 122.167,107.5 122.833,106.5 123.5,105.5C 125.806,105.007 128.139,104.674 130.5,104.5 Z"/></g>
<g><path style="opacity:1" fill="#e7e7e7" d="M 123.5,105.5 C 122.833,106.5 122.167,107.5 121.5,108.5C 114.912,112.419 109.245,117.419 104.5,123.5C 108.23,114.771 114.563,108.771 123.5,105.5 Z"/></g>
<g><path style="opacity:1" fill="#dedede" d="M 616.5,100.5 C 610.021,102.398 603.688,104.898 597.5,108C 591.97,112.364 586.97,117.198 582.5,122.5C 587.037,113.032 594.371,106.532 604.5,103C 608.313,101.228 612.313,100.395 616.5,100.5 Z"/></g>
<g><path style="opacity:1" fill="#cdcdcd" d="M 493.5,116.5 C 495.262,117.262 496.262,118.596 496.5,120.5C 494.738,119.738 493.738,118.404 493.5,116.5 Z"/></g>
<g><path style="opacity:1" fill="#e8e8e8" d="M 496.5,120.5 C 500.294,122.736 502.627,126.069 503.5,130.5C 502.833,130.5 502.167,130.5 501.5,130.5C 500.345,126.856 498.678,123.523 496.5,120.5 Z"/></g>
<g><path style="opacity:1" fill="#cbcbcb" d="M 973.5,120.5 C 974.906,120.973 975.573,121.973 975.5,123.5C 974.094,123.027 973.427,122.027 973.5,120.5 Z"/></g>
<g><path style="opacity:1" fill="#d7d7d7" d="M 582.5,122.5 C 579.069,128.035 576.736,134.035 575.5,140.5C 574.833,140.833 574.167,141.167 573.5,141.5C 573.062,141.565 572.728,141.399 572.5,141C 574.182,133.794 577.515,127.627 582.5,122.5 Z"/></g>
<g><path style="opacity:1" fill="#d8d8d8" d="M 975.5,123.5 C 976.906,123.973 977.573,124.973 977.5,126.5C 976.833,126.167 976.167,125.833 975.5,125.5C 975.5,124.833 975.5,124.167 975.5,123.5 Z"/></g>
<g><path style="opacity:1" fill="#e8e8e8" d="M 104.5,123.5 C 103.674,126.485 102.341,129.151 100.5,131.5C 100.794,128.246 102.127,125.579 104.5,123.5 Z"/></g>
<g><path style="opacity:1" fill="#6a6a6a" d="M 975.5,125.5 C 976.167,125.833 976.833,126.167 977.5,126.5C 978.338,126.842 978.672,127.508 978.5,128.5C 978.5,129.167 978.5,129.833 978.5,130.5C 977.11,129.101 976.11,127.434 975.5,125.5 Z"/></g>
<g><path style="opacity:1" fill="#f8f8f8" d="M 100.5,131.5 C 99.117,136.415 98.117,141.415 97.5,146.5C 96.5008,216.998 96.1675,287.665 96.5,358.5C 95.3345,286.668 95.1678,214.668 96,142.5C 96.2734,140.899 96.7734,139.399 97.5,138C 97.1667,137.667 96.8333,137.333 96.5,137C 97.9001,135.144 99.2335,133.311 100.5,131.5 Z"/></g>
<g><path style="opacity:1" fill="#131313" d="M 147.5,142.5 C 250.666,141.334 353.999,141.167 457.5,142C 458.416,142.278 459.082,142.778 459.5,143.5C 458.5,143.5 457.5,143.5 456.5,143.5C 353.668,142.501 250.668,142.167 147.5,142.5 Z"/></g>
<g><path style="opacity:1" fill="#7e7e7e" d="M 144.5,143.5 C 145.209,142.596 146.209,142.263 147.5,142.5C 250.668,142.167 353.668,142.501 456.5,143.5C 353.614,144.105 250.947,144.105 148.5,143.5C 147.167,143.5 145.833,143.5 144.5,143.5 Z"/></g>
<g><path style="opacity:1" fill="#707070" d="M 935.5,143.5 C 932.833,143.5 930.167,143.5 927.5,143.5C 829.183,143.559 730.516,143.559 631.5,143.5C 627.64,143.366 623.973,144.033 620.5,145.5C 619.833,145.5 619.167,145.5 618.5,145.5C 619.091,144.849 619.757,144.182 620.5,143.5C 725.666,142.168 830.666,142.168 935.5,143.5 Z"/></g>
<g><path style="opacity:1" fill="#eeeeee" d="M 144.5,144.5 C 144.5,144.167 144.5,143.833 144.5,143.5C 145.833,143.5 147.167,143.5 148.5,143.5C 147.708,145.745 146.375,146.078 144.5,144.5 Z"/></g>
<g><path style="opacity:1" fill="#f4f4f4" d="M 927.5,143.5 C 930.167,143.5 932.833,143.5 935.5,143.5C 936.795,144.488 938.128,145.488 939.5,146.5C 939.5,146.833 939.5,147.167 939.5,147.5C 935.374,146.376 931.374,145.043 927.5,143.5 Z"/></g>
<g><path style="opacity:1" fill="#cfcfcf" d="M 456.5,143.5 C 457.5,143.5 458.5,143.5 459.5,143.5C 460.401,144.29 461.068,145.29 461.5,146.5C 459.336,146.279 457.67,145.279 456.5,143.5 Z"/></g>
<g><path style="opacity:1" fill="#d6d6d6" d="M 97.5,146.5 C 97.3333,251.167 97.5,355.834 98,460.5C 98.977,462.74 99.477,465.073 99.5,467.5C 97.6482,463.968 96.3148,460.135 95.5,456C 95.3401,423.269 95.6734,390.769 96.5,358.5C 96.1675,287.665 96.5008,216.998 97.5,146.5 Z"/></g>
<g><path style="opacity:1" fill="#cbcbcb" d="M 573.5,142.5 C 573.5,247.833 573.5,353.167 573.5,458.5C 572.825,444.765 572.159,430.931 571.5,417C 572.542,346.294 572.542,273.627 571.5,199C 572.161,180.069 572.827,161.236 573.5,142.5 Z"/></g>
<g><path style="opacity:1" fill="#7a7a7a" d="M 575.5,140.5 C 574.504,247.126 574.171,353.793 574.5,460.5C 574.167,460.5 573.833,460.5 573.5,460.5C 573.5,459.833 573.5,459.167 573.5,458.5C 573.5,353.167 573.5,247.833 573.5,142.5C 573.5,142.167 573.5,141.833 573.5,141.5C 574.167,141.167 574.833,140.833 575.5,140.5 Z"/></g>
<g><path style="opacity:1" fill="#e1e1e1" d="M 978.5,128.5 C 981.398,132.306 983.231,136.639 984,141.5C 985.231,241.079 985.565,340.745 985,440.5C 984.667,446.833 984.333,453.167 984,459.5C 982.958,464.567 981.125,469.234 978.5,473.5C 980.3,467.596 981.8,461.596 983,455.5C 983.667,352.167 983.667,248.833 983,145.5C 982.267,140.229 980.767,135.229 978.5,130.5C 978.5,129.833 978.5,129.167 978.5,128.5 Z"/></g>
<g><path style="opacity:1" fill="#747474" d="M 501.5,130.5 C 502.167,130.5 502.833,130.5 503.5,130.5C 505.094,134.25 506.261,138.25 507,142.5C 507.171,217.695 507.671,292.861 508.5,368C 507.805,394.619 507.805,421.286 508.5,448C 507.829,453.865 506.829,459.698 505.5,465.5C 505.167,465.5 504.833,465.5 504.5,465.5C 504.952,461.837 505.452,458.17 506,454.5C 506.667,351.5 506.667,248.5 506,145.5C 505.267,140.229 503.767,135.229 501.5,130.5 Z"/></g>
<g><path style="opacity:1" fill="#ababab" d="M 144.5,144.5 C 142.3,146.262 141.133,148.596 141,151.5C 140.333,251.5 140.333,351.5 141,451.5C 141.727,454.691 143.561,456.691 146.5,457.5C 250.332,458.499 354.332,458.833 458.5,458.5C 354.001,459.666 249.334,459.833 144.5,459C 142.006,457.011 140.173,454.511 139,451.5C 138.333,351.167 138.333,250.833 139,150.5C 139.649,147.353 141.482,145.353 144.5,144.5 Z"/></g>
<g><path style="opacity:1" fill="#a4a4a4" d="M 939.5,146.5 C 940.222,146.918 940.722,147.584 941,148.5C 941.667,249.833 941.667,351.167 941,452.5C 940.768,453.737 940.268,454.737 939.5,455.5C 939.5,454.5 939.5,453.5 939.5,452.5C 939.531,349.895 939.531,248.228 939.5,147.5C 939.5,147.167 939.5,146.833 939.5,146.5 Z"/></g>
<g><path style="opacity:1" fill="#e9e9e9" d="M 618.5,145.5 C 619.167,145.5 619.833,145.5 620.5,145.5C 619.069,147.189 618.236,149.189 618,151.5C 617.333,251.5 617.333,351.5 618,451.5C 620.649,456.153 624.649,458.153 630,457.5C 650.041,457.016 670.207,456.349 690.5,455.5C 715.266,455.869 740.1,455.869 765,455.5C 821.285,455.816 877.451,456.483 933.5,457.5C 829.668,458.499 725.668,458.833 621.5,458.5C 618.265,457.405 616.432,455.072 616,451.5C 615.333,350.833 615.333,250.167 616,149.5C 616.662,148.016 617.496,146.683 618.5,145.5 Z"/></g>
<g><path style="opacity:1" fill="#f9f9f9" d="M 461.5,146.5 C 462.458,146.953 463.292,147.619 464,148.5C 464.667,249.833 464.667,351.167 464,452.5C 463.285,455.641 461.452,457.641 458.5,458.5C 354.332,458.833 250.332,458.499 146.5,457.5C 250.124,457.433 353.791,457.266 457.5,457C 459.848,455.268 461.681,453.102 463,450.5C 463.667,351.167 463.667,251.833 463,152.5C 462.187,150.564 461.687,148.564 461.5,146.5 Z"/></g>
<g><path style="opacity:1" fill="#c8c8c8" d="M 939.5,452.5 C 939.5,453.5 939.5,454.5 939.5,455.5C 937.99,456.836 936.323,458.003 934.5,459C 829.999,459.833 725.666,459.666 621.5,458.5C 725.668,458.833 829.668,458.499 933.5,457.5C 935.5,455.833 937.5,454.167 939.5,452.5 Z"/></g>
<g><path style="opacity:1" fill="#c7c7c7" d="M 573.5,460.5 C 573.833,460.5 574.167,460.5 574.5,460.5C 576.417,466.571 578.75,472.571 581.5,478.5C 576.713,473.581 574.047,467.581 573.5,460.5 Z"/></g>
<g><path style="opacity:1" fill="#e9e9e9" d="M 99.5,467.5 C 100.537,468.93 101.204,470.597 101.5,472.5C 99.3411,471.215 98.6745,469.548 99.5,467.5 Z"/></g>
<g><path style="opacity:1" fill="#d9d9d9" d="M 101.5,472.5 C 102.401,473.29 103.068,474.29 103.5,475.5C 103.5,475.833 103.5,476.167 103.5,476.5C 101.896,475.713 101.229,474.38 101.5,472.5 Z"/></g>
<g><path style="opacity:1" fill="#d7d7d7" d="M 504.5,465.5 C 504.833,465.5 505.167,465.5 505.5,465.5C 504.535,472.109 501.535,477.442 496.5,481.5C 499.713,476.407 502.38,471.073 504.5,465.5 Z"/></g>
<g><path style="opacity:1" fill="#f9faf9" d="M 975.5,479.5 C 976.833,480.167 976.833,480.167 975.5,479.5 Z"/></g>
<g><path style="opacity:1" fill="#e8e8e8" d="M 583.5,481.5 C 585.262,482.262 586.262,483.596 586.5,485.5C 584.738,484.738 583.738,483.404 583.5,481.5 Z"/></g>
<g><path style="opacity:1" fill="#cccccc" d="M 973.5,481.5 C 972.243,484.427 970.243,486.761 967.5,488.5C 968.757,485.573 970.757,483.239 973.5,481.5 Z"/></g>
<g><path style="opacity:1" fill="#b8b8b8" d="M 496.5,481.5 C 494.876,484.79 492.543,487.457 489.5,489.5C 491.094,486.236 493.427,483.569 496.5,481.5 Z"/></g>
<g><path style="opacity:1" fill="#8e8e8e" d="M 586.5,485.5 C 590.381,486.441 593.047,488.774 594.5,492.5C 591.035,491.098 588.368,488.764 586.5,485.5 Z"/></g>
<g><path style="opacity:1" fill="#acacac" d="M 103.5,475.5 C 107.052,481.394 111.386,486.727 116.5,491.5C 110.387,488.053 106.054,483.053 103.5,476.5C 103.5,476.167 103.5,475.833 103.5,475.5 Z"/></g>
<g><path style="opacity:1" fill="#bfbfbf" d="M 488.5,490.5 C 487.341,492.25 485.674,493.25 483.5,493.5C 484.659,491.75 486.326,490.75 488.5,490.5 Z"/></g>
<g><path style="opacity:1" fill="#cacaca" d="M 967.5,488.5 C 965.704,490.9 963.37,492.567 960.5,493.5C 962.296,491.1 964.63,489.433 967.5,488.5 Z"/></g>
<g><path style="opacity:1" fill="#c4c4c4" d="M 118.5,492.5 C 120.404,492.738 121.738,493.738 122.5,495.5C 120.596,495.262 119.262,494.262 118.5,492.5 Z"/></g>
<g><path style="opacity:1" fill="#f9faf9" d="M 596.5,493.5 C 597.71,493.932 598.71,494.599 599.5,495.5C 597.632,496.674 596.632,496.007 596.5,493.5 Z"/></g>
<g><path style="opacity:1" fill="#f9faf9" d="M 957.5,496.5 C 958.833,497.167 958.833,497.167 957.5,496.5 Z"/></g>
<g><path style="opacity:1" fill="#e8e8e8" d="M 602.5,496.5 C 606.861,498.33 611.194,499.996 615.5,501.5C 612.432,501.453 609.432,500.953 606.5,500C 604.676,499.34 603.343,498.173 602.5,496.5 Z"/></g>
<g><path style="opacity:1" fill="#ebebeb" d="M 124.5,496.5 C 129.965,498.654 135.632,499.988 141.5,500.5C 142.167,501.167 142.833,501.833 143.5,502.5C 136.392,502.482 130.059,500.482 124.5,496.5 Z"/></g>
<g><path style="opacity:1" fill="#8d8d8d" d="M 141.5,500.5 C 236.138,501.493 330.805,501.826 425.5,501.5C 425.5,501.833 425.5,502.167 425.5,502.5C 333.435,502.572 239.435,502.572 143.5,502.5C 142.833,501.833 142.167,501.167 141.5,500.5 Z"/></g>
<g><path style="opacity:1" fill="#b7b7b7" d="M 476.5,497.5 C 475.909,498.151 475.243,498.818 474.5,499.5C 471.197,500.44 467.864,501.273 464.5,502C 451.651,503.087 438.651,503.254 425.5,502.5C 425.5,502.167 425.5,501.833 425.5,501.5C 437.505,501.667 449.505,501.5 461.5,501C 466.609,500.146 471.609,498.979 476.5,497.5 Z"/></g>
<g><path style="opacity:1" fill="#a4a4a4" d="M 616.5,501.5 C 712.5,501.5 808.5,501.5 904.5,501.5C 904.5,501.833 904.5,502.167 904.5,502.5C 817.993,502.243 731.827,502.577 646,503.5C 636.068,502.845 626.235,502.178 616.5,501.5 Z"/></g>
<g><path style="opacity:1" fill="#c8c8c8" d="M 953.5,497.5 C 950.097,500.2 946.097,501.7 941.5,502C 929.152,503.133 916.819,503.3 904.5,502.5C 904.5,502.167 904.5,501.833 904.5,501.5C 914.839,501.666 925.172,501.5 935.5,501C 941.64,500.464 947.64,499.297 953.5,497.5 Z"/></g>
<g><path style="opacity:1" fill="#e4e4e4" d="M 484.5,585.5 C 477.221,581.907 469.555,579.407 461.5,578C 355.5,577.333 249.5,577.333 143.5,578C 136.925,578.583 130.592,580.083 124.5,582.5C 130.987,578.022 138.32,575.855 146.5,576C 201.856,574.803 257.189,574.303 312.5,574.5C 361.145,575.324 409.811,575.824 458.5,576C 463.511,576.585 468.511,577.251 473.5,578C 477.428,580.235 481.095,582.735 484.5,585.5 Z"/></g>
<g><path style="opacity:1" fill="#e4e4e4" d="M 955.5,582.5 C 949.989,580.538 944.322,579.038 938.5,578C 831.167,577.333 723.833,577.333 616.5,578C 609.954,579.609 603.621,581.776 597.5,584.5C 604.587,578.752 612.92,575.919 622.5,576C 726.5,575.333 830.5,575.333 934.5,576C 939.21,576.375 943.877,577.042 948.5,578C 951.257,578.938 953.59,580.438 955.5,582.5 Z"/></g>
<g><path style="opacity:1" fill="#010101" d="M 484.5,585.5 C 485.048,587.532 486.381,588.532 488.5,588.5C 494.694,594.383 499.361,601.383 502.5,609.5C 504.446,614.287 505.613,619.287 506,624.5C 506.667,727.5 506.667,830.5 506,933.5C 505.137,937.625 503.97,941.625 502.5,945.5C 501.353,948.947 500.02,952.28 498.5,955.5C 497.094,955.973 496.427,956.973 496.5,958.5C 495.833,959.833 494.833,960.833 493.5,961.5C 492.094,961.973 491.427,962.973 491.5,964.5C 487.798,966.024 484.464,968.19 481.5,971C 478.032,971.23 475.366,972.73 473.5,975.5C 468.57,976.648 463.57,977.315 458.5,977.5C 352.167,977.5 245.833,977.5 139.5,977.5C 135.915,977.848 132.582,977.181 129.5,975.5C 127.017,972.259 123.684,970.592 119.5,970.5C 115.63,967.059 111.963,963.393 108.5,959.5C 106.631,955.732 104.297,952.398 101.5,949.5C 101.672,948.508 101.338,947.842 100.5,947.5C 99.596,946.791 99.2627,945.791 99.5,944.5C 99.477,942.073 98.977,939.74 98,937.5C 97.3333,830.833 97.3333,724.167 98,617.5C 98.8494,614.479 99.6827,611.479 100.5,608.5C 101.674,607.486 102.34,606.153 102.5,604.5C 104.531,603.461 105.864,601.795 106.5,599.5C 110.155,594.179 114.488,589.513 119.5,585.5C 121.027,585.573 122.027,584.906 122.5,583.5C 122.842,582.662 123.508,582.328 124.5,582.5C 130.592,580.083 136.925,578.583 143.5,578C 249.5,577.333 355.5,577.333 461.5,578C 469.555,579.407 477.221,581.907 484.5,585.5 Z M 147.5,620.5 C 149.833,620.5 152.167,620.5 154.5,620.5C 155.172,621.267 156.005,621.934 157,622.5C 160.27,621.868 163.437,621.201 166.5,620.5C 263.815,620.214 361.148,620.547 458.5,621.5C 461.049,623.556 462.549,626.222 463,629.5C 463.667,728.5 463.667,827.5 463,926.5C 462.529,928.246 461.862,929.913 461,931.5C 458.795,932.412 456.962,933.745 455.5,935.5C 353.167,935.5 250.833,935.5 148.5,935.5C 146.437,933.918 144.104,932.585 141.5,931.5C 140.342,829.855 140.176,728.188 141,626.5C 142.436,623.558 144.603,621.558 147.5,620.5 Z"/></g>
<g><path style="opacity:1" fill="#020202" d="M 955.5,582.5 C 956.514,583.674 957.847,584.34 959.5,584.5C 963.968,587.993 968.302,591.66 972.5,595.5C 972.427,597.027 973.094,598.027 974.5,598.5C 974.216,601.857 975.549,604.191 978.5,605.5C 980.481,610.959 981.981,616.625 983,622.5C 983.667,725.5 983.667,828.5 983,931.5C 981.783,939.98 979.283,947.98 975.5,955.5C 971.668,958.499 968.335,961.999 965.5,966C 961.613,969.111 957.28,971.444 952.5,973C 951.619,973.708 950.953,974.542 950.5,975.5C 949.791,976.404 948.791,976.737 947.5,976.5C 942.781,976.888 938.114,977.555 933.5,978.5C 827.833,978.667 722.166,978.5 616.5,978C 611.946,977.536 607.613,976.369 603.5,974.5C 597.323,970.008 591.323,965.341 585.5,960.5C 584.5,960.167 583.833,959.5 583.5,958.5C 583.25,956.326 582.25,954.659 580.5,953.5C 578.237,948.71 576.57,943.71 575.5,938.5C 574.504,832.207 574.171,725.874 574.5,619.5C 576.25,612.913 578.583,606.58 581.5,600.5C 583.887,598.087 586.054,595.42 588,592.5C 591.358,589.969 594.524,587.302 597.5,584.5C 603.621,581.776 609.954,579.609 616.5,578C 723.833,577.333 831.167,577.333 938.5,578C 944.322,579.038 949.989,580.538 955.5,582.5 Z M 624.5,620.5 C 726.773,620.614 829.106,620.614 931.5,620.5C 934.65,621.302 937.317,622.968 939.5,625.5C 939.185,715.742 939.519,805.742 940.5,895.5C 939.669,906.993 939.169,918.659 939,930.5C 937.624,931.705 936.458,933.038 935.5,934.5C 832.328,934.264 728.995,934.597 625.5,935.5C 621.671,934.657 619.171,932.323 618,928.5C 617.333,827.833 617.333,727.167 618,626.5C 619.669,625.154 620.836,623.487 621.5,621.5C 622.895,622.815 623.895,622.481 624.5,620.5 Z"/></g>
<g><path style="opacity:1" fill="#e9e9e9" d="M 959.5,584.5 C 957.847,584.34 956.514,583.674 955.5,582.5C 956.583,582.461 957.583,582.127 958.5,581.5C 958.517,582.394 958.851,583.394 959.5,584.5 Z"/></g>
<g><path style="opacity:1" fill="#b9b9b9" d="M 122.5,583.5 C 122.027,584.906 121.027,585.573 119.5,585.5C 119.973,584.094 120.973,583.427 122.5,583.5 Z"/></g>
<g><path style="opacity:1" fill="#d8d8d8" d="M 484.5,585.5 C 486.632,585.554 487.965,586.554 488.5,588.5C 486.381,588.532 485.048,587.532 484.5,585.5 Z"/></g>
<g><path style="opacity:1" fill="#e3e3e3" d="M 959.5,584.5 C 965.376,586.378 969.709,590.045 972.5,595.5C 968.302,591.66 963.968,587.993 959.5,584.5 Z"/></g>
<g><path style="opacity:1" fill="#d3d3d3" d="M 119.5,585.5 C 114.488,589.513 110.155,594.179 106.5,599.5C 105.833,599.833 105.167,600.167 104.5,600.5C 107.167,593.167 112.167,588.167 119.5,585.5 Z"/></g>
<g><path style="opacity:1" fill="#e5e5e5" d="M 488.5,588.5 C 491.394,589.882 493.894,591.882 496,594.5C 499.87,598.905 502.703,603.905 504.5,609.5C 503.833,609.5 503.167,609.5 502.5,609.5C 499.361,601.383 494.694,594.383 488.5,588.5 Z"/></g>
<g><path style="opacity:1" fill="#d2d2d2" d="M 597.5,584.5 C 594.524,587.302 591.358,589.969 588,592.5C 586.054,595.42 583.887,598.087 581.5,600.5C 584.5,592.833 589.833,587.5 597.5,584.5 Z"/></g>
<g><path style="opacity:1" fill="#eaeaea" d="M 972.5,595.5 C 973.906,595.973 974.573,596.973 974.5,598.5C 973.094,598.027 972.427,597.027 972.5,595.5 Z"/></g>
<g><path style="opacity:1" fill="#8f8f8f" d="M 974.5,598.5 C 976.588,600.336 977.921,602.669 978.5,605.5C 975.549,604.191 974.216,601.857 974.5,598.5 Z"/></g>
<g><path style="opacity:1" fill="#5c5c5c" d="M 106.5,599.5 C 105.864,601.795 104.531,603.461 102.5,604.5C 102.66,602.847 103.326,601.514 104.5,600.5C 105.167,600.167 105.833,599.833 106.5,599.5 Z"/></g>
<g><path style="opacity:1" fill="#cecece" d="M 102.5,604.5 C 102.34,606.153 101.674,607.486 100.5,608.5C 100.229,606.62 100.896,605.287 102.5,604.5 Z"/></g>
<g><path style="opacity:1" fill="#454545" d="M 144.5,620.5 C 249.333,619.334 354.333,619.167 459.5,620C 460.056,620.383 460.389,620.883 460.5,621.5C 459.833,621.5 459.167,621.5 458.5,621.5C 361.148,620.547 263.815,620.214 166.5,620.5C 162.5,620.5 158.5,620.5 154.5,620.5C 152.167,620.5 149.833,620.5 147.5,620.5C 146.5,620.5 145.5,620.5 144.5,620.5 Z"/></g>
<g><path style="opacity:1" fill="#4b4b4b" d="M 935.5,620.5 C 934.167,620.5 932.833,620.5 931.5,620.5C 829.106,620.614 726.773,620.614 624.5,620.5C 623.209,620.263 622.209,620.596 621.5,621.5C 620.833,621.5 620.167,621.5 619.5,621.5C 619.611,620.883 619.944,620.383 620.5,620C 725.667,619.167 830.667,619.334 935.5,620.5 Z"/></g>
<g><path style="opacity:1" fill="#f9faf9" d="M 154.5,620.5 C 158.5,620.5 162.5,620.5 166.5,620.5C 163.437,621.201 160.27,621.868 157,622.5C 156.005,621.934 155.172,621.267 154.5,620.5 Z"/></g>
<g><path style="opacity:1" fill="#ededed" d="M 621.5,621.5 C 622.209,620.596 623.209,620.263 624.5,620.5C 623.895,622.481 622.895,622.815 621.5,621.5 Z"/></g>
<g><path style="opacity:1" fill="#dbdbdb" d="M 931.5,620.5 C 932.833,620.5 934.167,620.5 935.5,620.5C 937.03,621.211 938.363,622.211 939.5,623.5C 939.5,624.167 939.5,624.833 939.5,625.5C 937.317,622.968 934.65,621.302 931.5,620.5 Z"/></g>
<g><path style="opacity:1" fill="#f7f7f7" d="M 458.5,621.5 C 459.167,621.5 459.833,621.5 460.5,621.5C 462.144,622.316 463.31,623.65 464,625.5C 464.667,727.167 464.667,828.833 464,930.5C 462.961,931.244 462.461,932.244 462.5,933.5C 460.254,934.455 457.921,935.122 455.5,935.5C 456.962,933.745 458.795,932.412 461,931.5C 461.862,929.913 462.529,928.246 463,926.5C 463.667,827.5 463.667,728.5 463,629.5C 462.549,626.222 461.049,623.556 458.5,621.5 Z"/></g>
<g><path style="opacity:1" fill="#7b7b7b" d="M 574.5,619.5 C 574.171,725.874 574.504,832.207 575.5,938.5C 574.833,938.167 574.167,937.833 573.5,937.5C 573.5,936.5 573.5,935.5 573.5,934.5C 573.167,829.332 573.501,724.332 574.5,619.5 Z"/></g>
<g><path style="opacity:1" fill="#e1e1e1" d="M 100.5,608.5 C 99.6827,611.479 98.8494,614.479 98,617.5C 97.3333,724.167 97.3333,830.833 98,937.5C 98.977,939.74 99.477,942.073 99.5,944.5C 97.3264,940.885 95.9931,936.885 95.5,932.5C 96.498,831.668 96.498,731.001 95.5,630.5C 94.8933,622.516 96.56,615.183 100.5,608.5 Z"/></g>
<g><path style="opacity:1" fill="#6a6a6a" d="M 502.5,609.5 C 503.167,609.5 503.833,609.5 504.5,609.5C 505.391,612.778 506.224,616.111 507,619.5C 507.667,725.167 507.667,830.833 507,936.5C 506.315,939.579 505.481,942.579 504.5,945.5C 503.833,945.5 503.167,945.5 502.5,945.5C 503.97,941.625 505.137,937.625 506,933.5C 506.667,830.5 506.667,727.5 506,624.5C 505.613,619.287 504.446,614.287 502.5,609.5 Z"/></g>
<g><path style="opacity:1" fill="#dfdfdf" d="M 978.5,605.5 C 981.768,609.111 983.601,613.445 984,618.5C 984.367,710.966 984.867,803.299 985.5,895.5C 985.391,909.514 984.891,923.514 984,937.5C 983.627,939.698 983.127,941.865 982.5,944C 980.519,948.145 978.185,951.978 975.5,955.5C 979.283,947.98 981.783,939.98 983,931.5C 983.667,828.5 983.667,725.5 983,622.5C 981.981,616.625 980.481,610.959 978.5,605.5 Z"/></g>
<g><path style="opacity:1" fill="#dbdbdb" d="M 619.5,621.5 C 620.167,621.5 620.833,621.5 621.5,621.5C 620.836,623.487 619.669,625.154 618,626.5C 617.333,727.167 617.333,827.833 618,928.5C 619.171,932.323 621.671,934.657 625.5,935.5C 623.435,935.483 621.435,935.15 619.5,934.5C 617.73,932.887 616.564,930.887 616,928.5C 615.333,827.5 615.333,726.5 616,625.5C 616.949,623.907 618.115,622.574 619.5,621.5 Z"/></g>
<g><path style="opacity:1" fill="#a8a8a8" d="M 144.5,620.5 C 145.5,620.5 146.5,620.5 147.5,620.5C 144.603,621.558 142.436,623.558 141,626.5C 140.176,728.188 140.342,829.855 141.5,931.5C 140.069,931.119 139.236,930.119 139,928.5C 138.333,827.5 138.333,726.5 139,625.5C 140.379,623.285 142.213,621.619 144.5,620.5 Z"/></g>
<g><path style="opacity:1" fill="#cbcbcb" d="M 581.5,600.5 C 578.583,606.58 576.25,612.913 574.5,619.5C 573.501,724.332 573.167,829.332 573.5,934.5C 572.334,829.334 572.167,724.001 573,618.5C 574.03,611.448 576.863,605.448 581.5,600.5 Z"/></g>
<g><path style="opacity:1" fill="#9e9e9e" d="M 939.5,623.5 C 940.117,623.611 940.617,623.944 941,624.5C 941.833,726.667 941.666,828.667 940.5,930.5C 940.5,918.833 940.5,907.167 940.5,895.5C 939.519,805.742 939.185,715.742 939.5,625.5C 939.5,624.833 939.5,624.167 939.5,623.5 Z"/></g>
<g><path style="opacity:1" fill="#f0f0f0" d="M 940.5,895.5 C 940.5,907.167 940.5,918.833 940.5,930.5C 939.415,932.587 937.749,933.92 935.5,934.5C 936.458,933.038 937.624,931.705 939,930.5C 939.169,918.659 939.669,906.993 940.5,895.5 Z"/></g>
<g><path style="opacity:1" fill="#e7e7e7" d="M 141.5,931.5 C 144.104,932.585 146.437,933.918 148.5,935.5C 146.784,935.371 145.117,935.038 143.5,934.5C 142.094,934.027 141.427,933.027 141.5,931.5 Z"/></g>
<g><path style="opacity:1" fill="#636363" d="M 462.5,933.5 C 461.942,934.79 460.942,935.623 459.5,936C 354.5,936.667 249.5,936.667 144.5,936C 143.944,935.617 143.611,935.117 143.5,934.5C 145.117,935.038 146.784,935.371 148.5,935.5C 250.833,935.5 353.167,935.5 455.5,935.5C 457.921,935.122 460.254,934.455 462.5,933.5 Z"/></g>
<g><path style="opacity:1" fill="#8f8f8f" d="M 619.5,934.5 C 621.435,935.15 623.435,935.483 625.5,935.5C 728.995,934.597 832.328,934.264 935.5,934.5C 935.082,935.222 934.416,935.722 933.5,936C 829.167,936.667 724.833,936.667 620.5,936C 619.944,935.617 619.611,935.117 619.5,934.5 Z"/></g>
<g><path style="opacity:1" fill="#c2c2c2" d="M 573.5,937.5 C 574.167,937.833 574.833,938.167 575.5,938.5C 576.57,943.71 578.237,948.71 580.5,953.5C 578.742,951.859 577.242,949.859 576,947.5C 575.356,944.391 574.189,941.557 572.5,939C 573.056,938.617 573.389,938.117 573.5,937.5 Z"/></g>
<g><path style="opacity:1" fill="#f3f3f3" d="M 100.5,947.5 C 101.338,947.842 101.672,948.508 101.5,949.5C 99.3023,949.591 98.9689,948.925 100.5,947.5 Z"/></g>
<g><path style="opacity:1" fill="#e0e0e0" d="M 502.5,945.5 C 503.167,945.5 503.833,945.5 504.5,945.5C 503.346,948.479 502.18,951.479 501,954.5C 500.329,955.252 499.496,955.586 498.5,955.5C 500.02,952.28 501.353,948.947 502.5,945.5 Z"/></g>
<g><path style="opacity:1" fill="#8c8c8c" d="M 101.5,949.5 C 104.297,952.398 106.631,955.732 108.5,959.5C 108.167,959.5 107.833,959.5 107.5,959.5C 104.498,956.839 102.498,953.505 101.5,949.5 Z"/></g>
<g><path style="opacity:1" fill="#d6d6d6" d="M 580.5,953.5 C 582.25,954.659 583.25,956.326 583.5,958.5C 582.244,958.539 581.244,958.039 580.5,957C 581.171,956.014 581.171,954.847 580.5,953.5 Z"/></g>
<g><path style="opacity:1" fill="#d9d9d9" d="M 498.5,955.5 C 498.573,957.027 497.906,958.027 496.5,958.5C 496.427,956.973 497.094,955.973 498.5,955.5 Z"/></g>
<g><path style="opacity:1" fill="#c5c5c5" d="M 493.5,961.5 C 493.573,963.027 492.906,964.027 491.5,964.5C 491.427,962.973 492.094,961.973 493.5,961.5 Z"/></g>
<g><path style="opacity:1" fill="#b3b3b3" d="M 585.5,960.5 C 591.323,965.341 597.323,970.008 603.5,974.5C 595.663,972.242 589.663,967.576 585.5,960.5 Z"/></g>
<g><path style="opacity:1" fill="#d3d3d3" d="M 107.5,959.5 C 107.833,959.5 108.167,959.5 108.5,959.5C 111.963,963.393 115.63,967.059 119.5,970.5C 118.07,970.579 116.736,970.246 115.5,969.5C 113.167,967.167 110.833,964.833 108.5,962.5C 107.873,961.583 107.539,960.583 107.5,959.5 Z"/></g>
<g><path style="opacity:1" fill="#a0a0a0" d="M 491.5,964.5 C 486.812,970.184 480.812,973.85 473.5,975.5C 475.366,972.73 478.032,971.23 481.5,971C 484.464,968.19 487.798,966.024 491.5,964.5 Z"/></g>
<g><path style="opacity:1" fill="#bcbcbc" d="M 975.5,955.5 C 970.154,965.841 961.82,972.508 950.5,975.5C 950.953,974.542 951.619,973.708 952.5,973C 957.28,971.444 961.613,969.111 965.5,966C 968.335,961.999 971.668,958.499 975.5,955.5 Z"/></g>
<g><path style="opacity:1" fill="#f3f3f3" d="M 121.5,971.5 C 122.71,971.932 123.71,972.599 124.5,973.5C 122.821,973.715 121.821,973.048 121.5,971.5 Z"/></g>
<g><path style="opacity:1" fill="#646464" d="M 119.5,970.5 C 123.684,970.592 127.017,972.259 129.5,975.5C 127.597,975.204 125.93,974.537 124.5,973.5C 123.71,972.599 122.71,971.932 121.5,971.5C 120.508,971.672 119.842,971.338 119.5,970.5 Z"/></g>
<g><path style="opacity:1" fill="#6d6d6d" d="M 139.5,977.5 C 245.833,977.5 352.167,977.5 458.5,977.5C 458.5,977.833 458.5,978.167 458.5,978.5C 354.316,978.313 249.983,978.646 145.5,979.5C 143.343,978.95 141.343,978.283 139.5,977.5 Z"/></g>
<g><path style="opacity:1" fill="#e3e3e3" d="M 473.5,975.5 C 468.894,977.876 463.894,978.876 458.5,978.5C 458.5,978.167 458.5,977.833 458.5,977.5C 463.57,977.315 468.57,976.648 473.5,975.5 Z"/></g>
<g><path style="opacity:1" fill="#e7e7e7" d="M 947.5,976.5 C 943.557,977.908 939.39,978.908 935,979.5C 934.235,979.43 933.735,979.097 933.5,978.5C 938.114,977.555 942.781,976.888 947.5,976.5 Z"/></g>
</svg>
