<?xml version="1.0" encoding="UTF-8"?>
<svg version="1.1" xmlns="http://www.w3.org/2000/svg" width="1080" height="1080">
<path d="M0 0 C1.03125 0.16242188 2.0625 0.32484375 3.125 0.4921875 C9.39736572 1.27347249 15.68925519 1.14480359 22 1.125 C23.23234375 1.12886719 24.4646875 1.13273437 25.734375 1.13671875 C33.29439954 1.12889781 33.29439954 1.12889781 40.8125 0.4296875 C41.864375 0.28789063 42.91625 0.14609375 44 0 C46.16737724 2.16737724 45.1550807 7.29625176 45.15821838 10.30751038 C45.16562535 11.79112152 45.16562535 11.79112152 45.17318195 13.30470461 C45.18863958 16.64592432 45.19693982 19.98712471 45.20532227 23.32836914 C45.21489431 25.71272453 45.22490397 28.0970782 45.23532104 30.48143005 C45.25962719 36.30130135 45.27934292 42.12117539 45.29707379 47.94107015 C45.31794246 54.71056729 45.34441177 61.48003893 45.37124526 68.24951463 C45.41895251 80.32266182 45.46220817 92.39582071 45.50268555 104.46899414 C45.54202456 116.19979769 45.58344693 127.93059081 45.62768555 139.66137695 C45.63040982 140.38396716 45.63313409 141.10655737 45.63594092 141.85104425 C45.64962013 145.47591898 45.66334046 149.10079357 45.67708123 152.72566807 C45.7910952 182.81709039 45.89781983 212.90853503 46 243 C46.54591293 243.19956802 47.09182587 243.39913605 47.65428162 243.60475159 C48.3722139 243.86997116 49.09014618 244.13519073 49.82983398 244.40844727 C50.89620338 244.8006118 50.89620338 244.8006118 51.9841156 245.20069885 C54.51782823 246.20531966 56.75782405 247.48697774 59.0625 248.9375 C61.87109214 250.68002592 64.67036545 252.39995334 67.5625 254 C88.37499949 266.10909061 99.56864013 285.31092744 106 308 C110.80253173 328.77704567 106.75801609 352.61965037 95.6875 370.625 C89.45956162 379.96690756 82.62761984 387.79877638 74 395 C72.99646484 395.85078125 72.99646484 395.85078125 71.97265625 396.71875 C64.06260111 403.0597349 55.85905091 405.8090998 46 408 C45.67 565.41 45.34 722.82 45 885 C40.54186808 887.22906596 40.45624591 887.01429917 36 886 C33.20309744 885.91800267 30.43263994 885.88339731 27.63671875 885.90234375 C26.84473587 885.9037587 26.05275299 885.90517365 25.23677063 885.90663147 C22.72030781 885.91220543 20.20393569 885.92475307 17.6875 885.9375 C15.97591275 885.94251837 14.26432409 885.94708069 12.55273438 885.95117188 C8.36845492 885.96216632 4.18424281 885.97941293 0 886 C-1.20925568 882.37223296 -1.13498505 879.06196642 -1.12025452 875.28624821 C-1.12153589 874.09001748 -1.12153589 874.09001748 -1.12284315 872.86962047 C-1.12449851 870.1747818 -1.11896744 867.48000454 -1.11352539 864.78517151 C-1.11324559 862.84265216 -1.11340793 860.9001327 -1.11397648 858.95761341 C-1.1142731 853.60196362 -1.1083218 848.24633583 -1.10140657 842.89069116 C-1.09505086 837.12169859 -1.09446489 831.35270525 -1.0932312 825.58370972 C-1.0903401 815.58173328 -1.08389361 805.57976418 -1.07516479 795.57779121 C-1.06263292 781.11213231 -1.0565392 766.64647614 -1.05223143 752.18081271 C-1.05022493 745.44511874 -1.0478975 738.70942488 -1.04548645 731.97373104 C-1.04524544 731.29939217 -1.04500442 730.6250533 -1.04475611 729.93027992 C-1.03894275 713.8736847 -1.02998618 697.81709147 -1.02050781 681.76049805 C-1.02009417 681.05779883 -1.01968052 680.35509962 -1.01925434 679.63110649 C-1.01253735 668.22761122 -1.00562994 656.82411606 -0.998698 645.42062092 C-0.99220559 634.73703835 -0.98578246 624.05345574 -0.97949219 613.36987305 C-0.9788703 612.31661279 -0.9788703 612.31661279 -0.97823586 611.24207455 C-0.9687903 595.2157376 -0.96024125 579.18940085 -0.95451355 563.1630621 C-0.95427256 562.4897753 -0.95403156 561.8164885 -0.95378327 561.12279908 C-0.9511626 553.7381544 -0.94878066 546.35350967 -0.94658184 538.96886486 C-0.94209301 524.53445584 -0.93403722 510.10005701 -0.92143703 495.66565274 C-0.91302956 485.78026691 -0.90812477 475.89488343 -0.90601182 466.00949425 C-0.90466291 460.29974572 -0.90162948 454.59001038 -0.89425278 448.88026619 C-0.88753232 443.65889491 -0.88536172 438.43754276 -0.88688838 433.21616756 C-0.88661569 431.32185028 -0.88462592 429.42753236 -0.8807956 427.53321893 C-0.87584849 424.96865269 -0.87700338 422.40416075 -0.87974548 419.83959293 C-0.87683262 419.09531183 -0.87391976 418.35103072 -0.87091863 417.58419564 C-0.88064286 414.24671698 -0.95938776 411.19066337 -2 408 C-2.85271484 407.83564453 -2.85271484 407.83564453 -3.72265625 407.66796875 C-11.57671515 406.05519873 -18.13079334 403.06544884 -25 399 C-25 398.34 -25 397.68 -25 397 C-26.0209375 396.690625 -26.0209375 396.690625 -27.0625 396.375 C-30.99416489 394.53464622 -33.8334874 391.93195611 -37 389 C-38.2375 387.8553125 -38.2375 387.8553125 -39.5 386.6875 C-49 376.475 -49 376.475 -49 373 C-49.66 373 -50.32 373 -51 373 C-62.74397927 350.38196585 -66.9940756 327.60761088 -61.13671875 302.578125 C-57.96481973 292.59372808 -52.72387633 283.36757502 -46.4453125 275.015625 C-44.95177147 273.05670157 -44.95177147 273.05670157 -43.9921875 270.89453125 C-42.40023384 267.85477721 -39.63306043 266.1393616 -37 264 C-36.34 263.01 -35.68 262.02 -35 261 C-33.36440296 259.94995233 -31.69216018 258.95622785 -30 258 C-27.13636247 256.15031988 -24.27940562 254.29086998 -21.42578125 252.42578125 C-19 251 -19 251 -17 251 C-16.67 250.34 -16.34 249.68 -16 249 C-14.36328125 248 -14.36328125 248 -12.3125 247 C-11.64863281 246.67 -10.98476563 246.34 -10.30078125 246 C-7.58529802 244.81975601 -4.8120485 243.92300763 -2 243 C-1.99576806 241.76586963 -1.99153612 240.53173925 -1.98717594 239.26021099 C-1.8865626 209.98326955 -1.78086527 180.70635106 -1.66888306 151.42945112 C-1.65511301 147.8282117 -1.64138598 144.22697211 -1.62768555 140.62573242 C-1.62495724 139.90877181 -1.62222894 139.19181119 -1.61941796 138.4531245 C-1.57530859 126.83481207 -1.53468679 115.21648992 -1.49534739 103.59816047 C-1.45492266 91.68215031 -1.41076507 79.76615823 -1.36312145 67.85017473 C-1.33645925 61.15485997 -1.31153946 54.459548 -1.29092598 47.76421165 C-1.2713725 41.46800913 -1.24723256 35.17184117 -1.21950912 28.87566948 C-1.21013186 26.55969113 -1.20245902 24.24370518 -1.19658089 21.9277153 C-1.18833121 18.77580257 -1.17405766 15.62397403 -1.15821838 12.47209167 C-1.15724028 11.54700261 -1.15626217 10.62191354 -1.15525442 9.66879147 C-1.14977998 8.82680339 -1.14430554 7.98481531 -1.1386652 7.11731243 C-1.13600716 6.38938856 -1.13334911 5.66146469 -1.13061053 4.91148251 C-1 3 -1 3 0 0 Z M-8.890625 299.38671875 C-10.28330675 301.08567447 -10.28330675 301.08567447 -10 304 C-10.66 304 -11.32 304 -12 304 C-12.81604999 305.9151579 -13.62770632 307.83218834 -14.4375 309.75 C-15.11619141 311.35101563 -15.11619141 311.35101563 -15.80859375 312.984375 C-19.38859131 322.04587701 -19.20272555 331.73442053 -15.875 340.875 C-11.52442976 350.84505681 -5.63768858 357.65191848 4 363 C6.71149282 363.59839842 8.23566912 363.4914366 11 363 C11.33 363.99 11.66 364.98 12 366 C21.56425102 368.11203389 29.24402507 367.35799665 38 363 C39.50240234 362.25943359 39.50240234 362.25943359 41.03515625 361.50390625 C46.81799296 358.960129 46.81799296 358.960129 50 354 C50.99 353.67 51.98 353.34 53 353 C54.68598781 350.7900273 54.68598781 350.7900273 56.1875 348.125 C56.71730469 347.24070312 57.24710938 346.35640625 57.79296875 345.4453125 C59.22131196 343.00614476 59.22131196 343.00614476 59 340 C59.66 340 60.32 340 61 340 C63.90080565 326.26312697 63.0786476 317.24804166 56 305 C55.38125 303.906875 54.7625 302.81375 54.125 301.6875 C47.53748422 293.35623004 39.4267877 288.45492768 28.94921875 286.40234375 C14.66419613 284.79041513 1.21054468 288.92479301 -8.890625 299.38671875 Z " fill="#010101" transform="translate(867,101)"/>
<path d="M0 0 C1.86254368 1.6321259 3.66385947 2.95483968 5.70703125 4.33203125 C9.37354723 6.91784852 12.0078241 9.87314397 14.7109375 13.4296875 C15.17902832 14.03949463 15.64711914 14.64930176 16.12939453 15.27758789 C31.52766951 35.77091901 36.66994548 57.8109655 34.0390625 83.25927734 C30.98345299 103.78915373 19.18663164 122.53428984 3.8125 136.17578125 C1.37260466 137.97863907 -1.08533503 139.49728869 -3.7265625 140.9921875 C-4.37737793 141.36601562 -5.02819336 141.73984375 -5.69873047 142.125 C-7.9259 143.39396289 -10.1658436 144.63592807 -12.4140625 145.8671875 C-13.12723633 146.26147949 -13.84041016 146.65577148 -14.57519531 147.06201172 C-15.26838867 147.4282666 -15.96158203 147.79452148 -16.67578125 148.171875 C-17.28768311 148.49913574 -17.89958496 148.82639648 -18.5300293 149.16357422 C-21.53249615 150.29621538 -24.55512586 150.56947127 -27.7265625 150.9921875 C-27.72609456 151.92468572 -27.72609456 151.92468572 -27.72561716 152.87602229 C-27.69173617 220.53407046 -27.66032373 288.1921196 -27.64187622 355.85017395 C-27.64160011 356.86026548 -27.64132399 357.87035702 -27.64103951 358.91105738 C-27.63505418 380.86122103 -27.62951375 402.81138477 -27.62443184 424.76154865 C-27.62193709 435.52535863 -27.61934399 446.28916858 -27.61669922 457.05297852 C-27.6164377 458.12412693 -27.61617618 459.19527535 -27.61590674 460.29888281 C-27.60737873 495.03973475 -27.59235215 529.7805802 -27.57396806 564.5214282 C-27.55511576 600.21175055 -27.54279461 635.90206929 -27.53873252 671.59239653 C-27.53815618 676.62936516 -27.53750491 681.66633377 -27.53680801 686.70330238 C-27.53660574 688.19037505 -27.53660574 688.19037505 -27.53639939 689.70748959 C-27.53403274 705.68847919 -27.52474797 721.66945769 -27.51289843 737.65044276 C-27.50114257 753.70310444 -27.49662186 769.75575508 -27.49955975 785.80842092 C-27.50108493 795.35439542 -27.49698955 804.90032964 -27.48496741 814.44629689 C-27.4774913 820.81575485 -27.47721844 827.18518632 -27.48289887 833.55464608 C-27.48593058 837.1885129 -27.48573928 840.82230335 -27.47679614 844.45616212 C-27.46725162 848.36390743 -27.47305286 852.27154162 -27.48046684 856.17929363 C-27.47521282 857.31647425 -27.46995879 858.45365486 -27.46454555 859.62529549 C-27.46904013 860.66429209 -27.47353472 861.70328869 -27.47816551 862.77377003 C-27.47769757 864.11465747 -27.47769757 864.11465747 -27.47722017 865.48263354 C-27.75528061 868.28122642 -28.5710428 870.44065013 -29.7265625 872.9921875 C-35.52895864 873.04153406 -41.33123331 873.07788152 -47.13378906 873.10205078 C-49.10874559 873.11212377 -51.08368716 873.12578271 -53.05859375 873.14306641 C-55.89326668 873.16725789 -58.72774288 873.17865741 -61.5625 873.1875 C-62.44900238 873.19782257 -63.33550476 873.20814514 -64.24887085 873.21878052 C-66.40942202 873.2191782 -68.56949968 873.11491284 -70.7265625 872.9921875 C-74.89551894 868.82323106 -73.84549783 862.10038936 -73.85757098 856.53730989 C-73.85363046 854.84510556 -73.85363046 854.84510556 -73.84961033 853.11871529 C-73.85076417 851.90798178 -73.85191802 850.69724828 -73.85310683 849.44982588 C-73.85530114 846.08217506 -73.85300124 842.71458106 -73.84882869 839.34693565 C-73.84539446 835.68593632 -73.8477653 832.02494006 -73.84940618 828.36394012 C-73.85148056 821.94538527 -73.84983504 815.52683968 -73.84576797 809.1082859 C-73.83973716 799.56410567 -73.83943178 790.01993129 -73.84030996 780.4757495 C-73.84162447 764.42153595 -73.83828016 748.36732652 -73.83229256 732.31311417 C-73.82637815 716.41446029 -73.82252714 700.51580813 -73.82143974 684.61715317 C-73.821371 683.62910035 -73.82130226 682.64104754 -73.82123144 681.62305372 C-73.82089311 676.60535545 -73.82059173 671.58765718 -73.82030457 666.56995891 C-73.81820343 631.01766675 -73.81146406 595.46537683 -73.80200195 559.91308594 C-73.79281951 525.37174491 -73.78573492 490.8304045 -73.78149414 456.2890625 C-73.78129685 454.69235344 -73.78129685 454.69235344 -73.78109558 453.06338763 C-73.77977707 442.3736412 -73.77850125 431.68389478 -73.77725672 420.99414835 C-73.77472042 399.21736148 -73.77189916 377.44057465 -73.76890564 355.66378784 C-73.7686997 354.16185305 -73.7686997 354.16185305 -73.76848961 352.62957614 C-73.75928694 285.75044566 -73.7434415 218.87131643 -73.7265625 151.9921875 C-74.36464844 151.88261719 -75.00273438 151.77304687 -75.66015625 151.66015625 C-76.48644531 151.50160156 -77.31273437 151.34304688 -78.1640625 151.1796875 C-79.39962891 150.95345703 -79.39962891 150.95345703 -80.66015625 150.72265625 C-81.34207031 150.48160156 -82.02398437 150.24054688 -82.7265625 149.9921875 C-83.0565625 149.0021875 -83.3865625 148.0121875 -83.7265625 146.9921875 C-85.36086329 146.51551644 -86.99846039 146.04810775 -88.6484375 145.62890625 C-106.63084937 140.1192575 -119.90912169 122.12932611 -128.3515625 106.2421875 C-138.08186789 86.18520317 -139.05396989 60.56429995 -131.8828125 39.515625 C-130.95356606 37.24858412 -129.90135627 35.14221072 -128.7265625 32.9921875 C-128.22125 32.06019531 -127.7159375 31.12820312 -127.1953125 30.16796875 C-125.44409352 27.05955505 -123.61217227 24.02082671 -121.7265625 20.9921875 C-121.15292969 20.06019531 -120.57929688 19.12820312 -119.98828125 18.16796875 C-114.55648494 10.01445866 -107.58706851 4.63217151 -99.7265625 -1.0078125 C-98.48132813 -1.92240234 -98.48132813 -1.92240234 -97.2109375 -2.85546875 C-70.69740415 -21.50077728 -24.96779079 -22.36891294 0 0 Z M-73.7265625 35.9921875 C-74.34144531 36.48589844 -74.95632813 36.97960937 -75.58984375 37.48828125 C-82.18432971 42.86570577 -87.87587381 49.47901953 -89.7265625 57.9921875 C-89.80179219 60.32430777 -89.81982126 62.6607186 -89.7265625 64.9921875 C-90.3865625 64.9921875 -91.0465625 64.9921875 -91.7265625 64.9921875 C-91.7265625 67.9621875 -91.7265625 70.9321875 -91.7265625 73.9921875 C-91.0665625 73.9921875 -90.4065625 73.9921875 -89.7265625 73.9921875 C-89.79875 74.99378906 -89.8709375 75.99539062 -89.9453125 77.02734375 C-89.68972957 81.65978439 -88.41527521 84.43676567 -86.2265625 88.4296875 C-85.89269531 89.06583984 -85.55882812 89.70199219 -85.21484375 90.35742188 C-84.39816128 91.90911857 -83.5641291 93.45166321 -82.7265625 94.9921875 C-82.0665625 94.9921875 -81.4065625 94.9921875 -80.7265625 94.9921875 C-80.36111328 95.88744141 -80.36111328 95.88744141 -79.98828125 96.80078125 C-76.66095861 102.57981531 -68.79073097 105.77643364 -62.7265625 107.9921875 C-51.15917733 110.80587579 -39.03782913 109.52323702 -28.8515625 103.38671875 C-20.1730415 97.69143934 -13.97307124 89.79928426 -11.2890625 79.5546875 C-9.1546449 66.46359291 -10.88006063 55.55778058 -18.32421875 44.609375 C-18.78699219 44.07570313 -19.24976563 43.54203125 -19.7265625 42.9921875 C-20.3865625 42.9921875 -21.0465625 42.9921875 -21.7265625 42.9921875 C-21.9534375 42.3940625 -22.1803125 41.7959375 -22.4140625 41.1796875 C-24.09163203 38.38373828 -25.89590344 37.57209023 -28.7265625 35.9921875 C-29.4690625 35.3321875 -30.2115625 34.6721875 -30.9765625 33.9921875 C-42.45261986 25.64596397 -63.30119432 26.11552291 -73.7265625 35.9921875 Z M-10.7265625 66.9921875 C-9.7265625 70.9921875 -9.7265625 70.9921875 -9.7265625 70.9921875 Z " fill="#000000" transform="translate(590.7265625,119.0078125)"/>
<path d="M0 0 C1.22599653 2.45199307 1.12675826 4.03583066 1.12945986 6.77824968 C1.13288434 7.79540155 1.13630883 8.81255343 1.13983709 9.86052808 C1.13852857 10.98868874 1.13722005 12.1168494 1.13587189 13.27919674 C1.13841451 14.47428583 1.14095713 15.66937493 1.1435768 16.90067884 C1.14967078 20.24311812 1.15125067 23.58550639 1.15100404 26.92794775 C1.15182913 30.5547174 1.15842439 34.1814771 1.16431475 37.80824143 C1.17385229 44.17297803 1.17967951 50.53770977 1.18312263 56.90245247 C1.18826574 66.3668412 1.19911362 75.83121727 1.21120207 85.29559937 C1.23139227 101.21482399 1.24707508 117.13405004 1.26036072 133.05328178 C1.27856005 154.78809746 1.30326795 176.52290227 1.32973462 198.25770927 C1.34204544 208.37472013 1.35403637 218.49173137 1.36594391 228.60874271 C1.36713643 229.6216372 1.36832896 230.63453168 1.36955762 231.67811994 C1.39788498 255.80176835 1.42307868 279.92541988 1.44775391 304.04907227 C1.4488351 305.104968 1.4499163 306.16086373 1.45103026 307.24875631 C1.46747408 323.31167075 1.48375495 339.37458536 1.5 355.4375 C1.51732221 372.56518564 1.53470546 389.69287122 1.55224609 406.82055664 C1.55332556 407.87574193 1.55440503 408.93092722 1.5555172 410.01808781 C1.58016699 434.09688174 1.60570786 458.17567427 1.63405609 482.25446415 C1.63524634 483.26576575 1.63643659 484.27706734 1.63766291 485.31901444 C1.64956419 495.41363053 1.66162182 505.50824641 1.67391312 515.60286202 C1.70031651 537.31599522 1.7239624 559.02912652 1.74208651 580.7422683 C1.75533803 596.56837177 1.77197416 612.39446851 1.79218161 628.22056466 C1.80407986 637.63364722 1.81313336 647.04672293 1.81822758 656.45981168 C1.82189248 662.73807214 1.82912226 669.01632178 1.8393119 675.29457503 C1.8450207 678.87793643 1.84910545 682.46128043 1.84884077 686.04464679 C1.84858963 689.89476693 1.85594673 693.74485013 1.86412811 697.59496212 C1.8628196 698.72078161 1.86151108 699.8466011 1.86016291 701.00653633 C1.8635874 702.02619173 1.86701188 703.04584712 1.87054014 704.09640115 C1.87140827 704.97771214 1.87227639 705.85902313 1.87317082 706.76704052 C1.91201039 709.17256724 1.91201039 709.17256724 3 712 C3.92232422 712.05607422 3.92232422 712.05607422 4.86328125 712.11328125 C5.67152344 712.17902344 6.47976562 712.24476563 7.3125 712.3125 C8.51326172 712.39951172 8.51326172 712.39951172 9.73828125 712.48828125 C12.42617936 713.096424 13.17088174 714.0028006 15 716 C16.83079138 717.05883945 16.83079138 717.05883945 18.8125 717.9375 C22.44035522 719.68522587 25.69718635 721.68100318 29 724 C29.83144531 724.53560547 29.83144531 724.53560547 30.6796875 725.08203125 C35.6447556 728.38104317 39.2643731 732.38442543 43 737 C43.60070312 737.73734375 44.20140625 738.4746875 44.8203125 739.234375 C48.22587201 743.50975274 51.28120783 747.85516429 54.0546875 752.56640625 C54.36664063 753.03949219 54.67859375 753.51257813 55 754 C55.33 754 55.66 754 56 754 C58.0229762 759.66433336 59.66485262 765.35762717 61.125 771.1875 C61.29547852 771.86425781 61.46595703 772.54101562 61.64160156 773.23828125 C66.87826599 794.47644313 64.41330248 816.35520178 53.30078125 835.28125 C52.53979902 836.52449174 51.77328043 837.76437005 51 839 C50.37480469 840.0003125 49.74960937 841.000625 49.10546875 842.03125 C45.96983098 846.73116755 42.51386771 850.77181846 38.3828125 854.625 C36.88108146 855.97207543 36.88108146 855.97207543 36 858 C34.66666667 858.66666667 33.33333333 859.33333333 32 860 C31.56171875 860.44730469 31.1234375 860.89460937 30.671875 861.35546875 C23.66875379 868.24405293 14.17512559 872.01096744 5 875 C4.06414062 875.32097656 3.12828125 875.64195312 2.1640625 875.97265625 C-5.37874642 878.14652209 -12.75215338 878.2774786 -20.5625 878.3125 C-21.6030957 878.31805908 -22.64369141 878.32361816 -23.71582031 878.3293457 C-41.92204129 878.1616191 -63.85506944 872.51998118 -77.5078125 859.6328125 C-78.33023438 858.76398437 -79.15265625 857.89515625 -80 857 C-80.80179688 856.17242188 -81.60359375 855.34484375 -82.4296875 854.4921875 C-88.12388329 848.3977607 -92.84777709 842.23290442 -97 835 C-97.37640625 834.3709375 -97.7528125 833.741875 -98.140625 833.09375 C-107.71998449 815.75967092 -109.56994099 795.15794421 -106 776 C-105.86464844 775.236875 -105.72929688 774.47375 -105.58984375 773.6875 C-103.92712888 765.93892584 -100.67660475 758.01278314 -97 751 C-96.34 751 -95.68 751 -95 751 C-94.60554688 749.89785156 -94.60554688 749.89785156 -94.203125 748.7734375 C-92.24977516 744.27058559 -89.09249513 740.77400134 -86 737 C-85.43152344 736.29488281 -84.86304688 735.58976563 -84.27734375 734.86328125 C-82.90291177 733.19842875 -81.45727842 731.5928392 -80 730 C-79.34 730 -78.68 730 -78 730 C-77.67 729.01 -77.34 728.02 -77 727 C-69.88497774 721.75323044 -61.95237988 717.84797572 -53.875 714.32421875 C-49.77001799 712.44811498 -49.77001799 712.44811498 -46 710 C-45.21653254 707.41808781 -45.21653254 707.41808781 -45.29695988 704.3623991 C-45.26845949 703.13602177 -45.23995911 701.90964444 -45.21059507 700.64610416 C-45.20454658 699.23808661 -45.19925033 697.83006569 -45.19459534 696.42204285 C-45.17184027 694.88418716 -45.1474164 693.34635548 -45.12154251 691.80854911 C-45.05518317 687.25068129 -45.02887117 682.69325239 -45.01184598 678.13495824 C-44.99942034 674.8465981 -44.9815952 671.5582945 -44.96321177 668.26996255 C-44.87332878 650.98232288 -44.87067128 633.69502435 -44.8823847 616.40721739 C-44.88773573 608.23416197 -44.88704698 600.06110938 -44.88625254 591.88805264 C-44.88494815 576.81289716 -44.88824346 561.73774612 -44.89426994 546.66259193 C-44.90021121 531.76199636 -44.90404075 516.86140264 -44.90512276 501.96080589 C-44.9051915 501.0302004 -44.90526024 500.0995949 -44.90533106 499.14078924 C-44.90566945 494.41365257 -44.90597081 489.68651589 -44.90625793 484.95937922 C-44.90835171 451.58058424 -44.91507041 418.20179167 -44.92456055 384.82299805 C-44.93376254 352.42000338 -44.94083752 320.01700938 -44.94506836 287.61401367 C-44.94519989 286.61311746 -44.94533141 285.61222125 -44.94546692 284.58099485 C-44.94678558 274.52849339 -44.94806137 264.47599194 -44.94930578 254.42349047 C-44.95184119 233.95006682 -44.95466244 213.4766432 -44.95765686 193.0032196 C-44.95779415 192.06213071 -44.95793144 191.12104181 -44.95807289 190.15143507 C-44.96725506 127.43428905 -44.98309804 64.71714436 -45 2 C-40.85416287 0.83745598 -36.86097615 0.89215843 -32.5859375 0.9375 C-31.36966171 0.94317993 -31.36966171 0.94317993 -30.1288147 0.94897461 C-27.54415534 0.96117154 -24.95960852 0.97980775 -22.375 1 C-18.96614896 1.02652311 -15.5573525 1.04654293 -12.1484375 1.0625 C-10.96874893 1.07494751 -10.96874893 1.07494751 -9.76522827 1.08764648 C-6.27450795 1.10349166 -3.27092654 0 0 0 Z M-53.26953125 767.65234375 C-56.27964058 771.7360361 -59 775.79248127 -59 781 C-59.66 781 -60.32 781 -61 781 C-62.53068096 789.83085169 -63.67086809 797.26831587 -61 806 C-60.34 806 -59.68 806 -59 806 C-58.90332031 806.70898438 -58.80664062 807.41796875 -58.70703125 808.1484375 C-57.88374287 811.46888236 -56.53559618 813.75194256 -54.6875 816.625 C-54.09324219 817.56601562 -53.49898437 818.50703125 -52.88671875 819.4765625 C-51.0823815 821.88981687 -49.55543126 823.42985873 -47 825 C-46.34 825 -45.68 825 -45 825 C-45 825.66 -45 826.32 -45 827 C-43.35 827.33 -41.7 827.66 -40 828 C-39.67 828.99 -39.34 829.98 -39 831 C-27.78108743 835.05683892 -17.10856015 835.15786503 -6 831 C5.49661622 825.54080798 12.6728136 817.94793979 17 806 C20.64828563 795.41806157 19.16662052 786.2293553 15 776 C12.93276646 772.13717386 10.76962321 768.40404428 8 765 C7.34 765 6.68 765 6 765 C6 764.34 6 763.68 6 763 C5.34 763 4.68 763 4 763 C4 762.34 4 761.68 4 761 C-15.66930136 750.57527028 -37.67746911 749.01033732 -53.26953125 767.65234375 Z " fill="#020202" transform="translate(213,101)"/>
<path d="M0 0 C1.98019743 0.47488898 3.95913635 0.95502859 5.9375 1.4375 C7.03964844 1.70433594 8.14179687 1.97117187 9.27734375 2.24609375 C12 3 12 3 13 4 C13.09743523 5.57568243 13.124473 7.15575546 13.1241985 8.73444754 C13.12644579 9.7673218 13.12869308 10.80019606 13.13100848 11.86436954 C13.12838146 13.0152669 13.12575445 14.16616426 13.12304783 15.35193729 C13.12420167 16.56703182 13.12535552 17.78212634 13.12654433 19.03404191 C13.12875049 22.43723355 13.1264218 25.84036971 13.12226619 29.24355612 C13.11884892 32.93439114 13.12119954 36.62522298 13.12284368 40.31605858 C13.12492339 46.79475135 13.12326351 53.27343498 13.11920547 59.75212669 C13.11318795 69.38581114 13.11286804 79.01948976 13.11374746 88.65317574 C13.1150636 104.85598511 13.11171148 121.05879041 13.10573006 137.26159859 C13.09981992 153.31231265 13.09596551 169.36302502 13.09487724 185.41374016 C13.0948085 186.41045475 13.09473976 187.40716935 13.09466894 188.43408742 C13.09433062 193.49557075 13.09402923 198.55705408 13.09374207 203.61853742 C13.09163975 239.50081972 13.08489708 275.38309981 13.07543945 311.26538086 C13.06626013 346.1319172 13.05917402 380.99845293 13.05493164 415.86499023 C13.05480011 416.93908491 13.05466859 418.01317958 13.05453308 419.11982258 C13.0532146 429.9059875 13.05193878 440.69215243 13.05069422 451.47831736 C13.04815777 473.45241811 13.04533652 495.42651882 13.04234314 517.40061951 C13.04220585 518.41102875 13.04206856 519.421438 13.04192711 520.46246571 C13.03272115 587.97497807 13.01679867 655.48748915 13 723 C26.2 723 39.4 723 53 723 C53 485.73 53 248.46 53 4 C61 1 61 1 64 2 C60.91190305 3.76462683 59.76687864 4 56 4 C56.00031196 4.62166548 56.00062392 5.24333096 56.00094534 5.88383479 C56.03482633 73.54188296 56.06623877 141.1999321 56.08468628 208.85798645 C56.08496239 209.86807798 56.08523851 210.87816952 56.08552299 211.91886988 C56.09150832 233.86903353 56.09704875 255.81919727 56.10213066 277.76936115 C56.10462541 288.53317113 56.10721851 299.29698108 56.10986328 310.06079102 C56.1101248 311.13193943 56.11038632 312.20308785 56.11065576 313.30669531 C56.11918377 348.04754725 56.13421035 382.7883927 56.15259444 417.5292407 C56.17144674 453.21956305 56.18376789 488.90988179 56.18782998 524.60020903 C56.18840632 529.63717766 56.18905759 534.67414627 56.18975449 539.71111488 C56.18988933 540.70249666 56.19002418 541.69387844 56.19016311 542.71530209 C56.19252976 558.69629169 56.20181453 574.67727019 56.21366407 590.65825526 C56.22541993 606.71091694 56.22994064 622.76356758 56.22700275 638.81623342 C56.22547757 648.36220792 56.22957295 657.90814214 56.24159509 667.45410939 C56.2490712 673.82356735 56.24934406 680.19299882 56.24366363 686.56245858 C56.24063192 690.1963254 56.24082322 693.83011585 56.24976636 697.46397462 C56.25931088 701.37171993 56.25350964 705.27935412 56.24609566 709.18710613 C56.25134968 710.32428675 56.25660371 711.46146736 56.26201695 712.63310799 C56.25752237 713.67210459 56.25302778 714.71110119 56.24839699 715.78158253 C56.24870895 716.67550749 56.24902092 717.56943245 56.24934233 718.49044604 C55.97128189 721.28903892 55.1555197 723.44846263 54 726 C48.19760386 726.04934656 42.39532919 726.08569402 36.59277344 726.10986328 C34.61781691 726.11993627 32.64287534 726.13359521 30.66796875 726.15087891 C27.83329582 726.17507039 24.99881962 726.18646991 22.1640625 726.1953125 C21.27756012 726.20563507 20.39105774 726.21595764 19.47769165 726.22659302 C17.31714048 726.2269907 15.15706282 726.12272534 13 726 C8.83104356 721.83104356 9.88106467 715.10820186 9.86899152 709.54512239 C9.87161854 708.41698617 9.87424555 707.28884995 9.87695217 706.12652779 C9.87579833 704.91579428 9.87464448 703.70506078 9.87345567 702.45763838 C9.87126136 699.08998756 9.87356126 695.72239356 9.87773381 692.35474815 C9.88116804 688.69374882 9.8787972 685.03275256 9.87715632 681.37175262 C9.87508194 674.95319777 9.87672746 668.53465218 9.88079453 662.1160984 C9.88682534 652.57191817 9.88713072 643.02774379 9.88625254 633.483562 C9.88493803 617.42934845 9.88828234 601.37513902 9.89426994 585.32092667 C9.90018435 569.42227279 9.90403536 553.52362063 9.90512276 537.62496567 C9.9051915 536.63691285 9.90526024 535.64886004 9.90533106 534.63086622 C9.90566939 529.61316795 9.90597077 524.59546968 9.90625793 519.57777141 C9.90835907 484.02547925 9.91509844 448.47318933 9.92456055 412.92089844 C9.93374299 378.37955741 9.94082758 343.838217 9.94506836 309.296875 C9.94519989 308.23240229 9.94533141 307.16792958 9.94546692 306.07120013 C9.94678543 295.3814537 9.94806125 284.69170728 9.94930578 274.00196085 C9.95184208 252.22517398 9.95466334 230.44838715 9.95765686 208.67160034 C9.95779415 207.67031048 9.95793144 206.66902062 9.95807289 205.63738864 C9.96727556 138.75825816 9.983121 71.87912893 10 5 C9.36191406 4.89042969 8.72382812 4.78085937 8.06640625 4.66796875 C7.24011719 4.50941406 6.41382813 4.35085938 5.5625 4.1875 C4.73878906 4.03667969 3.91507812 3.88585937 3.06640625 3.73046875 C2.38449219 3.48941406 1.70257813 3.24835938 1 3 C0.67 2.01 0.34 1.02 0 0 Z " fill="#767676" transform="translate(507,266)"/>
<path d="M0 0 C1.22599653 2.45199307 1.12675826 4.03583066 1.12945986 6.77824968 C1.13288434 7.79540155 1.13630883 8.81255343 1.13983709 9.86052808 C1.13852857 10.98868874 1.13722005 12.1168494 1.13587189 13.27919674 C1.13841451 14.47428583 1.14095713 15.66937493 1.1435768 16.90067884 C1.14967078 20.24311812 1.15125067 23.58550639 1.15100404 26.92794775 C1.15182913 30.5547174 1.15842439 34.1814771 1.16431475 37.80824143 C1.17385229 44.17297803 1.17967951 50.53770977 1.18312263 56.90245247 C1.18826574 66.3668412 1.19911362 75.83121727 1.21120207 85.29559937 C1.23139227 101.21482399 1.24707508 117.13405004 1.26036072 133.05328178 C1.27856005 154.78809746 1.30326795 176.52290227 1.32973462 198.25770927 C1.34204544 208.37472013 1.35403637 218.49173137 1.36594391 228.60874271 C1.36713643 229.6216372 1.36832896 230.63453168 1.36955762 231.67811994 C1.39788498 255.80176835 1.42307868 279.92541988 1.44775391 304.04907227 C1.4488351 305.104968 1.4499163 306.16086373 1.45103026 307.24875631 C1.46747408 323.31167075 1.48375495 339.37458536 1.5 355.4375 C1.51732221 372.56518564 1.53470546 389.69287122 1.55224609 406.82055664 C1.55332556 407.87574193 1.55440503 408.93092722 1.5555172 410.01808781 C1.58016699 434.09688174 1.60570786 458.17567427 1.63405609 482.25446415 C1.63524634 483.26576575 1.63643659 484.27706734 1.63766291 485.31901444 C1.64956419 495.41363053 1.66162182 505.50824641 1.67391312 515.60286202 C1.70031651 537.31599522 1.7239624 559.02912652 1.74208651 580.7422683 C1.75533803 596.56837177 1.77197416 612.39446851 1.79218161 628.22056466 C1.80407986 637.63364722 1.81313336 647.04672293 1.81822758 656.45981168 C1.82189248 662.73807214 1.82912226 669.01632178 1.8393119 675.29457503 C1.8450207 678.87793643 1.84910545 682.46128043 1.84884077 686.04464679 C1.84858963 689.89476693 1.85594673 693.74485013 1.86412811 697.59496212 C1.8628196 698.72078161 1.86151108 699.8466011 1.86016291 701.00653633 C1.8635874 702.02619173 1.86701188 703.04584712 1.87054014 704.09640115 C1.87140827 704.97771214 1.87227639 705.85902313 1.87317082 706.76704052 C1.91201039 709.17256724 1.91201039 709.17256724 3 712 C3.92232422 712.03867188 3.92232422 712.03867188 4.86328125 712.078125 C11.54716981 712.54716981 11.54716981 712.54716981 14.0625 715.0625 C14.371875 715.701875 14.68125 716.34125 15 717 C11.51450935 716.34803772 8.14664229 715.51695877 4.75 714.5 C3.87859375 714.2421875 3.0071875 713.984375 2.109375 713.71875 C0 713 0 713 -1 712 C-1.09738234 710.4457216 -1.12447311 708.88699885 -1.1241985 707.32967275 C-1.12644579 706.31113266 -1.12869308 705.29259258 -1.13100848 704.24318764 C-1.12706796 702.54090678 -1.12706796 702.54090678 -1.12304783 700.80423641 C-1.12420167 699.60602563 -1.12535552 698.40781484 -1.12654433 697.17329463 C-1.12875046 693.81745455 -1.12642185 690.46167073 -1.12226619 687.10583595 C-1.11884888 683.46633113 -1.12119955 679.82682952 -1.12284368 676.18732411 C-1.12492338 669.79875509 -1.12326354 663.41019536 -1.11920547 657.02162743 C-1.11318791 647.52195551 -1.11286804 638.0222895 -1.11374746 628.52261603 C-1.1150636 612.54519579 -1.1117115 596.56777968 -1.10573006 580.59036064 C-1.09981991 564.76293352 -1.0959655 548.93550812 -1.09487724 533.10807991 C-1.0948085 532.12522878 -1.09473976 531.14237766 -1.09466894 530.12974316 C-1.09433062 525.13866028 -1.09402923 520.14757739 -1.09374207 515.15649451 C-1.09163975 479.77335519 -1.0848971 444.39021813 -1.07543945 409.00708008 C-1.06626012 374.62556978 -1.05917401 340.2440601 -1.05493164 305.86254883 C-1.05473435 304.27381766 -1.05473435 304.27381766 -1.05453308 302.6529909 C-1.0532146 292.01685998 -1.05193878 281.38072906 -1.05069422 270.74459812 C-1.04815777 249.07615641 -1.04533652 227.40771473 -1.04234314 205.73927307 C-1.0421372 204.24474154 -1.0421372 204.24474154 -1.04192711 202.72001745 C-1.03272116 136.14667735 -1.01679868 69.57333856 -1 3 C-14.53 3.33 -28.06 3.66 -42 4 C-42.00423194 7.64699888 -42.00846388 11.29399776 -42.01282406 15.05151176 C-42.08695513 78.83798434 -42.16235177 142.62445532 -42.2436676 206.41091919 C-42.24493928 207.40873726 -42.24621096 208.40655532 -42.24752118 209.4346103 C-42.27516244 231.11737939 -42.30302542 252.80014819 -42.33111694 274.48291671 C-42.34489071 285.11540145 -42.35861546 295.74788625 -42.37231445 306.38037109 C-42.37367854 307.4384582 -42.37504262 308.49654531 -42.37644804 309.58669567 C-42.42067715 343.91199422 -42.46166641 378.23729573 -42.50098413 412.56260023 C-42.54138905 447.82218141 -42.58504541 483.0817571 -42.63282111 518.3413291 C-42.63956014 523.31601425 -42.64626181 528.29069944 -42.65294075 533.26538467 C-42.65425648 534.24452037 -42.65557221 535.22365606 -42.6569278 536.23246254 C-42.67805215 552.02435091 -42.6957262 567.81624136 -42.71212531 583.60813527 C-42.72866583 599.46583238 -42.74880476 615.32352162 -42.77266841 631.18120943 C-42.78675345 640.61448734 -42.79802794 650.04775911 -42.80536438 659.48104474 C-42.81052769 665.77156269 -42.81926643 672.06206892 -42.83098774 678.35257806 C-42.83757477 681.94379474 -42.84253601 685.5349945 -42.84316199 689.12621759 C-42.84387024 692.98309677 -42.85218202 696.83993703 -42.8613348 700.69680595 C-42.86031213 701.8274285 -42.85928946 702.95805104 -42.85823581 704.12293488 C-42.86191652 705.14228884 -42.86559723 706.16164281 -42.86938947 707.21188629 C-42.87048134 708.09504858 -42.8715732 708.97821088 -42.87269815 709.88813566 C-43 712 -43 712 -44 714 C-48.12606298 715.72718916 -51.54702569 716.2120464 -56 716 C-53.35603236 713.35603236 -50.42496181 712.43225676 -47 711 C-44.18384381 708.18384381 -45.55028332 700.48213178 -45.44459534 696.54704285 C-45.42360464 695.79860366 -45.40261395 695.05016447 -45.38098717 694.27904531 C-44.67967486 668.3310365 -44.86476012 642.36263947 -44.88238852 616.4072193 C-44.88772637 608.23416323 -44.88704698 600.06111002 -44.88625254 591.88805264 C-44.88494815 576.81289716 -44.88824346 561.73774612 -44.89426994 546.66259193 C-44.90021121 531.76199636 -44.90404075 516.86140264 -44.90512276 501.96080589 C-44.9051915 501.0302004 -44.90526024 500.0995949 -44.90533106 499.14078924 C-44.90566945 494.41365257 -44.90597081 489.68651589 -44.90625793 484.95937922 C-44.90835171 451.58058424 -44.91507041 418.20179167 -44.92456055 384.82299805 C-44.93376254 352.42000338 -44.94083752 320.01700938 -44.94506836 287.61401367 C-44.94519989 286.61311746 -44.94533141 285.61222125 -44.94546692 284.58099485 C-44.94678558 274.52849339 -44.94806137 264.47599194 -44.94930578 254.42349047 C-44.95184119 233.95006682 -44.95466244 213.4766432 -44.95765686 193.0032196 C-44.95779415 192.06213071 -44.95793144 191.12104181 -44.95807289 190.15143507 C-44.96725506 127.43428905 -44.98309804 64.71714436 -45 2 C-40.85416287 0.83745598 -36.86097615 0.89215843 -32.5859375 0.9375 C-31.36966171 0.94317993 -31.36966171 0.94317993 -30.1288147 0.94897461 C-27.54415534 0.96117154 -24.95960852 0.97980775 -22.375 1 C-18.96614896 1.02652311 -15.5573525 1.04654293 -12.1484375 1.0625 C-10.96874893 1.07494751 -10.96874893 1.07494751 -9.76522827 1.08764648 C-6.27450795 1.10349166 -3.27092654 0 0 0 Z " fill="#DCDCDC" transform="translate(213,101)"/>
<path d="M0 0 C0.99 0.495 0.99 0.495 2 1 C-5.57246234 8.16314005 -13.90028186 10.75561819 -24 13 C-24.33 170.41 -24.66 327.82 -25 490 C-29.45813192 492.22906596 -29.54375409 492.01429917 -34 491 C-36.79690256 490.91800267 -39.56736006 490.88339731 -42.36328125 490.90234375 C-43.55125557 490.90446617 -43.55125557 490.90446617 -44.76322937 490.90663147 C-47.27969219 490.91220543 -49.79606431 490.92475307 -52.3125 490.9375 C-54.02408725 490.94251837 -55.73567591 490.94708069 -57.44726562 490.95117188 C-61.63154508 490.96216632 -65.81575719 490.97941293 -70 491 C-71.20925568 487.37223296 -71.13498505 484.06196642 -71.12025452 480.28624821 C-71.12110876 479.48876105 -71.12196301 478.6912739 -71.12284315 477.86962047 C-71.12449851 475.1747818 -71.11896744 472.48000454 -71.11352539 469.78517151 C-71.11324559 467.84265216 -71.11340793 465.9001327 -71.11397648 463.95761341 C-71.1142731 458.60196362 -71.1083218 453.24633583 -71.10140657 447.89069116 C-71.09505086 442.12169859 -71.09446489 436.35270525 -71.0932312 430.58370972 C-71.0903401 420.58173328 -71.08389361 410.57976418 -71.07516479 400.57779121 C-71.06263292 386.11213231 -71.0565392 371.64647614 -71.05223143 357.18081271 C-71.05022493 350.44511874 -71.0478975 343.70942488 -71.04548645 336.97373104 C-71.04524544 336.29939217 -71.04500442 335.6250533 -71.04475611 334.93027992 C-71.03894275 318.8736847 -71.02998618 302.81709147 -71.02050781 286.76049805 C-71.02009417 286.05779883 -71.01968052 285.35509962 -71.01925434 284.63110649 C-71.01253735 273.22761122 -71.00562994 261.82411606 -70.998698 250.42062092 C-70.99220559 239.73703835 -70.98578246 229.05345574 -70.97949219 218.36987305 C-70.9790776 217.66769954 -70.97866301 216.96552604 -70.97823586 216.24207455 C-70.9687903 200.2157376 -70.96024125 184.18940085 -70.95451355 168.1630621 C-70.95427256 167.4897753 -70.95403156 166.8164885 -70.95378327 166.12279908 C-70.9511626 158.7381544 -70.94878066 151.35350967 -70.94658184 143.96886486 C-70.94209301 129.53445584 -70.93403722 115.10005701 -70.92143703 100.66565274 C-70.91302956 90.78026691 -70.90812477 80.89488343 -70.90601182 71.00949425 C-70.90466291 65.29974572 -70.90162948 59.59001038 -70.89425278 53.88026619 C-70.88753232 48.65889491 -70.88536172 43.43754276 -70.88688838 38.21616756 C-70.88661569 36.32185028 -70.88462592 34.42753236 -70.8807956 32.53321893 C-70.87584849 29.96865269 -70.87700338 27.40416075 -70.87974548 24.83959293 C-70.87683262 24.09531183 -70.87391976 23.35103072 -70.87091863 22.58419564 C-70.88064286 19.24671698 -70.95938776 16.19066337 -72 13 C-72.56847656 12.89042969 -73.13695312 12.78085937 -73.72265625 12.66796875 C-81.57671515 11.05519873 -88.13079334 8.06544884 -95 4 C-95 3.34 -95 2.68 -95 2 C-92.02522786 3.11553955 -89.30758264 4.37093787 -86.5 5.875 C-80.91146679 8.51402957 -74.90700661 10.1824595 -69 12 C-69 169.08 -69 326.16 -69 488 C-55.14 488 -41.28 488 -27 488 C-27 330.92 -27 173.84 -27 12 C-21.39 10.02 -15.78 8.04 -10 6 C-5.82817736 3.60410911 -5.82817736 3.60410911 -1.78515625 1.00390625 C-1.19605469 0.67261719 -0.60695313 0.34132813 0 0 Z " fill="#F7F7F7" transform="translate(937,496)"/>
<path d="M0 0 C0.66 0.33 1.32 0.66 2 1 C1.92178579 68.47031003 1.84234443 135.94061859 1.7563324 203.41091919 C1.75506072 204.40873726 1.75378904 205.40655532 1.75247882 206.4346103 C1.72483756 228.11737939 1.69697458 249.80014819 1.66888306 271.48291671 C1.65510929 282.11540145 1.64138454 292.74788625 1.62768555 303.38037109 C1.62632146 304.4384582 1.62495738 305.49654531 1.62355196 306.58669567 C1.57932285 340.91199422 1.53833359 375.23729573 1.49901587 409.56260023 C1.45861095 444.82218141 1.41495459 480.0817571 1.36717889 515.3413291 C1.36043986 520.31601425 1.35373819 525.29069944 1.34705925 530.26538467 C1.34574352 531.24452037 1.34442779 532.22365606 1.3430722 533.23246254 C1.32194785 549.02435091 1.3042738 564.81624136 1.28787469 580.60813527 C1.27133417 596.46583238 1.25119524 612.32352162 1.22733159 628.18120943 C1.21324655 637.61448734 1.20197206 647.04775911 1.19463562 656.48104474 C1.18947231 662.77156269 1.18073357 669.06206892 1.16901226 675.35257806 C1.16242523 678.94379474 1.15746399 682.5349945 1.15683801 686.12621759 C1.15612976 689.98309677 1.14781798 693.83993703 1.1386652 697.69680595 C1.13968787 698.8274285 1.14071054 699.95805104 1.14176419 701.12293488 C1.13808348 702.14228884 1.13440277 703.16164281 1.13061053 704.21188629 C1.12951866 705.09504858 1.1284268 705.97821088 1.12730185 706.88813566 C1 709 1 709 0 711 C-4.12606298 712.72718916 -7.54702569 713.2120464 -12 713 C-9.35603236 710.35603236 -6.42496181 709.43225676 -3 708 C-0.13375387 705.13375387 -1.55002431 697.13634655 -1.44360352 693.11737061 C-1.42259366 692.36095798 -1.40158381 691.60454536 -1.37993729 690.82521114 C-0.73948047 667.04741194 -0.87137973 643.25755019 -0.89644562 619.47333709 C-0.90387938 612.20921459 -0.90519946 604.94509367 -0.90637711 597.68096791 C-0.90869416 584.26755635 -0.91550524 570.85415084 -0.92483521 557.44074249 C-0.93754868 539.07208006 -0.94350623 520.70341959 -0.94776857 502.33475348 C-0.94977346 493.73239413 -0.95210135 485.13003487 -0.95451355 476.52767563 C-0.95475456 475.6668326 -0.95499558 474.80598957 -0.95524389 473.91906039 C-0.96103877 453.48851972 -0.96999301 433.05798064 -0.97949219 412.62744141 C-0.98011266 411.28911087 -0.98011266 411.28911087 -0.98074566 409.92374335 C-0.9878737 394.55908298 -0.995223 379.19442271 -1.00260353 363.82976246 C-1.00865483 351.22749142 -1.0146372 338.62522035 -1.02050781 326.02294922 C-1.0209224 325.13550557 -1.02133699 324.24806193 -1.02176414 323.33372605 C-1.03125071 302.98999519 -1.03979565 282.64626451 -1.04548645 262.3025322 C-1.04572744 261.44232341 -1.04596844 260.58211463 -1.04621673 259.69583891 C-1.04860509 251.09593896 -1.0508328 242.49603898 -1.05282298 233.89613892 C-1.05709728 215.57634017 -1.06405529 197.25654854 -1.07687083 178.93675365 C-1.08618763 165.55457668 -1.09184156 152.1724021 -1.09398818 138.79022202 C-1.09525392 131.5803208 -1.09804221 124.37042947 -1.10574722 117.160532 C-1.14639225 78.09562704 -0.7392059 39.0568518 0 0 Z " fill="#D2D2D2" transform="translate(169,104)"/>
<path d="M0 0 C1.03125 0.16242188 2.0625 0.32484375 3.125 0.4921875 C9.39736572 1.27347249 15.68925519 1.14480359 22 1.125 C23.23234375 1.12886719 24.4646875 1.13273437 25.734375 1.13671875 C33.29439954 1.12889781 33.29439954 1.12889781 40.8125 0.4296875 C41.864375 0.28789063 42.91625 0.14609375 44 0 C46.16737724 2.16737724 45.1550807 7.29625176 45.15821838 10.30751038 C45.16562535 11.79112152 45.16562535 11.79112152 45.17318195 13.30470461 C45.18863958 16.64592432 45.19693982 19.98712471 45.20532227 23.32836914 C45.21489431 25.71272453 45.22490397 28.0970782 45.23532104 30.48143005 C45.25962719 36.30130135 45.27934292 42.12117539 45.29707379 47.94107015 C45.31794246 54.71056729 45.34441177 61.48003893 45.37124526 68.24951463 C45.41895251 80.32266182 45.46220817 92.39582071 45.50268555 104.46899414 C45.54202456 116.19979769 45.58344693 127.93059081 45.62768555 139.66137695 C45.63040982 140.38396716 45.63313409 141.10655737 45.63594092 141.85104425 C45.64962013 145.47591898 45.66334046 149.10079357 45.67708123 152.72566807 C45.7910952 182.81709039 45.89781983 212.90853503 46 243 C46.54305786 243.19793655 47.08611572 243.39587311 47.64562988 243.59980774 C48.36134155 243.86375839 49.07705322 244.12770905 49.81445312 244.3996582 C50.52251099 244.65946976 51.23056885 244.91928131 51.96008301 245.18696594 C54.65229991 246.25998217 57.04532826 247.65333016 59.5 249.1875 C60.3559375 249.71730469 61.211875 250.24710938 62.09375 250.79296875 C63.03734375 251.39044922 63.03734375 251.39044922 64 252 C62 253 62 253 58.41015625 251.8203125 C56.9579602 251.26290391 55.50884063 250.69743033 54.0625 250.125 C52.61599705 249.56481583 51.16938651 249.00490936 49.72265625 248.4453125 C48.49417969 247.96835937 47.26570312 247.49140625 46 247 C45.01 246.67 44.02 246.34 43 246 C43 165.81 43 85.62 43 3 C29.14 3 15.28 3 1 3 C1 83.19 1 163.38 1 246 C-6.425 248.475 -6.425 248.475 -14 251 C-26.55103023 256.78193527 -37.48344581 266.11417885 -46 277 C-46 273.27179182 -45.15867987 272.02215181 -43 269 C-41.06525863 267.24583449 -39.03243951 265.64324897 -37 264 C-36.34 263.01 -35.68 262.02 -35 261 C-33.36440296 259.94995233 -31.69216018 258.95622785 -30 258 C-27.13636247 256.15031988 -24.27940562 254.29086998 -21.42578125 252.42578125 C-19 251 -19 251 -17 251 C-16.67 250.34 -16.34 249.68 -16 249 C-14.36328125 248 -14.36328125 248 -12.3125 247 C-11.64863281 246.67 -10.98476563 246.34 -10.30078125 246 C-7.58529802 244.81975601 -4.8120485 243.92300763 -2 243 C-1.99576806 241.76586963 -1.99153612 240.53173925 -1.98717594 239.26021099 C-1.8865626 209.98326955 -1.78086527 180.70635106 -1.66888306 151.42945112 C-1.65511301 147.8282117 -1.64138598 144.22697211 -1.62768555 140.62573242 C-1.62495724 139.90877181 -1.62222894 139.19181119 -1.61941796 138.4531245 C-1.57530859 126.83481207 -1.53468679 115.21648992 -1.49534739 103.59816047 C-1.45492266 91.68215031 -1.41076507 79.76615823 -1.36312145 67.85017473 C-1.33645925 61.15485997 -1.31153946 54.459548 -1.29092598 47.76421165 C-1.2713725 41.46800913 -1.24723256 35.17184117 -1.21950912 28.87566948 C-1.21013186 26.55969113 -1.20245902 24.24370518 -1.19658089 21.9277153 C-1.18833121 18.77580257 -1.17405766 15.62397403 -1.15821838 12.47209167 C-1.15724028 11.54700261 -1.15626217 10.62191354 -1.15525442 9.66879147 C-1.14977998 8.82680339 -1.14430554 7.98481531 -1.1386652 7.11731243 C-1.13600716 6.38938856 -1.13334911 5.66146469 -1.13061053 4.91148251 C-1 3 -1 3 0 0 Z " fill="#D4D4D4" transform="translate(867,101)"/>
<path d="M0 0 C5.94 1.485 5.94 1.485 12 3 C12 240.6 12 478.2 12 723 C10 721 10 721 9.75065767 718.86709022 C9.75112561 717.52737264 9.75112561 717.52737264 9.75160301 716.16059005 C9.74710842 715.12976875 9.74261383 714.09894745 9.73798305 713.03688914 C9.74323708 711.89343183 9.7484911 710.74997452 9.75390434 709.57186699 C9.75159665 708.36068374 9.74928897 707.1495005 9.74691135 705.90161473 C9.74250369 702.51399338 9.74714956 699.12659554 9.75546761 695.7389953 C9.7623089 692.0633643 9.75759962 688.38774592 9.75431263 684.71211255 C9.75015534 678.26165937 9.75346937 671.81124299 9.76158905 665.36079407 C9.7736294 655.76912843 9.77426343 646.17748614 9.77250507 636.58581433 C9.76987345 620.45328889 9.77657458 604.3207798 9.78853989 588.18825912 C9.80036186 572.20814814 9.80806933 556.22804395 9.81024551 540.24792862 C9.81038299 539.2554418 9.81052047 538.26295499 9.81066212 537.24039282 C9.81133876 532.20033858 9.81194153 527.16028434 9.81251587 522.12023009 C9.81672003 486.39378808 9.83020405 450.66735497 9.84912109 414.94091797 C9.86748098 380.22672574 9.8816526 345.51253595 9.89013672 310.79833984 C9.89039977 309.72885886 9.89066282 308.65937788 9.89093385 307.55748839 C9.89357082 296.8176133 9.89612246 286.07773819 9.89861157 275.33786307 C9.9036844 253.45824363 9.9093269 231.57862434 9.91531372 209.69900513 C9.9155883 208.69294964 9.91586288 207.68689415 9.91614578 206.65035213 C9.93455639 139.43356438 9.96624786 72.21678158 10 5 C9.36191406 4.89042969 8.72382812 4.78085937 8.06640625 4.66796875 C7.24011719 4.50941406 6.41382813 4.35085938 5.5625 4.1875 C4.73878906 4.03667969 3.91507812 3.88585937 3.06640625 3.73046875 C2.38449219 3.48941406 1.70257813 3.24835938 1 3 C0.67 2.01 0.34 1.02 0 0 Z " fill="#A7A7A7" transform="translate(507,266)"/>
<path d="M0 0 C0.33 0 0.66 0 1 0 C1 79.86 1 159.72 1 242 C-6.425 244.475 -6.425 244.475 -14 247 C-26.55103023 252.78193527 -37.48344581 262.11417885 -46 273 C-46 269.27179182 -45.15867987 268.02215181 -43 265 C-41.06525863 263.24583449 -39.03243951 261.64324897 -37 260 C-36.34 259.01 -35.68 258.02 -35 257 C-33.36440296 255.94995233 -31.69216018 254.95622785 -30 254 C-27.13636247 252.15031988 -24.27940562 250.29086998 -21.42578125 248.42578125 C-19 247 -19 247 -17 247 C-16.67 246.34 -16.34 245.68 -16 245 C-14.36328125 244 -14.36328125 244 -12.3125 243 C-11.64863281 242.67 -10.98476563 242.34 -10.30078125 242 C-7.58529802 240.81975601 -4.8120485 239.92300763 -2 239 C-1.99576806 237.98090137 -1.99153612 236.96180273 -1.98717594 235.91182232 C-1.88331153 210.94737023 -1.77448697 185.98294336 -1.66066074 161.01853466 C-1.60572317 148.94522644 -1.55231283 136.8719153 -1.50268555 124.79858398 C-1.45935307 114.25764705 -1.41296402 103.71672841 -1.36312145 93.17582017 C-1.33690797 87.61072654 -1.31207717 82.04563561 -1.29092598 76.48052025 C-1.19292085 50.97236054 -0.90276574 25.49350081 0 0 Z " fill="#F5F5F5" transform="translate(867,105)"/>
<path d="M0 0 C0.66 0.33 1.32 0.66 2 1 C-5.37303391 7.97449154 -15.80763592 13 -26 13 C-26 169.75 -26 326.5 -26 488 C-26.33 488 -26.66 488 -27 488 C-27 330.92 -27 173.84 -27 12 C-21.39 10.02 -15.78 8.04 -10 6 C-5.82817736 3.60410911 -5.82817736 3.60410911 -1.78515625 1.00390625 C-1.19605469 0.67261719 -0.60695313 0.34132813 0 0 Z " fill="#BEBEBE" transform="translate(937,496)"/>
<path d="M0 0 C6.56350351 2.17538594 11.4563191 5.92625311 16.68359375 10.34765625 C17.67359375 11.00765625 18.66359375 11.66765625 19.68359375 12.34765625 C20.17859375 13.83265625 20.17859375 13.83265625 20.68359375 15.34765625 C21.37582031 16.02054688 21.37582031 16.02054688 22.08203125 16.70703125 C26.86480948 21.60646261 29.33197723 29.66694235 29.68359375 36.34765625 C29.75707031 37.21777344 29.83054687 38.08789062 29.90625 38.984375 C30.47213216 50.08437114 26.80059442 59.87772053 19.6328125 68.3515625 C11.24967373 76.9362998 2.18108683 82.35632405 -9.93798828 82.58886719 C-24.8046453 82.65211461 -33.72681441 78.32722762 -44.75 68.12890625 C-50.83361858 61.53600453 -52.88423306 54.13517788 -53.31640625 45.34765625 C-52.65640625 45.34765625 -51.99640625 45.34765625 -51.31640625 45.34765625 C-51.23003906 45.96511719 -51.14367187 46.58257812 -51.0546875 47.21875 C-50.085676 53.05948901 -48.45292303 57.49664643 -45.33984375 62.53515625 C-44.31640625 64.34765625 -44.31640625 64.34765625 -44.31640625 66.34765625 C-43.65640625 66.34765625 -42.99640625 66.34765625 -42.31640625 66.34765625 C-41.61515625 67.06953125 -40.91390625 67.79140625 -40.19140625 68.53515625 C-32.71002637 76.23465216 -23.34944704 79.46257041 -12.75390625 79.66015625 C-1.73767538 79.35020368 7.77392634 76.5141774 16.20703125 69.046875 C24.66971271 59.3080749 27.16780652 49.10752156 26.93359375 36.5625 C26.29752421 28.38304332 23.62681856 22.76048844 18.68359375 16.34765625 C18.68359375 15.68765625 18.68359375 15.02765625 18.68359375 14.34765625 C18.02359375 14.34765625 17.36359375 14.34765625 16.68359375 14.34765625 C16.10609375 13.58453125 15.52859375 12.82140625 14.93359375 12.03515625 C12.43498471 9.05070656 10.22256088 7.8758466 6.68359375 6.34765625 C6.68359375 5.68765625 6.68359375 5.02765625 6.68359375 4.34765625 C-3.43980054 0.44689882 -13.66359399 1.06594623 -24.31640625 1.34765625 C-18.0789556 -2.81064418 -7.21587093 -1.41937626 0 0 Z M27.68359375 38.34765625 C28.68359375 42.34765625 28.68359375 42.34765625 28.68359375 42.34765625 Z " fill="#E0E0E0" transform="translate(552.31640625,147.65234375)"/>
<path d="M0 0 C0.33 0 0.66 0 1 0 C1.02333103 26.43336964 1.04098019 52.86673774 1.05181217 79.30011559 C1.05697469 91.57280191 1.06401656 103.84548184 1.07543945 116.11816406 C1.08538763 126.81148712 1.09185375 137.50480555 1.09408849 148.19813311 C1.09539537 153.86335041 1.0984798 159.52855448 1.10573006 165.19376755 C1.11249236 170.52061386 1.11461652 175.84744142 1.11310768 181.17429161 C1.11338391 183.13432225 1.11538779 185.09435348 1.11920547 187.05438042 C1.12414599 189.72055233 1.12299694 192.38665251 1.12025452 195.05282593 C1.12316736 195.83686275 1.1260802 196.62089957 1.12908131 197.42869508 C1.11412121 202.77175758 1.11412121 202.77175758 0 205 C-4.12606298 206.72718916 -7.54702569 207.2120464 -12 207 C-9.35603236 204.35603236 -6.42496181 203.43225676 -3 202 C-0.10276041 199.10276041 -1.54543209 190.93320532 -1.4375 186.86328125 C-1.41632111 186.1064184 -1.39514221 185.34955555 -1.37332153 184.56975746 C-0.6759157 158.91680351 -0.9364359 133.24611161 -1.01037598 107.58673096 C-1.03397493 99.23881546 -1.05228072 90.89091189 -1.0625 82.54296875 C-1.06402069 81.37514736 -1.06554138 80.20732597 -1.06710815 79.00411606 C-1.08918977 52.66282626 -0.60035349 26.33358722 0 0 Z " fill="#ADADAD" transform="translate(169,610)"/>
<path d="M0 0 C0.66 0 1.32 0 2 0 C0.60381816 4.27257498 -0.92558353 8.47785597 -2.5 12.6875 C-10.03466555 34.00237984 -8.69984657 58.24179529 0.30078125 79 C2.28612514 83.78811066 2.28612514 83.78811066 6 87 C7.11330681 89.01786859 8.0420387 91.09195966 9 93.1875 C9.87144569 95.17201523 9.87144569 95.17201523 12 96 C12.45117188 96.76441406 12.90234375 97.52882813 13.3671875 98.31640625 C17.8208288 105.63614686 25.86048447 110.54413215 33 115 C32.01 115.495 32.01 115.495 31 116 C29.01171875 115.1796875 29.01171875 115.1796875 26.6875 113.875 C25.92824219 113.45992187 25.16898438 113.04484375 24.38671875 112.6171875 C21.54549243 110.69203579 19.36430576 108.48564649 17 106 C15.79730469 104.75863281 15.79730469 104.75863281 14.5703125 103.4921875 C8.87611671 97.3977607 4.15222291 91.23290442 0 84 C-0.56460938 83.05640625 -0.56460938 83.05640625 -1.140625 82.09375 C-10.71998449 64.75967092 -12.56994099 44.15794421 -9 25 C-8.79697266 23.8553125 -8.79697266 23.8553125 -8.58984375 22.6875 C-6.92712888 14.93892584 -3.67660475 7.01278314 0 0 Z " fill="#939393" transform="translate(116,852)"/>
<path d="M0 0 C2.97477214 1.11553955 5.69241736 2.37093787 8.5 3.875 C14.08853321 6.51402957 20.09299339 8.1824595 26 10 C26 51.25 26 92.5 26 135 C25.67 135 25.34 135 25 135 C24.82563175 124.75011868 24.66030061 114.5001099 24.5 104.25 C24.48797546 103.48627075 24.47595093 102.7225415 24.46356201 101.93566895 C24.08936292 78.08629395 23.8992472 54.24834963 24.03710938 30.39550781 C24.04133911 29.37370422 24.04556885 28.35190063 24.04992676 27.2991333 C24.05803119 25.4143022 24.07032519 23.52948216 24.08776855 21.64471436 C24.09103149 20.82094299 24.09429443 19.99717163 24.09765625 19.1484375 C24.10289307 18.43864746 24.10812988 17.72885742 24.11352539 16.99755859 C23.99376815 14.89034626 23.57501614 13.02662632 23 11 C22.43152344 10.89042969 21.86304688 10.78085937 21.27734375 10.66796875 C13.42328485 9.05519873 6.86920666 6.06544884 0 2 C0 1.34 0 0.68 0 0 Z " fill="#EFEFEF" transform="translate(842,498)"/>
<path d="M0 0 C0.66 0.33 1.32 0.66 2 1 C-5.37303391 7.97449154 -15.80763592 13 -26 13 C-26 67.78 -26 122.56 -26 179 C-26.33 179 -26.66 179 -27 179 C-27 123.89 -27 68.78 -27 12 C-21.39 10.02 -15.78 8.04 -10 6 C-5.82817736 3.60410911 -5.82817736 3.60410911 -1.78515625 1.00390625 C-1.19605469 0.67261719 -0.60695313 0.34132813 0 0 Z " fill="#B5B5B5" transform="translate(937,496)"/>
<path d="M0 0 C0.71929688 0.35964844 1.43859375 0.71929687 2.1796875 1.08984375 C2.83710937 1.39792969 3.49453125 1.70601563 4.171875 2.0234375 C5.52608578 2.67558048 6.85743935 3.37511502 8.1796875 4.08984375 C7.8496875 5.07984375 7.5196875 6.06984375 7.1796875 7.08984375 C6.46425781 6.67992187 5.74882813 6.27 5.01171875 5.84765625 C-6.70445934 -0.48787084 -17.82834444 -2.51376783 -30.8203125 1.08984375 C-37.98726913 3.86083891 -43.91457203 7.12340264 -48.8203125 13.08984375 C-49.1503125 14.07984375 -49.4803125 15.06984375 -49.8203125 16.08984375 C-50.4803125 16.08984375 -51.1403125 16.08984375 -51.8203125 16.08984375 C-52.56573546 18.28138726 -53.30079931 20.47530337 -54.01953125 22.67578125 C-54.64334123 24.55634011 -55.31611479 26.42068147 -56.0078125 28.27734375 C-58.42977842 39.64195307 -56.55425903 48.66081609 -51.8203125 59.08984375 C-51.14584865 60.75337035 -50.47639403 62.41898192 -49.8203125 64.08984375 C-56.00035319 58.93980984 -58.54898267 51.92765389 -59.8203125 44.08984375 C-60.74993733 31.2264304 -57.79127054 20.43067132 -49.58984375 10.34765625 C-36.98257667 -3.16156158 -17.14745408 -7.50534984 0 0 Z " fill="#D0D0D0" transform="translate(906.8203125,388.91015625)"/>
<path d="M0 0 C1.6875 1.69921875 1.6875 1.69921875 2.6875 3.69921875 C-0.67005774 2.46772698 -3.32976472 1.08391258 -6.1875 -1.05078125 C-12.36271211 -5.30737907 -19.32535144 -7.70476558 -26.3125 -10.30078125 C-26.3125 -10.96078125 -26.3125 -11.62078125 -26.3125 -12.30078125 C-34.25400647 -13.28051092 -42.12826988 -13.51621948 -50.125 -13.55078125 C-51.30642578 -13.57140625 -52.48785156 -13.59203125 -53.70507812 -13.61328125 C-69.77429483 -13.68372165 -83.95121558 -9.14330791 -97.3515625 -0.33984375 C-97.99867188 0.00304687 -98.64578125 0.3459375 -99.3125 0.69921875 C-99.9725 0.36921875 -100.6325 0.03921875 -101.3125 -0.30078125 C-74.87176174 -22.82733167 -26.47233011 -22.76083788 0 0 Z " fill="#C1C1C1" transform="translate(591.3125,119.30078125)"/>
<path d="M0 0 C5.94 1.485 5.94 1.485 12 3 C12 60.09 12 117.18 12 176 C11.67 176 11.34 176 11 176 C10.86816374 158.42932424 10.73772248 140.85863871 10.60884857 123.28794098 C10.54895099 115.12571229 10.48863229 106.96348717 10.42724609 98.80126953 C10.373612 91.669657 10.32084544 84.53803861 10.26903296 77.4064126 C10.24168591 73.64613531 10.21396443 69.8858618 10.18519592 66.12559509 C10.02966449 45.74998875 9.97059373 25.37621586 10 5 C9.36191406 4.89042969 8.72382812 4.78085937 8.06640625 4.66796875 C7.24011719 4.50941406 6.41382813 4.35085938 5.5625 4.1875 C4.73878906 4.03667969 3.91507812 3.88585937 3.06640625 3.73046875 C2.38449219 3.48941406 1.70257813 3.24835938 1 3 C0.67 2.01 0.34 1.02 0 0 Z " fill="#949494" transform="translate(507,266)"/>
<path d="M0 0 C0.33 0 0.66 0 1 0 C1.75475235 6.3015831 1.64261787 10.86966341 -2.0625 16.1875 C-3.35007223 17.81174281 -4.66223256 19.41684327 -6 21 C-6.81017578 22.06734375 -6.81017578 22.06734375 -7.63671875 23.15625 C-13.86028425 30.99221624 -22.08292972 36.32282344 -32 38 C-45.197124 39.32462393 -55.73254466 37.89297046 -66.3046875 29.4609375 C-68.30888148 27.73382103 -70.20512566 25.9444472 -72 24 C-71.67 23.34 -71.34 22.68 -71 22 C-69.7315625 23.0828125 -69.7315625 23.0828125 -68.4375 24.1875 C-67.29490001 25.12893802 -66.14887147 26.06622561 -65 27 C-64.15308594 27.69802734 -64.15308594 27.69802734 -63.2890625 28.41015625 C-59.21260124 31.57356397 -56.23379763 32.47662024 -51 33 C-50.67 33.66 -50.34 34.32 -50 35 C-40.67832629 37.52156968 -32.51443948 36.19836417 -24 32 C-23.06800781 31.57589844 -22.13601563 31.15179688 -21.17578125 30.71484375 C-11.85699871 26.15080155 -6.50846389 19.69987075 -3 10 C-2.34 10 -1.68 10 -1 10 C-0.67 6.7 -0.34 3.4 0 0 Z " fill="#E8E8E8" transform="translate(929,431)"/>
<path d="M0 0 C1.22543391 3.67630173 0.6169412 4.55203486 -0.8125 8.0625 C-8.2540395 26.35740396 -7.77621735 50.92583094 -0.12353516 69.07910156 C1.36877143 72.46043302 2.94610201 75.78567042 4.609375 79.0859375 C6 82 6 82 6 84 C5.34 84 4.68 84 4 84 C-8.22838152 60.449043 -12.76226797 35.89517736 -5 10 C-3.53485813 6.53614222 -1.89357142 3.24826085 0 0 Z " fill="#9E9E9E" transform="translate(812,390)"/>
<path d="M0 0 C6.39524523 5.38841362 8.61447757 16.32776089 9.71875 24.3125 C11.17617137 43.42091356 11.02944396 63.45583405 0 80 C-0.33 79.34 -0.66 78.68 -1 78 C-0.12381044 75.52095172 0.81412172 73.1165875 1.8125 70.6875 C9.21447645 51.58446222 10.39522121 27.27194003 2.19384766 8.1171875 C1.78271729 7.19292969 1.78271729 7.19292969 1.36328125 6.25 C0 3 0 3 0 0 Z " fill="#9A9A9A" transform="translate(615,149)"/>
<path d="M0 0 C0.66 0 1.32 0 2 0 C2 0.66 2 1.32 2 2 C-5.94243775 7.88858315 -14.61071272 11.97710751 -24 15 C-24.93328125 15.3196875 -25.8665625 15.639375 -26.828125 15.96875 C-34.37299377 18.14748216 -41.74909137 18.27746487 -49.5625 18.3125 C-50.6030957 18.31805908 -51.64369141 18.32361816 -52.71582031 18.3293457 C-71.84690126 18.15309874 -71.84690126 18.15309874 -76 14 C-74.74123047 14.10828125 -74.74123047 14.10828125 -73.45703125 14.21875 C-57.4756655 15.45203868 -41.56116321 16.46392618 -26 12 C-25.24460938 11.80664062 -24.48921875 11.61328125 -23.7109375 11.4140625 C-16.56563656 9.35343264 -5.28825115 5.28825115 0 0 Z " fill="#787878" transform="translate(242,961)"/>
<path d="M0 0 C1.90625 0.7734375 1.90625 0.7734375 4 2 C11.70209957 20.6134073 14.09306705 40.89151896 10.25 60.625 C10.09313721 61.45338379 9.93627441 62.28176758 9.7746582 63.13525391 C8.65367185 68.42889017 6.91160079 72.43686095 4 77 C3 75 3 75 3.70703125 72.34765625 C4.07183594 71.26355469 4.43664062 70.17945313 4.8125 69.0625 C11.45431414 47.98795478 10.58476384 27.18147652 2.0859375 6.70703125 C1.18581113 4.46319106 0.50628885 2.35705586 0 0 Z " fill="#B7B7B7" transform="translate(265,853)"/>
<path d="M0 0 C0.33 0 0.66 0 1 0 C1.02314169 8.70116929 1.04092443 17.40232803 1.05181217 26.10352135 C1.05703699 30.14356954 1.06412739 34.18359672 1.07543945 38.22363281 C1.08628254 42.120441 1.09227987 46.01722895 1.09487724 49.91405106 C1.09672892 51.40284163 1.10034463 52.89163107 1.10573006 54.38041306 C1.11295934 56.46115285 1.11399014 58.54180832 1.11352539 60.62255859 C1.115746 61.80836517 1.11796661 62.99417175 1.12025452 64.21591187 C1 67 1 67 0 69 C-4.12606298 70.72718916 -7.54702569 71.2120464 -12 71 C-9.35603236 68.35603236 -6.42496181 67.43225676 -3 66 C-1.08850278 64.08850278 -1.74643564 60.59328866 -1.68359375 57.984375 C-1.6524221 56.90556564 -1.6524221 56.90556564 -1.62062073 55.80496216 C-1.55446468 53.45341664 -1.49578384 51.10175277 -1.4375 48.75 C-1.39401096 47.1420863 -1.35039097 45.53417614 -1.30664062 43.92626953 C-1.05842342 34.4446604 -0.89065663 24.96856071 -1.03686523 15.48339844 C-1.09683093 10.24068358 -0.65948273 5.20373091 0 0 Z " fill="#BDBDBD" transform="translate(169,746)"/>
<path d="M0 0 C0.66 0 1.32 0 2 0 C2 0.66 2 1.32 2 2 C2.66 2 3.32 2 4 2 C4.967407 3.68231469 5.92347446 5.37115197 6.875 7.0625 C7.67550781 8.47208984 7.67550781 8.47208984 8.4921875 9.91015625 C13.78917699 20.76486788 13.59781985 33.45355805 9.8125 44.75 C7.99016498 49.63270081 5.81987914 52.47577714 2 56 C1.44957031 56.6084375 0.89914063 57.216875 0.33203125 57.84375 C-4.41874528 63.02197429 -10.543482 67.79517396 -17.8046875 68.12890625 C-18.89136719 68.06509766 -18.89136719 68.06509766 -20 68 C-16 66 -16 66 -13.9921875 65.02734375 C-3.25147814 59.49845462 4.07430735 52.53707927 8 41 C8.24363281 40.28714844 8.48726562 39.57429687 8.73828125 38.83984375 C12.28117417 26.71688363 8.61229349 15.48134371 2.75 4.6875 C1.84544265 3.11795866 0.9334029 1.55256016 0 0 Z " fill="#DCDCDC" transform="translate(221,866)"/>
<path d="M0 0 C6.56350351 2.17538594 11.4563191 5.92625311 16.68359375 10.34765625 C17.67359375 11.00765625 18.66359375 11.66765625 19.68359375 12.34765625 C20.17859375 13.83265625 20.17859375 13.83265625 20.68359375 15.34765625 C21.68079656 16.35044563 22.68115771 17.35009824 23.68359375 18.34765625 C29.8142964 27.48326668 29.20419175 36.83157663 28.68359375 47.34765625 C27.69359375 46.85265625 27.69359375 46.85265625 26.68359375 46.34765625 C26.71839844 45.52523437 26.75320313 44.7028125 26.7890625 43.85546875 C27.05917448 32.71656507 25.48977074 25.17729127 18.68359375 16.34765625 C18.68359375 15.68765625 18.68359375 15.02765625 18.68359375 14.34765625 C18.02359375 14.34765625 17.36359375 14.34765625 16.68359375 14.34765625 C16.10609375 13.58453125 15.52859375 12.82140625 14.93359375 12.03515625 C12.43498471 9.05070656 10.22256088 7.8758466 6.68359375 6.34765625 C6.68359375 5.68765625 6.68359375 5.02765625 6.68359375 4.34765625 C-3.43980054 0.44689882 -13.66359399 1.06594623 -24.31640625 1.34765625 C-18.0789556 -2.81064418 -7.21587093 -1.41937626 0 0 Z " fill="#E2E2E2" transform="translate(552.31640625,147.65234375)"/>
<path d="M0 0 C9.76969171 8.88153792 14.40145798 19.55528056 18 32 C18.20012695 32.68360596 18.40025391 33.36721191 18.60644531 34.0715332 C20.32564856 40.71411613 20.2273918 47.23769292 20.125 54.0625 C20.11597656 55.21427734 20.10695313 56.36605469 20.09765625 57.55273438 C20.07428714 60.36871193 20.04152565 63.18424158 20 66 C19.67 66 19.34 66 19 66 C19.00112793 65.41323486 19.00225586 64.82646973 19.00341797 64.22192383 C18.91232629 43.82332857 15.6968565 24.19011704 4 7 C3.26007812 6.45601563 2.52015625 5.91203125 1.7578125 5.3515625 C1.17773438 4.90554688 0.59765625 4.45953125 0 4 C0 2.68 0 1.36 0 0 Z " fill="#C3C3C3" transform="translate(954,373)"/>
<path d="M0 0 C-2.95486885 1.57741119 -5.99279415 2.77689016 -9.1262207 3.95239258 C-24.63015056 9.83845144 -36.47254651 19.20670387 -47 32 C-47 28.27179182 -46.15867987 27.02215181 -44 24 C-42.06525863 22.24583449 -40.03243951 20.64324897 -38 19 C-37.34 18.01 -36.68 17.02 -36 16 C-34.36440296 14.94995233 -32.69216018 13.95622785 -31 13 C-28.13636247 11.15031988 -25.27940562 9.29086998 -22.42578125 7.42578125 C-20 6 -20 6 -18 6 C-17.67 5.34 -17.34 4.68 -17 4 C-11.52378747 0.1722392 -6.54663442 -0.54555287 0 0 Z " fill="#E4E4E4" transform="translate(868,346)"/>
<path d="M0 0 C0.33 0 0.66 0 1 0 C1.98648741 12.16667803 -1.10888773 22.61489981 -9.05078125 32.00390625 C-14.57278279 37.65870141 -20.72073919 41.93504808 -28 45 C-28.66 44.67 -29.32 44.34 -30 44 C-28.51771098 41.03542196 -26.2835836 40.57254389 -23.3125 39.1875 C-11.9729403 33.57133509 -5.61878878 25.07591774 -1.48828125 13.08984375 C-0.48399159 8.79148401 -0.23443587 4.39769365 0 0 Z " fill="#D3D3D3" transform="translate(581,184)"/>
<path d="M0 0 C0.33 0 0.66 0 1 0 C1.00410889 0.60247559 1.00821777 1.20495117 1.01245117 1.82568359 C1.23390947 20.49550404 3.45467355 39.51867448 13.7109375 55.69921875 C14.13632812 56.45847656 14.56171875 57.21773437 15 58 C14.67 58.66 14.34 59.32 14 60 C6.10694419 47.8369304 -0.17058893 34.629553 -0.09765625 19.82421875 C-0.09443359 18.66728516 -0.09121094 17.51035156 -0.08789062 16.31835938 C-0.07951172 15.12017578 -0.07113281 13.92199219 -0.0625 12.6875 C-0.05798828 11.46998047 -0.05347656 10.25246094 -0.04882812 8.99804688 C-0.03706578 5.99864774 -0.02062826 2.99934911 0 0 Z " fill="#C1C1C1" transform="translate(455,176)"/>
<path d="M0 0 C3 1 3 1 4.31640625 3.25 C4.72761719 4.1575 5.13882813 5.065 5.5625 6 C7.02364577 9.70967628 7.02364577 9.70967628 10 12 C11.11330681 14.01786859 12.0420387 16.09195966 13 18.1875 C13.87144569 20.17201523 13.87144569 20.17201523 16 21 C16.45117188 21.76441406 16.90234375 22.52882813 17.3671875 23.31640625 C21.8208288 30.63614686 29.86048447 35.54413215 37 40 C36.01 40.495 36.01 40.495 35 41 C33.01171875 40.1796875 33.01171875 40.1796875 30.6875 38.875 C29.54861328 38.25238281 29.54861328 38.25238281 28.38671875 37.6171875 C25.54549243 35.69203579 23.36430576 33.48564649 21 31 C20.19820312 30.17242188 19.39640625 29.34484375 18.5703125 28.4921875 C0 8.61661342 0 8.61661342 0 0 Z " fill="#DBDBDB" transform="translate(112,927)"/>
<path d="M0 0 C1.15951172 0.15847412 2.31902344 0.31694824 3.51367188 0.48022461 C7.60463057 0.99024622 11.65837333 1.20003473 15.78125 1.31640625 C16.48020386 1.33718735 17.17915771 1.35796844 17.89929199 1.37937927 C20.09944259 1.44398535 22.29969696 1.50333909 24.5 1.5625 C26.00521842 1.60577017 27.51042693 1.64938693 29.015625 1.69335938 C32.67697744 1.79957319 36.33844234 1.90108196 40 2 C40 2.33 40 2.66 40 3 C27.13 3.33 14.26 3.66 1 4 C0.67 15.55 0.34 27.1 0 39 C-0.33 39 -0.66 39 -1 39 C-1.02471188 33.92798214 -1.04286564 28.85599929 -1.05493164 23.78393555 C-1.05996158 22.0583434 -1.06678626 20.33275552 -1.07543945 18.60717773 C-1.08756361 16.1274307 -1.09324169 13.64774 -1.09765625 11.16796875 C-1.10539818 10.01001045 -1.10539818 10.01001045 -1.11329651 8.82865906 C-1.11363318 5.6169772 -1.02326578 3.06979734 0 0 Z " fill="#F4F4F4" transform="translate(867,101)"/>
<path d="M0 0 C0.66 0.99 1.32 1.98 2 3 C0.74896484 2.67515625 0.74896484 2.67515625 -0.52734375 2.34375 C-14.19781454 -1.03863452 -26.2970353 -0.86646741 -39 6 C-39.66 5.67 -40.32 5.34 -41 5 C-30.16461236 -5.13633037 -13.20827835 -4.54619212 0 0 Z " fill="#9B9B9B" transform="translate(208,855)"/>
<path d="M0 0 C0.66 0.33 1.32 0.66 2 1 C-5.37303391 7.97449154 -15.80763592 13 -26 13 C-26 22.9 -26 32.8 -26 43 C-26.33 43 -26.66 43 -27 43 C-27 32.77 -27 22.54 -27 12 C-24.40125 11.13375 -21.8025 10.2675 -19.125 9.375 C-12.84288261 7.22776496 -7.29795927 4.77681946 -1.78515625 1.00390625 C-1.19605469 0.67261719 -0.60695313 0.34132813 0 0 Z " fill="#A5A5A5" transform="translate(937,496)"/>
<path d="M0 0 C15.93902359 0.35781482 31.58516969 6.9359047 43 18 C39.02776115 18 37.42711356 16.49641618 34.125 14.3125 C27.71191689 10.18318959 21.23503235 7.46298974 14 5 C14 4.34 14 3.68 14 3 C12.98679687 2.92652344 12.98679687 2.92652344 11.953125 2.8515625 C11.06109375 2.77679688 10.1690625 2.70203125 9.25 2.625 C8.36828125 2.55539063 7.4865625 2.48578125 6.578125 2.4140625 C4.00933618 2.00149945 2.24158985 1.28839043 0 0 Z " fill="#E2E2E2" transform="translate(551,104)"/>
<path d="M0 0 C3.92771935 0.58188435 6.02921577 2.44374381 9 5 C9.5259375 5.41121094 10.051875 5.82242188 10.59375 6.24609375 C17.90131776 12.10875606 23.81413832 19.62827663 28 28 C28 28.66 28 29.32 28 30 C27.34 30 26.68 30 26 30 C24.4140625 28.0234375 24.4140625 28.0234375 22.625 25.375 C21.99851562 24.45847656 21.37203125 23.54195312 20.7265625 22.59765625 C19.45682219 20.68730035 18.21915526 18.7555287 17 16.8125 C12.75815466 10.84740499 7.89024227 6.59362616 1.50390625 3.04296875 C1.00761719 2.69878906 0.51132813 2.35460937 0 2 C0 1.34 0 0.68 0 0 Z " fill="#EBEBEB" transform="translate(237,823)"/>
<path d="M0 0 C1 3 1 3 0.0625 5.8125 C-3.2908479 16.87389064 -0.61847363 26.82536264 4 37 C4.67446385 38.6635266 5.34391847 40.32913817 6 42 C-0.18004069 36.84996609 -2.72867017 29.83781014 -4 22 C-4.48728158 15.2573828 -4.01855818 8.47932255 -2 2 C-1.34 1.34 -0.68 0.68 0 0 Z " fill="#E0E0E0" transform="translate(851,411)"/>
<path d="M0 0 C0.66 0.33 1.32 0.66 2 1 C1.01 1.7734375 1.01 1.7734375 0 2.5625 C-0.99 3.366875 -1.98 4.17125 -3 5 C-3.639375 5.50917969 -4.27875 6.01835937 -4.9375 6.54296875 C-13.7597815 13.8447434 -17.63339336 21.61161132 -19 33 C-19.66 33 -20.32 33 -21 33 C-21 35.64 -21 38.28 -21 41 C-21.33 41 -21.66 41 -22 41 C-22.666373 29.40017371 -19.79185166 18.73721587 -12.109375 9.80078125 C-8.38165305 5.95212176 -4.59191668 2.75515001 0 0 Z " fill="#D1D1D1" transform="translate(520,151)"/>
<path d="M0 0 C0.66 0.33 1.32 0.66 2 1 C-1.35233641 5.20482058 -4.24150021 8.37030275 -9 11 C-12.24095365 13.77796027 -13.49874831 16.05921431 -15 20 C-17 23.3125 -17 23.3125 -19 26 C-19.66 26 -20.32 26 -21 26 C-21.33 26.99 -21.66 27.98 -22 29 C-22.33 28.01 -22.66 27.02 -23 26 C-21.7421875 23.765625 -21.7421875 23.765625 -19.875 21.25 C-18.88886719 19.91388672 -18.88886719 19.91388672 -17.8828125 18.55078125 C-16.95082031 17.28814453 -16.95082031 17.28814453 -16 16 C-15.60554688 15.37480469 -15.21109375 14.74960938 -14.8046875 14.10546875 C-11.06113882 8.18511584 -5.48548249 4.23659856 0 0 Z " fill="#C3C3C3" transform="translate(488,120)"/>
<path d="M0 0 C0.66 0.33 1.32 0.66 2 1 C1.40985107 1.57967529 0.81970215 2.15935059 0.21166992 2.7565918 C-1.9896829 4.92372108 -4.18639273 7.09542466 -6.38012695 9.27026367 C-7.79223377 10.66744794 -9.20955893 12.05935176 -10.62695312 13.45117188 C-11.9659668 14.78051758 -11.9659668 14.78051758 -13.33203125 16.13671875 C-14.15421143 16.94842529 -14.9763916 17.76013184 -15.82348633 18.59643555 C-18.08877404 20.93843166 -18.08877404 20.93843166 -19.66674805 23.80395508 C-20.10672119 24.5286499 -20.54669434 25.25334473 -21 26 C-21.66 26 -22.32 26 -23 26 C-23.99 28.475 -23.99 28.475 -25 31 C-26 28 -26 28 -25.03125 25.94921875 C-21.95945005 21.41204484 -18.93764382 17.79951386 -14.6484375 14.390625 C-12.74326466 12.86639895 -12.74326466 12.86639895 -10.5625 10.0625 C-7.38454319 6.26445405 -3.7857579 3.17515179 0 0 Z " fill="#606060" transform="translate(839,359)"/>
<path d="M0 0 C0.66 0 1.32 0 2 0 C1.33117676 12.70764164 -2.94814606 24.13821923 -11 34 C-11.33 33.34 -11.66 32.68 -12 32 C-11.01200396 29.85983939 -9.93170228 27.76206257 -8.8125 25.6875 C-4.53198172 17.50678823 -1.70107364 9.08906995 0 0 Z " fill="#ABABAB" transform="translate(971,441)"/>
<path d="M0 0 C0.66 0.33 1.32 0.66 2 1 C-5.36288031 10.4942404 -15.03997188 16.26568405 -26 21 C-26.66 21 -27.32 21 -28 21 C-28 20.34 -28 19.68 -28 19 C-26.87722656 18.43152344 -25.75445313 17.86304688 -24.59765625 17.27734375 C-10.71568437 10.62326928 -10.71568437 10.62326928 0 0 Z " fill="#D0D0D0" transform="translate(601,245)"/>
<path d="M0 0 C7.89924501 3.56740097 10.91621463 10.39962868 14.01953125 18.1328125 C15.88134393 23.57731651 16.09657087 28.30231875 16 34 C15.34 33.67 14.68 33.34 14 33 C13.796875 30.91796875 13.796875 30.91796875 13.75 28.1875 C12.98231683 17.46785136 6.39291325 8.31078722 0 0 Z " fill="#D4D4D4" transform="translate(915,396)"/>
<path d="M0 0 C0.33 0 0.66 0 1 0 C1.19619224 4.29131609 1.38048583 8.58306102 1.5625 12.875 C1.61857422 14.09832031 1.67464844 15.32164062 1.73242188 16.58203125 C1.78076172 17.74863281 1.82910156 18.91523437 1.87890625 20.1171875 C1.9260376 21.19597168 1.97316895 22.27475586 2.02172852 23.38623047 C2 26 2 26 1 28 C-3.12606298 29.72718916 -6.54702569 30.2120464 -11 30 C-8.35603236 27.35603236 -5.42496181 26.43225676 -2 25 C-0.28556781 23.28556781 -0.76947033 20.99554759 -0.68359375 18.65234375 C-0.64169922 17.57275391 -0.59980469 16.49316406 -0.55664062 15.38085938 C-0.51732422 14.24455078 -0.47800781 13.10824219 -0.4375 11.9375 C-0.39431641 10.79732422 -0.35113281 9.65714844 -0.30664062 8.48242188 C-0.20017161 5.65507805 -0.09815793 2.82764262 0 0 Z " fill="#F4F4F4" transform="translate(168,787)"/>
<path d="M0 0 C9.33688773 1.58214565 17.50938678 9.73073743 23 17 C22.67 17.66 22.34 18.32 22 19 C21.56171875 18.61070312 21.1234375 18.22140625 20.671875 17.8203125 C15.8670353 13.58189699 10.97856633 9.45599799 6.03808594 5.37744141 C3.94577552 3.64566265 1.92188927 1.92188927 0 0 Z " fill="#D8D8D8" transform="translate(931,354)"/>
<path d="M0 0 C0.33 0 0.66 0 1 0 C1.93846726 7.8354568 0.90319784 12.40472215 -3.9765625 18.62890625 C-4.64429688 19.41136719 -5.31203125 20.19382812 -6 21 C-7.00160156 22.18916016 -7.00160156 22.18916016 -8.0234375 23.40234375 C-9.65443834 25.29630186 -11.30886334 27.15979659 -13 29 C-13 25.26558132 -12.05264296 24.55095605 -9.6875 21.75 C-6.61470332 17.94943569 -4.65670042 14.58028941 -3 10 C-2.34 10 -1.68 10 -1 10 C-0.67 6.7 -0.34 3.4 0 0 Z " fill="#D3D3D3" transform="translate(929,431)"/>
<path d="M0 0 C1.3189961 3.9569883 0.28232823 5.3243671 -1.3125 9.125 C-2.94556069 13.15802834 -4.34968775 16.97853099 -5.1875 21.25 C-5.455625 22.4875 -5.72375 23.725 -6 25 C-6.66 25.33 -7.32 25.66 -8 26 C-7.63552678 16.57836734 -6.08702414 7.49573545 0 0 Z " fill="#C5C5C5" transform="translate(464,149)"/>
<path d="M0 0 C0.99 0 1.98 0 3 0 C3.30292969 0.96679688 3.60585938 1.93359375 3.91796875 2.9296875 C6.16904771 9.97099 8.53283129 16.62492395 12.08203125 23.14453125 C13 25 13 25 13 27 C12.34 27 11.68 27 11 27 C6.51169336 18.35585387 2.36928007 9.4771203 0 0 Z " fill="#E1E1E1" transform="translate(805,447)"/>
<path d="M0 0 C0.66 0.33 1.32 0.66 2 1 C1.18015625 1.66386719 0.3603125 2.32773437 -0.484375 3.01171875 C-1.57313679 3.90337712 -2.66166615 4.79531935 -3.75 5.6875 C-4.55824219 6.34008789 -4.55824219 6.34008789 -5.3828125 7.00585938 C-9.56296557 10.44683904 -12.86511818 14.00260799 -15.5625 18.75 C-17 21 -17 21 -20 22 C-18.58581617 17.73439116 -16.51748869 14.9940014 -13.5 11.6875 C-12.7059375 10.80449219 -11.911875 9.92148437 -11.09375 9.01171875 C-9 7 -9 7 -7 7 C-6.67 6.01 -6.34 5.02 -6 4 C-4.04402816 2.60287726 -2.04563599 1.26220093 0 0 Z " fill="#E9E9E9" transform="translate(142,824)"/>
<path d="M0 0 C0.66 0 1.32 0 2 0 C0.58550467 4.29563329 -0.90464448 8.55775149 -2.4375 12.8125 C-4.36384315 18.1868834 -6.22273459 23.5746635 -8 29 C-10.70878643 20.02959855 -4.12758262 7.87298166 0 0 Z " fill="#C8C8C8" transform="translate(116,852)"/>
<path d="M0 0 C2.97477214 1.11553955 5.69241736 2.37093787 8.5 3.875 C14.04724724 6.71263032 20.03103721 8.28938261 26 10 C26 10.33 26 10.66 26 11 C17.60084417 10.33340033 10.08414443 8.79221535 3 4 C2.01 3.34 1.02 2.68 0 2 C0 1.34 0 0.68 0 0 Z " fill="#C8C8C8" transform="translate(842,498)"/>
<path d="M0 0 C6.58765461 5.98877692 12.26549832 13.13476919 14 22 C13.34 22 12.68 22 12 22 C11.46890625 20.95199219 10.9378125 19.90398437 10.390625 18.82421875 C9.67758653 17.44505223 8.96401687 16.06616024 8.25 14.6875 C7.72792969 13.65206055 7.72792969 13.65206055 7.1953125 12.59570312 C5.17794241 8.72907711 3.55069766 6.59904671 0 4 C0 2.68 0 1.36 0 0 Z " fill="#D5D5D5" transform="translate(954,373)"/>
<path d="M0 0 C0.99 0.33 1.98 0.66 3 1 C3.86407158 3.6100921 4.53685393 6.07746428 5.125 8.75 C5.29386719 9.46671875 5.46273437 10.1834375 5.63671875 10.921875 C6.49557331 14.60074806 7.28436516 18.29038267 8 22 C7.34 22 6.68 22 6 22 C3.10711152 14.73969251 1.13700865 7.73465096 0 0 Z " fill="#B1B1B1" transform="translate(106,905)"/>
<path d="M0 0 C5.56736474 4.63947062 7.94972324 13.83526189 8.8125 20.8125 C8.874375 21.864375 8.93625 22.91625 9 24 C7 23 7 23 6.23803711 21.31347656 C6.0035083 20.59643555 5.76897949 19.87939453 5.52734375 19.140625 C5.26759766 18.35429687 5.00785156 17.56796875 4.74023438 16.7578125 C4.47533203 15.93023437 4.21042969 15.10265625 3.9375 14.25 C3.66873047 13.43789062 3.39996094 12.62578125 3.12304688 11.7890625 C1.84864559 7.8864072 0.66861466 4.06121497 0 0 Z " fill="#D0D0D0" transform="translate(615,149)"/>
<path d="M0 0 C7.92 0 15.84 0 24 0 C23.67 0.66 23.34 1.32 23 2 C19.23699626 3.25433458 15.72789091 3.10695422 11.8125 3.0625 C11.06291016 3.05798828 10.31332031 3.05347656 9.54101562 3.04882812 C7.69397617 3.03706354 5.84697787 3.01912865 4 3 C4 2.34 4 1.68 4 1 C2.68 0.67 1.36 0.34 0 0 Z " fill="#EFEFEF" transform="translate(528,227)"/>
<path d="M0 0 C0.66 0 1.32 0 2 0 C2 0.66 2 1.32 2 2 C0.0051234 3.43991093 -1.96286446 4.73055989 -4.0625 6 C-4.62388672 6.35578125 -5.18527344 6.7115625 -5.76367188 7.078125 C-9.78846615 9.54359898 -13.46714038 10.89132605 -18 12 C-17 9 -17 9 -15.43359375 7.94091797 C-14.77488281 7.62783691 -14.11617187 7.31475586 -13.4375 6.9921875 C-12.36628906 6.47205078 -12.36628906 6.47205078 -11.2734375 5.94140625 C-10.14808594 5.41353516 -10.14808594 5.41353516 -9 4.875 C-4.17797859 2.88801494 -4.17797859 2.88801494 0 0 Z " fill="#B3B3B3" transform="translate(242,961)"/>
<path d="M0 0 C0 3.74893562 -0.80188892 4.26120732 -3.375 6.875 C-8.16251411 11.48393899 -13.9571422 15.81956562 -20.80078125 16.125 C-21.52652344 16.08375 -22.25226563 16.0425 -23 16 C-19 14 -19 14 -16.9921875 13.02734375 C-10.41975437 9.6441171 -5.31621629 5.09424484 0 0 Z " fill="#E8E8E8" transform="translate(224,918)"/>
<path d="M0 0 C0.66 0.33 1.32 0.66 2 1 C1.61328125 1.4125 1.2265625 1.825 0.828125 2.25 C-3.76155508 7.33954623 -6.83212862 12.49638587 -9 19 C-9.66 19 -10.32 19 -11 19 C-9.99115195 10.92921556 -5.86191764 5.32901604 0 0 Z " fill="#C4C4C4" transform="translate(163,863)"/>
<path d="M0 0 C0.99 0 1.98 0 3 0 C4.24609375 1.57421875 4.24609375 1.57421875 5.4375 3.6875 C8.78640958 9.74766389 8.78640958 9.74766389 14 14 C14 14.66 14 15.32 14 16 C9.27888724 15.17700198 7.46263765 12.24900611 4.75 8.5625 C4.06164062 7.6643457 4.06164062 7.6643457 3.359375 6.74804688 C0 2.28387742 0 2.28387742 0 0 Z " fill="#B8B8B8" transform="translate(818,474)"/>
<path d="M0 0 C-3.70290353 1.9503843 -7.55855046 3.50409505 -11.4375 5.0625 C-12.09298828 5.33126953 -12.74847656 5.60003906 -13.42382812 5.87695312 C-16.92451456 7.28495238 -20.26762772 8.41749103 -24 9 C-20.25 6 -20.25 6 -18 6 C-17.67 5.34 -17.34 4.68 -17 4 C-11.52378747 0.1722392 -6.54663442 -0.54555287 0 0 Z " fill="#EAEAEA" transform="translate(868,346)"/>
<path d="M0 0 C-5.75805063 3.45483038 -12.36220875 5.16569198 -19 6 C-19.66 5.34 -20.32 4.68 -21 4 C-18.93847611 3.35105763 -16.87573742 2.7059736 -14.8125 2.0625 C-13.66394531 1.70285156 -12.51539063 1.34320312 -11.33203125 0.97265625 C-3.735 -1.245 -3.735 -1.245 0 0 Z " fill="#8A8A8A" transform="translate(224,973)"/>
<path d="M0 0 C7.54226804 0.89484536 7.54226804 0.89484536 10.3125 1.53125 C13.68056716 2.11870357 16.89564338 2.09443324 20.3125 2.0625 C21.56675781 2.05347656 22.82101563 2.04445313 24.11328125 2.03515625 C25.06589844 2.02355469 26.01851562 2.01195312 27 2 C24.357706 4.642294 22.36838104 4.28928575 18.76757812 4.32226562 C17.95740234 4.31904297 17.14722656 4.31582031 16.3125 4.3125 C15.52166016 4.32861328 14.73082031 4.34472656 13.91601562 4.36132812 C8.526183 4.36577885 4.80949153 3.44015702 0 1 C0 0.67 0 0.34 0 0 Z " fill="#D4D4D4" transform="translate(174,932)"/>
<path d="M0 0 C0.99 0.33 1.98 0.66 3 1 C2.43410156 1.47050781 1.86820313 1.94101562 1.28515625 2.42578125 C0.18494141 3.35970703 0.18494141 3.35970703 -0.9375 4.3125 C-2.03384766 5.23482422 -2.03384766 5.23482422 -3.15234375 6.17578125 C-5.23820366 7.95975519 -5.23820366 7.95975519 -6 11 C-6.66 11 -7.32 11 -8 11 C-8.268125 11.969375 -8.53625 12.93875 -8.8125 13.9375 C-9.204375 14.948125 -9.59625 15.95875 -10 17 C-10.99 17.33 -11.98 17.66 -13 18 C-10.35234215 10.49830275 -5.66081109 5.3745903 0 0 Z " fill="#BFBFBF" transform="translate(863,394)"/>
<path d="M0 0 C0.66 0.33 1.32 0.66 2 1 C-0.70930617 5.44326212 -3.74012768 8.89853681 -7.51171875 12.484375 C-9.10278722 13.94925826 -9.10278722 13.94925826 -10 16 C-10.99 15.67 -11.98 15.34 -13 15 C-12.31292969 14.25234375 -11.62585938 13.5046875 -10.91796875 12.734375 C-10.0077189 11.73966898 -9.09756787 10.74487252 -8.1875 9.75 C-7.73568359 9.25886719 -7.28386719 8.76773438 -6.81835938 8.26171875 C-4.39181973 5.60492352 -2.09650029 2.92534924 0 0 Z " fill="#C6C6C6" transform="translate(259,943)"/>
<path d="M0 0 C0.66 0.33 1.32 0.66 2 1 C-2.96935315 5.70073946 -8.51397424 8.77440293 -15 11 C-15.66 10.67 -16.32 10.34 -17 10 C-16.30261719 9.58234375 -15.60523438 9.1646875 -14.88671875 8.734375 C-12.90556174 7.54407228 -10.92922801 6.3457157 -8.95703125 5.140625 C-7.91933594 4.51671875 -6.88164063 3.8928125 -5.8125 3.25 C-4.76707031 2.61578125 -3.72164062 1.9815625 -2.64453125 1.328125 C-1.77183594 0.88984375 -0.89914062 0.4515625 0 0 Z " fill="#D3D3D3" transform="translate(937,496)"/>
<path d="M0 0 C5.94 1.485 5.94 1.485 12 3 C12 8.94 12 14.88 12 21 C11.67 21 11.34 21 11 21 C10.67 15.72 10.34 10.44 10 5 C8.535625 4.731875 7.07125 4.46375 5.5625 4.1875 C3.06640625 3.73046875 3.06640625 3.73046875 1 3 C0.67 2.01 0.34 1.02 0 0 Z " fill="#989898" transform="translate(507,266)"/>
<path d="M0 0 C0.66 0 1.32 0 2 0 C1.1011656 7.20250197 0.12346276 12.95225461 -4 19 C-5.27182008 16.45635984 -4.82067275 15.75536947 -4.00390625 13.0859375 C-3.66069336 11.94511719 -3.66069336 11.94511719 -3.31054688 10.78125 C-3.06369141 9.9871875 -2.81683594 9.193125 -2.5625 8.375 C-2.31951172 7.57320312 -2.07652344 6.77140625 -1.82617188 5.9453125 C-1.22395927 3.96155332 -0.61281311 1.98051018 0 0 Z " fill="#D3D3D3" transform="translate(273,911)"/>
<path d="M0 0 C0 0.33 0 0.66 0 1 C-1.30324219 1.27263672 -1.30324219 1.27263672 -2.6328125 1.55078125 C-9.88521948 2.98680179 -9.88521948 2.98680179 -16.6875 5.75 C-17.8321875 6.36875 -17.8321875 6.36875 -19 7 C-19.66 6.67 -20.32 6.34 -21 6 C-14.33573556 0.11976667 -8.54812017 -0.30408333 0 0 Z " fill="#B2B2B2" transform="translate(188,854)"/>
<path d="M0 0 C0 0.66 0 1.32 0 2 C-2.4335567 3.3410005 -4.87135301 4.67294856 -7.3125 6 C-8.00279297 6.3815625 -8.69308594 6.763125 -9.40429688 7.15625 C-14.66015625 10 -14.66015625 10 -18 10 C-5.46666667 0 -5.46666667 0 0 0 Z " fill="#E2E2E2" transform="translate(508,109)"/>
<path d="M0 0 C6.30596952 1.10938353 11.37529486 2.93197901 17 6 C16.67 6.99 16.34 7.98 16 9 C10.66666667 6.33333333 5.33333333 3.66666667 0 1 C0 0.67 0 0.34 0 0 Z " fill="#B0B0B0" transform="translate(898,387)"/>
<path d="M0 0 C1.77746676 0.97222045 3.52689561 1.99689597 5.25 3.0625 C6.14203125 3.61035156 7.0340625 4.15820312 7.953125 4.72265625 C8.96632813 5.35494141 8.96632813 5.35494141 10 6 C8 7 8 7 4.3046875 5.78515625 C2.82514342 5.21866415 1.34867819 4.64408111 -0.125 4.0625 C-0.87910156 3.77181641 -1.63320313 3.48113281 -2.41015625 3.18164062 C-4.27608602 2.46125002 -6.1383958 1.73149596 -8 1 C-4.90704756 -0.87786398 -3.39554217 -1.33396299 0 0 Z " fill="#E5E5E5" transform="translate(921,347)"/>
<path d="M0 0 C0.99 0.33 1.98 0.66 3 1 C3 1.66 3 2.32 3 3 C3.92232422 3.03867187 3.92232422 3.03867187 4.86328125 3.078125 C11.54716981 3.54716981 11.54716981 3.54716981 14.0625 6.0625 C14.371875 6.701875 14.68125 7.34125 15 8 C11.48294042 7.34728444 8.10674923 6.48606976 4.6875 5.4375 C3.80449219 5.16808594 2.92148438 4.89867187 2.01171875 4.62109375 C1.34785156 4.41613281 0.68398437 4.21117187 0 4 C0 2.68 0 1.36 0 0 Z " fill="#E4E4E4" transform="translate(213,810)"/>
<path d="M0 0 C1.3274855 3.98245651 -0.00092171 6.44789543 -1.4375 10.1875 C-1.68048828 10.84169922 -1.92347656 11.49589844 -2.17382812 12.16992188 C-2.7743293 13.78303286 -3.38609203 15.3919435 -4 17 C-4.99 17 -5.98 17 -7 17 C-4.95452036 11.1646723 -2.94446499 5.44726023 0 0 Z " fill="#DEDEDE" transform="translate(812,390)"/>
<path d="M0 0 C0.66 0 1.32 0 2 0 C2 0.66 2 1.32 2 2 C2.66 2 3.32 2 4 2 C5.00508801 3.78881736 6.00392736 5.58114696 7 7.375 C7.8353125 8.87160156 7.8353125 8.87160156 8.6875 10.3984375 C10 13 10 13 10 15 C7 14 7 14 5.68359375 11.85546875 C5.27238281 10.97503906 4.86117187 10.09460938 4.4375 9.1875 C4.02371094 8.31480469 3.60992187 7.44210937 3.18359375 6.54296875 C2.79300781 5.70378906 2.40242187 4.86460937 2 4 C1.33782642 2.66442957 0.67286094 1.33021817 0 0 Z " fill="#B7B7B7" transform="translate(221,866)"/>
<path d="M0 0 C5.65253308 1.37031105 8.5113541 5.67689413 12 10 C11.67 10.66 11.34 11.32 11 12 C2.3690205 4.88610478 2.3690205 4.88610478 0 0 Z " fill="#C9C9C9" transform="translate(594,123)"/>
<path d="M0 0 C3.64824138 0.60943163 5.8159523 2.15450092 8.6875 4.4375 C9.47511719 5.05496094 10.26273438 5.67242187 11.07421875 6.30859375 C13 8 13 8 14 10 C10.42705968 8.67997942 7.36046508 7.10478612 4.1875 5 C3.39730469 4.484375 2.60710938 3.96875 1.79296875 3.4375 C1.20128906 2.963125 0.60960937 2.48875 0 2 C0 1.34 0 0.68 0 0 Z " fill="#E2E2E2" transform="translate(580,113)"/>
<path d="M0 0 C2.54359211 0.98072521 3.75272887 1.51405018 5.01171875 3.98828125 C5.34623047 5.13876953 5.34623047 5.13876953 5.6875 6.3125 C5.9246875 7.11171875 6.161875 7.9109375 6.40625 8.734375 C7.0375847 11.14341529 7.60330723 13.54050483 8 16 C7.34 16 6.68 16 6 16 C4.9955866 13.7101766 3.99632388 11.4183401 3 9.125 C2.71382813 8.47402344 2.42765625 7.82304688 2.1328125 7.15234375 C0 2.2265625 0 2.2265625 0 0 Z " fill="#E9E9E9" transform="translate(265,853)"/>
<path d="M0 0 C0.66 0 1.32 0 2 0 C3.00732399 1.93370231 4.00563288 3.87210306 5 5.8125 C5.8353125 7.43091797 5.8353125 7.43091797 6.6875 9.08203125 C8 12 8 12 8 15 C0 5.91891892 0 5.91891892 0 0 Z " fill="#EFEFEF" transform="translate(152,907)"/>
<path d="M0 0 C5.21688101 2.96413694 7.39080245 5.5808974 10 11 C10 11.66 10 12.32 10 13 C9.34 13 8.68 13 8 13 C6.30859375 10.91796875 6.30859375 10.91796875 4.4375 8.1875 C3.81746094 7.29417969 3.19742187 6.40085937 2.55859375 5.48046875 C1 3 1 3 0 0 Z " fill="#959595" transform="translate(255,840)"/>
<path d="M0 0 C0.66 0.33 1.32 0.66 2 1 C-2.29 5.29 -6.58 9.58 -11 14 C-11 9.82308582 -8.77013484 7.86318847 -6 5 C-4.05228995 3.24842937 -2.05675499 1.62627139 0 0 Z " fill="#1C1C1C" transform="translate(139,828)"/>
<path d="M0 0 C0.66 0 1.32 0 2 0 C0.59155282 3.21524305 -1.10344786 5.32183868 -3.625 7.75 C-4.57246094 8.67039062 -4.57246094 8.67039062 -5.5390625 9.609375 C-6.02117188 10.06828125 -6.50328125 10.5271875 -7 11 C-7.66 10.67 -8.32 10.34 -9 10 C-7.8758824 8.70756532 -6.75067408 7.41607925 -5.625 6.125 C-4.99851562 5.40570313 -4.37203125 4.68640625 -3.7265625 3.9453125 C-2.52573166 2.5923402 -1.2791655 1.2791655 0 0 Z " fill="#BCBCBC" transform="translate(952,482)"/>
<path d="M0 0 C0 0.66 0 1.32 0 2 C-1.95585325 3.00484204 -3.91476237 4.00373805 -5.875 5 C-6.96554687 5.556875 -8.05609375 6.11375 -9.1796875 6.6875 C-12 8 -12 8 -14 8 C-14 7.34 -14 6.68 -14 6 C-12.04414675 4.99515796 -10.08523763 3.99626195 -8.125 3 C-6.48917969 2.1646875 -6.48917969 2.1646875 -4.8203125 1.3125 C-2 0 -2 0 0 0 Z " fill="#7B7B7B" transform="translate(587,258)"/>
<path d="M0 0 C3.58102841 3.38208239 6.56773474 6.69676146 9 11 C8.67 11.99 8.34 12.98 8 14 C7.731875 13.195625 7.46375 12.39125 7.1875 11.5625 C6.795625 10.716875 6.40375 9.87125 6 9 C5.01 8.67 4.02 8.34 3 8 C0.2332241 5.02827774 0 4.25809375 0 0 Z " fill="#B6B6B6" transform="translate(606,135)"/>
<path d="M0 0 C3.9492568 0.55105909 7.34920174 1.38935371 11 3 C11 3.66 11 4.32 11 5 C12.32 5.33 13.64 5.66 15 6 C8.84777564 5.56826496 5.18082051 4.34594658 0 1 C0 0.67 0 0.34 0 0 Z " fill="#BEBEBE" transform="translate(517,223)"/>
<path d="M0 0 C0.33 0.66 0.66 1.32 1 2 C-0.109375 4.53125 -0.109375 4.53125 -1.75 7.5 C-2.28109375 8.4796875 -2.8121875 9.459375 -3.359375 10.46875 C-5 13 -5 13 -8 15 C-6.25565047 10.08410586 -3.74513488 3.74513488 0 0 Z " fill="#DDDDDD" transform="translate(967,460)"/>
<path d="M0 0 C3.465 1.98 3.465 1.98 7 4 C7 4.66 7 5.32 7 6 C8.65 6.33 10.3 6.66 12 7 C12.33 7.99 12.66 8.98 13 10 C8.03231242 8.44759763 3.82132943 5.48945219 0 2 C0 1.34 0 0.68 0 0 Z " fill="#EAEAEA" transform="translate(161,922)"/>
<path d="M0 0 C0.66 0.33 1.32 0.66 2 1 C1.01 1.7734375 1.01 1.7734375 0 2.5625 C-3.75333644 5.61208585 -7.37602035 8.7986681 -11 12 C-11 9 -11 9 -9.1015625 6.9921875 C-8.28429687 6.29351562 -7.46703125 5.59484375 -6.625 4.875 C-5.81289063 4.17117187 -5.00078125 3.46734375 -4.1640625 2.7421875 C-2 1 -2 1 0 0 Z " fill="#DFDFDF" transform="translate(520,151)"/>
<path d="M0 0 C3.5865054 1.33213058 6.87682483 2.76916059 10 5 C10 5.99 10 6.98 10 8 C5.56983933 6.60766379 3.08449737 4.43701135 0 1 C0 0.67 0 0.34 0 0 Z " fill="#959595" transform="translate(832,490)"/>
<path d="M0 0 C0.33 0 0.66 0 1 0 C1.02578125 1.04800781 1.0515625 2.09601563 1.078125 3.17578125 C1.13440858 4.55472902 1.19175588 5.93363365 1.25 7.3125 C1.26417969 8.00279297 1.27835938 8.69308594 1.29296875 9.40429688 C1.49857979 13.68433517 1.49857979 13.68433517 4.046875 16.98046875 C5.01367188 17.48513672 5.01367188 17.48513672 6 18 C4.02 18 2.04 18 0 18 C0 12.06 0 6.12 0 0 Z " fill="#F9F9F9" transform="translate(911,329)"/>
<path d="M0 0 C0 4.0333534 -1.60879918 5.83517538 -4 9 C-4.66 9 -5.32 9 -6 9 C-6.33 9.99 -6.66 10.98 -7 12 C-7.33 11.01 -7.66 10.02 -8 9 C-7.109375 7.24609375 -7.109375 7.24609375 -5.75 5.4375 C-5.31171875 4.83808594 -4.8734375 4.23867187 -4.421875 3.62109375 C-3 2 -3 2 0 0 Z " fill="#9F9F9F" transform="translate(473,137)"/>
<path d="M0 0 C-1.61992165 0.86375896 -3.24611861 1.71575854 -4.875 2.5625 C-6.23238281 3.27599609 -6.23238281 3.27599609 -7.6171875 4.00390625 C-8.40351562 4.33261719 -9.18984375 4.66132813 -10 5 C-10.66 4.67 -11.32 4.34 -12 4 C-9.75901219 -0.48197563 -4.44176902 -1.46097922 0 0 Z " fill="#C1C1C1" transform="translate(563,224)"/>
<path d="M0 0 C4.87664009 -0.34833144 7.77050005 0.58314288 12 3 C12 3.66 12 4.32 12 5 C10.37276701 4.54965877 8.74826336 4.08944646 7.125 3.625 C5.76761719 3.24214844 5.76761719 3.24214844 4.3828125 2.8515625 C2 2 2 2 0 0 Z " fill="#C0C0C0" transform="translate(568,109)"/>
<path d="M0 0 C0.66 0.33 1.32 0.66 2 1 C1.3503125 1.5878125 1.3503125 1.5878125 0.6875 2.1875 C-1.13858339 4.01043451 -1.13858339 4.01043451 -2.5 6.625 C-4 9 -4 9 -7 10 C-5.6062718 5.56541027 -3.39417765 3.12621626 0 0 Z " fill="#9D9D9D" transform="translate(129,836)"/>
<path d="M0 0 C0.66 0.33 1.32 0.66 2 1 C-1.28804981 3.91227269 -3.59885603 5.49701212 -8 6 C-5.54080489 3.3651481 -3.42227589 1.25483449 0 0 Z " fill="#F8F8F8" transform="translate(913,459)"/>
<path d="M0 0 C0 0.66 0 1.32 0 2 C-1.6796875 3.2890625 -1.6796875 3.2890625 -3.875 4.625 C-4.95394531 5.29402344 -4.95394531 5.29402344 -6.0546875 5.9765625 C-8 7 -8 7 -10 7 C-10 6.34 -10 5.68 -10 5 C-8.3203125 3.7109375 -8.3203125 3.7109375 -6.125 2.375 C-5.40570313 1.92898438 -4.68640625 1.48296875 -3.9453125 1.0234375 C-2 0 -2 0 0 0 Z " fill="#E0E0E0" transform="translate(244,961)"/>
<path d="M0 0 C0.33 0 0.66 0 1 0 C1.99 3.96 2.98 7.92 4 12 C3.34 12 2.68 12 2 12 C-0.60018816 8.09971775 -0.15085514 4.52565431 0 0 Z " fill="#989898" transform="translate(110,915)"/>
<path d="M0 0 C-3.03525486 2.02350324 -4.19426202 2.32124018 -7.6875 2.625 C-8.49574219 2.69976563 -9.30398437 2.77453125 -10.13671875 2.8515625 C-10.75160156 2.90054688 -11.36648437 2.94953125 -12 3 C-8.40198016 -0.59801984 -4.84291279 -0.09137571 0 0 Z " fill="#7C7C7C" transform="translate(169,814)"/>
<path d="M0 0 C0.66 0 1.32 0 2 0 C2 0.66 2 1.32 2 2 C2.5775 2.226875 3.155 2.45375 3.75 2.6875 C6.5663661 4.33038023 8.08077114 6.39533227 10 9 C6.55729549 7.46990911 3.81074178 5.5068778 1 3 C0.67 2.01 0.34 1.02 0 0 Z " fill="#D7D7D7" transform="translate(479,247)"/>
<path d="M0 0 C0.66 0.33 1.32 0.66 2 1 C-3.625 5.875 -3.625 5.875 -7 7 C-5.55609075 3.19333016 -3.65047197 1.73397418 0 0 Z " fill="#E8E8E8" transform="translate(937,496)"/>
<path d="M0 0 C1 3 1 3 -0.4375 6.1875 C-1.2109375 7.5796875 -1.2109375 7.5796875 -2 9 C-2.66 9 -3.32 9 -4 9 C-3.46930939 5.17902761 -2.50298434 2.93828597 0 0 Z " fill="#EBEBEB" transform="translate(464,149)"/>
<path d="M0 0 C0.66 0.33 1.32 0.66 2 1 C-1.75 6.875 -1.75 6.875 -4 8 C-3.40072174 4.64404172 -2.15377564 2.62198774 0 0 Z " fill="#B8B8B8" transform="translate(259,943)"/>
<path d="M0 0 C0 3.38023517 -0.87455622 5.83468937 -2 9 C-2.66 9 -3.32 9 -4 9 C-3.47731534 6.23723823 -2.89130413 3.6739124 -2 1 C-1.34 0.67 -0.68 0.34 0 0 Z " fill="#E7E7E7" transform="translate(156,873)"/>
<path d="M0 0 C3.26954202 0.56371414 4.82575883 1.49962266 7 4 C6.67 4.66 6.34 5.32 6 6 C3.96166576 4.7260411 1.96147874 3.38938077 0 2 C0 1.34 0 0.68 0 0 Z " fill="#CACACA" transform="translate(237,823)"/>
<path d="M0 0 C4.31392226 0.4793247 6.16569547 1.7457985 9 5 C4.68607774 4.5206753 2.83430453 3.2542015 0 0 Z " fill="#BFBFBF" transform="translate(228,818)"/>
<path d="M0 0 C0.99 0 1.98 0 3 0 C3.66 2.64 4.32 5.28 5 8 C4.01 7.67 3.02 7.34 2 7 C0.8125 3.4375 0.8125 3.4375 0 0 Z " fill="#C0C0C0" transform="translate(805,447)"/>
<path d="M0 0 C5.445 1.485 5.445 1.485 11 3 C10.67 3.66 10.34 4.32 10 5 C8.51793505 4.745504 7.03931385 4.47088238 5.5625 4.1875 C4.73878906 4.03667969 3.91507812 3.88585937 3.06640625 3.73046875 C2.38449219 3.48941406 1.70257813 3.24835938 1 3 C0.67 2.01 0.34 1.02 0 0 Z " fill="#F1F1F1" transform="translate(507,266)"/>
<path d="M0 0 C3.24208567 0.35049575 4.61527704 0.56221181 6.8125 3.0625 C7.204375 3.701875 7.59625 4.34125 8 5 C2.25 3.375 2.25 3.375 0 0 Z " fill="#999999" transform="translate(489,256)"/>
<path d="M0 0 C-2.8125 1.5625 -2.8125 1.5625 -6 3 C-6.99 2.67 -7.98 2.34 -9 2 C-8.67 1.34 -8.34 0.68 -8 0 C-4.71585695 -0.95067299 -3.30306592 -1.10102197 0 0 Z " fill="#9A9A9A" transform="translate(224,973)"/>
<path d="M0 0 C0.66 0.33 1.32 0.66 2 1 C0.68 3.64 -0.64 6.28 -2 9 C-3 5 -3 5 -1.5625 2.25 C-1.046875 1.5075 -0.53125 0.765 0 0 Z " fill="#9D9D9D" transform="translate(228,911)"/>
<path d="" fill="#FEFEFE" transform="translate(0,0)"/>
<path d="" fill="#FEFEFE" transform="translate(0,0)"/>
<path d="" fill="#FEFEFE" transform="translate(0,0)"/>
<path d="" fill="#FEFEFE" transform="translate(0,0)"/>
</svg>
