<?xml version="1.0" encoding="UTF-8"?>
<svg version="1.1" xmlns="http://www.w3.org/2000/svg" width="794" height="794">
<path d="M0 0 C262.02 0 524.04 0 794 0 C794 262.02 794 524.04 794 794 C531.98 794 269.96 794 0 794 C0 531.98 0 269.96 0 0 Z " fill="#E6E6E6" transform="translate(0,0)"/>
<path d="M0 0 C0.84054932 -0.00006042 1.68109863 -0.00012085 2.54711914 -0.00018311 C15.32396313 0.01289421 27.88671535 0.48237403 40.5625 2.1875 C41.79355469 2.331875 43.02460938 2.47625 44.29296875 2.625 C58.9716921 4.48264634 72.9256885 8.14479742 87 12.625 C88.17256348 12.99633057 89.34512695 13.36766113 90.55322266 13.75024414 C97.8102728 16.11282514 104.68160596 18.89663763 111.5625 22.1875 C113.37467086 23.02415078 115.18717437 23.86008139 117 24.6953125 C146.19979441 38.36036902 173.12651587 55.52874723 197.546875 76.609375 C200.35958215 79.01402101 203.22768496 81.32370405 206.125 83.625 C210.83757258 87.44879792 215.1132863 91.58393021 219.32836914 95.93920898 C221.69634356 98.37689001 224.09698283 100.68000624 226.7265625 102.828125 C228.98966172 104.7109238 230.78076954 106.42716184 232.625 108.6875 C235.86954219 112.50757073 239.36272902 115.99494065 242.9375 119.5 C247.77361786 124.26465491 252.17397491 129.19194374 256.39453125 134.51953125 C258.64279557 137.28631419 261.01001729 139.88959865 263.4375 142.5 C268.23916899 147.71920543 272.60699216 153.19437086 276.9296875 158.80859375 C279.91885571 162.68486287 283.09084674 166.40327006 286.296875 170.1015625 C287.5625 172.1875 287.5625 172.1875 287.5390625 174.19921875 C286.20831342 176.90862387 284.46853388 178.39978296 282.1875 180.375 C280.82625 181.55835938 280.82625 181.55835938 279.4375 182.765625 C275.78937602 185.83877292 272.11469011 188.87491362 268.40625 191.875 C265.4727411 194.26049076 262.57960675 196.68954169 259.6875 199.125 C254.03400933 203.84229004 248.23763276 208.35149577 242.37548828 212.80419922 C240.42953056 214.28895501 238.49352263 215.7860596 236.55859375 217.28515625 C227.41671978 224.35242182 218.12958249 231.1598727 208.63574219 237.74658203 C206.60851464 239.1555195 204.58895158 240.57488827 202.5703125 241.99609375 C187.17652575 252.77840845 171.06639082 262.21832586 154.5625 271.1875 C153.9118457 271.54440918 153.26119141 271.90131836 152.59082031 272.26904297 C135.13548576 281.84204844 117.3123434 289.4800818 98.5625 296.1875 C97.32983398 296.63270996 97.32983398 296.63270996 96.07226562 297.08691406 C78.67242157 303.3264009 60.78548254 307.2429327 42.5625 310.1875 C41.4590625 310.38214844 40.355625 310.57679688 39.21875 310.77734375 C30.36491576 312.27855079 21.52378085 312.88232289 12.5625 313.1875 C11.37213135 313.23052246 11.37213135 313.23052246 10.15771484 313.27441406 C-26.95376274 314.43898476 -61.0712422 301.96097044 -88.24609375 276.5625 C-114.97906999 250.45984359 -128.90407143 217.51924388 -129.6574707 180.34277344 C-130.06305013 141.94792059 -114.15155618 110.01327265 -88.0625 82.5 C-74.81680473 69.874712 -58.01595417 59.43399247 -40.4375 54.1875 C-39.47585938 53.85492188 -38.51421875 53.52234375 -37.5234375 53.1796875 C-6.49145455 42.78435822 29.85645131 44.42674293 59.3125 58.8125 C74.31841034 66.46313352 86.64149413 75.26649413 98.5625 87.1875 C99.18439209 87.79907959 99.80628418 88.41065918 100.44702148 89.04077148 C101.06262939 89.64864502 101.6782373 90.25651855 102.3125 90.8828125 C102.86550781 91.42824707 103.41851562 91.97368164 103.98828125 92.53564453 C106.83535998 95.5231344 109.19440292 98.81616968 111.5625 102.1875 C112.16835938 103.01507813 112.77421875 103.84265625 113.3984375 104.6953125 C124.68035396 120.7040398 132.66890914 139.77352412 135.5625 159.1875 C135.67335938 159.90035156 135.78421875 160.61320313 135.8984375 161.34765625 C137.61593838 174.87877803 137.03749261 188.81331635 134.5625 202.1875 C134.34464844 203.43273437 134.12679688 204.67796875 133.90234375 205.9609375 C129.09547801 231.86022505 116.25562886 253.84452954 98.5625 273.1875 C110.65087525 268.8446349 110.65087525 268.8446349 122.25390625 263.36328125 C124.5625 262.1875 124.5625 262.1875 127.64453125 260.8984375 C141.53409597 255.02229783 154.88815558 247.32154129 167.5625 239.1875 C168.81878922 238.41029275 170.07669603 237.63569605 171.3359375 236.86328125 C184.82763632 228.56879942 197.84140942 219.62073091 210.5625 210.1875 C211.14435059 209.75888672 211.72620117 209.33027344 212.32568359 208.88867188 C222.03902631 201.72754046 231.47821924 194.28603045 240.80273438 186.62695312 C243.24810005 184.62669286 245.71623903 182.65563 248.1875 180.6875 C251.68518467 177.89880547 255.1408368 175.06890059 258.5625 172.1875 C257.09239781 167.5622662 254.4216982 164.37554117 251.25 160.8125 C250.15876371 159.56648547 249.06762104 158.32038894 247.9765625 157.07421875 C247.41227539 156.43403809 246.84798828 155.79385742 246.26660156 155.13427734 C244.6048035 153.23582781 242.96687766 151.31951828 241.3359375 149.39453125 C235.48750281 142.51333903 229.46809075 135.93620939 223.01806641 129.61352539 C220.21001721 126.85731842 217.52964969 124.08215448 215 121.0625 C210.80693598 116.13616616 205.93934755 111.92202703 201.13427734 107.61083984 C199.61142997 106.23180906 198.10935588 104.83376317 196.61328125 103.42578125 C189.27599581 96.53801815 181.58943146 90.25380249 173.5625 84.1875 C172.82016113 83.62595215 172.07782227 83.0644043 171.31298828 82.48583984 C161.32671326 74.96272263 151.2876153 67.63211676 140.5625 61.1875 C139.79744141 60.72633789 139.03238281 60.26517578 138.24414062 59.79003906 C114.66728456 45.68979479 90.00810118 35.48817111 63.5625 28.1875 C62.85496582 27.98882324 62.14743164 27.79014648 61.41845703 27.58544922 C12.78435895 14.27714802 -42.57330791 20.44852766 -89.4375 37.1875 C-90.46343262 37.55311035 -91.48936523 37.9187207 -92.54638672 38.29541016 C-95.76577611 39.45287235 -98.9782321 40.62727727 -102.1875 41.8125 C-103.16372314 42.17255127 -104.13994629 42.53260254 -105.14575195 42.90356445 C-110.63697009 44.97924208 -115.88105077 47.31203941 -121.1015625 49.99560547 C-123.23815395 51.08578518 -125.38906737 52.11227966 -127.5703125 53.109375 C-137.50116981 57.6496162 -147.02063158 62.6643056 -156.4375 68.1875 C-157.2521875 68.66268066 -158.066875 69.13786133 -158.90625 69.62744141 C-167.71410403 74.7791738 -176.4661515 79.90560835 -184.61328125 86.0703125 C-187.56307347 88.28163668 -190.56702838 90.39771589 -193.58886719 92.50878906 C-201.71728308 98.18832779 -209.64835906 104.05028425 -217.4375 110.1875 C-218.28441406 110.85136719 -219.13132812 111.51523437 -220.00390625 112.19921875 C-226.36191589 117.2305169 -232.55006299 122.45893542 -238.71679688 127.72119141 C-240.44855917 129.19692415 -242.18492194 130.6671012 -243.921875 132.13671875 C-255.17758981 141.6858361 -266.05081912 151.54608067 -276.30102539 162.17553711 C-277.64377448 163.54907643 -279.03651406 164.87341333 -280.4375 166.1875 C-281.0975 166.1875 -281.7575 166.1875 -282.4375 166.1875 C-282.4375 166.8475 -282.4375 167.5075 -282.4375 168.1875 C-283.0975 168.1875 -283.7575 168.1875 -284.4375 168.1875 C-284.4375 168.8475 -284.4375 169.5075 -284.4375 170.1875 C-285.0975 170.1875 -285.7575 170.1875 -286.4375 170.1875 C-286.4375 170.8475 -286.4375 171.5075 -286.4375 172.1875 C-287.94140625 173.66796875 -287.94140625 173.66796875 -290 175.375 C-296.21558816 180.67138146 -301.72871726 186.40016938 -307.0546875 192.5859375 C-307.82320483 193.47602819 -308.60597119 194.35597119 -309.4375 195.1875 C-311.51012076 195.27517112 -313.58570294 195.29445873 -315.66015625 195.28515625 C-316.92021484 195.28193359 -318.18027344 195.27871094 -319.47851562 195.27539062 C-320.81901109 195.26703403 -322.15950588 195.25856907 -323.5 195.25 C-324.84439942 195.2449866 -326.1888006 195.24042342 -327.53320312 195.23632812 C-330.83467941 195.22449488 -334.13606803 195.20800971 -337.4375 195.1875 C-337.4375 193.1875 -337.4375 193.1875 -335.4296875 191.05078125 C-334.43429462 190.09426543 -333.4366311 189.14011039 -332.4375 188.1875 C-331.18767017 186.95428484 -329.94045716 185.71841423 -328.6953125 184.48046875 C-328.02113281 183.81080078 -327.34695313 183.14113281 -326.65234375 182.45117188 C-325.96269531 181.76603516 -325.27304687 181.08089844 -324.5625 180.375 C-323.88058594 179.70146484 -323.19867188 179.02792969 -322.49609375 178.33398438 C-319.20606175 175.05961919 -316.01198291 171.7545067 -312.98046875 168.23828125 C-309.05827368 163.68971743 -304.86868412 159.43486468 -300.625 155.1875 C-299.86251953 154.41277344 -299.10003906 153.63804687 -298.31445312 152.83984375 C-297.58548828 152.10894531 -296.85652344 151.37804687 -296.10546875 150.625 C-295.44828857 149.96371094 -294.7911084 149.30242187 -294.11401367 148.62109375 C-292.4375 147.1875 -292.4375 147.1875 -290.4375 147.1875 C-290.4375 146.5275 -290.4375 145.8675 -290.4375 145.1875 C-288.93359375 143.70703125 -288.93359375 143.70703125 -286.875 142 C-284.1121132 139.65470242 -281.47070243 137.27920595 -278.9375 134.6875 C-275.97014677 131.67336418 -272.86404708 128.88832667 -269.66015625 126.12890625 C-267.10773117 123.89945939 -264.61862486 121.60748618 -262.125 119.3125 C-256.72595437 114.39005977 -251.12356503 109.77199118 -245.4375 105.1875 C-243.64538601 103.70887533 -241.85372199 102.22970512 -240.0625 100.75 C-213.54157486 79.0850189 -185.42055004 59.74360543 -155.4375 43.1875 C-154.48206299 42.65842041 -154.48206299 42.65842041 -153.50732422 42.11865234 C-142.09515322 35.83766384 -130.39900874 30.33886222 -118.4375 25.1875 C-117.78072266 24.90277832 -117.12394531 24.61805664 -116.44726562 24.32470703 C-93.30132083 14.3812977 -68.4879088 7.84334002 -43.75 3.375 C-42.60450684 3.16794434 -41.45901367 2.96088867 -40.27880859 2.74755859 C-26.83076369 0.42298756 -13.60887283 -0.01501126 0 0 Z " fill="#020202" transform="translate(394.4375,218.8125)"/>
<path d="M0 0 C0.66 0 1.32 0 2 0 C2.31525635 0.56058105 2.6305127 1.12116211 2.95532227 1.69873047 C10.05647234 14.316487 17.22477695 26.8930118 24.47192383 39.42749023 C28.90678476 47.09904972 33.31527931 54.78507265 37.70092773 62.48486328 C40.15261575 66.78461826 42.62055058 71.07381828 45.1171875 75.34765625 C45.62217773 76.21334229 46.12716797 77.07902832 46.64746094 77.97094727 C47.60345998 79.6072979 48.5622609 81.24201618 49.52441406 82.87475586 C51.64592053 86.50745599 53.59286422 90.01575038 55 94 C48.64033311 94.27873973 43.29155206 93.38200187 37.1875 91.625 C36.27967773 91.36388428 35.37185547 91.10276855 34.43652344 90.83374023 C21.23194211 86.79519026 8.31720751 80.26695286 -2 71 C-2.77988281 70.33742188 -3.55976563 69.67484375 -4.36328125 68.9921875 C-9.1860748 64.80693276 -13.66543249 60.36886151 -18 55.6875 C-18.46905762 55.18387939 -18.93811523 54.68025879 -19.42138672 54.16137695 C-24.00428585 49.11782993 -24.00428585 49.11782993 -25 46 C-24.50750809 42.18831362 -23.31361418 39.3957184 -21.41015625 36.078125 C-20.61109863 34.67457764 -20.61109863 34.67457764 -19.79589844 33.24267578 C-19.22387695 32.25509277 -18.65185547 31.26750977 -18.0625 30.25 C-17.48145508 29.23534668 -16.90041016 28.22069336 -16.30175781 27.17529297 C-14.54328325 24.11169304 -12.7738283 21.05473171 -11 18 C-10.47970215 17.10249023 -9.9594043 16.20498047 -9.42333984 15.28027344 C-1.30857045 1.30857045 -1.30857045 1.30857045 0 0 Z " fill="#5098FA" transform="translate(330,416)"/>
<path d="M0 0 C35.97 0 71.94 0 109 0 C107.74325117 3.77024649 105.8413389 5.22180196 103 8 C102.05510667 9.13974421 101.11792211 10.28591198 100.1875 11.4375 C97.41672666 14.7322797 94.34601376 17.17321322 90.83203125 19.640625 C88.95304809 20.95713508 88.95304809 20.95713508 87.38671875 22.671875 C86 24 86 24 84 24 C84 24.66 84 25.32 84 26 C70.19026898 37.01863121 50.45425817 44.09935483 33 46 C31.741875 46.226875 30.48375 46.45375 29.1875 46.6875 C26 46 26 46 24.66186523 44.46069336 C20.15787384 37.40202959 15.99534614 30.16132639 11.875 22.875 C11.16567166 21.62612762 10.45603788 20.37742868 9.74609375 19.12890625 C8.40545872 16.77090821 7.06840038 14.41100982 5.73339844 12.04980469 C4.34467882 9.60644055 2.93262029 7.18011105 1.5078125 4.7578125 C0 2 0 2 0 0 Z " fill="#4DFAB8" transform="translate(379,465)"/>
<path d="M0 0 C8.27881432 7.14988509 9.06482106 23.65293979 10 34 C11.37493297 56.64367014 7.04102382 73.55726983 -1 95 C-18.49 95 -35.98 95 -54 95 C-50.10910569 85.27276422 -44.51790417 76.51803767 -39.03613281 67.62524414 C-36.02105994 62.71829021 -33.15374522 57.76770888 -30.4453125 52.68359375 C-28.42462692 48.93167215 -26.29720136 45.24258964 -24.17333984 41.54858398 C-22.34011606 38.35582757 -20.52364675 35.15513056 -18.734375 31.9375 C-14.86546475 24.98448503 -10.91315701 18.15966463 -6.57421875 11.484375 C-4.20879045 7.75134176 -2.08652129 3.89419872 0 0 Z " fill="#97FA4F" transform="translate(500,354)"/>
<path d="M0 0 C17.82 0 35.64 0 54 0 C43.34136235 19.5408357 32.42674089 38.89789539 21 58 C20.12102614 59.47391802 19.24211583 60.94787393 18.36328125 62.421875 C15.35437878 67.45912175 12.342849 72.48998904 9.1875 77.4375 C7.16556453 80.62379141 5.49379686 83.91963393 3.89453125 87.3359375 C3 89 3 89 1 91 C0.30251417 92.31747324 -0.36959957 93.64914193 -1 95 C-1.2475 94.05125 -1.495 93.1025 -1.75 92.125 C-2.88915482 88.09288367 -4.46582744 84.28449819 -6.09765625 80.4296875 C-7.02453009 77.93394929 -7.5214639 75.61896499 -8 73 C-8.16274414 72.40509766 -8.32548828 71.81019531 -8.49316406 71.19726562 C-10.389586 63.96863069 -10.34531046 56.8118829 -10.3125 49.375 C-10.31001251 48.70503998 -10.30752502 48.03507996 -10.30496216 47.34481812 C-10.2021156 29.47596388 -6.46467685 17.54698002 0 0 Z " fill="#B657FC" transform="translate(296,349)"/>
<path d="M0 0 C2.06274414 -0.23730469 2.06274414 -0.23730469 5.78930664 0.41503906 C8.32194953 2.93319361 9.83045233 5.894848 11.47680664 9.04003906 C12.49554652 10.86469987 13.51510946 12.68890135 14.53540039 14.51269531 C15.32213135 15.95346436 15.32213135 15.95346436 16.12475586 17.42333984 C17.83760374 20.50184351 19.62738069 23.52111787 21.44946289 26.53613281 C22.04863525 27.5285498 22.64780762 28.5209668 23.26513672 29.54345703 C24.43422739 31.4768727 25.60460684 33.40950974 26.77636719 35.34130859 C27.56394409 36.66364502 27.56394409 36.66364502 28.36743164 38.01269531 C28.83568359 38.79136963 29.30393555 39.57004395 29.78637695 40.37231445 C30.78930664 42.41503906 30.78930664 42.41503906 30.78930664 45.41503906 C-4.85069336 45.41503906 -40.49069336 45.41503906 -77.21069336 45.41503906 C-68.94805489 28.88976212 -48.64283601 14.68188615 -31.73022461 8.37207031 C-29.79915724 7.6385641 -27.90453745 6.80849492 -26.03100586 5.93847656 C-21.59083084 4.02288386 -17.00426968 3.13968206 -12.27319336 2.22753906 C-11.41790039 2.05029297 -10.56260742 1.87304688 -9.68139648 1.69042969 C-6.464222 1.05484754 -3.22193103 0.60489042 0 0 Z " fill="#FC589A" transform="translate(385.210693359375,286.5849609375)"/>
<path d="M0 0 C14.73040006 4.95155926 25.79894172 12.63318718 37.57543945 22.74072266 C38.63504883 23.58183594 38.63504883 23.58183594 39.71606445 24.43994141 C45.58152116 29.20851153 50.90069338 35.11353931 54.57543945 41.74072266 C54.21347913 46.03991548 52.40154831 49.17178874 50.2590332 52.86181641 C49.92428482 53.4430275 49.58953644 54.02423859 49.24464417 54.62306213 C48.17396399 56.478667 47.09374005 58.32849789 46.01293945 60.17822266 C45.31371804 61.38552659 44.61514494 62.59320623 43.91723633 63.80126953 C42.52110379 66.2163433 41.12147871 68.62934171 39.71948242 71.04101562 C36.30519416 76.92199874 32.94215717 82.83242431 29.57543945 88.74072266 C28.91543945 88.74072266 28.25543945 88.74072266 27.57543945 88.74072266 C27.19436035 88.04849609 26.81328125 87.35626953 26.4206543 86.64306641 C19.02999791 73.23521891 11.55659077 59.89353856 3.7956543 46.6953125 C-1.13389722 38.29231885 -5.90716356 29.80678887 -10.63183594 21.28710938 C-13.70199181 15.76238609 -16.84777798 10.30268628 -20.14526367 4.91015625 C-23.42456055 -0.6508804 -23.42456055 -0.6508804 -23.42456055 -4.25927734 C-17.51181745 -7.21564889 -6.15500325 -1.97106722 0 0 Z " fill="#FCB655" transform="translate(436.424560546875,293.25927734375)"/>
<path d="M0 0 C2.82424288 2.19022918 4.41508603 3.83017207 6 7 C6.25336371 11.47609215 6.29122998 15.07217718 4 19 C0.51971659 21.96847703 -2.62968606 22.5314181 -7.0703125 22.35546875 C-10.92213347 21.64592278 -13.04908605 19.26788527 -15.3125 16.25 C-16.38371186 12.74421573 -16.75302887 9.57346428 -16 6 C-12.56978621 -0.40126511 -6.76429516 -1.54451406 0 0 Z " fill="#606060" transform="translate(380,348)"/>
<path d="M0 0 C2.4375 1 2.4375 1 4 3 C4.55723448 7.38822151 4.77235685 9.71273859 2.5 13.5 C-1.22645843 15.73587506 -3.67911757 15.41151261 -8 15 C-11 13 -11 13 -11.43359375 10.9765625 C-11.44397323 4.7281161 -11.44397323 4.7281161 -9.4375 1.4375 C-6.07125891 -0.54771911 -3.84573483 -0.48071685 0 0 Z " fill="#FCFCFC" transform="translate(378,351)"/>
<path d="M0 0 C2.4375 1 2.4375 1 4 3 C4.33145271 5.75486103 4.18316636 8.20671304 4 11 C3.67 11 3.34 11 3 11 C2.855625 9.865625 2.71125 8.73125 2.5625 7.5625 C2.38828522 4.19222799 2.38828522 4.19222799 1 3 C-3.12795128 2.62418498 -3.12795128 2.62418498 -6.875 4.125 C-8.48515263 6.80858771 -8.26647742 8.93550972 -8 12 C-6.03177114 13.96822886 -2.65191291 13.66248381 0 14 C0 14.33 0 14.66 0 15 C-1.258125 15.04125 -2.51625 15.0825 -3.8125 15.125 C-4.52019531 15.14820313 -5.22789062 15.17140625 -5.95703125 15.1953125 C-8 15 -8 15 -11 13 C-11.89654899 8.81610469 -11.66512113 5.09079865 -9.4375 1.4375 C-6.07125891 -0.54771911 -3.84573483 -0.48071685 0 0 Z " fill="#CBCBCB" transform="translate(378,351)"/>
</svg>
