<?xml version="1.0" encoding="UTF-8"?>
<svg xmlns="http://www.w3.org/2000/svg" xmlns:xlink="http://www.w3.org/1999/xlink" width="76px" height="76px" viewBox="0 0 76 76" version="1.1">
<g id="surface1">
<path style=" stroke:none;fill-rule:nonzero;fill:rgb(90.196079%,90.196079%,90.196079%);fill-opacity:1;" d="M 0 0 C 25.078125 0 50.160156 0 76 0 C 76 25.078125 76 50.160156 76 76 C 50.921875 76 25.839844 76 0 76 C 0 50.921875 0 25.839844 0 0 Z M 0 0 "/>
<path style=" stroke:none;fill-rule:nonzero;fill:rgb(0.784314%,0.784314%,0.784314%);fill-opacity:1;" d="M 37.753906 20.945312 C 37.835938 20.945312 37.914062 20.945312 38 20.945312 C 39.222656 20.945312 40.425781 20.992188 41.636719 21.152344 C 41.753906 21.167969 41.871094 21.179688 41.996094 21.195312 C 43.398438 21.375 44.734375 21.722656 46.082031 22.152344 C 46.195312 22.1875 46.308594 22.222656 46.421875 22.261719 C 47.117188 22.488281 47.773438 22.753906 48.433594 23.066406 C 48.605469 23.148438 48.78125 23.226562 48.953125 23.308594 C 51.75 24.617188 54.324219 26.257812 56.664062 28.277344 C 56.933594 28.507812 57.207031 28.726562 57.484375 28.949219 C 57.9375 29.316406 58.34375 29.710938 58.75 30.128906 C 58.976562 30.359375 59.203125 30.582031 59.457031 30.785156 C 59.671875 30.96875 59.84375 31.132812 60.019531 31.347656 C 60.332031 31.714844 60.667969 32.046875 61.007812 32.382812 C 61.472656 32.839844 61.890625 33.308594 62.296875 33.820312 C 62.511719 34.085938 62.738281 34.335938 62.96875 34.585938 C 63.429688 35.082031 63.847656 35.609375 64.261719 36.144531 C 64.546875 36.515625 64.851562 36.871094 65.160156 37.226562 C 65.28125 37.425781 65.28125 37.425781 65.277344 37.617188 C 65.148438 37.878906 64.984375 38.019531 64.765625 38.210938 C 64.636719 38.324219 64.636719 38.324219 64.5 38.4375 C 64.152344 38.730469 63.800781 39.023438 63.445312 39.308594 C 63.164062 39.539062 62.886719 39.769531 62.613281 40.003906 C 62.070312 40.457031 61.515625 40.886719 60.953125 41.3125 C 60.769531 41.457031 60.582031 41.597656 60.398438 41.742188 C 59.523438 42.417969 58.632812 43.070312 57.726562 43.699219 C 57.53125 43.835938 57.335938 43.972656 57.144531 44.109375 C 55.671875 45.140625 54.128906 46.042969 52.550781 46.902344 C 52.488281 46.9375 52.425781 46.96875 52.359375 47.003906 C 50.691406 47.921875 48.984375 48.652344 47.1875 49.292969 C 47.070312 49.335938 47.070312 49.335938 46.949219 49.378906 C 45.285156 49.976562 43.574219 50.351562 41.828125 50.632812 C 41.722656 50.652344 41.617188 50.671875 41.507812 50.691406 C 40.660156 50.835938 39.816406 50.894531 38.957031 50.921875 C 38.84375 50.925781 38.84375 50.925781 38.726562 50.929688 C 35.175781 51.042969 31.910156 49.847656 29.308594 47.417969 C 26.75 44.917969 25.417969 41.765625 25.34375 38.207031 C 25.304688 34.53125 26.828125 31.472656 29.324219 28.839844 C 30.59375 27.632812 32.203125 26.632812 33.882812 26.132812 C 33.976562 26.097656 34.066406 26.066406 34.164062 26.035156 C 37.132812 25.039062 40.613281 25.195312 43.433594 26.574219 C 44.867188 27.304688 46.046875 28.148438 47.1875 29.289062 C 47.25 29.347656 47.308594 29.40625 47.371094 29.46875 C 47.429688 29.523438 47.488281 29.582031 47.546875 29.644531 C 47.601562 29.695312 47.652344 29.746094 47.707031 29.800781 C 47.980469 30.085938 48.207031 30.402344 48.433594 30.726562 C 48.492188 30.804688 48.550781 30.882812 48.609375 30.964844 C 49.6875 32.496094 50.453125 34.324219 50.730469 36.179688 C 50.742188 36.25 50.75 36.316406 50.761719 36.386719 C 50.925781 37.683594 50.871094 39.015625 50.632812 40.296875 C 50.613281 40.417969 50.59375 40.535156 50.570312 40.660156 C 50.113281 43.136719 48.882812 45.242188 47.1875 47.09375 C 48.347656 46.675781 48.347656 46.675781 49.457031 46.152344 C 49.675781 46.039062 49.675781 46.039062 49.972656 45.917969 C 51.300781 45.355469 52.582031 44.617188 53.792969 43.839844 C 53.914062 43.765625 54.035156 43.691406 54.15625 43.617188 C 55.445312 42.824219 56.691406 41.964844 57.910156 41.0625 C 57.964844 41.023438 58.019531 40.980469 58.078125 40.9375 C 59.007812 40.253906 59.910156 39.539062 60.804688 38.808594 C 61.039062 38.617188 61.273438 38.425781 61.511719 38.238281 C 61.84375 37.972656 62.175781 37.703125 62.503906 37.425781 C 62.363281 36.984375 62.109375 36.679688 61.804688 36.335938 C 61.699219 36.21875 61.59375 36.097656 61.492188 35.980469 C 61.4375 35.917969 61.382812 35.855469 61.328125 35.792969 C 61.167969 35.613281 61.011719 35.429688 60.855469 35.242188 C 60.296875 34.585938 59.71875 33.957031 59.101562 33.351562 C 58.832031 33.085938 58.578125 32.820312 58.335938 32.53125 C 57.933594 32.0625 57.46875 31.65625 57.007812 31.246094 C 56.859375 31.113281 56.71875 30.980469 56.574219 30.84375 C 55.871094 30.183594 55.136719 29.582031 54.367188 29.003906 C 54.296875 28.949219 54.226562 28.894531 54.152344 28.839844 C 53.195312 28.121094 52.234375 27.417969 51.210938 26.800781 C 51.136719 26.757812 51.0625 26.710938 50.988281 26.667969 C 48.730469 25.316406 46.371094 24.339844 43.839844 23.640625 C 43.769531 23.625 43.703125 23.605469 43.632812 23.585938 C 38.976562 22.3125 33.679688 22.902344 29.195312 24.503906 C 29.097656 24.539062 28.996094 24.574219 28.894531 24.609375 C 28.589844 24.71875 28.28125 24.832031 27.972656 24.945312 C 27.878906 24.980469 27.785156 25.015625 27.691406 25.050781 C 27.164062 25.25 26.664062 25.472656 26.164062 25.730469 C 25.957031 25.835938 25.753906 25.933594 25.542969 26.027344 C 24.59375 26.460938 23.683594 26.941406 22.78125 27.472656 C 22.703125 27.515625 22.625 27.5625 22.542969 27.609375 C 21.703125 28.101562 20.863281 28.59375 20.082031 29.183594 C 19.800781 29.394531 19.515625 29.597656 19.226562 29.800781 C 18.445312 30.34375 17.6875 30.902344 16.941406 31.492188 C 16.859375 31.554688 16.78125 31.617188 16.695312 31.683594 C 16.085938 32.164062 15.496094 32.664062 14.90625 33.167969 C 14.738281 33.3125 14.574219 33.453125 14.40625 33.59375 C 13.328125 34.507812 12.289062 35.449219 11.308594 36.46875 C 11.179688 36.597656 11.046875 36.726562 10.910156 36.851562 C 10.847656 36.851562 10.785156 36.851562 10.71875 36.851562 C 10.71875 36.914062 10.71875 36.976562 10.71875 37.042969 C 10.65625 37.042969 10.59375 37.042969 10.527344 37.042969 C 10.527344 37.105469 10.527344 37.167969 10.527344 37.234375 C 10.464844 37.234375 10.402344 37.234375 10.335938 37.234375 C 10.335938 37.296875 10.335938 37.359375 10.335938 37.425781 C 10.195312 37.566406 10.195312 37.566406 9.996094 37.730469 C 9.402344 38.238281 8.875 38.785156 8.363281 39.378906 C 8.289062 39.464844 8.214844 39.546875 8.136719 39.628906 C 7.9375 39.636719 7.738281 39.636719 7.539062 39.636719 C 7.417969 39.636719 7.300781 39.636719 7.175781 39.636719 C 7.046875 39.636719 6.917969 39.632812 6.789062 39.632812 C 6.660156 39.632812 6.53125 39.632812 6.402344 39.632812 C 6.089844 39.628906 5.773438 39.628906 5.457031 39.628906 C 5.457031 39.4375 5.457031 39.4375 5.648438 39.230469 C 5.742188 39.140625 5.839844 39.046875 5.933594 38.957031 C 6.054688 38.839844 6.171875 38.722656 6.292969 38.601562 C 6.355469 38.539062 6.421875 38.472656 6.488281 38.40625 C 6.554688 38.34375 6.621094 38.277344 6.6875 38.210938 C 6.753906 38.144531 6.820312 38.082031 6.886719 38.015625 C 7.199219 37.699219 7.507812 37.382812 7.796875 37.046875 C 8.171875 36.613281 8.574219 36.203125 8.980469 35.796875 C 9.050781 35.722656 9.125 35.648438 9.199219 35.574219 C 9.269531 35.503906 9.339844 35.433594 9.414062 35.363281 C 9.476562 35.296875 9.539062 35.234375 9.601562 35.171875 C 9.761719 35.03125 9.761719 35.03125 9.953125 35.03125 C 9.953125 34.96875 9.953125 34.90625 9.953125 34.839844 C 10.097656 34.699219 10.097656 34.699219 10.296875 34.535156 C 10.558594 34.3125 10.8125 34.085938 11.054688 33.835938 C 11.339844 33.546875 11.636719 33.28125 11.945312 33.015625 C 12.1875 32.804688 12.425781 32.585938 12.664062 32.363281 C 13.179688 31.894531 13.71875 31.453125 14.261719 31.011719 C 14.433594 30.871094 14.605469 30.730469 14.777344 30.585938 C 17.316406 28.515625 20.007812 26.664062 22.875 25.078125 C 22.96875 25.027344 22.96875 25.027344 23.0625 24.976562 C 24.152344 24.375 25.273438 23.847656 26.417969 23.355469 C 26.480469 23.328125 26.542969 23.300781 26.609375 23.273438 C 28.824219 22.320312 31.199219 21.695312 33.566406 21.265625 C 33.675781 21.246094 33.785156 21.226562 33.898438 21.207031 C 35.1875 20.984375 36.453125 20.941406 37.753906 20.945312 Z M 37.753906 20.945312 "/>
<path style=" stroke:none;fill-rule:nonzero;fill:rgb(31.37255%,59.607846%,98.039216%);fill-opacity:1;" d="M 31.585938 39.820312 C 31.648438 39.820312 31.714844 39.820312 31.777344 39.820312 C 31.808594 39.871094 31.839844 39.925781 31.871094 39.980469 C 32.550781 41.1875 33.234375 42.394531 33.929688 43.59375 C 34.355469 44.328125 34.777344 45.0625 35.195312 45.800781 C 35.429688 46.210938 35.667969 46.621094 35.90625 47.03125 C 35.953125 47.113281 36.003906 47.195312 36.050781 47.28125 C 36.144531 47.4375 36.234375 47.59375 36.328125 47.75 C 36.53125 48.097656 36.714844 48.433594 36.851562 48.816406 C 36.242188 48.84375 35.730469 48.757812 35.144531 48.589844 C 35.058594 48.5625 34.972656 48.539062 34.882812 48.511719 C 33.621094 48.125 32.382812 47.5 31.394531 46.613281 C 31.320312 46.550781 31.246094 46.488281 31.167969 46.421875 C 30.707031 46.023438 30.277344 45.597656 29.863281 45.148438 C 29.820312 45.101562 29.773438 45.050781 29.726562 45.003906 C 29.289062 44.519531 29.289062 44.519531 29.195312 44.222656 C 29.242188 43.855469 29.355469 43.589844 29.539062 43.273438 C 29.613281 43.136719 29.613281 43.136719 29.691406 43 C 29.746094 42.90625 29.800781 42.8125 29.859375 42.714844 C 29.914062 42.617188 29.96875 42.519531 30.027344 42.417969 C 30.195312 42.125 30.363281 41.832031 30.535156 41.542969 C 30.582031 41.457031 30.632812 41.371094 30.683594 41.28125 C 31.460938 39.945312 31.460938 39.945312 31.585938 39.820312 Z M 31.585938 39.820312 "/>
<path style=" stroke:none;fill-rule:nonzero;fill:rgb(30.19608%,98.039216%,72.156864%);fill-opacity:1;" d="M 36.277344 44.507812 C 39.71875 44.507812 43.164062 44.507812 46.710938 44.507812 C 46.589844 44.871094 46.40625 45.007812 46.136719 45.273438 C 46.046875 45.382812 45.957031 45.492188 45.867188 45.605469 C 45.601562 45.917969 45.308594 46.152344 44.972656 46.390625 C 44.792969 46.515625 44.792969 46.515625 44.640625 46.679688 C 44.507812 46.804688 44.507812 46.804688 44.316406 46.804688 C 44.316406 46.871094 44.316406 46.933594 44.316406 46.996094 C 42.996094 48.050781 41.105469 48.730469 39.4375 48.910156 C 39.316406 48.933594 39.195312 48.957031 39.070312 48.976562 C 38.765625 48.910156 38.765625 48.910156 38.636719 48.765625 C 38.207031 48.089844 37.808594 47.394531 37.414062 46.699219 C 37.347656 46.578125 37.277344 46.460938 37.210938 46.339844 C 37.082031 46.113281 36.953125 45.886719 36.824219 45.664062 C 36.691406 45.429688 36.558594 45.195312 36.421875 44.964844 C 36.277344 44.699219 36.277344 44.699219 36.277344 44.507812 Z M 36.277344 44.507812 "/>
<path style=" stroke:none;fill-rule:nonzero;fill:rgb(59.215689%,98.039216%,30.980393%);fill-opacity:1;" d="M 47.859375 33.882812 C 48.652344 34.570312 48.726562 36.148438 48.816406 37.136719 C 48.949219 39.304688 48.53125 40.925781 47.761719 42.976562 C 46.089844 42.976562 44.414062 42.976562 42.691406 42.976562 C 43.0625 42.046875 43.597656 41.207031 44.121094 40.355469 C 44.410156 39.886719 44.683594 39.414062 44.945312 38.925781 C 45.136719 38.566406 45.34375 38.214844 45.546875 37.859375 C 45.71875 37.554688 45.894531 37.25 46.066406 36.941406 C 46.4375 36.277344 46.8125 35.621094 47.230469 34.984375 C 47.457031 34.625 47.660156 34.257812 47.859375 33.882812 Z M 47.859375 33.882812 "/>
<path style=" stroke:none;fill-rule:nonzero;fill:rgb(71.372551%,34.117648%,98.823529%);fill-opacity:1;" d="M 28.332031 33.40625 C 30.039062 33.40625 31.742188 33.40625 33.5 33.40625 C 32.480469 35.277344 31.4375 37.128906 30.34375 38.957031 C 30.257812 39.097656 30.175781 39.238281 30.089844 39.378906 C 29.800781 39.863281 29.515625 40.34375 29.210938 40.816406 C 29.019531 41.121094 28.859375 41.4375 28.707031 41.765625 C 28.621094 41.925781 28.621094 41.925781 28.429688 42.117188 C 28.363281 42.242188 28.296875 42.371094 28.238281 42.5 C 28.214844 42.40625 28.1875 42.316406 28.164062 42.222656 C 28.054688 41.835938 27.90625 41.472656 27.75 41.105469 C 27.660156 40.863281 27.613281 40.644531 27.566406 40.394531 C 27.550781 40.335938 27.535156 40.277344 27.519531 40.21875 C 27.339844 39.527344 27.34375 38.84375 27.34375 38.132812 C 27.34375 38.066406 27.347656 38.003906 27.347656 37.9375 C 27.355469 36.226562 27.714844 35.085938 28.332031 33.40625 Z M 28.332031 33.40625 "/>
<path style=" stroke:none;fill-rule:nonzero;fill:rgb(98.823529%,34.509805%,60.392159%);fill-opacity:1;" d="M 36.871094 27.429688 C 37.070312 27.410156 37.070312 27.410156 37.425781 27.472656 C 37.667969 27.710938 37.8125 27.996094 37.96875 28.296875 C 38.066406 28.472656 38.164062 28.644531 38.261719 28.820312 C 38.339844 28.957031 38.339844 28.957031 38.414062 29.097656 C 38.578125 29.394531 38.75 29.683594 38.925781 29.972656 C 38.980469 30.066406 39.039062 30.160156 39.097656 30.257812 C 39.210938 30.445312 39.324219 30.628906 39.433594 30.8125 C 39.511719 30.941406 39.511719 30.941406 39.585938 31.070312 C 39.632812 31.144531 39.675781 31.21875 39.722656 31.296875 C 39.820312 31.492188 39.820312 31.492188 39.820312 31.777344 C 36.40625 31.777344 32.996094 31.777344 29.480469 31.777344 C 30.273438 30.195312 32.214844 28.835938 33.835938 28.234375 C 34.019531 28.164062 34.199219 28.082031 34.378906 28 C 34.804688 27.816406 35.242188 27.730469 35.695312 27.644531 C 35.777344 27.628906 35.859375 27.609375 35.945312 27.59375 C 36.253906 27.53125 36.5625 27.488281 36.871094 27.429688 Z M 36.871094 27.429688 "/>
<path style=" stroke:none;fill-rule:nonzero;fill:rgb(98.823529%,71.372551%,33.333334%);fill-opacity:1;" d="M 41.773438 28.070312 C 43.183594 28.542969 44.242188 29.28125 45.371094 30.246094 C 45.472656 30.328125 45.472656 30.328125 45.574219 30.410156 C 46.136719 30.867188 46.644531 31.429688 46.996094 32.066406 C 46.960938 32.476562 46.789062 32.777344 46.585938 33.128906 C 46.550781 33.1875 46.519531 33.242188 46.488281 33.296875 C 46.382812 33.476562 46.28125 33.652344 46.179688 33.832031 C 46.109375 33.945312 46.042969 34.0625 45.976562 34.175781 C 45.84375 34.410156 45.710938 34.640625 45.574219 34.871094 C 45.25 35.433594 44.925781 36 44.605469 36.5625 C 44.542969 36.5625 44.476562 36.5625 44.414062 36.5625 C 44.375 36.496094 44.339844 36.433594 44.300781 36.363281 C 43.59375 35.078125 42.878906 33.804688 42.136719 32.539062 C 41.664062 31.734375 41.207031 30.921875 40.757812 30.109375 C 40.460938 29.578125 40.160156 29.054688 39.84375 28.539062 C 39.53125 28.007812 39.53125 28.007812 39.53125 27.664062 C 40.097656 27.378906 41.183594 27.882812 41.773438 28.070312 Z M 41.773438 28.070312 "/>
<path style=" stroke:none;fill-rule:nonzero;fill:rgb(37.64706%,37.64706%,37.64706%);fill-opacity:1;" d="M 36.371094 33.308594 C 36.644531 33.519531 36.796875 33.675781 36.945312 33.980469 C 36.972656 34.410156 36.976562 34.753906 36.753906 35.128906 C 36.421875 35.414062 36.121094 35.464844 35.695312 35.449219 C 35.328125 35.382812 35.125 35.152344 34.90625 34.867188 C 34.804688 34.53125 34.769531 34.226562 34.839844 33.882812 C 35.167969 33.269531 35.726562 33.160156 36.371094 33.308594 Z M 36.371094 33.308594 "/>
<path style=" stroke:none;fill-rule:nonzero;fill:rgb(98.823529%,98.823529%,98.823529%);fill-opacity:1;" d="M 36.179688 33.597656 C 36.414062 33.691406 36.414062 33.691406 36.5625 33.882812 C 36.617188 34.304688 36.636719 34.527344 36.421875 34.890625 C 36.0625 35.101562 35.828125 35.070312 35.414062 35.03125 C 35.128906 34.839844 35.128906 34.839844 35.085938 34.648438 C 35.085938 34.050781 35.085938 34.050781 35.277344 33.734375 C 35.601562 33.542969 35.8125 33.550781 36.179688 33.597656 Z M 36.179688 33.597656 "/>
<path style=" stroke:none;fill-rule:nonzero;fill:rgb(79.607844%,79.607844%,79.607844%);fill-opacity:1;" d="M 36.179688 33.597656 C 36.414062 33.691406 36.414062 33.691406 36.5625 33.882812 C 36.597656 34.148438 36.582031 34.382812 36.5625 34.648438 C 36.53125 34.648438 36.5 34.648438 36.46875 34.648438 C 36.453125 34.542969 36.441406 34.433594 36.425781 34.320312 C 36.410156 34 36.410156 34 36.277344 33.882812 C 35.882812 33.847656 35.882812 33.847656 35.523438 33.992188 C 35.371094 34.25 35.390625 34.453125 35.414062 34.746094 C 35.605469 34.933594 35.925781 34.90625 36.179688 34.9375 C 36.179688 34.96875 36.179688 35 36.179688 35.03125 C 36.0625 35.035156 35.941406 35.039062 35.816406 35.042969 C 35.75 35.046875 35.679688 35.050781 35.609375 35.050781 C 35.414062 35.03125 35.414062 35.03125 35.128906 34.839844 C 35.042969 34.441406 35.066406 34.085938 35.277344 33.734375 C 35.601562 33.542969 35.8125 33.550781 36.179688 33.597656 Z M 36.179688 33.597656 "/>
</g>
</svg>
